<?xml version="1.0" encoding="UTF-8"?>
<!DOCTYPE svg PUBLIC "-//W3C//DTD SVG 1.1//EN" "http://www.w3.org/Graphics/SVG/1.1/DTD/svg11.dtd">
<!-- Creator: CorelDRAW 2018 (64-Bit) -->
<svg xmlns="http://www.w3.org/2000/svg" xml:space="preserve" width="8.5in" height="4.89764in" version="1.1" style="shape-rendering:geometricPrecision; text-rendering:geometricPrecision; image-rendering:optimizeQuality; fill-rule:evenodd; clip-rule:evenodd"
viewBox="0 0 8500 4897.64"
 xmlns:xlink="http://www.w3.org/1999/xlink">
 <defs>
  <style type="text/css">
   <![CDATA[
    .fil3 {fill:#C47E5A}
    .fil0 {fill:#D6863F;fill-rule:nonzero}
    .fil1 {fill:white;fill-rule:nonzero}
    .fil2 {fill:#C47E5A;fill-rule:nonzero}
   ]]>
  </style>
 </defs>
 <g id="Plan_x0020_1">
  <metadata id="CorelCorpID_0Corel-Layer"/>
  <g id="_3256271343008">
   <path class="fil0" d="M8440.78 3296.05c0,-44.69 -37.2,-81.46 -82.9,-81.46 -45.69,0 -82.81,36.78 -82.81,81.46 0,45.17 37.12,81.57 82.81,81.57 45.69,0 82.9,-36.4 82.9,-81.57z"/>
   <path class="fil1" d="M3457.28 1841.87c-5.6,-36.58 -16.71,-71.86 -33.46,-105.69 -16.7,-33.8 -37.46,-63.72 -62.1,-89.53 -24.69,-25.87 -52.71,-46.6 -84.18,-62.1 -31.45,-15.57 -65.53,-23.32 -102.09,-23.32 -47.8,0 -87.97,10.78 -120.64,32.25 -32.65,21.5 -58.91,48.79 -78.81,81.77 -19.94,33.04 -34.02,69.86 -42.37,110.5 -8.37,40.62 -12.56,80 -12.56,118.23 0,49.35 6.74,94.92 20.3,136.76 13.52,41.74 33.46,77.99 59.72,108.65 26.28,30.66 59.09,54.53 98.52,71.62 39.43,17.16 85.36,25.7 137.95,25.7 37.38,0 71.46,-5.52 102.09,-16.68 30.65,-11.19 58.14,-25.48 82.41,-43.03 24.26,-17.5 45.73,-37.2 64.45,-59.09 18.74,-21.88 35.26,-43.59 49.56,-65.12l28.67 29.84c-45.37,77.28 -101.49,136.58 -168.38,177.96 -66.83,41.41 -145.29,62.1 -235.28,62.1 -59.72,0 -114.63,-9.74 -164.79,-29.23 -50.13,-19.56 -93.55,-47.18 -130.2,-83.02 -36.59,-35.85 -65.23,-79.03 -85.96,-129.57 -20.7,-50.53 -30.99,-107.3 -30.99,-170.2 0,-62.05 10.69,-118.4 32.17,-168.93 21.54,-50.56 51.41,-93.75 89.57,-129.59 38.24,-35.84 83.99,-63.7 137.39,-83.59 53.31,-19.89 111.83,-29.83 175.53,-29.83 22.28,0 48.57,2.16 78.81,6.53 30.27,4.4 59.26,9.35 87.17,14.95 28.69,5.58 53.75,10.53 75.22,14.93 21.49,4.4 34.24,6.55 38.24,6.55 6.38,0 10.76,-0.39 13.17,-1.2 0,15.96 -0.46,31.28 -1.25,45.98 -0.8,14.76 -1.16,30.09 -1.16,45.98 0,33.44 1.16,66.72 3.54,99.72 2.39,33.04 5.57,66.26 9.56,99.72l-29.83 0z"/>
   <path class="fil1" d="M4068.7 1508.68c67.62,0 129.56,9.35 185.69,28.04 56.13,18.74 104.5,45.59 145.08,80.63 40.61,35.05 72.06,78.24 94.35,129.57 22.26,51.35 33.46,109.3 33.46,173.79 0,64.45 -11.19,122.39 -33.46,173.73 -22.3,51.35 -53.75,94.53 -94.35,129.56 -40.59,35.05 -88.95,61.94 -145.08,80.63 -56.13,18.69 -118.07,28.05 -185.69,28.05 -67.7,0 -129.57,-9.35 -185.71,-28.05 -56.11,-18.69 -104.5,-45.58 -145.12,-80.63 -40.57,-35.03 -72.02,-78.22 -94.3,-129.56 -22.35,-51.34 -33.46,-109.28 -33.46,-173.73 0,-64.49 11.11,-122.44 33.46,-173.79 22.28,-51.33 53.73,-94.52 94.3,-129.57 40.63,-35.04 89.01,-61.89 145.12,-80.63 56.13,-18.7 118,-28.04 185.71,-28.04zm0 42.99c-49.42,0 -92.14,9.95 -128.37,29.89 -36.26,19.89 -66.11,46.96 -89.59,81.2 -23.47,34.18 -40.8,73.44 -51.95,117.61 -11.17,44.16 -16.7,90.93 -16.7,140.34 0,48.56 5.54,95.1 16.7,139.72 11.15,44.61 28.48,83.98 51.95,118.23 23.48,34.24 53.33,61.31 89.59,81.2 36.23,19.88 78.95,29.86 128.37,29.86 49.33,0 92.12,-9.98 128.37,-29.86 36.23,-19.89 66.08,-46.96 89.57,-81.2 23.47,-34.24 40.8,-73.62 51.97,-118.23 11.11,-44.61 16.69,-91.16 16.69,-139.72 0,-49.41 -5.57,-96.18 -16.69,-140.34 -11.17,-44.17 -28.5,-83.43 -51.97,-117.61 -23.48,-34.23 -53.33,-61.3 -89.57,-81.2 -36.25,-19.94 -79.04,-29.89 -128.37,-29.89z"/>
   <path class="fil1" d="M4743.42 1692.59c0,-27.07 -1.61,-48.95 -4.79,-65.7 -3.19,-16.7 -9.35,-30.03 -18.53,-40 -9.17,-9.91 -22.04,-17.31 -38.79,-22.09 -16.7,-4.73 -38.64,-8.31 -65.71,-10.72l0 -28.67c23.13,1.6 49.75,3.19 79.99,4.79 30.29,1.59 64.11,2.41 101.55,2.41 37.44,0 75.04,-1.99 112.87,-5.99 37.77,-4 76.59,-5.97 116.44,-5.97 37.41,0 73.61,4.76 108.7,14.28 34.99,9.58 66.02,23.94 93.11,43.04 27.05,19.07 48.78,43.57 65.07,73.44 16.34,29.85 24.5,65.08 24.5,105.7 0,35.84 -7.36,66.66 -22.12,92.53 -14.76,25.88 -34.24,47.59 -58.51,65.13 -24.28,17.49 -51.74,30.42 -82.4,38.81 -30.64,8.31 -62.27,12.53 -94.92,12.53 -26.28,0 -52.75,-2 -79.43,-5.99 -26.66,-3.98 -52.37,-10.75 -77.05,-20.33l0 209c0,27.12 1.2,49.17 3.59,66.31 2.43,17.11 7.98,30.83 16.77,41.15 8.71,10.37 21.87,17.96 39.36,22.73 17.5,4.74 41.83,8.33 72.89,10.71l0 23.94c-34.24,-1.6 -68.26,-2.86 -102.09,-3.59 -33.87,-0.8 -67.95,-1.2 -102.14,-1.2 -36.65,0 -72.86,0.41 -108.65,1.2 -35.84,0.73 -71.68,1.99 -107.52,3.59l0 -23.94c29.46,-2.39 52.75,-5.98 69.86,-10.71 17.14,-4.78 29.87,-12.36 38.24,-22.73 8.38,-10.31 13.72,-24.04 16.13,-41.15 2.39,-17.15 3.58,-39.2 3.58,-66.31l0 -456.18zm159.99 210.19c12.77,5.59 27.3,10.32 43.59,14.31 16.35,3.99 32.09,5.98 47.18,5.98 54.14,0 95,-16.91 122.4,-50.76 27.47,-33.79 41.25,-76.57 41.25,-128.37 0,-25.47 -2.78,-49.12 -8.38,-71.05 -5.59,-21.89 -14.3,-40.98 -26.26,-57.32 -11.98,-16.29 -27.72,-29.06 -47.18,-38.24 -19.51,-9.12 -43.2,-13.66 -71.06,-13.66 -18.34,0 -35.83,1.59 -52.52,4.72 -16.77,3.23 -33.06,7.98 -49.02,14.37l0 320.04z"/>
   <path class="fil1" d="M5517.27 1692.59c0,-27.07 -1.59,-48.95 -4.79,-65.7 -3.19,-16.7 -9.35,-30.03 -18.52,-40 -9.17,-9.91 -22.06,-17.31 -38.81,-22.09 -16.69,-4.73 -38.62,-8.31 -65.69,-10.72l0 -28.67c23.13,1.6 49.75,3.19 80,4.79 30.26,1.59 64.11,2.41 101.55,2.41 37.44,0 75.04,-1.99 112.89,-5.99 37.76,-4 76.57,-5.97 116.39,-5.97 37.46,0 73.63,4.76 108.66,14.28 35.05,9.58 66.08,23.94 93.16,43.04 27.07,19.07 48.77,43.57 65.09,73.44 16.33,29.85 24.5,65.08 24.5,105.7 0,35.84 -7.36,66.66 -22.13,92.53 -14.75,25.88 -34.24,47.59 -58.51,65.13 -24.27,17.49 -51.74,30.42 -82.4,38.81 -30.66,8.31 -62.27,12.53 -94.92,12.53 -26.28,0 -52.75,-2 -79.43,-5.99 -26.66,-3.98 -52.37,-10.75 -77.05,-20.33l0 209c0,27.12 1.2,49.17 3.61,66.31 2.38,17.11 7.96,30.83 16.75,41.15 8.71,10.37 21.87,17.96 39.36,22.73 17.5,4.74 41.83,8.33 72.89,10.71l0 23.94c-34.25,-1.6 -68.26,-2.86 -102.11,-3.59 -33.85,-0.8 -67.91,-1.2 -102.11,-1.2 -36.63,0 -72.86,0.41 -108.66,1.2 -35.84,0.73 -71.68,1.99 -107.52,3.59l0 -23.94c29.46,-2.39 52.76,-5.98 69.86,-10.71 17.14,-4.78 29.85,-12.36 38.24,-22.73 8.36,-10.31 13.73,-24.04 16.11,-41.15 2.4,-17.15 3.6,-39.2 3.6,-66.31l0 -456.18zm159.99 210.19c12.78,5.59 27.3,10.32 43.59,14.31 16.37,3.99 32.09,5.98 47.18,5.98 54.12,0 95,-16.91 122.4,-50.76 27.45,-33.79 41.26,-76.57 41.26,-128.37 0,-25.47 -2.86,-49.12 -8.38,-71.05 -5.57,-21.89 -14.36,-40.98 -26.26,-57.32 -11.98,-16.29 -27.72,-29.06 -47.18,-38.24 -19.55,-9.12 -43.2,-13.66 -71.06,-13.66 -18.35,0 -35.84,1.59 -52.55,4.72 -16.75,3.23 -33.04,7.98 -49,14.37l0 320.04z"/>
   <path class="fil1" d="M6150.21 2284.94c27.07,-1.6 48.77,-4.96 65.06,-10.15 16.3,-5.18 28.83,-13.16 37.61,-23.87 8.77,-10.78 14.53,-24.5 17.31,-41.19 2.8,-16.76 4.23,-37.04 4.23,-60.92l0 -453.83c0,-22.3 -1.43,-41.77 -4.23,-58.52 -2.78,-16.7 -8.54,-30.6 -17.31,-41.77 -8.77,-11.17 -21.31,-19.71 -37.61,-25.7 -16.29,-5.99 -37.99,-9.35 -65.06,-10.14l0 -33.43c40.6,1.6 81.36,3.19 122.38,4.76 40.98,1.6 81.82,2.39 122.39,2.39 77.21,0 154.07,-0.79 230.48,-2.39 76.47,-1.57 154.47,-3.17 234.07,-4.76 -0.79,14.34 -1.12,28.65 -1.12,42.99l0 41.77c0,24.74 0.33,49.02 1.12,72.89 0.83,23.87 3.59,45.76 8.39,65.7l-26.28 4.74c-19.07,-60.52 -49.56,-106.05 -91.33,-136.7 -41.81,-30.65 -102.57,-45.99 -182.16,-45.99l-133.75 0 0 290.21 62.13 0c20.67,0 40.96,-2.64 60.9,-7.82 19.88,-5.19 38.43,-13.5 55.55,-25.06 17.12,-11.52 32.03,-26.85 44.76,-45.98 12.74,-19.09 22.26,-42.56 28.65,-70.43l23.92 0c-0.85,27.87 -1.8,56.13 -3,84.78 -1.2,28.68 -1.76,56.92 -1.76,84.78 0,28.67 0.56,57.09 1.76,85.37 1.2,28.3 2.15,56.75 3,85.4l-23.92 0c-6.39,-29.46 -15.51,-54.13 -27.46,-74.01 -11.9,-19.94 -25.87,-35.83 -41.77,-47.81 -15.96,-11.97 -34.07,-20.46 -54.37,-25.65 -20.25,-5.19 -42.37,-7.8 -66.25,-7.8l-62.13 0 0 354.69c19.09,5.59 40.43,9.76 63.89,12.56 23.46,2.77 49.57,4.14 78.23,4.14 78,0 148.48,-18.46 211.42,-55.49 62.85,-37.04 116.22,-94.54 159.98,-172.61l22.68 16.77c-19.88,42.22 -38.81,84.37 -56.69,126.56 -17.95,42.22 -33.69,85.63 -47.18,130.19 -62.13,-1.6 -123.81,-2.79 -185.13,-3.6 -61.31,-0.8 -122.96,-1.2 -185.07,-1.2l-111.07 0c-35.03,0 -67.45,0.24 -97.3,0.64 -29.87,0.39 -56.59,0.96 -80.07,1.77 -23.46,0.8 -42.78,1.58 -57.87,2.39l0 -28.67z"/>
   <path class="fil1" d="M6994.49 1527.8c29.46,1.59 58.33,2.8 86.61,3.58 28.19,0.81 60.3,1.2 96.12,1.2 42.97,0 85.98,-1.2 129,-3.59 42.97,-2.4 87.93,-3.58 134.93,-3.58 41.37,0 78.58,5.97 111.62,17.89 33.04,11.96 61.31,28.49 84.78,49.56 23.49,21.09 41.44,45.59 53.75,73.44 12.37,27.88 18.57,58.13 18.57,90.78 0,27.86 -4.62,52.36 -13.78,73.46 -9.19,21.07 -21.66,39.43 -37.54,54.91 -16.02,15.55 -34.72,28.49 -56.2,38.81 -21.5,10.37 -44.96,18.35 -70.5,23.87 16.76,27.13 37.44,59.15 62.12,96.19 24.67,36.97 51.96,72.81 81.81,107.46 29.87,34.65 61.9,65.07 96.13,91.33 34.24,26.26 69.29,42.62 105.13,48.96l0 21.53c-23.13,-1.6 -45.65,-2.79 -67.47,-3.58 -21.93,-0.82 -44.38,-1.2 -67.45,-1.2 -19.96,0 -39.88,0.38 -59.78,1.2 -19.88,0.79 -39.82,1.98 -59.7,3.58 -50.15,-53.34 -96.54,-109.06 -139.09,-167.17 -42.62,-58.13 -81.42,-119.04 -116.48,-182.75 -13.52,-1.59 -28.83,-3.98 -45.97,-7.19 -17.11,-3.17 -30.04,-7.91 -38.8,-14.28l0 206.61c0,27.05 1.01,48.94 2.96,65.65 1.99,16.74 7.17,29.84 15.55,39.42 8.37,9.57 20.52,16.53 36.42,20.92 15.9,4.37 37.83,7.73 65.69,10.14l0 28.66c-27.86,-1.6 -58.35,-2.79 -91.33,-3.58 -33.12,-0.82 -66.73,-1.2 -100.93,-1.2 -36.63,0 -72.87,0.38 -108.73,1.2 -35.75,0.79 -71.59,1.98 -107.43,3.58l0 -28.66c29.46,-2.41 52.7,-5.76 69.86,-10.14 17.07,-4.39 29.85,-11.35 38.22,-20.92 8.37,-9.58 13.72,-22.68 16.12,-39.42 2.41,-16.7 3.59,-38.59 3.59,-65.65l0 -453.85c0,-23.87 -1.18,-44.17 -3.59,-60.91 -2.4,-16.7 -7.75,-30.61 -16.12,-41.77 -8.37,-11.17 -21.15,-19.71 -38.22,-25.7 -17.16,-5.99 -40.4,-10.13 -69.86,-12.52l0 -26.28zm287.8 367.8c25.47,11.97 52.17,17.9 80.01,17.9 52.52,0 94.98,-14.69 127.17,-44.16 32.25,-29.46 48.36,-72.42 48.36,-128.94 0,-23.89 -3.75,-46.38 -11.34,-67.53 -7.5,-21.07 -18.44,-39.37 -32.81,-54.93 -14.37,-15.49 -31.45,-27.64 -51.34,-36.41 -19.93,-8.73 -42.23,-13.1 -66.9,-13.1 -15.89,0 -31.46,0.79 -46.6,2.32 -15.11,1.68 -30.59,5.27 -46.55,10.78l0 314.07z"/>
   <path class="fil1" d="M2749.15 3341.18c28.65,-2.39 51.33,-5.98 68.09,-10.78 16.67,-4.78 29.23,-12.31 37.54,-22.68 8.44,-10.31 13.77,-24.1 16.13,-41.19 2.44,-17.09 3.65,-39.2 3.65,-66.27l0 -444.27c0,-20.68 -1.82,-39.6 -5.41,-56.7 -3.61,-17.15 -9.93,-31.84 -19.11,-44.22 -9.17,-12.31 -21.91,-21.87 -38.23,-28.65 -16.29,-6.72 -37.21,-10.54 -62.66,-11.33l0 -26.28c73.21,0 146.89,-1.2 220.89,-3.58 74.08,-2.4 148.5,-3.6 223.37,-3.6 31.8,0 63.47,4.63 94.92,13.73 31.41,9.17 59.89,22.91 85.36,41.21 25.48,18.35 46.21,41.02 62.11,68.07 15.96,27.07 23.94,58.52 23.94,94.36 0,38.18 -12.37,71.23 -37.11,99.09 -24.63,27.93 -54.12,47.81 -88.3,59.72l0 2.41c23.88,4.79 47.12,13.33 69.86,25.7 22.66,12.31 42.72,27.46 60.28,45.35 17.54,17.88 31.45,38.23 41.83,60.91 10.3,22.68 15.5,47.18 15.5,73.44 0,39.83 -7.35,73.28 -22.11,100.35 -14.7,27.05 -35.22,48.71 -61.48,65.06 -26.28,16.3 -57.17,28.04 -92.56,35.22 -35.43,7.19 -73.84,10.77 -115.25,10.77 -25.48,0 -61.09,-1.98 -106.83,-5.97 -45.81,-3.99 -106.57,-6 -182.17,-6 -24.69,0 -46.39,0.23 -65.07,0.63 -18.7,0.41 -35.45,0.75 -50.15,1.2 -14.76,0.33 -28.25,0.73 -40.65,1.14 -12.33,0.41 -24.5,1.02 -36.38,1.83l0 -28.67zm285.39 -398.85c13.52,4.74 28.03,8.77 43.59,11.9 15.57,3.2 32.82,4.79 51.97,4.79 24.67,0 46.79,-4.16 66.27,-12.54 19.48,-8.36 36,-19.89 49.56,-34.65 13.52,-14.7 23.88,-32.02 31.05,-51.89 7.19,-19.91 10.74,-41.03 10.74,-63.32 0,-57.31 -15.93,-99.54 -47.76,-126.59 -31.87,-27.07 -75.29,-40.58 -130.22,-40.58 -12.69,0 -25.06,0.39 -37.02,1.13 -11.92,0.82 -24.67,1.67 -38.19,2.46l0 309.28zm0 361.82c19.09,8.76 38.64,15.17 58.52,19.15 19.9,3.98 40.17,5.92 60.92,5.92 55.68,0 101.08,-14.92 136.17,-44.78 34.99,-29.87 52.55,-73.46 52.55,-130.78 0,-31.79 -7.81,-62.28 -23.31,-91.33 -15.55,-29.06 -35.2,-53.5 -59.14,-73.44 -35.03,8.77 -68.88,13.1 -101.49,13.1 -27.86,0 -51.56,-1.31 -71.04,-4.15 -19.55,-2.8 -37.27,-7.35 -53.17,-13.72l0 320.04z"/>
   <path class="fil1" d="M3591.07 2584.03c29.46,1.59 58.29,2.79 86.54,3.6 28.28,0.8 60.28,1.2 96.12,1.2 43.04,0 86.05,-1.2 129,-3.6 42.97,-2.4 88,-3.6 134.94,-3.6 41.42,0 78.63,6 111.67,17.91 33.05,11.96 61.31,28.49 84.8,49.56 23.47,21.07 41.35,45.59 53.73,73.45 12.35,27.87 18.53,58.13 18.53,90.77 0,27.86 -4.64,52.36 -13.74,73.45 -9.18,21.08 -21.7,39.43 -37.62,54.92 -15.94,15.55 -34.64,28.49 -56.09,38.81 -21.56,10.37 -44.98,18.35 -70.5,23.88 16.75,27.12 37.42,59.14 62.1,96.18 24.67,36.97 51.95,72.82 81.82,107.46 29.85,34.65 61.87,65.07 96.12,91.35 34.2,26.26 69.24,42.63 105.07,48.95l0 21.54c-23.07,-1.6 -45.58,-2.8 -67.45,-3.59 -21.89,-0.81 -44.41,-1.19 -67.48,-1.19 -19.88,0 -39.82,0.39 -59.7,1.19 -19.96,0.79 -39.84,1.99 -59.74,3.59 -50.12,-53.34 -96.56,-109.06 -139.13,-167.17 -42.58,-58.13 -81.43,-119.04 -116.41,-182.75 -13.56,-1.6 -28.87,-3.98 -46,-7.19 -17.08,-3.18 -30.02,-7.91 -38.78,-14.3l0 206.61c0,27.05 0.95,48.94 2.94,65.64 2.01,16.75 7.19,29.85 15.52,39.43 8.41,9.58 20.5,16.52 36.46,20.91 15.9,4.38 37.83,7.74 65.69,10.15l0 28.65c-27.86,-1.6 -58.33,-2.8 -91.39,-3.59 -33.04,-0.81 -66.66,-1.19 -100.91,-1.19 -36.59,0 -72.82,0.39 -108.67,1.19 -35.78,0.79 -71.64,1.99 -107.46,3.59l0 -28.65c29.46,-2.41 52.69,-5.76 69.83,-10.15 17.1,-4.4 29.87,-11.33 38.2,-20.91 8.35,-9.58 13.72,-22.68 16.11,-39.43 2.44,-16.7 3.58,-38.59 3.58,-65.64l0 -453.85c0,-23.87 -1.14,-44.15 -3.58,-60.91 -2.39,-16.69 -7.75,-30.61 -16.11,-41.76 -8.33,-11.17 -21.1,-19.72 -38.2,-25.7 -17.14,-5.99 -40.38,-10.15 -69.83,-12.53l0 -26.28zm287.8 367.81c25.46,11.96 52.13,17.89 80,17.89 52.54,0 94.94,-14.7 127.17,-44.15 32.28,-29.46 48.38,-72.43 48.38,-128.94 0,-23.9 -3.75,-46.4 -11.33,-67.53 -7.57,-21.08 -18.52,-39.39 -32.86,-54.94 -14.33,-15.49 -31.46,-27.63 -51.34,-36.4 -19.9,-8.73 -42.19,-13.11 -66.91,-13.11 -15.88,0 -31.45,0.79 -46.56,2.33 -15.1,1.66 -30.64,5.24 -46.54,10.78l0 314.07z"/>
   <path class="fil1" d="M4400.72 3341.18c22.28,-2.39 40.79,-6.94 55.55,-13.73 14.7,-6.79 27.07,-15.72 37,-26.89 9.97,-11.11 18.68,-24.04 26.26,-38.8 7.56,-14.71 15.32,-31.62 23.3,-50.78l234.07 -545.75 -21.48 -57.32c25.46,-4.78 50.54,-10.52 75.22,-17.31 24.65,-6.72 48.53,-15.28 71.6,-25.65l259.21 703.43c9.5,25.47 26.27,43.98 50.12,55.5 23.88,11.56 48.15,17.31 72.84,17.31l0 28.67c-15.11,-0.81 -32.19,-1.6 -51.34,-2.39 -19.11,-0.81 -38.24,-1.37 -57.33,-1.78 -19.07,-0.41 -38.23,-0.63 -57.32,-0.63l-50.14 0c-33.44,0 -66.71,0.41 -99.71,1.2 -33.06,0.8 -66.33,2 -99.71,3.6l0 -28.67c41.36,-3.19 72.02,-9.92 91.89,-20.28 19.96,-10.37 29.87,-25.87 29.87,-46.6 0,-7.19 -1.37,-16.3 -4.17,-27.47 -2.8,-11.11 -6.39,-22.51 -10.72,-34.02 -4.44,-11.56 -8.78,-23.08 -13.15,-34.64 -4.41,-11.51 -8.17,-21.31 -11.36,-29.22l-40.61 -118.25 -237.62 0 -60.9 168.38c-4.06,11.17 -8.21,21.89 -12.56,32.26 -4.38,10.37 -6.59,23.47 -6.59,39.36 0,9.58 3.42,18.35 10.19,26.28 6.72,7.99 15.49,14.97 26.21,20.91 10.75,5.99 22.32,10.94 34.63,14.93 12.38,3.98 23.72,6.76 34.02,8.37l0 28.67c-25.46,-1.6 -51.16,-2.8 -76.97,-3.6 -25.87,-0.8 -51.57,-1.2 -77.03,-1.2 -23.88,0 -47.82,0.41 -71.64,1.2 -23.92,0.8 -47.8,2 -71.68,3.6l0 -28.67zm493.22 -355.89l-97.94 -279.42 -2.39 0 -103.89 279.42 204.22 0z"/>
   <path class="fil1" d="M5270.1 3341.18c37.43,-5.57 66.83,-11.57 88.35,-17.89 21.49,-6.39 37.79,-16.13 48.96,-29.3 11.11,-13.09 18.3,-30.48 21.48,-51.96 3.19,-21.48 4.85,-50.15 4.85,-85.99l4.73 -464.54c-10.31,-11.92 -22.1,-22.29 -35.22,-31.02 -13.16,-8.77 -26.88,-16.11 -41.19,-22.09 -14.34,-6 -29.06,-11.18 -44.21,-15.56 -15.11,-4.34 -30.24,-8.56 -45.35,-12.55l0 -28.66c20.69,1.61 41.58,3.2 62.68,4.78 21.08,1.6 42,2.39 62.73,2.39 54.93,0 108.99,-2.39 162.41,-7.18 79.57,98.76 160.21,195.11 241.82,289.01 81.59,93.95 160.21,191.51 235.88,292.59l2.34 0 0 -96.75c0,-38.97 -0.57,-79.36 -1.76,-121.2 -1.2,-41.77 -3.02,-82.39 -5.36,-121.82 -2.39,-39.37 -5.97,-72.66 -10.76,-99.73 -3.19,-20.67 -8.54,-37.6 -16.13,-50.69 -7.59,-13.17 -17.33,-23.94 -29.29,-32.25 -11.89,-8.39 -25.64,-14.77 -41.21,-19.17 -15.48,-4.32 -32.81,-8.14 -51.88,-11.33l0 -28.66c27.86,1.61 55.89,3.2 84.16,4.78 28.25,1.6 56.35,2.39 84.2,2.39 55.72,0 111.06,-2.39 165.98,-7.18l0 28.66c-31.06,1.61 -55.72,6 -74,13.16 -18.34,7.12 -32.07,19.1 -41.21,35.79 -9.16,16.76 -15.15,39.25 -17.95,67.52 -2.78,28.27 -4.15,64.29 -4.15,108.04l0 548.14 -70.5 0c-23.86,-36.58 -50.93,-75.6 -81.18,-116.97 -30.27,-41.43 -61.96,-83.02 -94.94,-124.85 -33.06,-41.76 -66.5,-82.95 -100.35,-123.59 -33.83,-40.57 -66.27,-78.8 -97.32,-114.63 -30.99,-35.83 -59.66,-68.67 -85.98,-98.52 -26.26,-29.86 -48.53,-54.3 -66.83,-73.44l0 404.84c0,40.63 1.53,73.04 4.79,97.32 3.13,24.32 10.14,43.59 20.85,57.94 10.76,14.3 26.45,24.89 47.18,31.63 20.69,6.79 48.53,12.94 83.6,18.51l0 28.67c-29.48,-1.6 -58.54,-2.8 -87.19,-3.6 -28.67,-0.8 -57.71,-1.2 -87.19,-1.2 -33.43,0 -66.08,0.41 -97.88,1.2 -31.86,0.8 -64.51,2 -97.94,3.6l0 -28.67z"/>
   <path class="fil1" d="M6975.42 2898.12c-5.55,-36.58 -16.68,-71.86 -33.43,-105.7 -16.77,-33.79 -37.43,-63.72 -62.1,-89.53 -24.67,-25.85 -52.75,-46.6 -84.16,-62.09 -31.51,-15.57 -65.52,-23.32 -102.17,-23.32 -47.76,0 -87.93,10.77 -120.56,32.26 -32.67,21.48 -58.93,48.79 -78.81,81.76 -19.94,33.05 -34.07,69.86 -42.39,110.5 -8.44,40.63 -12.54,80 -12.54,118.23 0,49.34 6.71,94.93 20.23,136.75 13.56,41.76 33.43,78 59.76,108.66 26.26,30.66 59.09,54.52 98.52,71.62 39.44,17.15 85.36,25.69 137.91,25.69 37.44,0 71.46,-5.52 102.09,-16.69 30.65,-11.18 58.12,-25.47 82.46,-43.02 24.21,-17.49 45.75,-37.2 64.51,-59.08 18.62,-21.89 35.2,-43.6 49.5,-65.13l28.67 29.86c-45.36,77.26 -101.49,136.57 -168.38,177.95 -66.89,41.42 -145.31,62.11 -235.28,62.11 -59.7,0 -114.63,-9.75 -164.77,-29.24 -50.16,-19.55 -93.57,-47.19 -130.2,-83.02 -36.65,-35.83 -65.29,-79.04 -86,-129.57 -20.67,-50.54 -30.99,-107.29 -30.99,-170.2 0,-62.03 10.72,-118.38 32.2,-168.93 21.48,-50.55 51.34,-93.75 89.57,-129.59 38.24,-35.83 83.99,-63.7 137.33,-83.57 53.33,-19.89 111.85,-29.86 175.55,-29.86 22.28,0 48.55,2.16 78.87,6.55 30.19,4.39 59.3,9.35 87.16,14.94 28.67,5.57 53.73,10.54 75.23,14.93 21.47,4.39 34.18,6.56 38.22,6.56 6.32,0 10.78,-0.41 13.1,-1.2 0,15.94 -0.37,31.27 -1.18,45.96 -0.81,14.77 -1.14,30.09 -1.14,45.99 0,33.45 1.14,66.73 3.52,99.72 2.39,33.04 5.6,66.27 9.58,99.72l-29.87 0z"/>
   <path class="fil1" d="M7105.57 3341.18c23.88,-1.61 43.76,-3.77 59.72,-6.55 15.88,-2.79 28.65,-8.39 38.22,-16.76 9.52,-8.37 16.3,-19.89 20.27,-34.65 4,-14.7 6,-34.4 6,-59.08l0 -465.75c0,-28.66 -1.02,-51.73 -2.97,-69.3 -2.05,-17.49 -7.17,-31.38 -15.55,-41.77 -8.37,-10.3 -20.72,-18.28 -37.04,-23.87 -16.29,-5.57 -38.41,-9.96 -66.27,-13.16l0 -28.66c68.45,4.78 137.33,7.18 206.63,7.18 69.21,0 137.7,-2.39 205.34,-7.18l0 28.66c-29.39,3.2 -52.92,7.59 -70.42,13.16 -17.49,5.59 -30.65,13.57 -39.44,23.87 -8.76,10.39 -14.28,24.28 -16.69,41.77 -2.39,17.56 -3.54,40.64 -3.54,69.3l0 157.61 396.42 0 0 -157.61c0,-28.66 -1.14,-51.73 -3.53,-69.3 -2.47,-17.49 -7.81,-31.38 -16.12,-41.77 -8.38,-10.3 -21.15,-18.28 -38.25,-23.87 -17.15,-5.57 -40.8,-9.96 -71.04,-13.16l0 -28.66c70.88,4.78 140.92,7.18 210.19,7.18 69.24,0 137.72,-2.39 205.34,-7.18l0 28.66c-29.39,3.2 -52.52,7.59 -69.21,13.16 -16.69,5.59 -29.25,13.57 -37.61,23.87 -8.39,10.39 -13.8,24.28 -16.15,41.77 -2.38,17.56 -3.58,40.64 -3.58,69.3l0 465.75c0,24.68 2.01,44.38 5.93,59.08 4,14.76 10.78,26.28 20.35,34.65 9.55,8.37 22.43,13.96 38.8,16.76 16.33,2.78 36.81,4.94 61.46,6.55l0 28.67c-34.16,-1.6 -68.65,-2.8 -103.23,-3.6 -34.64,-0.8 -69.07,-1.2 -103.31,-1.2 -34.24,0 -68.49,0.41 -102.71,1.2 -34.26,0.8 -68.51,2 -102.69,3.6l0 -28.67c23.88,-1.61 43.76,-3.77 59.72,-6.55 15.9,-2.79 28.83,-8.39 38.78,-16.76 9.97,-8.37 16.94,-19.89 20.85,-34.65 4,-14.7 6,-34.4 6,-59.08l0 -257.95 -396.42 0 0 257.95c0,24.68 1.94,44.38 5.94,59.08 3.98,14.76 10.93,26.28 20.92,34.65 9.91,8.37 23.05,13.96 39.37,16.76 16.29,2.78 36.46,4.94 60.34,6.55l0 28.67c-35.03,-1.6 -69.85,-2.8 -104.52,-3.6 -34.64,-0.8 -69.44,-1.2 -104.49,-1.2 -33.46,0 -67.06,0.41 -100.91,1.2 -33.85,0.8 -67.46,2 -100.91,3.6l0 -28.67z"/>
   <path class="fil1" d="M8187.23 2564.94l0 14.81 48.9 0 0 141.24 18.99 0 0 -141.24 48.87 0 0 -14.81 -116.76 0zm267.81 0l-43.13 115.27 -0.62 0 -43.82 -115.27 -34.93 0 0 156.06 18.9 0 0 -139.76 0.65 0 53 139.76 12.36 0 52.94 -139.76 0.72 0 0 139.76 18.93 0 0 -156.06 -34.99 0z"/>
   <path class="fil2" d="M2207.88 3113.39c-7.18,5.03 -9.13,12.74 -14.39,17.25 -160.28,125.63 -375.76,121.76 -537.74,25.97 -229.73,-135.85 -286.4,-427.39 -244.31,-674.1 11.63,-68.24 32.99,-134.1 67.26,-194.76 18.04,-31.92 38.3,-67.15 44.11,-74.36 9.15,-11.73 20.26,-21.23 32.08,-30.36 55.86,-18.05 135.19,-21.01 179.59,-7 1.5,-0.58 3.52,-1.39 5.26,-2.13 39,-4.63 59.88,15.81 75.66,43.56 -24.06,-21.31 -115.67,-37.62 -109.1,24.96 2.67,26.28 28.17,28.72 50.52,34.66 25.74,6.75 55.35,5.65 81.09,13.81 26.45,8.18 47.19,29.92 43.8,60.06 -0.35,3.64 -4.8,15.81 -8.36,17.68 -4.61,2.45 -7.55,-2.46 -13.55,0 -17.51,6.67 -5.91,31.69 0.07,23.08 2.54,0.73 5.09,1.48 7.65,2.22 4.75,-6.98 14.85,-13.35 20.98,-21.37 43.36,-54.98 23.43,-131.04 -8.66,-184.56 -19.4,-31.86 -50.67,-49.37 -81.3,-68.63 -27.11,-17.35 -94.78,-33.31 -100.33,20.36 -26.94,-2.38 -66.96,-6.8 -95.64,-3.66 108.79,-81.3 223.31,-128.7 350.29,-107.67 15.21,2.52 30.01,8.77 43.72,22.61 2.74,0.88 4.83,2.29 7.37,3.11 8.94,15.46 15.13,33.86 16.7,49.97 1.81,16.79 -11.74,33.5 -6.69,47.95 33.5,-9.79 42.17,-45.34 34.73,-73.11 24.65,16.93 45.34,37.78 61.63,63.55 17.56,27.76 17.95,57.98 18.94,88.41 -4.62,25.24 0.85,55.7 9.93,68.98 -23.67,-17.25 -27.65,-40.15 -31.69,-69.19 -3.09,-19.09 -0.72,-55.83 -25.72,-57.99 -58.39,-5.27 -50.82,67.7 -37.11,98.08 23.31,50.66 43.24,90.67 95.19,116.93 40.84,20.54 100.19,31.91 142.7,5.5 8.5,-5.12 15.98,-14.2 23.72,-18.19 -0.35,-2.52 -0.71,-5.06 -1.08,-7.59 9.37,-5.03 -13.91,-20.11 -22.84,-3.26 -3.26,5.72 1.37,9.21 -1.68,13.44 -2.16,3.43 -15.05,6.25 -18.8,6.17 -29.91,-0.67 -48.77,-23.98 -53.39,-51.6 -4.6,-26.8 0.43,-56.05 -3.03,-82.91 -2.8,-22.72 -1.87,-48.64 -27.53,-54.72 -3.61,-0.81 -7.09,-1.35 -10.38,-1.35 -3.53,-47.8 -24.63,-95.33 -61.19,-128.2 -12.31,-11.07 -26.66,-21.24 -42.38,-30.52 5.48,1.11 11.03,1.47 16.36,2.89 56.28,14.54 128.27,43.01 179.61,69.87 32.71,16.92 63.21,37.49 90.15,62.06 11.75,10.64 23.42,21.52 34.93,32.94 -10.08,-45.97 -19.96,-70.26 -35.14,-114.06 -2.49,-1.52 -5.04,-2.99 -7.67,-4.35 -25.54,-13.08 -45.75,-35.61 -71.91,-47.76 -11.25,-5.06 -15.71,-24.5 -12.47,-38.3 23.81,-17.16 24.33,-24.85 40.39,-49.92 -5.18,-10.93 -10.5,-21.76 -16,-32.51 -4.79,7.91 -9.47,15.85 -14.45,23.67 -9.76,15.68 -42.91,43.76 -50.37,59.35 -9.53,15.25 -36.69,-5.72 -43.76,-12.61 55.18,-30.95 48.81,-34.76 91.77,-80.37 2.41,-2.59 5,-5.26 7.38,-8.08 -5.89,-11.06 -11.94,-22.01 -18.16,-32.85 -7.21,34.16 -58.62,67.3 -87.17,81.31 -21.18,10.31 -43.47,10.78 -65.52,14.64 -102.09,21.4 -152.81,-29.54 -312.49,8.53 -6.27,-0.07 -19.2,6.39 -19.91,0.07 34.07,-26.39 21.81,-67.86 -18.94,-98.58 -3.32,-2.38 -9.73,-4.09 -17.87,-2.54 1.59,6.61 5.64,8.56 6.79,12.35 15.68,56.34 -23.21,60.98 -32.57,91.53 -53.01,47.53 -84.26,56.98 -135.8,94.8 -133.73,98.59 -120.31,135.78 -204.74,234.77 -5.46,6.06 -15.99,1.69 -16.42,-6.69 86.89,-314.96 360.18,-550.54 574.46,-562.02 22.85,-1.32 46.2,-2.89 69.85,2.31 17.94,3.86 34.72,8.67 49.59,18.27 16.42,10.6 31.11,23.67 34.29,45.27 1.02,5.6 4.11,9.89 10.82,9.27 8.13,-16.46 5.89,-33.83 5.97,-50.61 0,-2.67 -0.37,-5.56 -1.37,-7.94 -24.89,-64.13 -107.49,-99.76 -169.08,-87.15 -25.5,5.22 -55.42,18.38 -60.37,9.5 45.5,-20.31 75.23,-116.37 79.42,-160.29 0.02,-0.48 0.01,-1 -0.02,-1.51 -25.78,-19.65 -52.41,-38.24 -79.78,-55.76 0.25,17.44 0.09,34.87 -4.32,52.24 -18.87,69.63 -28.98,103.95 -83.18,155.67 -4.04,3.85 -8.33,7.8 -12.87,11.87 -30.09,24.87 -54.8,42.13 -89.96,57.4 -7.57,-18.79 -7.19,-39.95 3.98,-59.31 3.3,-5.93 14.83,-20.05 21.9,-33.94 7.43,-4.59 14.48,-11.06 19.03,-16.63 13.91,-16.79 22.55,-38.09 18.67,-59.9 -7.84,-51.24 -65.52,-105.2 -119.4,-98.36 -21.49,2.65 -45.06,20.11 -42.39,43.72 4.04,36.44 49.66,4.95 33.66,-6.46 0.12,-1.7 0.24,-3.42 0.36,-5.12 -1.22,-11.36 15,-9.12 19.96,-3.04 5.18,6.3 4.38,21.45 3.25,28.87 -3.98,23.07 -24.08,42.62 -25.8,64.67 -1.96,24.87 23.91,39.42 41,17.89 13.04,-16.48 12.33,-44.98 -1.37,-59.98 2.23,-0.75 4.77,-5.44 7.07,-5.04 16.72,11.57 24.72,34.87 18.39,56.43 -4.84,17 -24.09,31.33 -4.47,45.8 1.65,1.25 3.23,1.77 5.11,2.74 -9.95,18.57 -24.21,36.46 -30.78,59.16 -3.3,10.31 -7.85,29.86 -5.69,44.79 -1.28,0.57 -2.67,1.24 -4.09,1.76 -12.77,18.72 -31.44,31.78 -48.72,45.66 -169.69,123.42 -233.85,241.61 -297.08,442.47 -2.22,3.79 -12.25,0.31 -9.66,-47.28 0.34,-7.49 1.59,-24.43 2.68,-31.48 9.8,-64.73 20.07,-182.19 37.74,-241.11 9.08,-30.35 28.1,-59.61 47.42,-79.64 11.31,-11.73 23.7,-22.24 38.43,-30.63 15.79,-9.37 38.06,-6.3 54.13,0.24 5.99,-12.51 1.78,-31.65 -14.51,-39.63 -43.87,-21.46 -76.76,27.06 -92.02,23.25 -2.22,-2.38 5.28,-20.31 4.26,-20.99 35,-102.18 60.23,-266.25 126.72,-341.81 62.02,-70.27 97.99,-36.13 138.79,-58.8 -6.91,-15.59 -16.85,-25.54 -31.19,-30.74 -36.86,-12.83 -88.63,-18.11 -119.71,12.19 -3.9,3.92 -7.86,8 -11.54,11.51 -14.57,3.42 -19.86,-3.65 -19.12,-14.32 1.34,-19.01 0.62,-35.35 -3.6,-60.84 -10.46,-1.83 -20.99,-3.46 -31.55,-5 0.86,1.64 1.65,3.39 2.31,5.25 16.05,20.77 10.21,61.94 10.16,62.44 -3.33,28.92 17.87,46.31 -7.8,71.49 -9.63,-6.96 -14.94,-29.27 -18.31,-54.87 -4.15,-31.63 0.87,-60.61 -7.93,-87.31 -0.76,-0.08 -1.52,-0.19 -2.28,-0.29 -0.14,0 -0.3,-0.02 -0.45,-0.04 -6.96,-0.85 -13.94,-1.66 -20.95,-2.41 -0.15,0 -0.3,-0.04 -0.46,-0.04 -1.68,-0.17 -3.35,-0.35 -5.03,-0.52 0.46,0.94 1,1.81 1.65,2.57 15.46,19.49 2.63,156.53 -3.53,188.74 -18.3,103.44 -50.44,160.84 -73.72,260.72 -7.35,-32.28 -27.82,-51.22 -48.72,-75.88 -5.15,-6.37 -10.21,-10.85 -15.28,-14.62 1.26,-2.76 2.13,-5.8 2.34,-9 1.87,-30.52 -48.98,-38.38 -71.5,-50.55 -30.2,-8.75 -65.82,-55.08 -36.71,-70.52 -7,24.27 28.83,47.88 51.94,56.11 10.11,3.5 36.61,13.28 46.5,10.46 9.26,-2.73 17.1,-23.9 18.07,-32.21 4.04,-32.52 -42.2,-42.31 -68.04,-55.9 -28.68,-15.05 -50.67,-44.41 -45.19,-71.64 0.21,-2.22 1,-4.77 1.91,-7.42 3.72,1.99 7.79,3.63 12.4,3.63 14.82,0 26.93,-12.23 26.93,-27.31 0,-14.93 -12.11,-26.95 -26.93,-26.95 -12.71,0 -22.92,9 -25.74,20.71 -116.08,96.59 -79.53,289.43 36.78,292.72 15.8,-0.19 38.55,-3.99 55.7,-12.39 18.81,25.18 29.54,59.71 36.47,85.54 8.47,31.56 13.4,65.33 11.02,98.08 -2.5,38.73 -16.78,97.63 -23.89,142.54 -3.24,20.47 -28.98,132.19 -55.34,111.14 -11.41,-7.83 -26.69,-89.43 -31.18,-113.16 -9.46,-50.02 -28.24,-109.19 5.12,-139.02 18.21,-26.33 -67.92,-16.45 -54.78,69.44 -0.59,-0.59 -1.06,-1.31 -1.48,-2.13 -9.01,-14.18 -20.46,-26.81 -30.75,-40.37 -10.05,-13.23 -20.71,-26.37 -29.34,-40.55 -36.54,-60.53 -119.76,-200.31 -121.72,-259.57 -1.06,-16.72 -1.84,-32.48 -1.7,-48.09 0.24,-24.46 2.83,-48.61 10.46,-75.81 10.37,-37.35 43.7,-75.12 74.05,-100.45 2.95,-2.53 8.61,-10.9 -1.38,-9.8 -48.81,6.19 -89.35,54.31 -107.71,97.92 -3.78,-16.21 9.27,-92.8 16.58,-110.01 -31.16,9.74 -61.73,20.77 -91.72,32.98 -1.99,20.02 -6.02,87 -1.81,112.37 -7.18,5.57 -12.58,-2.22 -20.22,-6.32 -36.67,-19.96 -84.37,-17.15 -113.37,18.2 -4.05,4.83 -6.02,11.07 -10.96,20.42 10.88,-3.85 17.52,-6.01 23.89,-8.45 23.35,-8.54 42.43,-8.11 63.14,-1.99 54.56,15.07 109.28,136.37 120.4,182.68 1.28,0.97 1.46,3.72 1.76,5.58 1.62,10.84 -2.16,18.86 -12.36,23.84 -52.85,-28.96 -107.33,-47.12 -165.04,-58.73 -12.54,-2.74 -23.97,-7.64 -34.56,-13.51 -10.28,-5.8 -20.28,-12.55 -29.99,-19.82 -19.81,-14.34 -32.85,-32.69 -44.79,-53.54 -7.81,-13.35 -29.1,-37.35 -40.48,-50.5 -17.25,13.02 -34.11,26.56 -50.61,40.48 0.65,3.67 1.59,7.32 3,10.91 7.92,21.31 12.5,39.35 23.78,60.14 3.66,6.54 9.54,12.25 15.53,19.61 -11.07,-4.04 -115.67,32.39 -122.24,38.52 -36.21,12.61 -61.91,36.17 -89.04,58.28 -54.12,64.1 36.87,152.13 71.5,107.52 -22.45,-14.27 -36.59,-58.15 -23.82,-82.81 6.13,-11.79 18.98,-11.86 13.89,-27.54 -1.78,-4.67 -7.19,-8.16 -12.51,-10.54 4.6,-1.56 9.44,-2.73 13.94,-3.77 21.04,-4.93 109.57,-26.22 132.57,-26.22 83.45,0 176.14,10.5 239.9,68.67 20.35,-10.3 25.78,-2.16 29.07,0.52 -0.05,0 -0.22,0.08 -0.22,0.08 -28.59,1.73 -78.85,42.75 -53.19,82.3 -4.13,-18.04 46.19,-70.9 89.51,-60.47 1.41,0.68 11.64,0 12.82,0.68 25.12,14.46 48.33,31.61 69.29,51.45 204.04,188.57 144.54,305.57 235.8,461.63 1.73,2.66 1.73,6.68 1.73,9.87 0.24,4.9 -6.85,13.88 -11.54,15.14 -5.4,1.41 -8.86,-3.78 -11.45,-8.23 -57.18,-101.57 -95.61,-160.89 -195.13,-235.43 -87.17,-65.9 -204.85,-113.82 -312.98,-124.06 -13.61,-0.74 -24.75,-6.45 -35.66,-11.06 -21.47,-8.91 -55.87,-38.69 -69.4,-56.44 -18.33,-24.04 -20.09,-40.93 -11.83,-67.03 -57.76,4.46 -44.59,72.15 -35.91,91.31 4.02,8.91 9.17,17.38 13.15,26.13 3.95,8.7 0,15.9 -8.85,16.09 -85.84,3.57 -177.09,12.64 -236.88,-69.7 -1.92,-2.61 -3.74,-5.3 -5.48,-8.06 -15.4,27.42 -29.73,55.52 -42.98,84.24 11.19,16.33 18.84,22.81 42.22,36.15 12.19,6.82 13.04,12.32 2.49,21.16 -19.86,17.2 -58.29,44.42 -93.1,75.18 -26.44,77.41 -42.57,140.39 -52.73,224.09 10.03,-132.88 149.68,-247.43 315.41,-273.95 1.07,-0.17 2.23,0 3.41,0.07 -11.48,7.58 -22.52,15.37 -32.03,23.99 -36.44,32.87 -57.7,80.4 -61.13,128.2 -3.19,0 -6.66,0.53 -10.33,1.35 -25.69,6.08 -24.71,32 -27.54,54.72 -3.53,26.86 1.52,56.12 -3.01,82.91 -4.69,27.63 -23.39,50.94 -53.69,51.6 -3.5,0.08 -16.22,-2.74 -18.41,-6.17 -3.13,-4.22 1.37,-7.71 -1.7,-13.44 -3.2,-6.02 -9.16,-8.67 -15.5,-7.35 -8.83,1.86 -11.13,8.38 -7.79,16.34 3.26,7.56 16.19,16.18 22.99,20.04 99.44,60.35 197.88,-35.51 237.98,-122.43 13.73,-30.37 21.34,-103.35 -37.19,-98.08 -25.11,2.16 -22.61,38.9 -25.54,57.99 -4.97,28.3 -7.76,50.72 -31.9,69.19 8.94,-13.29 14.56,-43.74 9.91,-68.98 2.33,-72.2 19.35,-109.69 80.5,-151.96 -7.41,27.77 1.28,63.33 34.78,73.11 5.04,-14.46 -8.22,-31.17 -6.47,-47.95 1.46,-16.11 7.56,-34.51 16.6,-49.97 2.38,-0.82 4.72,-2.23 7.22,-3.11 20.13,-7.43 42.61,-13.17 65.35,-16.94 84.18,-13.98 113.01,11.17 184.88,44.23 49.35,22.7 114.29,51.66 130.35,62.69 -27.81,-2.91 -85.56,1.03 -111.6,3.26 0.76,-53.44 -53.69,-42.4 -80.97,-25.02 -77.98,49.35 -146.84,169.25 -79.74,253.32 6.45,8.46 19.57,27.01 32.59,20.64 2.33,-1.19 3.66,-3.8 4.53,-6.18 2.44,-7.65 -0.91,-15.59 -8.55,-18.39 -5.94,-2.46 -8.93,2.45 -13.46,0 -3.39,-1.87 -8.14,-14.04 -8.59,-17.68 -3.35,-30.14 17.44,-51.88 43.85,-60.06 25.88,-8.16 55.32,-7.06 81.41,-13.81 21.97,-5.94 47.72,-8.38 50.37,-34.66 6.39,-62.58 -85.11,-46.26 -109.1,-24.96 1.04,-21.07 30.19,-30.65 35.75,-33.03 10.93,-4.59 17,-4.22 28.65,-7.79 3.13,-0.83 7.27,-1.85 11.39,-2.74 1.64,0.74 6.76,-0.76 8.38,-0.17 42.95,-13.67 115.24,-8.98 170.88,7.5 89.45,31.2 139.59,232.45 155.04,315.54 15.93,88.19 18.89,190.56 1.39,287.7 -29.85,165.7 -170.03,375.54 -352.73,423.95 -86.3,22.85 -298.82,6.33 -368.04,-34.2 -14.16,-8.23 -27.63,-21.53 -41.43,-29.7 -3.44,-2.25 -9.38,-5.2 -14.82,-8.26 40.97,56.97 86.92,110.12 137.19,158.85 46.58,10.95 89.75,16.2 91.92,18.9 -4.48,4.3 -19.67,20.7 -27.54,39.13 17.87,14.96 36.2,29.41 54.94,43.31 1.11,-21.44 16.06,-43.74 32.12,-59.56 17.97,-17.76 98.2,-41.39 161.62,-44.1 95.44,-4.07 156.93,36.59 115.61,133.69 -20.4,45.29 -71.25,68.33 -113.97,87.35 20,9.5 40.31,18.44 60.91,26.84 4.82,-3.48 29.22,-17.66 34.27,-20.99 5.91,-3.66 39.07,-27.85 39.27,-20.89 0.39,7.74 -1.75,44.05 -4.78,67.5 21.54,7.25 43.37,13.83 65.46,19.85 -23.2,-43.99 -4.5,-95.36 1.93,-102.7 28.21,-32.8 59.83,-65.7 92.08,-96.37 11.78,-11.22 23.67,-22.15 35.48,-32.66 76.24,-65.36 109.58,54.25 107.41,116.41 -1.37,39.28 -10.84,122.92 -47.15,145.66 -2.29,1.48 -4.64,2.87 -7.05,4.17 34.38,3.71 69.19,5.93 104.4,6.62 1.38,-2.91 2.77,-5.81 4.15,-8.71 0.28,-0.51 0.09,-1.41 0,-2.07 -1.55,-17.44 9.41,-32.22 8.59,-49.52 -0.07,-6.3 10.4,-13.82 15.98,-13.14 5.87,0.74 9.56,5.12 8.91,13.58 -1.22,17.96 7.52,33.65 11.24,50.56 0.74,3.19 1.82,6.25 3.07,9.25 34.66,-0.84 68.94,-3.19 102.79,-6.96 -50.96,-30.85 -58.12,-121.32 -58.52,-176.09 -0.38,-68.7 28.67,-108.47 62.48,-112.11 34.17,-3.67 73.35,29.43 112.51,71.54 42.97,46.22 105.76,123.49 57.02,184.1 28.81,-7.68 57.19,-16.43 85.08,-26.22 -4.11,-6.37 -10.27,-14.57 -10.81,-19.45 -0.7,-5.87 -11.72,-41 -4.45,-43.73 6.64,-2.54 33.15,17.23 39.2,22.81 4.82,4.71 10.11,18.19 15.69,25.74 24.73,-9.68 49.03,-20.21 72.91,-31.48 -2.67,-0.35 -4.99,-0.9 -6.81,-1.69 -51.44,-20.88 -79.06,-39.71 -109.9,-84.28 -30.05,-46.08 -27.23,-99.07 32.13,-119.31 26.13,-9.1 66,-13.6 107.04,-11.13 79.28,4.77 162.9,35.55 159.94,109.36 22.55,-16.11 44.53,-33.01 65.86,-50.65 -9.65,-18.22 -29.69,-32.33 -24.94,-31.91 4.7,0.24 43.09,-8.06 86.76,-22.94 60.1,-57.2 114.14,-120.71 161.14,-189.42zm-912.06 -433.07c-22.05,2.11 -19.16,-37.54 0.3,-40.36 27.25,-3.94 20.3,38.41 -0.3,40.36zm-458.05 547.87c194.07,-77.06 369.58,-368.13 295.43,-719.33 11.75,-20.19 32.8,62.59 34.33,68.86 20.84,84.98 23.27,219.83 -21.95,349.59 -41.13,118.04 -129.8,236.93 -245.6,289.02 -21.33,9.59 -38.48,17.95 -62.2,11.86zm532.33 -253.45c0.59,-3.94 3.68,-7.64 6.85,-14.11 34.84,43.11 52.42,87.66 80.48,129.47 25.93,38.64 75.11,75.01 100.39,105.79 -49.39,15.92 -197,-160.14 -187.72,-221.15z"/>
   <path class="fil3" d="M1234.15 1229.24c673.56,0 1219.59,546.03 1219.59,1219.58 0,673.56 -546.04,1219.58 -1219.59,1219.58 -673.55,0 -1219.57,-546.03 -1219.57,-1219.58 0,-673.55 546.03,-1219.58 1219.57,-1219.58zm0 53.11c644.22,0 1166.48,522.25 1166.48,1166.47 0,644.22 -522.26,1166.48 -1166.48,1166.48 -644.21,0 -1166.46,-522.25 -1166.46,-1166.48 0,-644.22 522.25,-1166.47 1166.46,-1166.47z"/>
   <path class="fil2" d="M1234.15 1224.63c338.06,0 644.11,137.02 865.63,358.55 221.55,221.54 358.57,527.58 358.57,865.63 0,338.06 -137.02,644.1 -358.57,865.63 -221.52,221.54 -527.57,358.56 -865.63,358.56 -338.04,0 -644.09,-137.02 -865.62,-358.56 -221.54,-221.53 -358.56,-527.57 -358.56,-865.63 0,-338.05 137.02,-644.09 358.56,-865.63 221.53,-221.53 527.58,-358.55 865.62,-358.55zm859.12 365.06c-219.87,-219.85 -523.61,-355.86 -859.12,-355.86 -335.49,0 -639.25,136 -859.11,355.86 -219.87,219.87 -355.86,523.62 -355.86,859.12 0,335.51 135.99,639.25 355.86,859.11 219.86,219.87 523.61,355.86 859.11,355.86 335.51,0 639.26,-135.99 859.12,-355.86 219.87,-219.86 355.85,-523.61 355.85,-859.11 0,-335.5 -135.98,-639.25 -355.85,-859.12zm-859.12 -311.95c323.39,0 616.17,131.09 828.09,343 211.91,211.92 343,504.69 343,828.07 0,323.38 -131.09,616.16 -343,828.08 -211.92,211.92 -504.7,343 -828.09,343 -323.37,0 -616.15,-131.08 -828.06,-343 -211.92,-211.92 -343,-504.7 -343,-828.08 0,-323.38 131.08,-616.16 343,-828.07 211.92,-211.91 504.7,-343 828.06,-343zm821.57 349.52c-210.25,-210.26 -500.73,-340.29 -821.57,-340.29 -320.83,0 -611.3,130.04 -821.55,340.29 -210.26,210.26 -340.31,500.72 -340.31,821.56 0,320.84 130.05,611.32 340.31,821.56 210.24,210.26 500.71,340.31 821.55,340.31 320.84,0 611.32,-130.05 821.57,-340.31 210.26,-210.24 340.3,-500.72 340.3,-821.56 0,-320.83 -130.04,-611.3 -340.3,-821.56z"/>
  </g>
 </g>
</svg>
