<?xml version="1.0" encoding="UTF-8"?>
<!DOCTYPE svg PUBLIC "-//W3C//DTD SVG 1.1//EN" "http://www.w3.org/Graphics/SVG/1.1/DTD/svg11.dtd">
<!-- Creator: CorelDRAW 2018 (64-Bit) -->
<svg xmlns="http://www.w3.org/2000/svg" xml:space="preserve" width="8.5in" height="3.65465in" version="1.1" style="shape-rendering:geometricPrecision; text-rendering:geometricPrecision; image-rendering:optimizeQuality; fill-rule:evenodd; clip-rule:evenodd"
viewBox="0 0 8500 3654.65"
 xmlns:xlink="http://www.w3.org/1999/xlink">
 <defs>
  <style type="text/css">
   <![CDATA[
    .fil0 {fill:white}
    .fil1 {fill:#C0333D}
   ]]>
  </style>
 </defs>
 <g id="Plan_x0020_1">
  <metadata id="CorelCorpID_0Corel-Layer"/>
  <g id="_1730736625184">
   <path class="fil0" d="M495.78 2830.24l-495.78 0 0 -2438.35 495.78 0 61.08 0c289.78,0 434.67,147.13 434.67,441.43l0 468.67c0,140.39 -78.07,226.47 -234.29,258.18l0 16.94c178.83,49.8 268.31,142.55 268.31,278.46l0 611.28c0,242.25 -123.34,363.37 -370.06,363.37l-159.7 0 -0.02 0.02zm1930.04 -2610.18l-849.08 0 0 -220.06 849.08 0 0 220.06zm5542.32 171.83l141.24 0c260.32,0 390.63,139.26 390.63,417.7l0 1606.28c0,276.25 -131.35,414.37 -393.95,414.37l-137.92 0 -14.96 0 -142 0 0 0c-269.88,0 -404.75,-138.11 -404.75,-414.37l0 -1606.28c0,-278.46 133.8,-417.7 401.17,-417.7l145.58 0 14.96 0zm0 2142.91l76.73 0c86.03,0 129,-47.56 129,-142.72l0 -1562.1c0,-95.08 -48.58,-142.62 -145.94,-142.62l-59.76 0 -14.96 0 -65.31 0c-97.67,0 -146.45,47.53 -146.45,142.62l0 1562.1c0,95.16 49.94,142.72 150.11,142.72l61.65 0 14.96 0zm-1516.12 -2142.91l122.43 0c249,0 373.55,139.26 373.55,417.7l0 601.05c0,212.87 -64.56,347.6 -193.59,404.11l227.52 1015.49 -309.08 0 -213.95 -984.84 -6.89 0 -10.08 0 -173.48 0 0 984.84 -332.42 0 0 -2438.35 0 0 505.9 0 10.08 0 0.01 0zm0 1175.06l23.86 0c97.36,0 146.04,-58.89 146.04,-176.63l0 -526.37c0,-117.66 -48.67,-176.58 -146.04,-176.58l-23.86 0 -10.08 0 -173.48 0 0 879.58 173.48 0 10.08 0zm-1514.36 -1175.06l115.38 0c260.38,0 390.57,139.26 390.57,417.7l0 2020.63 -325.96 0 0 -893.09 -180 0 -6.8 0 -182.49 0 0 893.09 0 0 -330.39 0 0 -2020.63c0,-278.46 132.03,-417.7 395.81,-417.7l117.08 0 6.81 0 -0.02 0zm0 1249.79l180 0 0 -811.71c0,-95.09 -47.6,-142.63 -142.76,-142.63l-37.23 0 -6.8 0 -38.03 0c-96.22,0 -144.46,47.53 -144.46,142.63l0 811.71 182.49 0 6.8 0zm-961.08 617.97l0 156.22c0,276.25 -130.22,414.37 -390.58,414.37l-210.53 0c-260.32,0 -390.58,-138.11 -390.58,-414.37l0 -1609.6c0,-276.27 130.27,-414.39 390.58,-414.39l210.53 0c260.36,0 390.58,138.11 390.58,414.39l0 275.03 -325.97 0 0 -251.34c0,-95.09 -48.81,-142.63 -146.11,-142.63l-64.52 0c-85.97,0 -129,47.53 -129,142.63l0 1562.1c0,95.16 43.03,142.72 129,142.72l81.55 0c85.97,0 129.09,-47.56 129.09,-142.72l0 -132.43 325.97 0 0 0.01zm-1970.77 -1867.76l113.22 0c260.33,0 390.58,139.26 390.58,417.7l0 2020.63 -326.13 0 0 -893.09 -177.7 0 -9.06 0 -181.01 0 0 893.09 0 0 -331.77 0 0 -2020.63c0,-278.46 132.47,-417.7 397.44,-417.7l115.34 0 9.06 0 0.02 0zm0 1249.79l177.7 0 0 -811.71c0,-95.09 -47.46,-142.63 -142.61,-142.63l-35.09 0 -9.06 0 -35.93 0c-96.75,0 -145.07,47.53 -145.07,142.63l0 811.71 181.01 0 9.06 0 -0 0zm-1510.02 -954.34l-169.79 0 0 733.55 152.85 0c5.78,0 11.44,-0.12 16.96,-0.37 113.15,-5.23 169.82,-63.97 169.82,-176.25l0 -380.35c0,-117.67 -48.67,-176.59 -146.04,-176.59l-23.77 0 -0.04 0zm0 1028.96l-169.79 0 0 818.49 169.79 0 74.72 0c86.03,0 129.08,-35.18 129.08,-105.37l0 -539.94c0,-115.44 -64.58,-173.19 -193.62,-173.19l-10.19 0 0.01 0.01z"/>
   <path class="fil1" d="M2511.17 3370.56c29.02,0 52.01,8.03 69.02,24.09 16.99,16.12 25.52,37.61 25.52,64.55 0,28.25 -8.84,49.88 -26.51,64.76 -17.59,14.93 -43.33,22.38 -77.08,22.38l-55.42 0 -1.48 0 -111.79 0 0 108.29 -47.48 0 0 -284.07 159.28 0 1.48 0 64.47 0 -0.02 -0zm3702.9 284.07l-51.55 0 -32.75 -63.59 -95.58 0 0 -42.39 72.78 0 -72.38 -137.58 -0.4 0.76 0 -41.27 29.66 0 150.24 284.07 -0.02 -0.01zm-179.89 -63.58l0 0 -95.68 0 -32.75 63.59 -51.47 0 150.29 -284.07 29.61 0 0 41.27 -72.8 136.81 72.8 0 0 42.38 0 0.02zm-442.04 63.58l-47.13 0 0 -284.07 47.13 0 0 284.07zm-332.37 0l-54.76 0 -76.93 -108.29 -29.29 0 -1.87 0 -111.72 0 0 108.29 -47.62 0 0 -284.07 159.33 0 1.87 0 62.9 0c29.8,0 53.17,8.03 70.24,24.09 17.03,16.12 25.52,37.92 25.52,65.36 0,24.02 -6.98,43.44 -20.83,58.04 -12.87,13.63 -30.52,22.24 -52.96,25.92l76.12 110.65 -0.01 0.01zm-162.85 -150.7l1.87 0 55.81 0c36.34,0 54.58,-14.65 54.58,-43.87 0,-31.45 -19.63,-47.19 -58.87,-47.19l-51.52 0 -1.87 0 -111.72 0 0 91.05 111.72 0 0 0.02zm-442.2 150.7l-297.41 0 0 -284.07 286.43 0 0 42.32 -239.36 0 0 73.06 166.37 0 0 42.37 -166.37 0 0 83.91 250.35 0 0 42.41 -0 0zm-570.11 0l-308.79 0 0 -42.41 234.66 -198.91 -231.16 0 0 -42.75 294.7 0 0 42.83 -234.07 198.46 244.65 0.37 0 42.41 -0 0.01zm-577.98 0l-308.82 0 0 -42.41 234.65 -198.91 -231.07 0 0 -42.75 294.63 0 0 42.83 -234.01 198.46 244.63 0.37 0 42.41 -0.01 0.01zm-587.77 0l-47.13 0 0 -284.07 47.13 0 0 284.07zm-473.63 -150.7l1.48 0 56.17 0c36.36,0 54.59,-14.65 54.59,-43.87 0,-31.45 -19.21,-47.19 -57.73,-47.19l-53.02 0 -1.48 0 -111.79 0 0 91.05 111.79 0 -0.01 0.02z"/>
  </g>
 </g>
</svg>
