<?xml version="1.0" encoding="UTF-8"?>
<!DOCTYPE svg PUBLIC "-//W3C//DTD SVG 1.1//EN" "http://www.w3.org/Graphics/SVG/1.1/DTD/svg11.dtd">
<!-- Creator: CorelDRAW 2018 (64-Bit) -->
<svg xmlns="http://www.w3.org/2000/svg" xml:space="preserve" width="8.5in" height="3.61374in" version="1.1" style="shape-rendering:geometricPrecision; text-rendering:geometricPrecision; image-rendering:optimizeQuality; fill-rule:evenodd; clip-rule:evenodd"
viewBox="0 0 8500 3613.74"
 xmlns:xlink="http://www.w3.org/1999/xlink">
 <defs>
  <style type="text/css">
   <![CDATA[
    .str0 {stroke:#373435;stroke-width:6.94;stroke-miterlimit:22.9256}
    .fil0 {fill:#2A2B2D}
    .fil1 {fill:#B33437}
    .fil2 {fill:#FEFEFE}
   ]]>
  </style>
 </defs>
 <g id="Plan_x0020_1">
  <metadata id="CorelCorpID_0Corel-Layer"/>
  <g id="_1695168953536">
   <path class="fil0" d="M0.02 1585.24l290.08 -262.95 0 -1322.28c2621.41,395.18 5253.95,374.47 7895.97,0l7.74 1345.48 306.19 232.01 -298.46 239.74 0 1314.71 -610.96 -131.46 -170.14 613.26c-2111.48,-292.85 -4232.64,-305.22 -6364.73,0l-177.88 -605.52 -588.09 100.54 0 -1291.52 -289.74 -232 0.02 -0.01z"/>
   <path class="fil1" d="M588.29 1476.64c-1.95,-381.85 -3.89,-763.71 -5.85,-1145.56 2487.03,332.27 4931.9,310.65 7341,-11.69 -3.89,385.74 -7.78,771.5 -11.69,1157.25 46.76,35.08 93.51,70.14 140.28,105.2 -40.91,33.12 -81.83,66.25 -122.74,99.36 0,364.31 0,728.65 0,1092.96 -2448.95,-320.86 -4897.88,-312.3 -7346.83,5.85 1.94,-358.48 3.9,-716.95 5.85,-1075.43 -50.65,-40.91 -101.31,-81.83 -151.96,-122.74 50.65,-35.06 101.31,-70.14 151.96,-105.2l-0.02 -0zm-99.37 -75.99l0 0c-70.14,60.4 -140.26,120.8 -210.4,181.19 62.34,50.65 124.69,101.31 187.04,151.96 1.94,387.7 3.89,775.39 5.83,1163.1 181.19,-29.22 362.39,-58.45 543.57,-87.68 64.29,200.67 128.58,401.34 192.87,602 1921.43,-251.48 3944.74,-262.85 6084.37,0 58.45,-192.87 116.9,-385.74 175.35,-578.63 181.19,23.38 362.37,46.77 543.56,70.14 0,-383.8 0,-767.6 0,-1151.42 70.14,-56.49 140.28,-113 210.41,-169.49 -70.14,-54.54 -140.27,-109.11 -210.41,-163.65 5.85,-405.23 11.69,-810.47 17.54,-1215.7 -2519.09,359.41 -5038.16,347.8 -7557.25,5.83 5.85,397.45 11.7,794.89 17.54,1192.33l-0.03 0.01z"/>
   <path class="fil2" d="M1472.4 2922.61l55.1 -6.82 16.47 132.94 132.98 -151.45 70.06 -8.68 -116.47 135.55 152.07 136.75 -65.38 8.09 -123.13 -105.89 -42.33 48.79 9.46 76.42 -55.11 6.83 -33.74 -272.53 0.03 0.01zm359.44 -43l0 0 55.21 -5.93 29.37 273.03 -55.21 5.93 -29.37 -273.03zm305.25 10.42l0 0 22.99 231.03 -55.27 5.5 -22.98 -231.05 -99.28 9.88 -4.2 -42.21 253.82 -25.25 4.19 42.21 -99.27 9.88 0.02 0.01zm358.17 162.22l0 0c19.06,-1.58 35.25,-5.63 48.57,-12.12 13.31,-6.5 26.97,-16.24 41.01,-29.24l38.19 27.58c-32.04,35 -72.83,54.55 -122.38,58.68 -49.56,4.13 -91.77,-5.75 -126.66,-29.67 -34.89,-23.9 -54.02,-56.21 -57.43,-96.93 -3.38,-40.73 10.43,-76.04 41.48,-105.94 31.03,-29.93 71.96,-46.99 122.75,-51.22 50.8,-4.23 94.56,7.91 131.24,36.39l-32.5 35.04c-16.69,-11.23 -32.19,-18.74 -46.51,-22.55 -14.32,-3.8 -30.87,-4.93 -49.63,-3.35 -33.15,2.76 -60.22,14.01 -81.24,33.76 -21.02,19.75 -30.39,43.52 -28.08,71.33 2.33,27.8 15.43,50.09 39.35,66.9 23.9,16.81 51.17,23.92 81.81,21.37l0.02 -0.01zm224 24.02l0 0 -16.14 -274.14 55.44 -3.26 7 118.83 163.02 -9.59 -6.98 -118.83 55.44 -3.26 16.13 274.14 -55.44 3.26 -6.59 -112.16 -163.02 9.58 6.61 112.18 -55.42 3.25 -0.04 0zm613.25 -307.02l0 0 1.85 43.58 -175.38 7.46 3.09 72.61 157.51 -6.7 1.76 41.21 -157.52 6.7 3.12 73.4 181.01 -7.72 1.85 43.56 -236.5 10.08 -11.69 -274.36 230.86 -9.83 0.03 0.01zm356.29 -11.78l0 0 55.5 -1.46 7.23 274.51 -60.22 1.59 -191.57 -195.39 5.27 200.28 -55.5 1.47 -7.23 -274.52 55.52 -1.46 196.39 199.97 -5.41 -205 0.01 -0zm399.96 273.3l0 0c-30.75,0.06 -56.95,-7.03 -78.63,-21.27 -21.69,-14.24 -32.55,-33.8 -32.59,-58.67 -0.05,-29.6 25.62,-55.96 77.03,-79.12 -12.89,-12.28 -21.93,-22.35 -27.12,-30.2 -5.19,-7.85 -7.8,-17.79 -7.82,-29.85 -0.04,-20.94 9.19,-37.08 27.67,-48.37 18.5,-11.3 40.28,-16.97 65.39,-17.02 25.1,-0.06 46.45,5.28 64.05,15.98 17.59,10.72 26.4,25.75 26.44,45.13 0.06,25.93 -25,50.46 -75.15,73.61 25.15,25.62 45.57,45.22 61.28,58.8 9.71,-12.07 17.21,-26.09 22.52,-42.08l38.63 22.72c-8.13,18.09 -17.37,33.95 -27.69,47.59 12.58,10.71 28.6,23.65 48.07,38.81l-35.24 27.57 -43.37 -35.68c-27.57,21.27 -62.06,31.94 -103.47,32.02l-0.02 0.02zm-58.98 -78.07l0 0c0.03,11.78 6,21.4 17.93,28.85 11.94,7.43 27.8,11.15 47.55,11.09 19.77,-0.03 40.78,-7.68 63.02,-22.9 -31.74,-27.7 -56.88,-50.96 -75.44,-69.79 -35.41,16.04 -53.11,33.62 -53.07,52.74l0.01 0.01zm82.72 -171.43l0 0c-10.5,0.02 -19.92,2.78 -28.22,8.3 -8.31,5.53 -12.44,11.93 -12.43,19.28 0.02,7.33 2.15,13.93 6.39,19.82 4.25,5.89 11.56,14.06 21.93,24.52 35.43,-14.74 53.13,-28.39 53.1,-40.96 -0.02,-10.48 -4.2,-18.26 -12.53,-23.35 -8.32,-5.1 -17.74,-7.63 -28.25,-7.61l0.01 -0.02zm515.65 250.9l0 0 -143.97 -3.26 6.19 -274.54 127.96 2.88c22.25,0.5 41.41,3.16 57.48,7.99 16.05,4.81 27.92,11.11 35.57,18.87 14.74,14.48 21.9,30.63 21.51,48.42 -0.48,21.47 -9,37.25 -25.55,47.37 -6.06,3.53 -10.16,5.73 -12.39,6.6 -2.22,0.88 -6.18,2.3 -11.86,4.26 20.31,4.12 36.36,12.16 48.17,24.07 11.82,11.93 17.52,26.52 17.14,43.81 -0.43,19.11 -8.66,35.82 -24.67,50.14 -18.89,16.61 -50.77,24.4 -95.61,23.39l0.02 0zm-84.83 -162.62l0 0 70.57 1.58c40.16,0.91 60.48,-10.04 61,-32.82 0.3,-13.09 -4.35,-22.62 -13.94,-28.6 -9.58,-5.98 -24.57,-9.2 -44.96,-9.66l-71.04 -1.61 -1.61 71.1 -0.01 0.02zm-2.66 117.81l0 0 87.04 1.96c20.39,0.46 36.05,-1.88 46.99,-7 10.93,-5.13 16.59,-15.14 16.92,-30.07 0.55,-24.35 -22.55,-37.05 -69.29,-38.11l-79.97 -1.81 -1.7 75.02 0.01 0.02zm573.72 -124.93l0 0c-1.77,45.27 -26.54,72.89 -74.34,82.83l82.18 103.06 -70.53 -2.74 -74.95 -95.31 -72.88 -2.82 -3.58 92.26 -55.48 -2.16 10.66 -274.39 122.26 4.76c50.15,1.94 85.77,10.4 106.85,25.39 21.07,14.97 31.02,38.03 29.82,69.18l-0.01 -0.04zm-139.77 45.68l0 0c31.35,1.22 52.83,-2.01 64.44,-9.69 11.59,-7.67 17.76,-20.47 18.44,-38.4 0.7,-17.93 -4.62,-30.45 -15.96,-37.57 -11.34,-7.13 -31.9,-11.27 -61.7,-12.42l-70.53 -2.74 -3.81 98.15 69.14 2.69 -0.02 -0.01zm486.95 -119.52l0 0 -2.41 43.54 -175.26 -9.68 -4 72.57 157.41 8.69 -2.26 41.19 -157.41 -8.69 -4.05 73.36 180.92 9.98 -2.4 43.55 -236.35 -13.04 15.12 -274.19 230.72 12.71 -0.03 0.02zm198.62 213.59l0 0 88.87 -191.15 49.72 3.96 57.5 202.81 98.24 -190.42 59.59 4.74 -136.27 264.63 -54.87 -4.36 -54.03 -193.08 -3.76 -0.3 -83.89 182.1 -54.88 -4.36 -92.68 -282.87 59.57 4.74 66.89 203.56 0 0zm669.35 -142.65l0 0 -4.16 43.4 -174.73 -16.76 -6.93 72.36 156.94 15.04 -3.93 41.06 -156.94 -15.06 -7.01 73.12 180.35 17.3 -4.15 43.41 -235.63 -22.6 26.21 -273.34 230 22.07 -0.02 0zm356.79 132.41l0 0c-5.05,45.02 -31.78,70.74 -80.17,77.19l74.45 108.75 -70.16 -7.86 -67.8 -100.51 -72.49 -8.13 -10.29 91.74 -55.18 -6.19 30.63 -272.89 121.59 13.65c49.89,5.61 84.8,16.63 104.73,33.1 19.93,16.47 28.17,40.2 24.69,71.17l0 -0.02zm-142.72 35.37l0 0c31.17,3.5 52.83,1.83 64.95,-4.97 12.13,-6.81 19.2,-19.14 21.2,-36.96 2,-17.82 -2.4,-30.7 -13.19,-38.63 -10.78,-7.93 -31,-13.57 -60.61,-16.89l-70.16 -7.88 -10.94 97.61 68.74 7.72 0.01 0zm354.21 176.13l0 0 -56 -7.2 13.82 -107.54 -100.18 -180.43 60.21 7.74 73.22 135.37 105.07 -112.44 60.21 7.74 -142.55 149.22 -13.82 107.54 0.03 0.01z"/>
   <path class="fil2 str0" d="M1605.27 798.64l-619.54 -64.29 -5.85 257.17 116.9 5.85 0 426.67 -128.59 0 0 204.57 116.9 0 0 508.49 -111.05 0 0 251.32 707.22 -64.29c315.89,-28.72 435.87,-287.1 450.25,-427.24 12.94,-126.13 -31.37,-297.3 -257.37,-373.47 194.43,-63.4 211.44,-237.9 216.04,-344.85 6.28,-146.55 -90.06,-338.93 -484.89,-379.91l-0.01 -0.02zm-23.39 222.11l0 0c143.2,15.92 184.76,147.95 181.03,215.93 -3.54,64.29 -54.06,181.51 -192.72,181.51l-146.12 0 0 -414.97 157.8 17.54 0 -0.02zm23.39 625.39l0 0c152.54,6.38 210.31,145.63 204.57,227.94 -4.93,70.56 -46.25,227.94 -204.57,227.94l-175.34 0 0 -463.22 175.34 7.33zm648.76 -578.63l0 0 5.85 -227.94 537.71 17.54 0 217.74 -122.74 -1.48 0 970.22 116.9 0 0 204.57 -531.87 35.06 0 -214.76 99.36 -5.85 0 -995.09 -105.2 0 -0.02 0zm1414.43 -116.9l0 0 5.85 -64.29 268.85 5.85 0 414.97 -251.32 5.85c10.24,-164.45 -96.53,-226.3 -204.31,-218.59 -104.85,7.48 -210.66,-1.07 -210.66,189.36l0 619.54c0,192.76 368.22,194.24 368.22,0l0 -204.58 -134.43 0 0 -198.72 555.25 0 0 192.88 -116.9 0 0 531.88 -216.26 0 -40.91 -58.45c-75.98,66.24 -156.34,77.48 -298.08,75.98 -177.22,-1.88 -444.2,-115 -444.2,-292.23l0 -753.98c0,-197.07 194.73,-288.53 378.52,-307.39 152.95,-15.7 295.2,22 340.39,61.91l-0.02 0.01zm878.71 555.48l0 0 -7.84 -619.77 573 -5.85c297.03,-3.03 446.96,212.23 447.58,366.8 0.37,98.16 -43.71,332.16 -243.24,363.79l181.18 438.36 127.09 5.85 0 203.08 -378.43 -10.2 -229.44 -549.41 -153.46 0 1.48 339 99.37 0 0 201.58 -431.02 0 0 -558.11 -105.2 0 0 -173.85 118.89 -1.26 0.03 0zm319.45 -11.92l0 0 192.99 0c68.14,0 163.48,-102.28 163.48,-204.58 0,-102.28 -74.88,-204.56 -143.07,-204.56l-219.23 0 5.85 409.13 -0.01 0zm1434.93 -426.68l0 0 -5.83 -227.94 -537.71 17.54 0 217.74 122.73 -1.48 0 970.22 -116.89 0 0 214.77 531.88 24.86 0 -214.76 -99.37 -5.85 0 -995.09 105.19 0 0.01 0zm884.17 -221.56l0 0 6.12 -75.03 291.78 -33.97 0 525.06 -273.41 6.82c10.73,-191.92 -101.11,-264.06 -213.98,-255.09 -109.81,8.73 -230.82,-1.24 -230.82,220.98l0 723c0,224.94 395.82,226.67 395.82,0l0 -238.72 -140.78 0 0 -231.9 622.33 0 0 225.07 -163.25 0 0 681.92 -226.48 -30.6 -42.84 -68.21c-76.22,45.25 -163.77,59.78 -312.17,58.05 -185.58,-2.15 -465.2,-134.21 -465.2,-341.04l0 -849.28c0,-229.97 203.94,-357.13 396.41,-379.14 160.19,-18.31 309.17,15.47 356.51,62.06l-0.03 0.01z"/>
  </g>
 </g>
</svg>
