<?xml version="1.0" encoding="UTF-8"?>
<!DOCTYPE svg PUBLIC "-//W3C//DTD SVG 1.1//EN" "http://www.w3.org/Graphics/SVG/1.1/DTD/svg11.dtd">
<!-- Creator: CorelDRAW 2018 (64-Bit) -->
<svg xmlns="http://www.w3.org/2000/svg" xml:space="preserve" width="8.5in" height="8.5in" version="1.1" style="shape-rendering:geometricPrecision; text-rendering:geometricPrecision; image-rendering:optimizeQuality; fill-rule:evenodd; clip-rule:evenodd"
viewBox="0 0 8500 8500"
 xmlns:xlink="http://www.w3.org/1999/xlink">
 <defs>
  <style type="text/css">
   <![CDATA[
    .fil0 {fill:#ED3237}
    .fil1 {fill:#009C55;fill-rule:nonzero}
    .fil2 {fill:#FEFEFE;fill-rule:nonzero}
   ]]>
  </style>
 </defs>
 <g id="Plan_x0020_1">
  <metadata id="CorelCorpID_0Corel-Layer"/>
  <g id="_1695167682176">
   <path class="fil0" d="M4250 0.02c2347.2,0 4250,1902.78 4250,4249.95 0,2347.25 -1902.8,4250 -4250,4250 -2347.23,0 -4250,-1902.75 -4250,-4250 0,-2347.18 1902.78,-4249.95 4250,-4249.95z"/>
   <path class="fil1" d="M1076.22 5396.38c-6.23,-11.37 -11.06,-21.31 -14.54,-29.78 -3.76,-9.04 -7.49,-19.6 -11.09,-31.7 -4.31,-13.89 -7.09,-24.97 -8.63,-33.08 -1.54,-8.19 -2.85,-19.41 -4.06,-33.94 -0.85,-12.39 -1.26,-23.57 -1.05,-33.56 0.26,-11.15 1.14,-22.52 2.66,-33.92l0.19 0.05c1.76,-13.53 3.61,-24.33 5.52,-32.49 1.76,-7.42 5.2,-18.5 10.3,-32.85 5.11,-14.75 9.28,-25.37 12.32,-31.85 4.93,-10.22 10.08,-19.98 15.65,-29.25 4.71,-7.87 10.73,-16.74 18.01,-26.47 9.16,-12.43 20.91,-26.78 35.15,-42.98 12.23,-13.99 24.83,-27.28 37.7,-39.98 14.2,-13.93 27.8,-26.52 40.74,-37.65 13.39,-11.58 27.92,-23.43 43.69,-35.42 12.37,-9.59 27.38,-20.4 45.02,-32.63 18.86,-13.04 34.7,-23.57 47.6,-31.71l-0.22 -0.26c8.19,-5.11 25.28,-15.18 51.21,-30.13 21.85,-12.59 39.5,-22.43 53.2,-29.69 31.7,-16.79 68.67,-34.61 110.57,-53.37 39.28,-17.53 76.23,-32.71 110.79,-45.33l-0.05 -0.14c34.3,-12.51 71.97,-24.57 112.88,-36.15 37.61,-10.63 75.77,-19.91 114.19,-27.59l0.8 -0.19c24.98,-4.97 47.52,-8.93 67.69,-11.85 23.48,-3.43 45.98,-6.02 67.5,-7.87 24.88,-2.17 47.17,-3.44 66.86,-3.85 19.69,-0.35 41.57,0.05 65.36,1.28 23.02,1.22 45.42,3.26 67,6.28l-0.07 0.31c24.79,3.35 46.29,7.18 64.67,11.44 19.6,4.62 41.1,10.84 64.29,18.75 26.87,9.17 47.66,17.17 62.38,24.09l3.61 2c24.52,11.72 48.85,25.69 72.78,41.76 24.52,16.41 46.98,34.2 67.38,53.37 21.36,20 40.93,41.89 58.72,65.55 11.63,15.39 22.45,31.68 32.39,48.63 5.61,-1.05 11.49,-2.16 17.74,-3.07l8.37 -1.54 3.71 -0.45 6.83 -0.45c10.09,-0.85 -6.11,0.31 11.94,-1.5 20.22,-2.1 10.94,-1.02 17.45,-1.71l21.76 -2.47c30.18,-3.8 60.26,-7.87 90.43,-11.99l78.72 -11.44 15.2 -2 2.76 -0.21 23.43 -0.05c29.28,1 54.61,-2.21 76.47,-7.02 18.31,-3.97 45.28,-13.39 68.21,-21.36l0.31 -0.09c24.12,-8.37 45.28,-15.74 80.25,-23.35 114.43,-24.71 205.12,-9.82 292.67,94.16 16.2,19.26 30.64,41.44 43.74,67.31 17,-9.42 32.25,-17.6 45.43,-24.43l-0.14 -0.19c9.46,-4.8 26.26,-12.94 49.9,-24.06 14.58,-6.83 31.44,-14.35 50.44,-22.43 16.96,-7.28 34.1,-14.18 51.49,-20.81 24.33,-9.33 41.48,-15.69 51.11,-18.95 13.89,-4.76 31.04,-10.18 51.8,-16.34 21.36,-6.3 42.38,-11.99 62.94,-16.96 17.81,-4.31 38.27,-8.54 61.39,-12.73 7.92,-1.45 15.37,-2.76 22.33,-3.92 -59.89,-89.12 -102.41,-190.8 -122.83,-300.3l-43.43 32.34 -1.81 1.55c-10.09,7.32 -18.58,13.04 -25.81,17.27l-0.35 -0.62c-10.27,6.07 -19.6,11.09 -28.02,14.96 -10.94,5.07 -21.12,9.28 -30.49,12.44l-0.19 -0.4c-13.2,4.57 -23.48,7.73 -30.4,9.37 -7.06,1.62 -17.74,3.35 -32.11,5.11 -11.49,1.5 -22.07,2.35 -31.49,2.59 -8.37,0.22 -18.55,-0.05 -30.39,-0.88l-10.63 -0.85 -0.05 0.54 -19.77 -3.21c-12.15,-2.07 -21.98,-4.11 -29.54,-6.09l0.05 -0.19c-9.68,-2.55 -18.69,-5.33 -26.92,-8.33l-0.79 -0.05c-10.87,-3.91 -19.91,-7.61 -27.13,-11.04 -9.94,-4.61 -18.95,-9.48 -27.33,-14.44l0.17 -0.31c-8.59,-5.11 -17.31,-10.94 -26.02,-17.31 -8.28,-6.11 -16.2,-12.68 -23.76,-19.5l-0.85 -0.05c-5.61,-5.02 -12.8,-12.43 -21.17,-21.62l-0.78 -0.88c-5.52,-6.13 -11.75,-13.7 -18.6,-22.72l-0.4 0.33c-4.97,-6.56 -11.04,-15.74 -18.2,-27.57l0.05 -0.91c-6.92,-11.49 -12.39,-21.43 -16.15,-29.63 -5.16,-11.06 -9.33,-21.31 -12.61,-30.78l0.09 -0.81c-3.35,-9.99 -6.38,-20.62 -8.97,-31.98 -3.07,-13.82 -5.11,-24.33 -6.07,-31.09l-0.17 0.05c-0.69,-6.38 -1.28,-17.39 -1.62,-32.59l0.05 -0.85c-0.14,-9.87 0.17,-19.86 0.95,-29.99 0.91,-12.17 2.12,-22.72 3.76,-31.71 1.26,-7.7 3.26,-16.6 5.85,-26.43l0.05 -0.85 2.5 -9.33c-12.34,-18.75 -26.07,-40.67 -41.17,-65.79 -19.96,-33.25 -34.87,-58.81 -44.45,-76.45 -14.35,-26.47 -28.93,-54.8 -43.62,-85 -14.06,-29.04 -27.63,-58.54 -40.77,-88.71l-11.54 -27.21 -2.83 0.19c-27.09,1.9 -46.95,3.4 -59.98,4.57 -32.49,2.81 -54.92,4.85 -67.86,6.21l-89.05 10.8 -0.05 0.14 -0.79 -0.05 -3.61 9.13c5.47,8.93 10.32,17.61 14.48,25.98 3.21,6.43 7.23,16.06 12.04,28.68l0.76 1.76c3.71,10.04 6.87,19.81 9.37,29.02 2.52,9.42 4.66,19.41 6.43,30.04l0.19 -0.05c1.73,10.22 3.04,20.91 3.71,31.68l0.17 0c0.6,8.47 0.74,18.95 0.45,31.09 -0.31,10.32 -1.05,20.6 -2.3,30.78 -1.5,12.13 -3.17,22.26 -4.93,30.39 -1.76,7.78 -4.4,17.5 -8.23,29.14l0.67 0.19c-2.26,6.97 -6.33,17.19 -11.94,30.3 -4.97,11.32 -9.59,20.67 -13.7,28.19l-0.09 0.79c-2.35,4.31 -8.06,12.99 -16.91,25.83 -7.32,10.58 -13.84,19.24 -19.41,25.73 -5.07,5.94 -11.98,13.17 -21.07,22l-0.24 0.19c-9.13,8.82 -16.86,15.87 -23.12,20.82 -8.02,6.52 -16.57,12.63 -25.33,18.36 -10.98,7.16 -20.14,12.68 -27.44,16.39 -8.93,4.67 -18.5,9.04 -28.51,12.99l-7.14 1.95c-11.39,4.57 -18.76,7.23 -22.57,8.32 -4.66,1.36 -15.15,3.44 -31.35,6.43l0.05 0.19c-13.99,2.55 -24.83,4.14 -32.15,4.71l-0.05 -0.71c-12.08,0.95 -22.26,1.31 -30.49,1.22l-302.3 -5.02c-253.3,9.28 -250,-134.1 -305.56,-193.72l-1.41 1.98c-29.02,39.2 -58.1,76.73 -86.95,111.57 -30.95,37.41 -60.79,71.17 -88.85,100.08 -28.85,29.68 -58.54,57.11 -88.81,81.75 -30.8,25.07 -62.53,46.87 -95.09,64.74 -13.73,7.52 -30.13,15.89 -49.33,25.11 -24.52,11.8 -41.26,19.52 -49.9,23.04 -10.37,4.26 -27.63,10.49 -51.71,18.55 -23.97,8.06 -41.57,13.63 -52.46,16.43 -14.61,3.88 -32.94,7.87 -54.92,11.99 -17.7,3.3 -35.96,6.02 -54.75,8.13l-0.85 -0.05c-19.91,2.21 -38.63,3.62 -55.92,4.22 -16.08,0.62 -34.7,0.4 -55.7,-0.5 -19.56,-0.85 -38.08,-2.3 -55.37,-4.31 -23.12,-2.76 -41.48,-5.42 -54.87,-8.09 -12.99,-2.61 -30.94,-7.19 -53.56,-13.53 -22.02,-6.21 -39.37,-11.68 -51.99,-16.34l-0.81 -0.91c-16.79,-6.26 -33.44,-13.25 -49.9,-20.81 -19.78,-9.18 -36.01,-17.27 -48.54,-24.24 -13.73,-7.73 -29.33,-17.19 -46.33,-28.54 -13.46,-8.82 -28.19,-19.43 -44.14,-31.71l-0.45 0.6c-72.35,-55.56 -132.48,-121.61 -181.59,-196.13 -50.35,-76.32 -87.77,-159.26 -113.89,-246.97 -26.09,-87.48 -41.43,-181.95 -47.66,-281.04 -6.16,-98.8 -2.69,-202.04 8.73,-307.05 23,-212.7 100.44,-502.04 202.81,-777.01 98.74,-265.38 222,-522.21 343.97,-691.15 8.59,-11.89 22,-29.63 39.95,-52.85 11.77,-15.24 25.24,-31.94 40.34,-50.09 13.03,-15.65 26.73,-31.54 40.96,-47.33 10.08,-11.24 24.17,-26.09 42.36,-44.69 14.2,-14.53 28.8,-28.78 43.67,-42.67 19.12,-17.75 33.91,-31.04 44.33,-39.77 14.66,-12.3 30.04,-24.48 46.24,-36.56 16.79,-12.54 32.44,-23.57 46.92,-33.06l0.14 0.26 3.61 -2.55c10.35,-6.52 21.27,-13.08 32.56,-19.5 11.23,-6.38 22.36,-12.34 33.35,-17.87 13.44,-6.73 24.76,-12.13 34.15,-16.2 12.85,-5.61 24.71,-10.44 35.46,-14.34l0.05 0.35c14.48,-5.33 26.66,-9.37 36.7,-12.37 9.18,-2.66 21.85,-5.87 38.06,-9.48l0.09 -0.91c8.68,-1.9 21.59,-4.21 38.86,-6.8 9.59,-1.57 22.72,-2.9 39.07,-4.23l2.47 -0.14 -0.05 -0.57c14.94,-1.09 32.46,-1.4 52.3,-0.91 18.15,0.52 35.56,1.85 52.04,4.02 19.55,2.5 37.41,5.85 53.64,9.87l0 0.14c16.08,4.02 33.3,9.42 51.4,16.24 16.39,6.13 32.71,13.34 48.85,21.53l0.22 -0.4c16.93,8.63 32.73,17.81 47.4,27.49 13.13,8.71 27.18,19.29 42.17,31.75 15.65,13.08 28.78,25.02 39.17,35.58l-0.31 0.26c18.63,18.69 36.68,40.26 54.13,64.74 17.25,24.12 32.3,48.71 45.07,73.59 11.84,23.12 23.17,49.09 33.7,77.78 10.54,28.4 19.26,56.03 26.24,82.7l0.95 5.21c8.42,35.01 14.61,61.48 18.37,79.54 5.61,27.63 9.68,51.06 12.49,73.87 2.76,22.88 4.62,46.55 5.76,74.43l0.05 0.93c8.63,5.45 17.45,11.72 26.61,18.93 45.99,36.3 83.2,83.96 103.27,154.57l0.69 1.73c2.17,7.83 4.33,18.81 6.47,33.3l-0.09 0.85c1.76,11.63 2.64,23.21 2.85,34.7l-0.04 0.79c0.76,50.85 -12.28,97.04 -36.65,138.71 -21.93,37.36 -50.09,67.2 -83.2,90.57l-0.79 -0.05c-20.86,14.7 -42.53,26.66 -64.48,36.25 -20.62,8.99 -41.36,16.25 -61.79,22.12l-0.85 -0.09c-42.17,11.99 -84.65,19.51 -122.77,24.26 -59.68,7.37 -115.45,9.34 -137.36,9.63l-0.05 -0.85c-34.21,0.5 -66.5,-1.11 -97.42,-6.52 -44.79,-7.87 -86.55,-22.9 -125.84,-48.14 -46.5,-29.94 -83.29,-69.69 -109.53,-122.28l0.71 -0.31c-12.8,-25.64 -22.43,-52.97 -28.82,-82.34 -73.16,129.93 -145.35,295.24 -205.9,467.1 -81.89,232.37 -139.74,468.02 -147.15,635.09 -1.98,44.53 -1.05,86.91 3.21,126.1 3.52,31.54 9.42,60.89 18.2,87.31 3.21,9.73 6.11,17.74 8.59,24.12 1.99,4.8 4.99,11.72 9.28,20.81 4.17,8.97 7.01,14.8 8.46,17.5l0.4 -0.19c4.02,7.23 6.87,12.17 8.46,14.75 1.45,2.21 4.31,6.07 8.33,11.3l-0.5 0.4 7.49 8.54c1.62,1.71 3.8,3.91 6.52,6.47 5.11,4.71 4.61,4.71 5.82,5.67 1,0.74 0.67,0.31 1.19,0.45l6.57 -1.67c3.26,-0.95 8.68,-3.07 16.15,-6.16 8.42,-3.66 16.15,-7.37 23.12,-11.13 1.09,-0.67 6.66,-5.63 15.74,-14.19 16.56,-15.49 33.44,-33.8 50.61,-54.21 18.22,-21.62 40.39,-50.44 65.59,-85.01 26.24,-35.84 50.55,-70.7 73.02,-104.25 21.81,-32.75 45.55,-69.62 70.26,-109.07 31.13,-49.76 53.8,-86.55 69.71,-113.19 12.54,-21 35.2,-60.13 64.14,-110.24l22.21 -38.63c-3.31,-29.02 -5.02,-55.51 -5.07,-79.63 -0.19,-73.52 15.65,-134.86 49.41,-187.2 57.42,-89.05 136.98,-128.39 242.12,-123.91 54.78,2.3 111.14,19.81 172.65,50.59 35.51,17.76 77.94,42.07 118.3,70.61 36.72,25.93 72.42,55.37 102.1,87.22l-0.09 0.85c20.72,22.12 38.86,45 53.66,68.31 77.02,-223.41 153.55,-444.15 227.93,-645.96l0.54 0.24 13.56 -38.06 0.14 -2.55 7.37 -19.96 0.95 -0.8c18.5,-49.55 -7.83,17.96 7.11,-20.91l0.26 0.09 7.11 -18.01 0.12 -0.85c68.14,-170.29 86.91,-263.93 289.29,-299.14 13.7,-2.43 26.64,-3.97 38.63,-4.52 8.28,-0.4 21.05,0 38.36,1.26 14.3,1.05 26.38,2.43 35.87,4.17l2.41 0.4 0 -0.09 6.75 1.36c8.14,1.9 17.05,4.31 26.55,7.32l-0.07 0.14c12.29,3.75 22.62,7.49 31.15,11.04 10.56,4.57 20.71,9.54 30.39,14.89l0.91 0.05c6.22,3.57 15.5,9.64 27.83,18.36l0.91 0c6.11,4.35 14.18,10.87 24.35,19.68 6.21,5.42 13.3,12.03 21.17,20.26 5.81,5.9 12.63,13.75 20.31,23.26l0.91 0.04c6.87,8.63 12.72,16.44 17.36,23.33l0.74 0.96 4.71 7.02 5.21 9.82 8.28 13.99 0.81 0.85 4.26 7.94 5.21 10.63c3.97,8.42 6.78,14.48 8.89,19.55l-0.05 0.85c10.73,25.43 4.02,7.47 7.92,17.41l2.04 6.16c2.81,7.83 0.28,1.26 6.07,18.05l-0.05 0.83 5.21 15.6 2.16 5.2 9.42 31.18c17.67,63.94 -5.85,-19.12 6.56,27.88l1.45 3.57c3,12.28 6.42,24.81 9.13,37.1 32.72,-83.46 283.08,-218.2 428.02,-54.75 40.34,-171.11 316.73,-229.3 438.16,-182.95l-0.31 -0.4 0.12 -0.88c-7.83,-12.03 -13.25,-20.76 -15.81,-25.69l0.05 -0.85c-4.11,-7.93 -8.28,-16.96 -12.39,-26.95 -4.4,-10.87 -7.97,-20.45 -10.42,-28.63l-0.76 -0.95c-1.95,-6.38 -4.26,-16.15 -6.96,-29.69 -1.64,-8.33 -3.07,-18.15 -4.31,-29.69l-0.76 -0.85c-0.96,-9.64 -1.41,-21.22 -1.31,-34.8 0.09,-9.87 0.91,-21.1 2.43,-33.75l0.05 -0.85c1.36,-11.04 3.47,-22.47 6.28,-34.3l0.05 -0.81c32.72,-136.94 147.41,-232.63 289.91,-247.14l8.82 -0.14 -0.04 -0.36 40.67 -3.12 0.05 0.41 44.88 -4.02 0 -0.19 52.71 -5.11 -0.05 -0.14 73.73 -7.52 0 -0.17c17.19,-1.76 37.27,-1.76 60.08,0 22.72,1.71 43.33,5.06 61.62,10.04l0.85 0.05c8.02,2.21 17.79,5.47 29.5,9.87l-0.09 0.26c11.13,4.14 20.88,8.28 28.85,12.17l-0.17 0.31c11.63,5.61 20.86,10.56 27.48,14.7 9.37,5.73 18.1,11.63 25.99,17.56 9.33,7.01 17.5,13.74 24.39,20l-0.05 0.91c9.63,8.78 17.25,16.29 22.52,22.21 5.54,6.22 12.49,15.1 20.56,26.24l0.85 0.05c6.83,9.47 12.85,18.72 17.89,27.74l-0.14 0.09c5.42,9.37 10.18,18.91 14.49,28.54l-0.05 0.85c5.2,11.75 9.33,22.43 12.34,31.8 2.76,8.6 5.43,18.95 7.97,30.94l-0.04 0.85c3.47,16.86 5.47,27.44 5.9,31.85 0.93,9.18 1.41,20.39 1.36,33.51 -0.05,7.52 -0.71,18.06 -2.12,31.63 -1.26,12.17 -2.9,23.26 -4.99,32.99 -2.21,10.39 -5.07,21 -8.59,31.8l-0.09 1.71c-2.21,6.61 -6.28,16.56 -12.08,29.73l-0.09 0.85c-3.66,8.11 -8.56,17.48 -14.7,28.19l-0.05 0.85c-5.37,9.18 -11.13,18.15 -17.31,26.73l-0.96 0.79c-5.78,8.04 -12.13,15.96 -18.91,23.74l-1.02 1.64c-7.3,8.23 -14.13,15.37 -20.55,21.43l-0.91 -0.12c-4.05,3.88 -8.11,7.58 -12.17,11.04l-1.14 53.16c-0.41,23.26 -0.41,58.46 0.05,106.24 0.4,47.57 1.05,85.67 1.99,113.95l-0.09 0.83c1.59,50.87 3.4,95.26 5.36,132.91 1.36,25.88 4.52,73.02 9.48,141.92 4.4,61.48 8.37,112.26 11.89,151.96 2.9,32.76 8.2,87.31 16.08,163.68l-0.67 0.05 3.66 34.75 0.17 -0.05c1.85,16.69 -0.8,-8.51 3.62,29.14 5.16,44.79 -0.22,3.88 2.85,27.66 3.17,25.19 -2.3,-19.5 3.85,25.47 3.26,24.12 1.94,15.94 3.02,23.38 1.9,12.72 0.45,2.3 1.81,9.96l39.86 -12.63 4.49 -1.72c11.23,-3.66 24.83,-8.37 41.17,-14.18 18.15,-6.47 31.4,-11.32 38.96,-14.15l0.81 0.05c14.58,-5.61 27.28,-10.58 37.91,-14.98l23.74 -10.04 2.91 -10.42c3.21,-10.35 6.56,-19.86 10.13,-28.35l0.96 -1.59c8.42,-20.03 18.38,-38.81 30.09,-56.17 11.8,-17.65 25.88,-34.44 42.02,-50.3l-0.45 -0.45c6.73,-6.57 13.79,-12.89 21.26,-18.91l-3.47 -9.37c-4.71,-13.39 -9.87,-30.26 -15.34,-50.66 -5.37,-19.81 -9.37,-36.82 -12.03,-51.06 -2.66,-14.04 -5.11,-29.37 -7.35,-45.73 -1.27,-9.42 -2.83,-24.88 -4.57,-46.64 -1.47,-17.56 -2.35,-33.08 -2.66,-46.48 -0.45,-15.1 -0.45,-30.56 0.05,-46.24 0.31,-12.63 1.22,-27.78 2.66,-45.24 1.71,-20.62 3.3,-35.91 4.66,-45.93 2.55,-18.22 5.07,-33.44 7.37,-45.59 3.17,-15.89 6.52,-30.95 10.18,-45.19 3.26,-13.03 6.97,-26.43 11.04,-40.05l13.48 -40.13c6.87,-20.31 11.39,-33.44 13.79,-39.67l0.05 -0.85c2.41,-6.28 7.66,-19.06 15.91,-38.6 6.75,-16.12 12.54,-29.16 17.13,-39.12 7.09,-15.29 13.16,-27.87 18.27,-37.87 6.16,-12.2 12.99,-24.88 20.19,-38.01 2.02,-3.66 9.49,-16.2 21.53,-36.25l0.05 -0.91c8.94,-14.8 16.25,-26.52 22.17,-35.6 4.52,-6.92 12.63,-18.72 24.28,-35.24 10.73,-15.34 18.81,-26.64 24.24,-33.75 11.27,-14.98 19.95,-26.19 25.88,-33.39l27.38 -31.59c12.72,-14.55 21.85,-24.83 27.52,-30.84 8.45,-8.99 18.27,-19 29.26,-29.95 12.49,-12.43 22.45,-21.98 30.08,-29.08 10.63,-9.78 22.38,-20.05 35.25,-30.7 11.18,-9.28 23.33,-18.76 36.37,-28.37 12.54,-9.3 25.24,-18.27 38.1,-26.78 7.87,-5.07 20.81,-12.99 39.41,-23.86l-0.21 -0.4c15.01,-8.78 28.73,-16.34 41.13,-22.72 14.58,-7.58 28.63,-14.3 42.07,-20.31 13.18,-5.98 27.57,-11.94 42.98,-17.91 11.13,-4.31 25.52,-9.37 43.24,-15.24l-0.09 -0.28c11.58,-3.87 28.33,-8.54 50.09,-14.06l-0.05 -0.26c20.41,-5.16 37.58,-8.93 51.49,-11.32 16.11,-2.81 33.56,-5.07 52.25,-6.83 19.91,-1.81 37.58,-2.9 52.71,-3 10.98,-0.09 28.59,0.6 52.61,2.3 22.36,1.64 39.63,3.35 51.61,5.16 14.18,2.21 31.59,5.78 51.97,10.7l-0.04 0.09c17.26,4.17 33.94,8.93 50.09,14.08l6.69 2.26c17.74,6.38 23.61,9.13 29.59,11.89 8.28,3.88 16.74,8.78 24.88,13.04l4.05 2.55 6.69 3.35 0.79 0.91 13.61 7.58c3.97,2.33 8.68,5.43 13.93,8.93 4.35,2.9 8.73,6.02 13.04,9.16l14.3 10.94 1.57 1.81 12.94 10.89c9.13,9.28 17.91,17.91 26.52,27.57 12.15,13.96 23.88,28.63 35.37,43.97 7.09,9.48 14.49,20.07 22.31,31.75 7.42,-7.97 15.29,-15.94 23.52,-23.76 16.07,-15.24 33.48,-29.69 52.19,-43.2 18.41,-13.36 37.77,-25.57 57.96,-36.6l0.09 0.19c20.26,-10.96 40.48,-20.5 60.68,-28.49 20.81,-8.28 41.89,-15.34 62.98,-21.13l8.06 -1.38c18.65,-4.88 35.2,-8.49 49.55,-10.94 21.07,-3.61 39.86,-6.02 56.28,-7.32 16.06,-1.19 34.96,-1.71 56.73,-1.4 16.06,0.23 34.61,1.36 55.68,3.52 21.36,2.15 39.86,4.71 55.51,7.57 18.15,3.38 36.42,7.47 54.73,12.39 20.26,5.36 38.36,10.87 54.16,16.34l-0.05 0.22c18.46,6.47 35.75,13.13 51.89,19.95l2.81 1.41 0.09 -0.09c14.01,6.11 29.11,13.34 45.36,21.72 10.87,5.61 25.42,13.89 43.66,24.66 18.24,10.96 32.3,19.86 42.24,26.64 12.44,8.56 25.98,18.6 40.72,30.13 15.06,11.85 27.92,22.52 38.58,31.94 11.28,10.08 23.35,21.62 36.25,34.63 12.3,12.42 23.97,24.85 34.89,37.27 8.28,9.42 18.91,22.52 31.75,39.01 12.7,16.2 23.48,30.99 32.25,44.24l0.45 -0.31c6.47,9.68 15.8,25.57 27.92,47.43 9.64,17.31 18.06,33.84 25.19,49.59 7.78,16.96 14.61,33.8 20.5,50.4l1.45 3.97 8.82 5.47 -0.05 0.85c12.89,8.77 20.86,14.39 24,16.93l0.8 0.91c7.83,6.47 14.8,13.34 21.36,19.72 7.87,7.66 14.27,14.34 19.24,20l4.62 5.3c118.66,46.1 202,409.97 -313.48,382.5 214.98,240.96 322.11,482.08 279.68,797.32 -3.52,26.07 -8.42,50.49 -14.58,73.07l-2.55 7.26c-6.66,21.84 -13.7,41.39 -21,58.44l0 0.91c-7.49,17.34 -16.77,35.91 -28,55.61 -10.73,18.95 -22.12,36.7 -34.04,53.11 -12.08,16.56 -25.47,32.8 -40.03,48.64 -13.08,14.13 -28.02,28.59 -44.83,43.12 -15.2,13.18 -31.54,25.88 -48.94,38.01 -15.24,10.58 -32.89,21.45 -52.8,32.59 -18.15,10.09 -36.56,19.31 -55.11,27.57 -72.97,32.34 -160.69,56.04 -254.21,69.95 -88.67,13.3 -185.52,18.36 -281.7,14.01 -91.52,-4.17 -183.14,-16.86 -267.65,-39.07 -86.01,-22.67 -165.95,-55.01 -233.66,-98.21 -14.66,-9.33 -30.38,-20.45 -47.23,-33.2 -14.67,-11.13 -29.45,-23.47 -44.22,-36.91 -15.74,-14.3 -29.59,-27.87 -41.27,-40.6 -10.37,-11.23 -21.36,-24.39 -32.8,-39.22l-9.25 -2.3c-7.35,-1.95 -17.01,-5.16 -29.16,-9.69l-0.85 -0.28c-19.51,-7.32 -37.01,-15.41 -52.3,-24.33 -17.91,-10.44 -34.3,-22.02 -49.04,-34.75 -15.89,-13.53 -30.18,-28.28 -42.76,-44.07l0.05 -0.79c-14.35,-18.05 -25.64,-34.72 -33.7,-49.71l0.67 -0.35c-6.47,-12.08 -11.4,-22.31 -14.8,-30.69 -4.09,-10.27 -7.87,-21.27 -11.23,-32.99 -3.97,-14.06 -6.66,-25.69 -8.19,-34.82l0.67 -0.09c-2.35,-14.48 -3.71,-26.16 -4.17,-35.29l0.09 -0.85c-0.36,-7.59 -0.05,-18.46 0.95,-32.71 -11.89,1 -24.17,1.64 -36.96,1.85 -0.6,5.37 -1.31,10.08 -2.09,14.24 -1.57,8.82 -3.78,18.36 -6.64,28.68l0.36 0.05c-2.61,9.78 -6.38,20.71 -10.92,32.61l-0.26 -0.09c-4.93,12.51 -9.37,22.72 -13.39,30.54l-0.09 0.85c-4.31,8.2 -9.63,17.36 -16.11,27.23 -4.45,6.8 -11.28,15.8 -20.31,26.95l-0.09 0.85c-6.11,7.44 -13.2,15.2 -21.26,23.21l0 0.85c-5.67,5.61 -13.99,12.94 -25.19,22.01l-0.96 0.8c-6.7,5.42 -15.03,11.41 -25.07,18.06 -81.53,53.99 -293.87,128.08 -514.93,178.57 70.12,116.76 111.57,252.71 114.55,398.12 8.97,-9.56 18.65,-18.55 28.99,-26.87 23.97,-19.31 53.56,-36.34 85.1,-49.28 104.27,-42.67 251.14,-39.63 341.31,61.08 101.16,113.05 123.06,217.84 143.37,332.15 29.82,8.37 55.87,20.22 78.96,34.35 58.09,35.46 83.96,72.63 106.72,107.34l11.94 23.12c25.24,43.6 44.34,86.15 57.87,127.63 13.2,-6.02 26.43,-11.54 39.82,-16.39 20,-7.37 41.31,-13.84 63.91,-19.41l2.64 -0.52c17.41,-4.09 35.6,-7.57 54.61,-10.37 18.31,-2.69 37.13,-4.61 56.23,-5.68 19.46,-1.05 38.46,-1.28 56.96,-0.6l0 0.19c18.27,0.71 36.96,2.16 56.01,4.48l0.09 -0.76c13.89,1.67 32.46,4.97 55.32,9.78 19.67,4.06 37.67,8.51 54.01,13.25 14.3,4.21 32.15,10.27 53.3,18.29 22.55,8.46 39.86,15.5 51.85,20.97l5.26 2.95c14.48,6.87 28.59,14.06 42.17,21.62 17.25,9.54 31.75,18.01 43.52,25.52 14.34,9.23 28.23,18.76 41.53,28.49 16.08,11.82 29.25,22.07 39.51,30.69 12.98,10.94 25.42,22.12 37.27,33.44 10.08,9.68 21.93,21.85 35.1,36.2 13.48,14.7 24.43,27.14 32.76,37.41l0.17 0.85c10.37,12.72 20.5,26.12 30.44,39.96 8.54,11.98 18.36,27.14 29.5,45.69 11.18,18.65 20.22,34.87 27.04,48.45 8.09,16.46 15.6,33.08 22.26,49.95l0.14 -0.05c5.92,14.89 11.98,32.34 17.96,52.16l0.5 1.36 4.85 3.4c9.09,6.52 16.82,12.63 23.52,18.41 14.67,12.74 29.02,28.04 42.81,45.57 14.44,18.27 26.24,36.63 35.32,54.92 9.73,19.63 17.39,40.53 22.98,62.69 5.33,20.96 8.33,42.12 9.28,63.43l0.17 0.85c0.24,6.8 -0.05,17.5 -1.05,32.2l0.65 0c-0.54,8.97 -2.16,20.56 -4.52,34.35l0.14 0.8c-2.43,13.53 -4.85,24.76 -7.47,33.58 -3.12,10.44 -6.92,21.17 -11.49,32.16 -3.12,7.58 -8.02,17.45 -14.54,29.39l0.17 0.76c-5.52,10.22 -11.09,19.34 -16.7,27.52l-0.78 0.17c-5.73,8.28 -12.25,16.79 -19.63,25.52 -8.46,10.09 -15.24,17.61 -20.22,22.52 -12.77,12.63 -27.12,24.52 -42.86,35.7l-0.76 0.17c-16.93,11.99 -33.16,21.72 -48.45,29.04 -18.24,8.73 -36.34,15.63 -54.21,20.6l-0.26 -0.78c-20.17,5.61 -38.15,9.28 -54.01,11.04l-3.61 0.4 -14.53 1.02 -11.98 0.54 -33.75 3.8 -28.5 4.28 12.03 15.03c10.73,13.7 21.45,27.69 32.06,41.79 4.9,6.52 14.65,19.96 28.59,39.37l25.99 36.02c7.68,11.54 14.98,22.98 21.93,34.25l6.66 11.49 -0.26 0.17c11.58,19.86 21.93,38.81 30.84,56.91 11.63,23.21 21.45,45.16 29.64,65.74 7.85,19.69 15.69,42.58 23.31,68.59 6.43,21.72 11.77,44.53 16.15,68.31 5.33,28.54 8.59,52.9 9.87,73.07 1.54,23.35 1.54,47.93 0,73.66 -1.45,25.69 -4.42,50.3 -8.87,73.76 -4.61,24.23 -10.73,48 -18.36,71.21l-0.14 0 -2.64 8.37c-6.47,17.79 -14.65,36.87 -24.43,56.96 -8.23,16.77 -18.41,34.92 -30.66,54.37 -12.43,19.77 -24.43,36.87 -35.84,51.26 -13.8,17.25 -27.78,33.08 -42.03,47.33 -14.3,14.3 -29.54,28.09 -45.73,41.13 -14.65,11.8 -31.49,23.93 -50.44,36.25 -20.74,13.44 -38.41,24.02 -52.94,31.54 -13.58,7.09 -32.56,15.56 -56.82,25.55 -19.96,8.23 -37.01,14.75 -50.95,19.41 -19.17,6.56 -36.56,11.94 -52.06,16.15l-0.78 0.14c-11.15,3 -28.78,6.92 -53.02,11.81 -20.26,4.06 -38.18,7.23 -53.47,9.3 -21.26,2.81 -39.27,4.71 -53.96,5.81 -19.5,1.4 -37.46,2.16 -53.8,2.3 -11.77,0.14 -27.38,-0.26 -46.55,-1.07 -19.37,-0.78 -35.11,-1.76 -46.64,-2.81l-12.99 -1.24 -0.96 -0.71c-22.31,-2.16 -39.86,-4.28 -52.78,-6.21 -12.43,-1.9 -29.99,-5.33 -52.11,-10.13 -24.52,-5.37 -42.07,-9.52 -51.85,-12.3l0.05 -0.35c-17.39,-4.9 -34.27,-10.32 -50.44,-15.98 -14.61,-5.16 -31.09,-11.63 -49.4,-19.46 -18.01,-7.68 -33.8,-15.01 -47.35,-21.76 -13.65,-6.92 -29.14,-15.56 -46.5,-25.73 -16.2,-9.59 -31.09,-19 -44.53,-28.23 -86.63,-59.01 -151.65,-117.59 -197.5,-176.48 -31.94,29.45 -73.3,49.9 -123.77,64.39l-0.85 0.19c-55.42,15.84 -98.54,13.7 -152.31,10.87l-4.93 -0.05 0 -0.19c-35.37,-1.81 -81.25,-3.52 -128.79,9.33 -24.57,6.56 -68.26,20.96 -117.64,37.27l-1.14 0.36c-59.25,19.5 -124.37,40.96 -145.44,47.52 -49.45,15.34 -95.5,28.23 -129.89,34.35l-38.91 6.69 -38.1 5.9 -37.77 5.25 -72.16 6.87c-13.39,0.95 -25.37,1.59 -35.96,2.04l-68.9 0.45 -14.84 -0.45 -2.72 -0.31c-5.61,-0.26 -17.79,-1.14 -36.25,-2.59 -19.2,-1.57 -31.26,-2.72 -36.51,-3.38 -17.41,-2.24 -32.82,-4.8 -46.24,-7.52 -10.09,-2.07 -25.24,-5.98 -45.38,-11.68 -20.36,-5.87 -36.3,-11.04 -47.64,-15.51 -13.39,-5.16 -28.85,-12.3 -46.19,-21.26l-0.31 0.62c-13.17,-6.78 -28.23,-15.82 -45.09,-27.14l-0.14 -0.09 -7.49 8.73 0.19 0.79c-6.11,6.92 -13.48,14.53 -22.07,22.72 -9.18,8.59 -17.45,15.84 -24.57,21.26 -5.61,4.35 -14.67,10.37 -27.38,18.31l-0.66 1c-8.54,5.28 -17.15,9.99 -25.78,14.31l-0.81 0.14c-7.32,3.61 -16.56,7.63 -28.06,12.03 -7.92,3 -17.27,6.16 -28.09,9.28 -7.76,2.3 -16.56,4.48 -26.38,6.43l-19.43 4.57 -22.36 5.68 -25.88 7.06c-41.13,11.09 -7.14,1.14 -28.99,7.32l-32.25 9.73 -34.84 10.63c-110.57,35.6 -240.77,70.91 -365.63,6.09 -49.71,-25.82 -86.55,-66.12 -103.23,-121.82l-97.49 -104.73 -7.57 0.74c-12.2,1.07 -22.21,1.57 -30.16,1.5 -11.54,-0.05 -21.41,-0.5 -29.37,-1.24 -6.52,-0.6 -16.65,-2.21 -29.73,-4.66 -11.09,-2.07 -20.76,-4.22 -28.99,-6.57 -6.07,-1.67 -14.93,-4.71 -27.09,-9.28l-0.23 0.67 -5.87 -2.3c-29.7,9.59 -61.75,17.5 -91.97,26.02 -8.82,2.3 -25.67,6.39 -50.4,12.17 -12.17,2.81 -29.47,6.66 -52.11,11.41 -39.27,8.28 -45.24,9.94 -50.95,10.98l-0.14 -0.85 -37.1 6.66 -36.46 5.9 -36.06 5.28c-24.39,3 -45.59,5.24 -70.07,7.14 -12.3,0.91 -23.81,1.62 -34.52,2.04l-34.56 0.36 0 0.85c-8.23,0.09 -19.36,-0.09 -32.85,-0.5l0.05 -0.5c-17.5,-0.4 -31.99,-0.97 -43.48,-1.81 -19.2,-1.36 -34.11,-2.78 -44.79,-4.23 -10.32,-1.36 -25.57,-4.17 -45.24,-8.28 -19.95,-4.17 -35.06,-7.7 -45.05,-10.67 -15.98,-4.67 -31.68,-10.13 -46.88,-16.2l0.22 -0.4c-14.15,-5.61 -29.25,-12.8 -45.41,-21.22 -17.1,-8.94 -31.94,-17.74 -44.43,-26.24 -12.43,-8.42 -25.64,-18.72 -39.67,-30.78l-0.24 0.31c-10.18,-8.8 -20.67,-19.12 -31.44,-31.06l-1.02 -0.67c-7.92,-8.72 -16.69,-19.76 -26.21,-32.99l-1 -0.67 -4.17 -6.11 -0.09 9.42c-0.17,11.58 -0.8,22.26 -1.98,32.04 -1.64,14.31 -3.4,25.64 -5.25,33.96l-0.31 -0.05c-2.17,9.42 -5.07,19.69 -8.73,30.75l0.31 0.09c-3.02,9.04 -7.13,19.33 -12.25,30.8l0.17 0.85c-3.52,7.75 -8.59,17.48 -15.34,29.19 -5.25,9.18 -11.13,18.29 -17.43,27.19 -5.92,8.32 -12.25,16.43 -18.95,24.23 -8.59,10.01 -16.11,18.29 -22.57,24.36l-0.5 -0.5c-7.92,7.68 -16.2,14.93 -24.76,21.71 -10.18,8.04 -19.26,14.61 -27.04,19.55 -7.97,5.11 -17.67,10.54 -28.94,16.2 -9.73,4.94 -19.56,9.37 -29.54,13.3l0.04 0.14c-7.78,3.02 -17.96,6.38 -30.44,9.94 -9.33,2.59 -19.2,4.97 -29.54,6.97l-0.85 0.17c-15.03,2.86 -24.81,4.57 -29.09,4.97l-0.05 -0.21 -19.6 2.26 -25.02 3.54 -28.19 4.66c-33.3,5.78 20.22,-3.17 -33.04,6.83l-76.02 14.3c-21,4.42 -47.54,10.3 -79.34,17.56l-12.99 3.61c-8.06,1.54 -17.45,2.85 -28,3.92l-0.85 0.14c-4.28,0.5 -13.48,0.85 -27.69,1.19 -13.56,0.4 -23.62,0.35 -30.09,-0.05 -7.78,-0.5 -16.08,-1.36 -24.98,-2.45l-4.8 -0.4c-8.63,-1.24 -18.76,-3.26 -30.44,-6.16l0.09 -0.31c-9.78,-2.35 -19.2,-5.06 -28.33,-8.15 -13.08,-4.42 -22.46,-7.78 -27.97,-10.18 -2.31,-1.02 -11.15,-5.59 -25.64,-13.3l-0.91 0.14c-9.99,-5.36 -19.56,-11.23 -28.82,-17.44 -9.68,-6.56 -19.26,-13.79 -28.54,-21.72 -10.22,-8.63 -18.95,-16.81 -26.28,-24.52 -6.47,-6.92 -14.27,-16.34 -23.21,-28.4l-0.81 0.17c-6.11,-8.28 -12.63,-18.15 -19.5,-29.82l-0.26 0.09c-5.07,-8.73 -10.58,-19.86 -16.39,-33.3 -5.16,-11.89 -9.37,-23.04 -12.63,-33.48 -4.06,-13.25 -7.09,-25.02 -8.99,-35.15 -3.52,-18.75 -5.2,-39.32 -5.2,-61.67l-0.14 -0.85c0.05,-20.48 2.24,-41.39 6.47,-62.69 4.21,-21.17 10.18,-41.13 17.84,-59.85l0.67 -1c7.83,-19.1 16.96,-36.79 27.32,-53.11l0.71 -1.02c7.75,-12.13 14.22,-21.45 19.31,-27.88l0.54 0.36c6.75,-8.59 12.99,-15.96 18.58,-22.07 -17.65,-87.56 -27.09,-180.11 -45.33,-274l-158.21 -813.26c-94.74,121.39 -151.46,60 -242.91,-107.98l0.02 0.19zm3268.96 -1829.37c46.19,-20.67 62.53,-23.55 112.79,-35.27l-0.52 -1.85 0.05 -0.85 -4.93 -20.14 0.05 -0.85c-6.38,-26.78 -2.21,-7.83 -5.33,-21.62 -0.65,-3.71 -1.41,-6.9 -2.35,-10.56l-9.78 -56.42c-3.4,-21.81 2.07,11.68 -4.02,-30.64 -4.28,-29.33 -3.66,-23.61 -4.83,-32.3 -2.5,-18.77 0.95,5.8 -3.95,-32.9l-0.17 0.05c-4.52,-35.29 -3.26,-23.21 -4.62,-34.84l-0.19 0c-19.98,-170.2 -23.55,-245.19 -28.99,-426.81 -255.54,-15.55 -152.05,290.45 -120.39,559.53l2.26 -0.19 0.35 3.52 -0.09 1.71 3.7 41.48 0.31 0 0.31 3.17 8.02 8.02c8.11,8.06 15.08,15.82 20.91,22.88 7.83,9.59 13.99,17.74 18.5,24.48l-0.05 0.85c6.47,9.65 11.99,18.81 16.48,27.28 2.43,4.52 4.52,8.63 6.43,12.39l0.05 -0.11zm-77.27 -144.68l-0.57 2.76 1.45 -0.14 1.14 -2.83 -2.04 0.19 0.02 0.02zm-0.57 2.76l-0.28 1.71 1.19 -0.09 0.54 -1.73 -1.45 0.14 0 -0.03zm-0.29 1.7l-1.99 10.8 3.18 -10.89 -1.19 0.09zm1714.85 2141.36c-39.32,19.29 -79.8,34.98 -119.8,46.78 -176,52.02 -359.43,27.5 -462.18,-81.67 -8.51,3.66 -15.24,6.3 -20.14,8.06l0 0.09c-7.58,2.59 -17.87,5.52 -30.99,8.63 -9.11,2.15 -18.95,4.05 -29.3,5.52 -8.9,1.28 -19.1,2.3 -30.13,2.91l-0.85 0.14c-10.63,0.6 -19.81,0.85 -27.32,0.71 -11.54,-0.19 -21.22,-0.76 -28.76,-1.45l-7.92 -1.02 2.81 0.81c10.89,2.95 20,5.8 27.19,8.46 11.75,4.35 20.81,8.02 27.04,10.92l0.17 0.85c14.75,7.02 23.66,11.44 26.11,12.85l-0.23 0.5c4.93,2.9 12.68,8.14 23.3,15.65l0.36 -0.5c7.68,5.52 15.46,11.54 23.29,18.15 7.11,6.02 15.1,13.63 23.83,22.72 9.87,10.23 17.65,19.1 23.31,26.47l0.14 0.85c7.16,9.42 13.93,19.5 20.17,30.09 6.87,11.68 12.23,21.85 16.15,30.54l0.33 -0.17c4.17,9.42 8.5,21.71 12.85,36.32 3.07,10.27 5.69,21.93 7.88,35.11l0.19 0.85c2.12,12.99 3.52,24.71 3.97,35.01 0.54,10.22 0.31,22.07 -0.5,35.37l0.74 0.05 -0.71 11.63 0.76 3.91c3.52,7.87 6.16,17.31 9.04,25.47 1.99,7.78 4.11,18.36 6.16,31.94 2.11,13.44 3.3,24.83 3.78,33.8 0.5,11.09 0.23,22.86 -0.54,35.34l-0.26 0c-1.81,23.93 -6.16,46.55 -13.39,69.45 -4.71,14.89 -8.78,26.33 -12.23,34.06l-0.45 -0.26 -4.35 9.33 11.89 -4.22 0.85 -0.14c138.16,-46.47 267.14,-16.6 363.59,98.35l0.31 -0.31c8.28,9.87 15.39,19.26 21.1,28l-0.71 0.41c7.28,10.92 13.2,20.81 17.67,29.64 2.12,4.04 4.26,8.68 6.47,13.79 37.22,-39.39 83.29,-75.04 137.11,-108.03 63.07,-38.72 141.73,-76.19 232.56,-114.09 -9.99,-12.68 -20.41,-26.02 -31.11,-40.05 -20.41,-26.59 -32.3,-42.37 -36.7,-48.36 -9.42,-12.99 -20.5,-28.76 -33.18,-47.19 -7.37,-10.84 -17.27,-25.88 -29.54,-45.24l-0.17 -0.79c-11.41,-18.1 -20.4,-32.82 -26.87,-43.97 -6.38,-10.98 -13.91,-25.28 -22.86,-42.98l-0.21 0.17 -1.27 -1.81c-12.29,-24.71 -22.9,-48.28 -31.8,-70.4 -8.51,-21.41 -16.86,-45.55 -24.83,-72.47 -6.7,-22.45 -12.73,-47.19 -18.01,-74.01l-3.71 -20.56 -0.09 0.01zm-3651.51 976.61c-1.95,-10.28 -3.52,-20.62 -5.21,-30.95l-3.52 -24.26 -3.17 -25.14c-1.05,-10.32 0.67,4.23 -1.85,-25.11 -2.04,-24.26 -1.95,-19.95 -2.41,-26.07 -0.71,-10.35 0.5,4.11 -1.26,-27.93l0.09 0c-1.76,-30.04 -1.26,-14.48 -1.81,-26.83l-0.35 -2.76 0.17 0c-0.4,-9.11 -0.81,-25.28 -1.22,-47.83l-0.6 -105.1 -0.21 -0.85 1.36 -57.17 4.35 -121.52 -0.17 -0.85 2.16 -35.94 -7.23 8.19c-16.2,17.84 -31.99,34.84 -47.31,50.87 -8.06,8.59 -24.62,25.42 -49.5,50.56 -20.05,20.26 -35.4,35.56 -45.73,45.55l-39.82 38.36 10.18 52.02 32.14 161.33 10.75 52.99 13.13 4.68c11.15,4.09 20.93,8.19 29.25,12.17 7.42,3.54 16.56,8.56 27.23,14.94l0.85 -0.09c7.06,4.26 15.54,10.04 25.42,17.19 8.46,6.26 17.05,13.13 25.47,20.65 9.34,8.33 17.74,16.68 25.14,24.83l3.61 4.09 0.05 -0.02z"/>
   <path class="fil2" d="M1727.41 5039.43c9.68,45.43 20.05,94.52 31.09,147.25 11.75,56.06 24.23,116.35 37.39,180.81l38.5 189.61 36.37 181.59 30.64 -29.69c14.75,-14.53 28.94,-28.94 42.58,-43.12l5.37 -5.61c22.98,-24 45.69,-48.67 68.09,-73.92 22.38,-25.33 43.88,-50.56 64.41,-75.68l0.79 -1.05c38.65,-46.07 72.63,-89.62 101.7,-130.58 29.09,-40.96 53.54,-79.54 73.26,-115.71 19.06,-34.96 33.79,-67.55 44.17,-97.64 10.18,-29.7 16.24,-57.13 18.15,-82.2 0.91,-20.62 0.14,-39.12 -2.3,-55.46 -2.43,-15.91 -6.43,-29.85 -11.98,-41.79 -4.88,-10.37 -11.18,-19.34 -18.8,-26.97 -7.49,-7.47 -16.51,-13.7 -26.95,-18.6 -12.44,-5.85 -26.43,-10.39 -42.02,-13.65 -15.87,-3.43 -33.2,-5.43 -51.9,-6.09 -19.91,-0.69 -41.72,0.17 -65.31,2.47 -23.88,2.35 -49.09,6.28 -75.59,11.63l-0.28 0.12c-27.83,5.56 -55.63,12.32 -83.37,20.19 -27.47,7.85 -55.2,16.91 -83.15,27.19 -23.38,8.59 -46.91,18.1 -70.47,28.49 -20.22,8.87 -40.39,18.41 -60.44,28.45l0.06 -0.06zm522.9 -1675.14c-52.93,92.5 -115.49,198.12 -182.29,303.2 -54.16,85.19 -111.07,169.89 -167.68,246.48 -53.07,71.89 -106.22,136.9 -156.98,189.22 -46.29,47.52 -90.93,84.87 -132.36,107.6 -25.97,14.2 -51.63,26.59 -77.06,36.96 -25.69,10.54 -51.42,19.22 -76.99,26 -25.99,6.83 -52.16,11.72 -78.54,14.7 -26.16,2.9 -52.59,3.88 -79.13,2.72 -26.56,-1.11 -52.35,-4.22 -77.13,-9.08 -25.05,-5.02 -49.36,-11.94 -72.97,-20.62 -23.83,-8.89 -46.74,-19.46 -68.67,-31.7 -22.17,-12.37 -43.52,-26.52 -64.08,-42.29 -109.05,-83.74 -179.29,-198.57 -219.17,-332.46 -44.53,-149.48 -51.04,-322.8 -31.59,-502.94 41.34,-380.95 279.59,-1047.92 507.46,-1363.56 23.43,-32.34 47.04,-62.89 70.9,-91.62 23.4,-28.19 47.23,-54.66 71.31,-79.29 24.26,-24.83 48.4,-47.29 72.37,-67.4 24.14,-20.22 48.28,-38.2 72.35,-53.99l1.16 -0.81c15.72,-10.01 31.54,-18.91 47.07,-26.78 15.8,-7.92 31.32,-14.67 46.59,-20.29 15.63,-5.78 31.63,-10.54 47.88,-14.15 16.2,-3.61 32.19,-6.13 47.8,-7.32l0.65 0c20.96,-1.57 41.27,-1.02 60.93,1.59 19.79,2.57 38.91,7.32 57.18,14.2 18.33,6.85 35.65,15.69 51.89,26.47 16.2,10.73 31.49,23.52 45.93,38.27 23.31,23.12 43.69,51.54 61.04,85.36 17.15,33.35 31.4,71.9 42.76,115.67l0.05 0.23c13.93,58.13 21.72,93.83 26.11,129.84 4.48,36.13 5.56,72.42 6.12,131.69 0.57,55.25 33.16,69.95 64.67,84.05 30.7,13.84 60.57,27.23 71.85,66.86 1.36,4.9 2.07,9.78 2.16,14.44 0.31,20.09 -10.58,36.2 -28.73,49.1 -15.63,11.04 -36.91,19.64 -60.65,26.44 -73.56,20.86 -175.05,24.81 -204,25.28 -42.31,0.6 -77.02,-3.47 -102.92,-20.17 -27.09,-17.39 -43.33,-47 -46.64,-96.45l-0.05 -0.54c-0.76,-21.62 2.04,-30.44 7.87,-49.04l1.05 -3.07c8.85,-20.81 16,-34.1 21.36,-43.97 12.03,-22.26 12.94,-23.97 2.55,-87.77 -3.93,-23.88 -6.07,-44.67 -8.23,-65.55 -2.81,-27.57 -5.71,-55.28 -11.75,-85.34 -5.71,-26.19 -12.37,-48.09 -19.95,-65.5 -6.8,-15.98 -14.39,-28.23 -22.62,-36.74l-1.69 0.45c-3.3,1.05 -7.28,2.43 -11.54,4.21 -5.45,2.21 -11.22,4.97 -17.39,8.23 -6.33,3.35 -12.94,7.23 -19.81,11.58 -16.99,11.04 -34.3,24.12 -51.9,39.1 -17.67,15.01 -35.86,32.11 -54.47,51.26 -19.31,19.91 -38.67,41.57 -58.08,65 -19.77,23.78 -39.41,49.25 -59.08,76.28 -223.85,308.27 -458.19,965.72 -475.16,1347.6 -4.9,109.33 4.31,209.39 31.75,291.97 8.19,24.43 17.19,47.35 27.19,68.67 9.99,21.26 20.81,40.88 32.44,58.72 11.4,17.39 23.52,33.2 36.46,47.43 12.91,14.39 26.69,27.09 41.08,38.22 19.5,15.03 39.81,26.43 60.91,34.15 20.91,7.61 42.57,11.63 65.05,11.99 23.57,0.33 48.49,-3.21 74.66,-10.84 26.43,-7.66 54.25,-19.46 83.34,-35.42 36.56,-20 80.48,-62.55 128.22,-119.3 48.4,-57.58 100.44,-129.7 152.7,-207.83 49.81,-74.52 99.35,-154.15 145.84,-232.08 45.59,-76.37 88.45,-151.3 126.01,-218.29 -17.41,-99.63 -18.65,-160.69 0.8,-190.75 22.88,-35.56 65.98,-31.26 134.91,3.21 48.99,24.45 115.05,65.28 158.88,112.23 23.62,25.33 41.13,52.68 46.86,80.87 6.02,29.73 -0.91,59.63 -26.78,87.81 -18.86,20.5 -48.09,39.95 -90.21,57.62l0.11 -0.02zm637.94 -46.64c32.56,-4.02 64.03,-7.61 94.52,-10.94 38.08,-4.07 74.7,-7.61 109.98,-10.63 34.65,-2.92 68,-5.37 99.89,-7.3 25.07,-1.47 50.13,-2.78 75.11,-3.66 -6.3,-22.24 -12.58,-45.1 -18.74,-68.54 -8.28,-31.13 -16.65,-64.14 -25.11,-98.97l-0.05 -0.23c-11.09,-45.67 -22.31,-93.69 -33.61,-143.97 -11.58,-52.02 -23,-104.77 -34.09,-158.29 -6.92,-29.42 -11.89,-60.48 -17.84,-90.35l-5.2 -25.07c-3.66,-16.96 -7.23,-33.65 -10.68,-50.71l-42.47 116.41 -191.65 552.29 -0.06 -0.04zm1069.77 751.32c-4.48,3.04 -12.49,8.77 -24.12,17.15l-45.38 33.25 -67.95 50.26 -86.31 64.34c-5.69,4.11 -11.54,7.63 -17.56,10.39 -6.16,2.81 -12.49,5.02 -19,6.56 -6.28,1.53 -12.85,2.26 -19.6,2.47 -6.69,0.19 -13.3,-0.26 -19.77,-1.31l-0.26 -0.05c-6.3,-1.09 -12.59,-2.76 -18.75,-4.97 -6.13,-2.21 -11.94,-4.9 -17.31,-8.15 -5.54,-3.17 -10.73,-7.06 -15.69,-11.54 -4.66,-4.28 -9.13,-9.18 -13.3,-14.65 -4.26,-5.67 -7.92,-11.68 -10.78,-17.93 -2.98,-6.28 -5.2,-12.89 -6.78,-19.77 -1.5,-6.78 -2.43,-13.7 -2.55,-20.57 -0.09,-6.92 0.45,-13.89 1.71,-20.86 1.1,-6.61 2.76,-12.99 4.93,-19.06 2.15,-6.11 4.76,-12.03 7.83,-17.61 3.21,-5.61 6.87,-11.09 11.04,-16.06 4.11,-5.02 8.68,-9.63 13.75,-13.79l19.95 -14.84c-26.78,-33.2 -52.68,-68.35 -77.44,-105.44 -28.04,-41.91 -54.7,-86.29 -80.08,-133.05 -26.69,-49.21 -52.09,-101.56 -76.23,-156.85 -22.76,-52.37 -44.34,-107.13 -64.48,-164.28 -32.51,0.28 -66.81,1.41 -102.96,3.21 -39.51,2 -81.3,4.93 -125.27,8.82 -46.78,4.02 -95.09,9.06 -144.9,15.01 -47.92,5.81 -98.22,12.46 -150.8,20.08l-29.87 79.03c-10.44,27.26 -21.24,55.11 -32.3,83.37l-26.3 66.69 -18.24 45.38c10.23,1.05 20.03,3.66 29.39,7.78 6.02,2.59 11.75,5.85 17.15,9.73 5.36,3.75 10.37,8.15 15.12,13.13l0.31 0.17c4.66,4.93 8.82,10.27 12.39,16.06 3.61,5.76 6.66,11.89 9.13,18.24 2.35,6.43 4.17,13.04 5.25,19.77 1.14,6.7 1.57,13.58 1.36,20.71 -0.22,6.97 -0.96,13.82 -2.45,20.56 -1.5,6.87 -3.61,13.44 -6.28,19.63 -2.76,6.3 -6.11,12.32 -10.04,17.93 -3.74,5.42 -8.2,10.61 -13.3,15.6l-0.14 0.05c-4.93,4.78 -10.18,9.04 -15.86,12.65 -5.56,3.71 -11.49,6.7 -17.7,9.18l-0.14 0.05c-6.11,2.47 -12.49,4.28 -19.03,5.42 -6.3,1.22 -12.94,1.76 -19.69,1.62l-304.61 -5.11 0 -0.88 -6.66 -1.14c-6.33,-1.31 -12.54,-3.38 -18.6,-6.04 -6.11,-2.69 -11.85,-5.9 -17.15,-9.65 -5.47,-3.93 -10.49,-8.4 -15.15,-13.34 -4.85,-5.11 -9.08,-10.49 -12.63,-16.11 -3.54,-5.78 -6.61,-11.85 -9.04,-18.19 -2.41,-6.33 -4.17,-12.9 -5.25,-19.69l-0.81 -5.95 -1 0 0.91 -29.61 0.81 0.05 1.09 -5.78c1.53,-6.9 3.61,-13.48 6.33,-19.65 2.69,-6.21 6.02,-12.17 10.04,-17.91 3.92,-5.56 8.37,-10.84 13.39,-15.69 4.93,-4.76 10.25,-9.04 15.86,-12.7 5.71,-3.71 11.63,-6.8 17.7,-9.23 6.11,-2.35 12.44,-4.17 19,-5.36l5.81 -0.8 0 -1.05 96.54 1.59 92.71 -237.15 -10.56 1.67 -1.45 3.57c-2.72,6.23 -6.11,12.25 -10.09,17.96 -3.85,5.56 -8.37,10.82 -13.39,15.65 -4.88,4.8 -10.18,9.04 -15.86,12.73 -5.69,3.7 -11.58,6.78 -17.65,9.23 -6.12,2.41 -12.49,4.21 -18.95,5.3 -6.38,1.16 -13.06,1.59 -19.98,1.5 -6.92,-0.17 -13.53,-0.85 -19.81,-2.21 -6.37,-1.31 -12.58,-3.31 -18.59,-6.02 -6.11,-2.66 -11.85,-5.92 -17.15,-9.69 -5.52,-3.92 -10.58,-8.32 -15.24,-13.3 -4.8,-5.07 -8.99,-10.49 -12.56,-16.11 -3.61,-5.78 -6.66,-11.85 -9.06,-18.19 -2.35,-6.23 -4.09,-12.8 -5.21,-19.69l-0.8 -5.92 -1.05 0 0.97 -47.31 0.05 -32.8 -0.4 -37.98c-0.28,-15.2 -0.83,-30.49 -1,-45.67 0.19,-6.83 0.91,-13.56 2.26,-20.03 1.31,-6.47 3.21,-12.85 5.73,-19 2.55,-6.28 5.61,-12.25 9.28,-17.74 3.52,-5.42 7.66,-10.63 12.54,-15.69 4.57,-4.9 9.73,-9.28 15.2,-13.17 5.35,-3.8 11.13,-7.06 17.31,-9.73 5.76,-2.54 11.92,-4.57 18.45,-5.97 6.26,-1.36 12.78,-2.16 19.41,-2.41 6.92,-0.22 13.48,0.14 19.81,1.14 6.42,1 12.68,2.66 18.74,4.9 6.16,2.43 12.04,5.47 17.56,9.04 5.54,3.61 10.87,7.83 15.72,12.6 4.67,4.62 8.94,9.64 12.73,15.03 3.83,5.37 7.01,11.04 9.65,16.91 2.66,5.81 4.76,11.94 6.26,18.36l1 4.62 90.26 -13.89 49.25 -142.78c83.39,-242.03 166.44,-483.04 253.91,-720.59l14.3 -40.31c5.21,-14.24 9.99,-26.92 14.35,-38.36 4.17,-10.78 8.54,-21.76 13.16,-32.9 4.21,-10.13 8.23,-19.46 11.98,-27.87 15.6,-37.48 22.26,-54.06 43.97,-85.5 2.35,-3.02 5.07,-6.09 7.74,-8.8 6.43,-5.54 13.04,-10.36 20.05,-14.34 4.06,-2.29 8.23,-4.35 12.44,-6.04l0.05 -0.67 9.37 -2.83c7.68,-2.3 15.6,-3.7 23.52,-4.06 7.92,-0.43 15.94,0.14 24.12,1.67l0.71 0.19c7.32,1.41 14.34,3.61 20.96,6.43 6.73,2.85 13.11,6.42 18.98,10.56 5.73,4.02 11.09,8.59 15.98,13.7 4.78,4.97 9.23,10.54 13.39,16.7l4.66 7.06c3.21,5.38 5.78,10.04 8.73,15.56 4.11,8.66 6.56,14.48 10.13,23.69 3.7,10.44 7.11,20.53 10.63,31.06 5.28,17.19 9.37,32.65 14.04,50.35l8.42 34.3 9.54 40.6c15.15,67.71 27.69,134.86 40.53,203.12 5.54,27.57 11.94,55.61 16.7,83.34l0.91 6.78 20.5 94.28c7.01,31.75 13.53,60.74 19.5,86.81 6.09,26.78 12.15,52.61 18.06,77.53 5.8,24.52 11.58,47.97 17.22,70.3 5.3,21.36 11.18,43.72 17.6,66.95 6.43,23.52 13.34,47.91 20.71,73.02 7.28,24.62 15.37,51.31 24.26,80.13 8.94,28.68 17.7,56.37 26.38,83.06 9.13,27.93 18.81,55.68 29.04,83.01 10.23,27.18 21,53.96 32.23,80.13 11.24,26.19 22.78,51.4 34.56,75.52 11.94,24.28 24.17,47.85 36.79,70.47 12.7,22.76 25.93,45.19 39.69,67.14 13.73,22.02 27.74,43.17 41.98,63.33 11.42,16.37 23.38,32.56 35.75,48.59 9.78,12.7 19.79,25.24 30.09,37.61l54.21 -36.6c5.52,-3.31 11.23,-6.18 17.15,-8.45 5.78,-2.24 11.72,-3.91 17.79,-4.99 6.11,-1.16 12.17,-1.72 18.31,-1.72 5.9,0.05 12.06,0.6 18.48,1.73l0.31 0c6.96,1.26 13.56,3.12 19.67,5.61 6.28,2.61 12.2,5.87 17.74,9.73 5.47,3.91 10.53,8.37 15.15,13.31 4.45,4.93 8.66,10.58 12.42,16.74 3.4,5.61 6.42,11.54 8.77,17.81 2.47,6.21 4.31,12.54 5.52,18.93 1.24,6.56 1.95,13.22 1.95,19.86 0,6.59 -0.6,13.2 -1.81,19.86l0 0.26c-1.36,7.18 -3.4,14.08 -6.16,20.74 -2.83,6.73 -6.28,13.04 -10.39,18.86 -3.91,5.52 -8.42,10.78 -13.58,15.63 -4.97,4.71 -10.49,9.04 -16.51,12.89l0 0.09zm387.64 -1436.89c-128.98,-51.01 -376.72,95.59 -366.68,261.44 5.37,88.62 97.7,438.87 104.96,518.84l5.02 51.8c2.66,19.95 5.42,39.98 7.73,59.98 4.94,1.05 9.82,2.41 14.67,4.14 6.73,2.47 13.3,5.59 19.67,9.32 5.98,3.52 11.51,7.49 16.74,11.85 5.07,4.31 9.78,9.08 13.96,14.08 4.35,5.38 8.06,10.94 11.18,16.7 3.07,5.87 5.61,12.08 7.61,18.6 2.11,7.04 3.35,14.19 3.8,21.36 0.41,7.23 -0.04,14.39 -1.35,21.45 -1.24,6.92 -3.38,13.7 -6.12,20.22 -2.81,6.43 -6.37,12.8 -10.73,19 -4.06,5.87 -8.59,11.35 -13.48,16.24 -4.88,5.02 -10.13,9.49 -15.74,13.44 -5.59,3.97 -11.66,7.44 -18.06,10.44 -6.43,2.95 -13.13,5.47 -20.14,7.37l-22.98 4.62 -11.58 2.66c-13.65,3.07 -27.32,6.11 -40.46,9.82l-5.11 1.71c-13.44,6.57 -25.97,11.94 -38.67,17.3 -9.23,3.93 -19.69,7.42 -28.32,11.63 -6.92,2.59 -13.96,4.62 -20.86,5.95 -6.87,1.31 -14.06,2.02 -21.36,2.07 -7.23,0.05 -14.34,-0.6 -21.45,-1.85 -7.13,-1.31 -14.15,-3.26 -20.93,-5.82l-7.83 -2.9 -0.09 -0.52c-4.09,-1.9 -8.06,-4.02 -11.72,-6.26 -6.33,-3.95 -12.06,-8.28 -16.96,-12.99 -5.16,-4.97 -9.78,-10.44 -13.74,-16.15 -3.97,-5.81 -7.37,-12.08 -10.13,-18.72 -2.66,-6.43 -4.66,-13.13 -5.97,-20.03 -1.28,-6.85 -1.9,-13.79 -1.76,-20.62 0.17,-6.8 1.02,-13.7 2.66,-20.6 1.62,-6.83 3.97,-13.46 6.92,-20.03 3.07,-6.66 6.73,-12.99 10.87,-18.77 4.17,-5.82 8.99,-11.13 14.35,-16.06 5.3,-4.8 11.09,-9.11 17.25,-12.85 4.88,-2.9 9.99,-5.56 15.29,-7.83l-5.61 -31 -10.87 -44.83 -13.04 -55.72 -15.89 -68.59c-6.07,-26.59 -13.56,-54.92 -18.6,-81.51 -15.34,-68.31 -30.84,-133.15 -46.47,-194.54 -15.65,-61.34 -31.35,-118.57 -46.9,-171.56 -15.39,-52.3 -30.95,-101.04 -46.64,-146.18 -15.51,-44.57 -8.71,-43.6 -24.36,-80.42 -0.57,-1.59 -1.22,-3.35 -1.67,-4.94 -1.93,-6.54 -3.21,-12.94 -3.93,-19.26 -0.71,-6.57 -0.8,-13.08 -0.31,-19.56 0.48,-6.39 1.59,-12.89 3.35,-19.43 1.55,-6.3 3.85,-12.68 6.7,-18.93 3.12,-6.73 6.73,-12.99 10.92,-18.72 4.14,-5.73 8.99,-11.02 14.34,-15.91 5.28,-4.76 11.15,-9.04 17.67,-12.73 6.26,-3.66 13.08,-6.69 20.31,-9.16 6.61,-2.24 13.48,-3.91 20.36,-4.99 7.11,-1.09 14.13,-1.54 20.96,-1.37 6.8,0.14 13.7,0.93 20.56,2.24 6.66,1.31 13.39,3.26 19.91,5.67 40.22,15.23 71.49,51.17 83.24,84.27 91.5,-180.9 462.13,-396.92 619.85,-262.01 38.8,33.2 56.23,91.69 55.8,147.74 -0.4,56.37 -18.86,111.43 -51.63,137.45 -36.53,28.99 -132.09,39.96 -148.48,-46.19l-0.01 0.16zm290.46 -761.24l40.67 -3.12 49.24 -4.35 53.52 -5.21 74.56 -7.61c14.63,-1.5 28.94,-0.41 42.77,3.3 7.11,1.95 13.79,4.48 20.05,7.59 6.33,3.07 12.42,6.75 18.15,11.09 5.83,4.42 11.11,9.23 15.65,14.39 4.61,5.11 8.72,10.78 12.25,16.96 3.52,5.97 6.25,12.28 8.37,18.91 2.16,6.66 3.57,13.44 4.31,20.26 0.67,6.92 0.62,13.89 -0.05,20.81 -0.74,6.87 -2.16,13.65 -4.31,20.22 -2.21,6.75 -5.07,13.08 -8.54,19.1 -3.49,5.99 -7.68,11.75 -12.44,17.22 -4.97,5.56 -10.18,10.49 -15.65,14.75 -5.61,4.35 -11.58,8.16 -17.91,11.37 -6.26,3.12 -12.99,5.78 -20.05,7.78 -7.02,2.07 -14.13,3.52 -21.24,4.19l-6.49 0.69c-4.42,57.46 -7.23,119.93 -8.32,187.02 -1.19,71.97 -0.54,149.1 2.07,231.37 2.76,89.07 7.78,183.85 14.94,284.25 7.18,99.7 16.65,206.89 28.5,321.66 2.76,27.04 5.2,49.54 7.26,67.31 2.47,20.57 4.88,39.72 7.35,57.49 2.33,17.5 4.9,34.65 7.61,51.49 2.52,15.8 5.33,31.56 8.28,47.21 2.17,10.92 4.52,21.59 7.02,32.08 2.52,10.58 5.16,21.22 8.06,31.68l2.95 10.8 4.57 14.84c2.5,7.97 5.21,15.6 8.02,22.9 4.52,11.44 8.14,19.91 10.7,25.55 1.64,3.23 1.73,4.66 1.95,5.2 1.69,0.85 3.87,1.67 6.35,2.3 3.88,1.09 8.63,1.9 14.35,2.52 7.85,0.83 16.77,1.14 26.64,0.91 10.48,-0.24 21.67,-1.15 33.65,-2.52 12.08,-1.45 25.57,-3.61 40.46,-6.4 14.7,-2.78 30.09,-6.18 46.15,-10.13 16.34,-4.06 33.3,-8.78 51,-14.1 17.7,-5.28 35.89,-11.13 54.42,-17.45l1.05 -0.45c30.84,-10.11 60.74,-20.81 89.76,-31.94 29.54,-11.32 58.04,-23.07 85.36,-35.15 22.86,-10.09 45.33,-20.62 67.24,-31.49 17.7,-8.8 35.2,-17.87 52.66,-27.35l-4.9 -10.56c-3.02,-6.38 -5.37,-12.85 -6.92,-19.41 -1.64,-6.78 -2.55,-13.56 -2.66,-20.31 0,-6.75 0.67,-13.58 1.98,-20.14 1.28,-6.64 3.35,-13.3 6.16,-19.94 5.73,-13.8 13.65,-25.52 23.69,-35.34 9.92,-9.73 21.98,-17.5 36.15,-23.21l0.19 -0.09c6.83,-2.78 13.7,-4.88 20.48,-6.33 6.99,-1.54 14.08,-2.41 21.09,-2.59 7.13,-0.19 14.24,0.28 21.27,1.41 7.16,1.09 14.18,2.85 20.95,5.2 7.23,2.47 13.99,5.5 20.36,9.23 6.38,3.71 12.3,8.05 17.62,12.94l0.05 0.09c5.3,4.93 10.04,10.27 14.15,16.11 4.09,5.78 7.66,12.03 10.63,18.72 5.42,11.94 10.87,23.4 16.34,34.48 5.52,11.2 11.13,21.98 16.7,32.35 5.42,10.04 11.18,20.26 17.25,30.58 6.23,10.61 12.63,21.07 19.21,31.35l0.41 0.71c3.61,6.02 6.7,12.32 9.04,18.86 2.28,6.43 3.95,13.13 4.85,20.05 0.88,6.75 1.09,13.48 0.54,20.31 -0.52,6.74 -1.76,13.53 -3.66,20.31 -1.83,6.97 -4.48,13.58 -7.78,19.86 -3.26,6.38 -7.13,12.3 -11.49,17.65 -4.57,5.59 -9.63,10.63 -15.15,15.11 -5.56,4.52 -11.63,8.59 -18.15,12.03 -6.47,3.52 -13.03,6.33 -19.65,8.42 -6.64,2.17 -13.48,3.71 -20.71,4.62l-0.5 0.17c-6.92,0.8 -13.89,1 -20.81,0.6 -6.92,-0.4 -14.04,-1.5 -21.17,-3.31 -6.78,-1.64 -13.2,-3.8 -19.17,-6.42 -3.48,-1.45 -6.78,-3.04 -10.04,-4.85 -22.46,12.13 -45.14,23.78 -68.05,35.01 -24.88,12.15 -50.85,24.17 -77.92,36.01 -31.54,13.79 -63.15,26.73 -94.95,38.86 -32.71,12.46 -65.81,24.26 -99.25,35.3l-13.08 4.35 -0.05 -0.19c-18.6,6.02 -36.56,11.63 -53.92,16.6 -21.45,6.21 -42.17,11.72 -61.79,16.39 -20.71,4.88 -40.31,8.97 -58.72,12.23 -19.03,3.35 -36.87,5.92 -53.61,7.63l-14.8 1.5c-43.67,4.11 -83.07,3.4 -118.21,-2.35 -39.72,-6.47 -74.16,-19.31 -103.3,-38.5l-1.62 -1c-9.33,-6.56 -18.29,-14.35 -26.83,-23.33 -8.47,-8.87 -16.51,-18.95 -24.12,-30.18 -7.14,-10.44 -13.84,-21.88 -20.26,-34.25 -6.38,-12.39 -12.44,-25.73 -18.15,-40.03l-0.8 -2.35c-3.61,-10.58 -6.92,-21.02 -10.01,-31.18 -3.07,-10.37 -6.28,-21.36 -9.44,-33.16 -3.21,-11.75 -6.3,-23.83 -9.47,-36.32 -3.3,-13.58 -6.47,-26.87 -9.48,-40l-0.45 -1.9c-2.64,-14.75 -5.54,-31.54 -8.51,-50.3 -2.72,-17.53 -5.52,-36.78 -8.33,-57.73 -2.81,-21.05 -5.61,-42.77 -8.25,-65.15 -2.92,-24.67 -5.42,-47.04 -7.49,-67 -11.44,-110.91 -20.76,-217.63 -28.09,-320.04 -7.23,-101.82 -12.25,-197.65 -15.07,-287.36 -2.57,-82.11 -3.33,-159.52 -2.21,-232.09 0.96,-65.85 3.49,-128.22 7.52,-187.16 -6.56,0.54 -13.05,0.53 -19.46,-0.09 -7.28,-0.65 -14.55,-2.12 -21.62,-4.26 -7.17,-2.21 -13.99,-5.06 -20.29,-8.63 -6.38,-3.57 -12.49,-7.87 -18.22,-12.89 -5.25,-4.66 -9.96,-9.51 -14.06,-14.63 -4.14,-5.2 -7.83,-10.78 -10.96,-16.7 -3.17,-6.2 -5.71,-12.43 -7.61,-18.64 -1.93,-6.43 -3.26,-12.89 -3.93,-19.5 -0.74,-7.23 -0.69,-14.41 0.17,-21.67 0.91,-7.23 2.57,-14.2 4.94,-20.81l3.26 -8.73 0.71 -0.09c1.73,-3.61 3.74,-7.09 5.98,-10.44 3.92,-6.07 8.6,-11.75 14.04,-17.05 4.93,-4.88 10.3,-9.34 15.96,-13.3 5.78,-4.02 11.68,-7.54 17.87,-10.35 6.33,-2.86 12.82,-5.26 19.38,-7.09 6.83,-1.79 13.73,-3.04 20.57,-3.8l2.76 -0.03 -0.01 -0.17zm1704.15 270.43c-13.05,-2.72 -26.13,-4.11 -39.38,-4.35 -15.03,-0.31 -30.44,1.05 -45.93,3.85 -18.24,3.4 -37,8.94 -56.13,16.56 -19.2,7.76 -38.96,17.7 -59.22,29.95 -20.82,12.54 -40.93,26.56 -60.27,42.17 -19.5,15.63 -38.18,32.71 -55.97,51.18 -18.15,18.72 -35.51,39.12 -52.25,61.06 -16.77,22 -32.75,45.47 -47.85,70.3 -15.6,25.98 -29.28,51.71 -41.17,77.18 -11.85,25.52 -21.76,50.73 -29.73,75.63 -7.97,24.71 -14.15,49.4 -18.5,73.92 -4.35,24.57 -6.87,49.14 -7.68,73.56 -0.74,23.38 0.35,45.43 3.26,66.02 2.9,20.36 7.58,39.22 14.01,56.37 6.07,16.42 13.93,31.59 23.52,45.59 9.47,13.93 20.74,26.73 33.58,38.18l0.76 0.74c15.89,14.67 31.89,26.64 47.85,35.75 15.84,8.94 31.63,15.2 47.43,18.81 15.6,3.49 31.58,4.5 48,3 16.65,-1.5 33.7,-5.61 51.21,-12.23 19.06,-7.23 37.75,-16.77 56.02,-28.57 18.31,-11.81 36.2,-25.85 53.52,-42.05 17.87,-16.87 35.27,-36.08 52.06,-57.63 17,-21.76 33.39,-46 49.14,-72.37 16.26,-27.4 30.66,-55.01 43.15,-82.8 12.49,-27.88 23.12,-56.16 31.97,-84.84 8.8,-28.59 15.89,-57.68 21.05,-87.12 5.33,-29.68 8.73,-59.77 10.37,-90.26 1.59,-29.56 1.07,-58.01 -1.76,-85.34 -2.76,-27.01 -7.61,-52.71 -14.63,-76.82 -6.33,-21.93 -14.55,-42.93 -24.52,-63.03 -9.18,-18.36 -19.81,-35.84 -31.85,-52.4l-0.04 0zm112.52 -178.69c3.26,1.62 6.33,3.31 9.23,5.02 3.35,2 6.69,4.28 9.9,6.64 3.66,2.76 7.11,5.61 10.25,8.51 3.19,2.91 6.28,6.11 9.35,9.52l0.54 0.6c17.62,20.31 33.61,41.74 47.95,64.09 14.35,22.38 26.97,45.64 37.91,69.85 10.94,24.07 20.26,49.04 27.78,74.8 7.58,25.88 13.56,52.73 17.84,80.48 4.17,27 7.11,53.82 8.77,80.44 1.59,26.43 2.02,52.8 1.11,78.89 -0.91,26.16 -3.12,52.06 -6.52,77.56 -3.47,25.69 -8.19,51.18 -14.18,76.37 -5.78,24.43 -12.49,48.54 -20.17,72.37 -7.78,24.12 -16.51,47.91 -26.13,71.26 -9.61,23.26 -20.22,46.29 -31.71,68.83 -11.41,22.43 -23.91,44.79 -37.39,66.95l-0.14 0.31c-44.03,72.02 -92.07,131.83 -144.13,179.22 -52.4,47.71 -108.76,82.91 -169.04,105.58 -38.48,14.96 -76.37,24.26 -113.85,28 -37.51,3.66 -74.52,1.76 -111.03,-5.8 -36.2,-7.59 -71.57,-20.62 -105.87,-39.15 -34.15,-18.5 -67.4,-42.38 -99.63,-71.78l-0.26 -0.33c-18.06,-16.6 -34.35,-34.1 -48.85,-52.37 -14.63,-18.5 -27.66,-37.96 -38.86,-58.27 -11.23,-20.31 -20.81,-41.62 -28.68,-63.88 -7.92,-22.21 -14.15,-45.38 -18.72,-69.45 -4.31,-22.81 -7.52,-45.93 -9.37,-69.15 -1.85,-22.98 -2.57,-45.93 -1.85,-68.71 0.67,-23.02 2.55,-45.81 5.61,-68.26 3.21,-22.78 7.61,-45.15 13.22,-67.17 5.33,-21.07 11.68,-42.53 19.12,-64.41 7.28,-21.55 15.38,-42.98 24.31,-64.12 9.06,-21.45 18.8,-42.48 29.24,-62.94 10.48,-20.67 21.88,-41.08 33.96,-61.19 11.82,-19.69 24.45,-39.06 37.75,-57.91 13.31,-19.12 27.23,-37.41 41.45,-54.97 14.2,-17.5 29.14,-34.61 44.74,-51.26 15.56,-16.53 31.63,-32.5 48.23,-47.85 17.06,-15.74 34.89,-30.49 53.39,-44.28 18.5,-13.68 37.72,-26.35 57.56,-37.96 19.96,-11.63 40.57,-22.29 61.89,-31.8 21.09,-9.49 43.07,-18.06 65.83,-25.55 23.52,-7.75 47,-13.72 70.29,-17.74 23.31,-4.02 46.57,-6.22 69.64,-6.47 23.21,-0.26 46.38,1.41 69.41,4.9 22.91,3.57 45.73,9.11 68.48,16.46 4.4,1.54 8.37,3.49 12.63,5.56 6.7,3.43 12.51,6.56 18.95,10.49l0.04 0.08zm1202.87 457.99c7.23,-0.09 14.13,0.36 20.81,1.31 6.8,1.05 13.62,2.74 20.36,5.02 6.82,2.26 13.3,5.16 19.24,8.46 6.16,3.35 12.04,7.37 17.62,11.89 5.71,4.71 10.78,9.63 15.13,14.7 4.52,5.16 8.37,10.73 11.75,16.65 3.3,5.9 6.02,12.25 8.02,18.86 1.99,6.52 3.35,13.34 4.02,20.45 0.71,6.96 0.62,13.89 -0.24,20.71 -0.83,6.82 -2.47,13.53 -4.83,20.05 -2.26,6.47 -5.25,12.65 -8.93,18.55 -3.66,5.8 -7.92,11.37 -12.85,16.65l-0.09 0.22c-4.61,4.93 -9.56,9.35 -14.84,13.39 -5.24,3.97 -10.85,7.54 -16.65,10.61 -6.02,3.09 -12.3,5.67 -18.65,7.61 -6.28,1.98 -12.94,3.43 -19.91,4.31l-3.52 0.45c-12.85,0.8 -27.09,2.3 -42.58,4.42 -15.6,2.11 -32.28,4.85 -49.9,8.2 -18.24,3.43 -37.61,7.49 -58.06,12.2 -19.86,4.57 -41.62,9.96 -65.02,16.11l-2.16 0.43c-6.61,1.47 -13.3,2.43 -20.03,2.74 -7,0.4 -13.89,0.14 -20.71,-0.69 -6.8,-0.85 -13.53,-2.33 -20.05,-4.33 -6.52,-1.99 -12.99,-4.61 -19.24,-7.73l-8.94 -4.48 0.05 -0.65c-3.4,-2.07 -6.61,-4.26 -9.69,-6.57 -5.8,-4.4 -10.96,-9.23 -15.5,-14.53l-4.05 -4.67 0.05 -0.45c-2.95,-3.97 -5.61,-8.09 -8.02,-12.37 -3.47,-6.16 -6.26,-12.6 -8.37,-19.43 -2.02,-6.78 -3.48,-13.53 -4.17,-20.26 -0.71,-6.7 -0.76,-13.53 -0.05,-20.26 0.71,-6.96 2.21,-13.74 4.33,-20.22 2.1,-6.47 4.97,-12.89 8.56,-19.1 3.61,-6.28 7.78,-12.08 12.54,-17.41 4.78,-5.3 10.13,-10.18 15.86,-14.44 5.61,-4.11 11.68,-7.78 18.15,-10.92 6.43,-3.07 13.35,-5.73 20.45,-7.78l41.74 -9.59c-0.71,-7.92 -1.71,-15.74 -2.98,-23.38 -2,-11.49 -4.71,-22.81 -8.11,-33.94 -4.48,-14.55 -10.13,-28.59 -17.05,-42.07 -6.87,-13.53 -15.15,-26.87 -24.62,-39.91 -9.87,-13.44 -20.31,-25.88 -31.09,-37.27 -10.98,-11.49 -22.52,-22.12 -34.63,-31.77 -12.17,-9.73 -24.93,-18.63 -38.1,-26.5 -13.08,-7.78 -27.09,-14.89 -41.86,-21.27 -14.65,-6.28 -28.76,-11.27 -42.02,-15.03 -13.44,-3.8 -26.43,-6.38 -38.86,-7.83 -11.82,-1.28 -23.48,-1.59 -34.8,-0.79 -11.13,0.71 -21.98,2.55 -32.44,5.42 -9.42,2.55 -18.1,6.02 -25.88,10.37 -7.83,4.37 -14.75,9.65 -20.91,15.69 -6.47,6.38 -12.3,13.96 -17.45,22.72 -5.16,8.8 -9.73,18.95 -13.53,30.35 -6.02,18.1 -9.69,36.82 -10.98,55.82 -1.36,19.29 -0.34,39.24 3.02,59.81 3.44,21.22 9.54,43.26 18.1,66.24 8.68,23.07 19.78,46.91 33.56,71.31l0.19 0.4c8.97,16.3 20.72,34.77 35.06,55.25 14.67,20.88 31.89,43.74 51.61,68.48 20.31,25.33 43.26,52.71 68.83,81.98 25.64,29.28 54.11,60.77 85.41,94.47l0.52 0.54c33.9,36.87 65.15,71.45 93.69,103.51 28.54,32.15 54.21,61.67 77.02,88.62 23.17,27.32 43.07,51.61 59.8,72.9 16.91,21.62 30.78,40.48 41.53,56.42l0.4 0.6c22.02,33.7 40.48,66.81 55.28,99.2 14.8,32.49 25.98,64.43 33.52,95.85 7.7,32.3 11.54,63.79 11.32,94.43 -0.17,30.78 -4.21,60.86 -12.17,90.12l-0.45 1.4c-7.71,25.43 -17.91,49.21 -30.39,71.09 -12.46,22.12 -27.38,42.55 -44.53,61.19 -17.1,18.55 -36.56,35.42 -58.22,50.49 -21.53,14.98 -45.36,28.23 -71.43,39.81 -109.93,48.76 -275.37,72.94 -438.02,65.59 -147.72,-6.66 -293.76,-39.52 -394.46,-103.65 -22.62,-14.44 -43.48,-30.22 -62.38,-47.43 -18.93,-17.15 -35.96,-35.6 -50.95,-55.37 -10.96,-14.61 -21.05,-29.9 -29.94,-45.98 -6.56,-11.72 -12.49,-23.83 -17.79,-36.16l-2 0.69c-6.33,2.86 -12.74,5.07 -19.21,6.57 -6.66,1.54 -13.63,2.45 -20.76,2.71 -7.06,0.19 -14.27,-0.31 -21.45,-1.57 -7.06,-1.26 -14.18,-3.17 -21.17,-5.81l-0.28 -0.05c-13.8,-5.11 -25.73,-12.08 -35.91,-20.86 -10.39,-8.89 -18.91,-19.5 -25.52,-31.89 -3.4,-6.47 -6.16,-13.2 -8.14,-20.07 -1.93,-6.92 -3.04,-13.93 -3.4,-20.91 -0.28,-6.97 0.26,-14.01 1.53,-20.98 1.24,-6.87 3.35,-13.74 6.21,-20.45 2.69,-6.38 6.04,-12.44 10.04,-18.2 4.02,-5.82 8.56,-11.18 13.58,-16.06 4.93,-4.8 10.37,-9.11 16.25,-12.99 5.87,-3.8 12.25,-7.23 19.1,-10.08l20.48 -8.23 54.47 -20.83 69.5 -25.76 31.4 -12.08 24.52 -9.94c6.52,-2.55 13.04,-5.35 19.55,-8.23l1.1 -0.52c7.01,-2.9 14.06,-5.19 21,-6.7 7.01,-1.59 14.19,-2.47 21.62,-2.61 7.31,-0.19 14.67,0.35 21.95,1.57 7.32,1.24 14.49,3.19 21.5,5.81 6.69,2.57 12.99,5.56 18.95,9.06 5.98,3.57 11.58,7.54 16.7,11.89 5.25,4.52 10.09,9.46 14.35,14.8 4.31,5.37 8.11,11.11 11.32,17.08 3.43,6.43 6.16,13.18 8.11,20.09 1.98,6.87 3.04,13.89 3.43,20.88 0.28,6.92 -0.19,13.99 -1.5,20.96 -1.28,6.87 -3.43,13.7 -6.21,20.48 -2.61,6.16 -5.78,11.98 -9.33,17.43 -3.71,5.69 -7.78,10.83 -12.25,15.51 -4.52,4.76 -9.51,9.16 -15.03,13.13 -5.42,3.92 -11.25,7.35 -17.41,10.39l-20.86 8.72c1.5,3.48 3.12,6.87 4.85,10.35 3.8,7.37 8.23,14.7 13.3,21.81 7.37,10.44 16.07,20.36 25.97,29.73 10.09,9.52 21.53,18.63 34.21,27.14 73.47,49.28 217.7,72.26 356,68.62 133.6,-3.52 260.35,-31.7 309.84,-84.53 7.35,-7.85 13.63,-16.34 18.75,-25.37 5.11,-8.99 9.18,-18.6 12.15,-28.9l0.14 -0.67c3.93,-13.31 5.82,-27.47 5.61,-42.46 -0.14,-15.34 -2.5,-31.4 -6.92,-48.33 -4.78,-18.22 -12.02,-37.53 -21.57,-57.68 -9.73,-20.39 -21.98,-41.89 -36.68,-64.36 -8.99,-13.2 -20.86,-29.21 -35.65,-47.88 -15.15,-19.17 -33.11,-40.98 -53.82,-65.31 -21.31,-25.09 -45.55,-52.85 -72.62,-83.24 -26.83,-30.09 -56.61,-62.98 -89.41,-98.68 -33.39,-36.37 -64.08,-70.7 -92.11,-103.15 -28.09,-32.44 -53.28,-62.8 -75.54,-90.72 -22.57,-28.45 -42.46,-54.96 -59.68,-79.58 -17.26,-24.69 -31.7,-47.4 -43.24,-67.96l-0.14 -0.21c-20.17,-36.32 -36.56,-72.07 -48.94,-107.13 -12.59,-35.41 -21.26,-70.44 -26.19,-104.91 -4.97,-34.89 -5.92,-69.42 -2.95,-103.46 3,-34.01 9.99,-67.26 20.82,-99.71l0.31 -0.4c9.37,-27.35 21.07,-52.37 35.11,-74.95 14.24,-22.86 30.75,-43.17 49.54,-61.08 19.06,-18.01 40.48,-33.58 64.1,-46.38 23.47,-12.82 49.14,-23.07 77.08,-30.69l0.71 -0.05c23.86,-6.37 48.09,-10.53 72.49,-12.39 24.43,-1.9 49.43,-1.57 74.87,1.05 25.07,2.47 50.35,7.18 75.73,13.96 25.42,6.75 51.04,15.7 76.78,26.69l0.45 0.19c22.38,9.82 44.14,21.07 65.19,33.61 20.96,12.6 41.04,26.33 60.2,41.36 19.2,15.03 37.47,31.35 54.85,48.85 17.27,17.41 33.7,36.16 49.3,56.18 15.94,20.4 30.04,41.62 42.22,63.57 12.23,22.02 22.55,44.79 30.94,68.12 6.38,17.6 11.68,35.7 15.86,54.22 3.12,13.7 5.61,27.66 7.59,41.86l-0.16 0.06zm-1948.98 2366.85l0.91 -2.16c5.07,-14.1 12.08,-27.04 20.93,-38.72 8.63,-11.68 19.2,-22.26 31.58,-31.75 6.78,-5.37 13.99,-10.32 21.55,-14.94 -21.85,24.95 -23.52,55.76 -23.31,79.23 25.43,-25.93 66.01,-63.29 107.65,-54.7 50.75,36.82 56.44,108.93 49.71,170.6 48.4,-70.81 80.34,-147.8 46.19,-174.77 79.89,-4.35 102.77,27.63 121.58,56.25 1.19,2.92 2.41,5.81 3.44,8.78 139.97,237.22 -276.78,717.89 -499.69,492.46l-0.22 0c164.59,-108.13 166.63,-203.54 141.02,-319.35 -16.7,-75.28 -39.72,-140.98 -21.36,-170.97l0 0.06zm179.28 -130.76c-46.78,-106.12 -128.48,-192.32 -244.48,-273.07 -50.85,-35.34 91.88,-101.39 133.19,-55.28 84.82,94.69 82.34,204.5 111.26,328.35l0.03 0zm-1244.28 -833.95c273.02,0 494.37,221.32 494.37,494.31 0,273.07 -221.36,494.38 -494.37,494.38 -273.02,0 -494.31,-221.31 -494.31,-494.38 0,-272.99 221.29,-494.31 494.31,-494.31zm2453.17 1611.3c7.06,0.09 13.8,0.71 20.31,1.79 6.87,1.26 13.58,3.07 20.19,5.47 6.47,2.3 12.72,5.33 18.76,8.87 6.07,3.61 11.77,7.7 17.05,12.28 11.04,9.64 19.56,20.48 25.52,32.39 5.99,12.11 9.34,25.24 9.91,39.32 0.22,7.09 -0.19,14.06 -1.4,20.81 -1.19,6.87 -3.17,13.53 -5.85,19.96 -2.61,6.33 -5.92,12.34 -9.87,18.15 -3.91,5.69 -8.54,11.15 -13.74,16.25 -10.01,9.94 -21.17,17.81 -33.16,23.52 -11.89,5.68 -24.76,9.34 -38.5,10.84l-3.62 0.35c-12.98,0.6 -27.32,1.81 -42.76,3.49 -15.41,1.76 -32.2,4.11 -50.35,7.06 -18.33,3.07 -37.96,6.7 -58.72,10.98 -20.76,4.21 -42.78,9.13 -65.95,14.58l-1.57 0.26c-6.9,1.41 -13.91,2.24 -20.86,2.47 -6.92,0.24 -13.84,-0.17 -20.57,-1.16 -6.83,-1 -13.44,-2.55 -19.86,-4.71 -6.52,-2.16 -12.85,-4.9 -18.93,-8.23l-8.94 -4.76 0.09 -0.67c-3.26,-2.1 -6.3,-4.4 -9.28,-6.8 -5.37,-4.35 -10.32,-9.44 -14.75,-14.96 -4.4,-5.71 -8.2,-11.58 -11.18,-17.61 -3.02,-6.11 -5.47,-12.8 -7.32,-19.86 -1.76,-6.92 -2.83,-13.8 -3.17,-20.45 -0.31,-6.64 0.09,-13.44 1.1,-20.31 1.14,-6.87 2.95,-13.48 5.42,-19.91 2.41,-6.3 5.56,-12.59 9.51,-18.75 3.91,-6.11 8.37,-11.85 13.39,-17 5.02,-5.25 10.54,-9.92 16.42,-13.99l0.23 -0.04c5.73,-3.97 11.89,-7.44 18.5,-10.39 6.43,-2.91 13.34,-5.33 20.81,-7.26l42.67 -8.85c-0.19,-7.93 -0.83,-15.82 -1.73,-23.74 -1.36,-11.46 -3.43,-22.9 -6.26,-33.99 -3.66,-14.44 -8.59,-28.64 -14.8,-42.33 -6.21,-13.89 -13.7,-27.38 -22.43,-40.39 -9.11,-13.65 -18.81,-26.28 -28.97,-37.87 -10.35,-11.68 -21.26,-22.45 -32.76,-32.34 -11.63,-9.92 -23.88,-19.06 -36.65,-27.23 -12.8,-8.19 -26.33,-15.6 -40.62,-22.12 -14.3,-6.57 -28.02,-11.94 -41.26,-16 -13.11,-4.05 -25.93,-6.92 -38.32,-8.56 -11.85,-1.59 -23.43,-2.16 -34.82,-1.59 -11.23,0.5 -22.15,2.07 -32.8,4.66 -9.51,2.35 -18.41,5.69 -26.52,9.94 -8.06,4.17 -15.39,9.25 -21.93,15.24 -6.8,6.26 -13.13,13.75 -18.75,22.41 -5.78,8.87 -10.94,18.91 -15.29,30.11 -6.92,17.98 -11.63,36.53 -13.99,55.61 -2.35,19.2 -2.43,39.17 -0.17,59.77 2.38,21.43 7.18,43.69 14.44,66.64 7.37,23.03 17.3,47 29.73,71.8l0.17 0.35c8.06,16.51 18.81,35.15 32.08,55.92 13.48,21.27 29.51,44.43 47.85,69.5 18.72,25.43 40.22,53.28 64.48,83.46 23.88,29.59 50.44,61.53 79.77,95.59l0.67 0.74c31.35,36.91 60.7,72.11 88.12,105.53 26.74,32.59 50.91,62.75 72.57,90.47 21.36,27.38 39.98,52.16 55.82,74.21 15.84,22.07 28.73,41.17 38.5,57.25l0.36 0.62c20.17,33.94 36.87,67.5 49.94,100.39 13.18,33.11 22.72,65.31 28.45,96.54 5.9,32.19 7.97,63.74 6.21,94.52 -1.81,30.75 -7.54,60.53 -16.96,89.36l-0.61 1.81c-9.04,25.02 -20.45,48.45 -34.13,70.21 -13.7,21.81 -29.64,41.81 -47.85,59.98 -18,18.15 -38.31,34.56 -60.79,49.14 -22.31,14.44 -46.83,27.19 -73.43,38.1 -25.82,10.63 -51.8,19.41 -77.82,26.47 -26.11,7.06 -52.71,12.43 -79.7,16.06 -26.57,3.66 -53.7,5.61 -81.35,5.87 -23.38,0.14 -46.87,-0.8 -70.52,-2.98l-12.94 -1.19c-27.23,-2.66 -53.8,-6.78 -79.8,-12.44 -25.88,-5.61 -51.13,-12.8 -75.83,-21.48 -24.57,-8.66 -48.28,-18.81 -71.26,-30.42 -23,-11.59 -45.28,-24.83 -66.74,-39.41 -173.81,-118.57 -220.31,-213.75 -175.22,-300.26 43.17,-82.77 173.46,-153.62 356.91,-228.24l0.5 -0.17c7.11,-2.76 14.24,-4.89 21.41,-6.3 7.16,-1.41 14.44,-2.17 21.81,-2.21 7.37,0 14.7,0.69 21.76,2.04 7.13,1.41 14.19,3.52 21.17,6.33 6.61,2.59 12.89,5.8 18.6,9.37 5.87,3.75 11.39,7.92 16.29,12.49 5.11,4.71 9.73,9.73 13.7,15.15 3.97,5.37 7.44,11.24 10.39,17.36 3.17,6.73 5.56,13.53 7.06,20.36 1.59,6.83 2.38,13.89 2.3,20.98 -0.04,7.06 -0.91,14.1 -2.56,20.86 -1.64,6.83 -4.09,13.58 -7.3,20.26 -3,6.18 -6.43,11.89 -10.23,17.22 -3.75,5.25 -8.14,10.32 -13.03,15.03 -4.79,4.62 -9.99,8.87 -15.63,12.7 -5.76,3.83 -11.72,7.23 -17.89,10.01l-211.2 76.85c1.35,3.49 2.78,6.9 4.32,10.37 3.45,7.61 7.42,14.98 11.89,21.81 6.87,10.63 15.03,20.76 24.52,30.35 9.42,9.63 20.36,18.91 32.63,27.78 12.85,9.18 26.28,17.46 40.17,24.67 14.1,7.32 28.9,13.75 44.24,19.2 15.51,5.47 31.92,10.08 48.94,13.74 17.1,3.62 35.06,6.38 53.7,8.19l1.05 0.22c19.63,2.24 38.36,3.4 56.17,3.49 17.91,0.09 35.46,-0.83 52.61,-2.85 16.56,-2.02 32.46,-4.97 47.43,-8.9 15.1,-3.92 29.59,-8.87 43.48,-14.8 13.34,-5.71 25.42,-12.03 36.15,-18.93 10.63,-6.92 20.12,-14.41 28.28,-22.47 7.83,-7.78 14.58,-16.15 20.22,-25.02 5.61,-8.97 10.22,-18.65 13.82,-29.09l0.12 -0.31c4.66,-13.3 7.32,-27.38 7.97,-42.33 0.62,-15.07 -0.83,-31.23 -4.35,-48.4 -3.83,-18.32 -9.96,-37.7 -18.46,-58.01 -8.56,-20.5 -19.65,-42.22 -33.2,-65 -8.06,-13.17 -19.1,-29.42 -33.06,-48.62 -14.13,-19.5 -30.87,-41.7 -50.18,-66.31 -19.72,-25.16 -42.38,-53.35 -67.96,-84.43 -24.62,-29.99 -52.76,-63.6 -84.29,-100.75 -31.23,-36.87 -60.13,-71.88 -86.55,-105.05 -26.19,-32.85 -49.81,-63.69 -70.66,-92.38 -21,-28.77 -39.46,-55.75 -55.37,-80.77 -16.06,-25.33 -29.33,-48.31 -39.67,-68.81l-0.09 -0.26c-18.15,-36.56 -32.59,-72.62 -43.2,-108.17 -10.65,-35.8 -17.6,-70.95 -20.62,-105.36 -3.04,-35.15 -2.21,-69.64 2.61,-103.42 4.8,-33.65 13.57,-66.69 26.33,-99.11l0.09 -0.26c10.87,-27.17 23.93,-51.88 39.22,-74.12 15.2,-22.26 32.85,-42.17 52.66,-59.68 20.09,-17.6 42.29,-32.65 66.5,-44.93 24.12,-12.3 50.4,-21.93 78.63,-28.9l0.71 -0.05c24.22,-5.81 48.64,-9.42 73.16,-10.78 24.52,-1.35 49.45,-0.45 74.8,2.66 24.88,3.04 49.9,8.2 74.95,15.6 24.94,7.28 50.18,16.82 75.46,28.4l0.6 0.34c22.02,10.35 43.19,22.07 63.29,34.92 20.17,12.85 39.48,27.14 58.04,42.67 18.46,15.55 35.85,32.25 52.25,50.04 16.46,17.89 31.89,36.91 46.33,57.18 14.8,20.67 27.74,42.24 38.86,64.52 11.04,22.29 20.14,45.24 27.3,68.85 5.37,17.74 9.68,35.94 12.89,54.47 2.3,13.7 4.17,27.59 5.33,41.53l0.19 0.06zm-1689.72 -451.59l10.49 149.1c0.31,6.74 -0.05,13.3 -1.05,19.57 -1,6.4 -2.69,12.78 -5.07,18.94 -2.35,6.07 -5.37,12.11 -9.04,17.83 -3.57,5.61 -7.78,11.04 -12.6,16.2 -5.11,5.52 -10.61,10.44 -16.46,14.65 -6,4.31 -12.28,7.97 -18.75,10.97 -6.75,2.95 -13.65,5.37 -20.71,7.01 -7.02,1.67 -14.44,2.76 -22.31,3.29 -7.42,0.4 -14.53,0.31 -21.31,-0.45 -6.87,-0.71 -13.8,-2 -20.53,-3.91 -6.87,-1.98 -13.31,-4.42 -19.46,-7.4 -6.16,-3 -12.08,-6.56 -17.61,-10.56l-6.16 -4.48 0 -0.48c-3.44,-2.98 -6.66,-6.04 -9.63,-9.35 -4.67,-5.16 -8.63,-10.67 -11.77,-16.39l-2.47 -4.67 -18.36 1.73 -32.89 3.57c-20.17,2.21 -41.44,4.76 -63.86,7.66 -21.43,2.72 -46.61,6.07 -75.37,10.04l-68.9 9.78 -61.44 8.54 -40.12 5.19c-8.37,38.48 -16.6,79.29 -24.45,122.46 -8.63,47 -17.1,97.35 -25.38,151.06 -8.32,54.27 -16.37,110.55 -23.93,168.79 -7.06,53.87 -13.84,109.55 -20.31,167.02 9.64,-1.59 19.63,-3.4 29.83,-5.33 10.04,-1.9 20.62,-4.02 31.7,-6.3l32.63 -7.13 38.58 -8.73 39.68 -9.35 86.36 -20.93c17.1,-3.95 34.08,-7.97 51.18,-11.8l0.62 -8.61c0.45,-6.38 1.5,-12.74 3.21,-19.07 1.69,-6.16 4.02,-12.3 6.92,-18.24 2.95,-6.02 6.42,-11.63 10.3,-16.79 3.95,-5.33 8.51,-10.35 13.61,-15.03 5.5,-5.2 11.41,-9.73 17.7,-13.65 6.38,-3.95 12.99,-7.16 19.96,-9.68 7.06,-2.55 14.24,-4.4 21.45,-5.52 7.41,-1.19 14.93,-1.59 22.62,-1.41 6.85,0.22 13.79,1 20.71,2.26 6.83,1.35 13.39,3.16 19.65,5.47 6.28,2.3 12.34,5.16 18.24,8.66 5.87,3.43 11.4,7.28 16.56,11.7 5.71,4.85 10.66,9.99 14.8,15.43 4.14,5.42 7.71,11.35 10.42,17.7 2.76,6.16 4.69,12.72 5.87,19.67 1.09,6.82 1.45,13.74 1,20.69l-1.99 31.15c0.69,4.76 1,9.23 1.28,14.01l-0.14 6.49 4.52 17.84c3.71,14.7 7.78,30.75 11.28,37.96l0.96 2.5c1.81,6.82 2.81,13.57 3.12,20.22 0.31,6.75 -0.17,13.53 -1.41,20.12 -1.24,6.7 -3.4,13.31 -6.26,19.86 -2.92,6.57 -6.56,12.78 -10.87,18.55 -3.97,5.36 -8.54,10.44 -13.61,15.12 -4.9,4.67 -10.37,8.94 -16.25,12.7 -5.71,3.66 -11.81,6.97 -18.36,9.73 -6.26,2.71 -12.96,4.94 -20.07,6.7 -7.42,1.76 -14.75,2.95 -22.1,3.43 -7.35,0.4 -14.63,0.19 -21.76,-0.71 -7.28,-0.95 -14.3,-2.59 -21.05,-4.9 -6.69,-2.26 -13.35,-5.28 -19.96,-9.04 -5.97,-3.49 -11.44,-7.28 -16.34,-11.27 -3.57,-3.03 -6.92,-6.16 -10.09,-9.59l-146.3 34.7 -86.69 19.91 -38.36 8.33c-19.81,4.23 -39.08,7.97 -57.84,11.13 -14.94,2.56 -29.99,4.8 -44.98,6.87 -1.94,22.36 -3.66,43.97 -5.16,64.84 -1.71,24.52 -3.17,48.21 -4.31,70.92 -1.36,25.47 -2.21,50.28 -2.81,74.21 -0.5,23.17 -0.65,45.83 -0.4,68.12l-0.05 1.64c-0.19,13.7 -0.05,27.48 0.26,41.17 0.31,13.25 0.91,26 1.76,38.32 0.8,11.24 1.85,21.93 3.17,31.97 1.24,9.63 2.76,18.64 4.44,26.92l0.45 2.61c0.95,6.61 2.04,12.94 3.21,18.8 0.96,4.88 2,9.18 3.12,12.85 0.96,0.6 2,1.09 3.26,1.67 3.71,1.59 8.51,3.12 14.35,4.48 7.57,1.85 16.34,3.26 26.11,4.26 10.32,1.09 21.62,1.76 33.65,1.94 12.17,0.22 25.93,-0.05 41.1,-0.88 14.96,-0.76 30.7,-2 47.19,-3.78 16.84,-1.76 34.39,-4.02 52.76,-6.8 18.41,-2.76 37.47,-6.04 57.18,-9.75l0.76 -0.19c37.22,-6.52 143.51,-41.81 232.64,-71.43 54.96,-18.19 103.51,-34.39 126.44,-40.56 23.57,-6.4 47.12,-13.2 70.7,-20.57 19.29,-6.02 38.27,-12.29 56.91,-18.81l-0.28 -4.21c-0.19,-5.56 0.14,-11.23 1.05,-16.91 0.91,-6.3 2.72,-12.63 5.16,-18.86 2.43,-6.07 5.59,-12.15 9.39,-18.1l0.05 -0.26c3.83,-5.92 8.23,-11.49 13.04,-16.6 4.97,-5.11 10.37,-9.73 16.15,-13.74 5.92,-4.19 12.23,-7.78 18.86,-10.68 6.43,-2.85 13.44,-5.28 20.91,-7.13 7.18,-1.76 14.41,-2.86 21.43,-3.43 7.17,-0.54 14.3,-0.45 21.27,0.31 7.01,0.67 13.96,2.07 20.67,4.02l6.87 2.26 0.45 -0.78 12.63 6.16c6.61,3.26 12.78,7.09 18.5,11.49 5.73,4.35 10.84,9.23 15.29,14.61 4.35,5.16 8.19,10.87 11.28,17.05 3.17,6.18 5.61,12.61 7.42,19.37 50.52,180.43 44.05,234.11 -10.43,249.78 -21.17,6.02 -48.35,4.61 -82.24,2.85 -51.57,-2.59 -119.8,-6.21 -200.59,15.6 -22.59,6.11 -73.16,22.72 -130.17,41.53 -93.24,30.69 -203.97,67.14 -246.33,74.73 -24.24,4.26 -47.43,8.02 -69.5,11.18 -22.33,3.12 -43.6,5.69 -63.74,7.61 -21.28,1.98 -41.31,3.4 -60.03,4.06 -19.34,0.81 -37.41,0.93 -54.21,0.4l-14.89 -0.45c-18.81,-0.74 -36.65,-2.21 -53.47,-4.42 -21.41,-2.76 -41.48,-6.83 -59.91,-12.11 -19.72,-5.69 -37.82,-12.74 -54.06,-21.13 -16.43,-8.46 -31.3,-18.41 -44.65,-29.85 -8.68,-7.35 -16.7,-16.2 -23.88,-26.26 -7.01,-9.9 -13.39,-21.17 -18.91,-33.7 -5.02,-11.23 -9.42,-23.66 -13.3,-37.22 -3.8,-13.44 -7.06,-28.05 -9.82,-43.62l0 -0.45c-2.02,-11.68 -3.76,-23.83 -5.28,-36.32 -1.41,-12.39 -2.66,-25.88 -3.74,-40.57 -0.95,-14.08 -1.81,-28.99 -2.43,-44.71 -0.54,-15.91 -0.95,-32.3 -1.09,-48.94l0 -1.07c-0.19,-28.23 0.23,-59.13 1.36,-92.71 1.05,-33.13 2.69,-68.62 5.07,-106.39 2.3,-37.41 5.19,-76.68 8.71,-117.85 3.49,-41.27 7.61,-84.34 12.28,-128.98l0.09 -0.71c8.85,-81.84 17.98,-158.17 27.19,-228.93 9.33,-71.93 18.75,-138.12 28.23,-198.55 9.33,-59.23 18.86,-114.24 28.63,-164.9 9.59,-49.5 19.43,-95.02 29.45,-136.5l-0.31 -3.26c-0.17,-1.72 -0.17,-3.66 -0.05,-5.69 -0.12,-6.04 0.35,-12.08 1.41,-17.96 1.02,-5.92 2.72,-11.72 4.88,-17.19 2.33,-6.16 5.5,-12.13 9.33,-17.84 3.76,-5.68 8.23,-11.06 13.13,-16.06l0.09 -0.21c4.76,-4.81 9.94,-9.18 15.46,-13.08 5.54,-4.02 11.46,-7.47 17.65,-10.44 6.07,-2.92 12.39,-5.42 18.95,-7.37 6.57,-1.95 13.3,-3.47 20.31,-4.48l3.8 -0.45c10.13,-0.74 22.86,-2 38.15,-3.66 16.15,-1.69 34.06,-3.83 53.63,-6.26 20.19,-2.52 43.83,-5.64 70.76,-9.18l83.85 -11.58c25.78,-3.52 51.49,-6.87 77.27,-10.04 25.02,-3.12 47.95,-5.78 68.41,-7.93l54.42 -5.37 0.6 -4.88c1.09,-6.38 2.76,-12.43 4.94,-18.31 2.3,-6.11 5.33,-12.08 9.04,-17.79 3.57,-5.69 7.78,-11.11 12.6,-16.25 5.09,-5.52 10.61,-10.39 16.39,-14.55 5.78,-4.21 12.08,-7.92 18.81,-10.98 6.52,-3 13.47,-5.42 20.76,-7.11 6.97,-1.69 14.39,-2.76 22.26,-3.21 7.42,-0.4 14.48,-0.28 21.31,0.45 6.87,0.65 13.7,2 20.53,3.91 6.83,1.9 13.34,4.4 19.36,7.32 6.16,3.07 12.16,6.61 17.7,10.75 5.87,4.19 11.13,9.04 15.8,14.18 4.57,5.11 8.54,10.67 11.85,16.69 3.33,5.81 5.8,11.99 7.68,18.38 1.81,6.33 2.9,12.99 3.26,19.81l-0.1 0.14zm-1685.19 238.18c12.39,37.84 26.19,80.48 41.39,127.72 17.53,54.66 34.58,107.96 50.78,159.17l52.73 167.2 49.24 157.72 23.83 -27.57c13.25,-15.63 26.52,-31.7 39.65,-48.05 19.34,-24.02 38.03,-48.19 55.94,-72.37 17.67,-23.88 35.06,-48.45 52.25,-73.78l0.4 -0.62c31.35,-44.74 58.49,-86.77 81.39,-125.92 22.85,-39.15 41.76,-75.92 56.63,-110.12 14.3,-32.9 24.81,-63.29 31.59,-91.26 6.64,-27.4 9.68,-52.46 9.2,-75.09 -1.05,-18.36 -3.48,-34.83 -7.19,-49.21 -3.7,-14.1 -8.56,-26.11 -14.63,-36.15 -5.35,-8.78 -11.86,-16.2 -19.41,-22.26 -7.54,-6.02 -16.25,-10.8 -26.07,-14.19 -11.72,-4.07 -24.97,-6.87 -39.46,-8.5 -14.89,-1.67 -30.89,-1.94 -48.05,-0.88 -18.36,1.09 -38.22,3.74 -59.54,7.92 -21.31,4.11 -44.08,9.85 -68.24,17.1 -25.07,7.49 -50.02,16 -74.69,25.47 -25.02,9.69 -49.67,20.22 -73.69,31.57 -20.36,9.63 -41.08,20.22 -61.98,31.75 -17.56,9.64 -34.89,19.74 -52.06,30.35l-0.04 -0.01zm-382.26 67.5c11.37,-18.55 24.97,-37.15 40.77,-55.68 15.69,-18.36 33.7,-36.87 54.06,-55.44 19.6,-18 41.48,-36.11 65.5,-54.32 24.07,-18.19 50.13,-36.42 78.13,-54.52 27.83,-18.06 56.06,-35.01 84.43,-50.9 28.37,-15.74 56.87,-30.4 85.5,-43.88 28.76,-13.48 57.62,-25.82 86.67,-36.96 29.04,-11.13 58.22,-21.07 87.53,-29.81 35.65,-10.54 69.59,-18.76 101.8,-24.62 32.54,-5.87 63.74,-9.48 93.52,-10.8 30.58,-1.31 59.86,-0.19 87.77,3.4 27.83,3.57 54.26,9.68 79.18,18.27l0.19 0.09c32.2,11.23 60.62,26.21 85.31,44.74 24.76,18.6 45.67,40.91 62.72,66.65 16.42,25.02 29.09,53.2 37.96,84.51 8.68,30.95 13.73,65.05 14.98,102.11 1.69,35.01 -1.67,72.51 -10.04,112.43 -8.32,39.63 -21.57,81.75 -39.81,126.23 -17.56,42.98 -40.03,88.62 -67.19,136.81 -27.14,48.04 -58.85,98.3 -95.14,150.89l-0.22 0.19c-22.98,33.07 -46.57,65.59 -70.76,97.44 -24.45,32.11 -49.16,63.15 -74.18,93.24 -23.38,28.19 -47.19,55.68 -71.26,82.39 -22.31,24.79 -45.09,49.04 -68.31,72.88l46.73 151.72 44.43 142.92 34.61 109.86 26.43 82.8 53.7 -12.49c7.18,-1.35 14.35,-2.11 21.36,-2.21 7.04,-0.09 14.06,0.36 20.91,1.45 7.18,1.14 13.96,2.85 20.43,5.19 6.52,2.29 12.89,5.3 19,8.8 6.42,3.71 12.25,7.87 17.36,12.44 5.36,4.76 10.09,9.94 14.1,15.55 3.97,5.69 7.31,11.63 9.92,17.96 2.61,6.21 4.57,12.94 5.83,20 1.19,6.61 1.76,13.39 1.59,20.17 -0.09,6.8 -0.83,13.39 -2.33,19.69 -1.5,6.52 -3.71,12.9 -6.52,19.12 -2.92,6.16 -6.37,12.13 -10.49,17.91 -4.23,5.92 -8.99,11.32 -14.24,16.3 -5.21,4.97 -10.89,9.33 -17,13.13 -6.07,3.71 -12.34,6.83 -18.81,9.35 -6.56,2.55 -13.48,4.57 -20.81,5.94 -15.56,3.31 -32.56,7.28 -51,11.94 -18.15,4.61 -38.41,10.08 -60.53,16.39 -22.55,6.38 -46.38,13.39 -71.35,21.13 -24.02,7.32 -49.99,15.63 -78.09,24.83l-1.81 0.6c-6.87,1.99 -13.74,3.4 -20.57,4.17 -6.66,0.8 -13.48,1.05 -20.5,0.69 -7.06,-0.34 -13.89,-1.19 -20.41,-2.69 -6.61,-1.45 -13.27,-3.54 -19.86,-6.21 -7.01,-2.83 -13.48,-6.33 -19.55,-10.35 -6.09,-4.02 -11.49,-8.68 -16.37,-13.84l-11.06 -11.89 1.31 -0.95 -2.55 -4.22 -2.86 -5.42 -1.26 0.41 -4.26 -14.44c-1.95,-6.38 -3.17,-12.85 -3.83,-19.21 -0.6,-6.35 -0.6,-12.9 0.07,-19.51 0.67,-6.52 1.98,-12.94 3.88,-19.24 1.81,-6.16 4.31,-12.34 7.47,-18.41l0.05 -0.19c3.4,-6.73 7.42,-12.8 11.92,-18.24 4.57,-5.59 9.75,-10.63 15.55,-15.27 5.71,-4.5 11.94,-8.47 18.55,-11.77 6.28,-3.21 13.04,-5.85 20.17,-7.87l19.72 -6.69 -24.48 -76.34 -32.34 -102.37 -40.17 -128.89 -42.41 -137.59 -2.07 -0.81c-6.07,-2.15 -12.04,-5.02 -17.79,-8.46 -5.87,-3.43 -11.35,-7.32 -16.34,-11.68 -5.54,-4.76 -10.39,-9.92 -14.65,-15.65 -4.26,-5.67 -7.87,-11.68 -10.54,-17.93 -2.76,-6.26 -4.78,-12.85 -6.02,-19.74 -1.19,-6.64 -1.67,-13.65 -1.28,-20.83l0.48 -11.18 0.76 -0.14c0.45,-3.07 1.09,-6.02 1.85,-8.99 1.62,-6.56 4.02,-12.94 6.96,-19.17 1.95,-4.17 4.26,-8.11 6.78,-11.92l3.45 -4.9 -65.24 -209.78c-21.67,-69.19 -42.02,-133.95 -61.03,-194.12l-44.79 -140.73 -30.99 -96.23c-2.3,3.21 -4.42,6.47 -6.33,9.59 -3.76,6.18 -7.97,11.8 -12.63,16.87 -4.85,5.25 -10.09,10.01 -15.63,14.13 -5.71,4.26 -11.85,7.92 -18.24,10.98l-6.23 2.85 0.22 0.76 -28.37 8.19 -0.31 -0.96 -6.85 0.96c-7.06,0.69 -14.24,0.79 -21.36,0.28 -7.06,-0.57 -14.1,-1.83 -20.86,-3.71 -6.83,-1.9 -13.56,-4.48 -19.95,-7.58 -13.3,-6.47 -24.33,-14.89 -33.11,-25.02 -5.61,-6.52 -10.32,-13.8 -14.01,-21.72l-1.22 0.4 -4.31 -14.5c-1.94,-6.61 -3.21,-13.31 -3.71,-19.95 -0.54,-6.66 -0.35,-13.44 0.6,-20.17 0.91,-6.75 2.56,-13.34 4.93,-19.78 2.28,-6.4 5.42,-12.65 9.13,-18.77l-0.03 -0.06zm68.35 -231.61c0.57,6.78 0.4,13.34 -0.35,19.67 -0.69,6.43 -2.17,12.72 -4.22,18.91 -1.99,6.11 -4.76,12.08 -8.06,17.89 -3.31,5.82 -7.23,11.24 -11.54,16.29l-0.09 0.09c-4.71,5.42 -9.82,10.22 -15.29,14.44 -5.47,4.26 -11.37,7.87 -17.61,10.87 -6.28,3.07 -12.85,5.47 -19.65,7.18 -6.61,1.69 -13.74,2.78 -21.26,3.26 -7.14,0.45 -13.96,0.31 -20.48,-0.4 -6.61,-0.67 -13.22,-2 -19.86,-3.91 -6.47,-1.81 -12.72,-4.33 -18.91,-7.32 -6.11,-3.07 -11.94,-6.56 -17.25,-10.58 -5.78,-4.26 -10.92,-8.97 -15.5,-14.08 -4.62,-5.11 -8.66,-10.75 -12.04,-16.74l-2.26 -4.09 -17 1.73 -31.28 3.57c-19.17,2.24 -39.37,4.85 -60.57,7.66 -20.36,2.76 -44.34,6.11 -71.78,10.09l-123.76 18.36 -37.67 5.16c-6.69,38.1 -13.04,78.58 -19.12,121.37 -6.61,46.69 -12.99,96.69 -19,150.01 -6.16,54.06 -11.92,110.12 -17.19,168.08 -4.85,53.16 -9.42,108.13 -13.65,164.78l27.63 -5.2c9.13,-1.81 19.06,-3.91 29.85,-6.3l31 -7.09 36.46 -8.73c39.77,-9.87 79.44,-19.96 119.11,-30.18l35.24 -8.63 12.89 -3.02 0.24 -8.06c0.35,-12.89 3.21,-25.37 8.46,-37.36 2.52,-5.9 5.69,-11.58 9.35,-16.81 3.44,-5.19 7.66,-10.18 12.49,-15.01 5.11,-5.25 10.63,-9.78 16.51,-13.65 5.8,-3.85 12.13,-7.06 18.86,-9.65 6.73,-2.61 13.58,-4.54 20.45,-5.56 7.09,-1.22 14.35,-1.67 21.62,-1.45 6.69,0.19 13.34,1 19.96,2.24 6.61,1.31 13.03,3.12 19.06,5.42 6.09,2.26 12.11,5.11 17.87,8.63 5.73,3.4 11.15,7.3 16.24,11.68 5.61,4.76 10.49,9.87 14.66,15.29 4.26,5.61 7.83,11.54 10.67,17.74 2.9,6.52 5.02,13.08 6.38,19.81 1.31,6.83 1.9,13.74 1.71,20.67l-0.85 26.61 1.71 18 0.05 6.47 4.26 15.29c4.17,15.39 8.99,32.99 12.6,39.96l1.05 2.71c1.93,6.78 3.21,13.48 3.7,20.17 0.57,6.82 0.31,13.57 -0.65,20.14 -1,6.78 -2.76,13.39 -5.35,19.93 -2.57,6.38 -5.78,12.54 -9.73,18.38l-0.05 0.22c-7.59,11.18 -16.77,20.45 -27.59,28 -10.66,7.26 -22.86,12.73 -36.56,16.34 -14.39,3.71 -28.4,4.66 -42.03,2.83 -13.79,-1.85 -26.97,-6.52 -39.77,-14.01 -5.92,-3.44 -11.28,-7.17 -16.11,-11.23 -3.44,-2.92 -6.7,-6.02 -9.78,-9.23l-137.72 34.39 -82.6 20.05 -36.15 8.28c-11.98,2.76 -23.66,5.16 -34.8,7.37 -12.08,2.35 -23.4,4.44 -34.15,6.2l-28.09 4.33c-1.05,22.07 -1.94,43.43 -2.71,63.88 -0.81,24.43 -1.41,47.95 -1.76,70.52 -0.35,25.28 -0.4,49.85 -0.09,73.66 0.23,22.98 0.91,45.59 1.85,67.71l0.04 1.76c0.31,14.58 0.85,28.23 1.59,40.98 0.85,13.89 1.85,26.52 3.02,37.92 1.14,11.15 2.52,21.71 4.11,31.75 1.5,9.54 3.26,18.46 5.16,26.64 0.14,0.69 0.54,2.16 0.52,2.76 1.24,7.17 2.41,13.3 3.61,18.41 1.14,5.11 2.28,9.37 3.35,12.74l2.81 1.31c3.49,1.55 8.19,3.04 13.82,4.42 7.28,1.81 15.65,3.14 24.98,4.21 9.96,1.02 20.67,1.71 32.14,1.85 11.66,0.19 24.74,-0.09 39.17,-0.96 14.3,-0.74 29.23,-2.07 44.88,-3.75 16.08,-1.81 32.85,-4.11 50.17,-6.87 17.39,-2.72 35.49,-6.02 54.11,-9.73l0.74 -0.19c29.25,-5.37 57.87,-11.28 85.67,-17.79 28.54,-6.66 56.32,-13.89 83.24,-21.5 22.15,-6.33 44.48,-13.25 66.78,-20.52 18.01,-5.98 35.75,-12.2 53.11,-18.6l-0.41 -3.61c-0.35,-5.69 -0.21,-11.32 0.41,-16.96 0.78,-6.52 2.24,-12.89 4.35,-18.95 2.16,-6.11 4.97,-12.17 8.42,-18.2 3.52,-6.11 7.58,-11.67 11.94,-16.74 4.5,-5.07 9.52,-9.68 15.01,-13.8 5.59,-4.17 11.51,-7.68 17.74,-10.67 6.16,-2.85 12.85,-5.28 19.86,-7.09 6.92,-1.81 13.79,-2.95 20.57,-3.49 6.92,-0.57 13.73,-0.5 20.45,0.24 6.73,0.71 13.44,2.11 20.05,4.02 6.56,1.98 12.99,4.52 19.2,7.68 6.42,3.17 12.51,7.02 18.1,11.4 5.56,4.23 10.63,9.16 15.2,14.58 4.4,5.21 8.28,10.94 11.49,17.1 3.13,6.02 5.8,12.49 7.75,19.29 7,23.02 14.61,45.45 22.83,67.17 8.3,21.93 17.19,43.07 26.61,63.56l0.4 1.09c2.78,6.21 4.83,12.49 6.12,18.76 1.4,6.47 2.11,13.04 2.07,19.77 0,6.52 -0.71,12.99 -2.07,19.41 -1.31,6.38 -3.35,12.63 -6.07,18.91 -2.61,6.28 -5.97,12.17 -9.85,17.79 -3.97,5.61 -8.37,10.75 -13.3,15.46l-0.14 0.12c-5.11,4.71 -10.61,8.92 -16.41,12.49 -5.87,3.57 -12.06,6.61 -18.65,9.11l-0.17 0c-6.61,2.43 -13.3,4.26 -20,5.47 -6.59,1.22 -13.39,1.81 -20.43,1.76 -6.75,-0.05 -13.56,-0.69 -20.26,-1.95 -6.82,-1.26 -13.44,-3.17 -19.91,-5.5 -6.56,-2.47 -12.85,-5.59 -18.81,-9.13 -5.9,-3.61 -11.4,-7.75 -16.34,-12.2 -4.57,-4.09 -8.63,-8.56 -12.15,-13.22l-2.81 -3.8c-19.31,7.06 -39.13,13.89 -59.34,20.52 -23.88,7.78 -48.04,15.24 -72.66,22.26 -30.75,8.68 -61.22,16.65 -91.52,23.74 -31.04,7.3 -62.38,13.93 -94,19.88 -23.02,4.33 -45.02,8.04 -66,11.2 -21.15,3.17 -41.39,5.78 -60.57,7.68 -20.22,1.99 -39.28,3.4 -57.18,4.17 -18.41,0.71 -35.7,0.85 -51.8,0.35 -23.26,-0.4 -45.02,-1.94 -65.33,-4.66 -20.67,-2.78 -39.91,-6.83 -57.78,-12.06 -19.17,-5.61 -36.65,-12.65 -52.51,-20.98 -16.11,-8.42 -30.69,-18.38 -43.79,-29.69 -8.56,-7.42 -16.48,-16.15 -23.69,-26.19 -7.02,-9.87 -13.48,-21.05 -19.17,-33.56 -5.2,-11.22 -9.87,-23.61 -14.04,-37.05 -4.11,-13.39 -7.74,-27.88 -10.87,-43.43l-0.04 -0.41c-2.24,-11.72 -4.35,-23.88 -6.21,-36.29 -1.76,-12.17 -3.4,-25.59 -4.9,-40.17 -1.45,-13.79 -2.72,-28.63 -3.8,-44.31 -1.11,-15.95 -1.99,-32.25 -2.76,-48.85l-0.04 -1c-1.11,-28.09 -1.72,-58.84 -1.85,-92.24 -0.09,-32.82 0.28,-68.19 1.22,-105.76 0.95,-37.1 2.41,-76.16 4.35,-117.15 1.9,-41 4.4,-83.74 7.37,-128.08l0 -0.71c5.78,-81.44 11.89,-157.33 18.22,-227.57 6.52,-71.52 13.3,-137.3 20.26,-197.38 6.87,-58.72 14.1,-113.33 21.76,-163.85 7.41,-49.19 15.29,-94.43 23.47,-135.65l-0.45 -3.07 -0.23 -5.73c-0.62,-13.04 1.24,-25.47 5.5,-37.1 4.28,-11.67 10.94,-22.41 19.91,-32.23 4.42,-4.79 9.23,-9.2 14.39,-13.16 5.16,-3.95 10.75,-7.42 16.56,-10.42 5.67,-2.9 11.72,-5.37 17.89,-7.37 6.16,-1.98 12.63,-3.44 19.36,-4.52l3.71 -0.45c9.59,-0.71 21.72,-1.95 36.2,-3.61 15.46,-1.76 32.46,-3.91 51.04,-6.38 19,-2.52 41.44,-5.56 67.05,-9.17l79.49 -11.59 2.81 -0.21c99.77,3.43 170.72,-21.36 223.31,-39.72 20.35,-7.06 38.18,-13.22 54.7,-16.83 67.21,-14.53 101.82,11.94 137.78,178.29l0.28 2 0.05 -0.2zm-2096.31 18.63c14.19,-19.15 30.89,-38.18 50.04,-57.04 19.07,-18.65 40.48,-37.15 64.24,-55.42 23.22,-17.87 48.73,-35.51 76.54,-52.97 27.59,-17.39 57.73,-34.7 90.21,-51.94 64.5,-34.15 129.24,-63.07 194.12,-86.76 64.69,-23.62 129.63,-42.03 194.81,-55.15 39.41,-7.83 76.9,-13.3 112.45,-16.34 35.8,-3.12 69.78,-3.76 101.93,-2.04 33.35,1.73 64.79,6.07 94.21,12.94 29.8,6.87 57.58,16.41 83.32,28.4l0.54 0.33c33.3,15.74 62.15,35.11 86.5,57.99 24.62,23.12 44.74,49.73 60.17,79.98 14.94,29.07 25.47,61.34 31.58,96.73 6.09,35.24 7.74,73.33 5.11,114.3 -2.12,38.77 -9.85,79.63 -23.12,122.63 -13.3,42.72 -32.2,87.65 -56.73,134.86 -23.88,45.93 -53.02,93.92 -87.48,143.97 -34.21,49.71 -73.76,101.65 -118.71,155.86l-0.57 0.8c-28.49,34.09 -57.56,67.5 -87.09,100.08 -29.28,32.16 -59.32,63.83 -90.21,95 -28.64,28.88 -57.27,56.73 -85.98,83.39 -27.09,25.24 -54.49,49.85 -82.22,73.78l34.04 173.5 32.2 162.13 25.33 124.9 19.86 95.52 60.44 -8.32c7.97,-0.76 15.63,-0.79 23,-0.19 7.61,0.54 15.1,1.85 22.33,3.76 7.28,1.9 14.34,4.57 21.14,7.83 6.61,3.16 13.08,7.09 19.31,11.63 6.43,4.61 12.17,9.73 17.25,15.41 5.11,5.64 9.59,11.82 13.25,18.38 3.66,6.38 6.61,13.25 8.78,20.57 2.11,7.11 3.47,14.63 4.06,22.43 0.6,7.57 0.5,14.94 -0.36,22.17 -0.8,7.28 -2.47,14.39 -4.76,21.41 -2.3,6.97 -5.37,13.7 -9.06,20.12 -3.66,6.43 -8.09,12.59 -13.13,18.5 -5.16,6.09 -10.89,11.54 -16.91,16.29 -6.07,4.83 -12.63,9.04 -19.6,12.56 -6.69,3.35 -13.8,6.11 -21.17,8.23 -7.49,2.16 -15.1,3.61 -22.78,4.4 -17.5,2 -36.34,4.62 -56.46,7.78 -19.19,3.07 -41.62,6.97 -67.24,11.77 -51.35,9.59 -106.72,21.22 -166,34.8l-2.41 0.71c-7.32,1.36 -14.8,2.09 -22.36,2.3 -7.49,0.17 -14.84,-0.31 -21.98,-1.36l-0.31 0c-7.14,-1.02 -14.24,-2.76 -21.36,-5.11 -7,-2.38 -13.89,-5.37 -20.6,-8.94 -7.18,-3.8 -13.7,-8.28 -19.67,-13.3 -5.85,-4.94 -11.13,-10.56 -15.74,-16.79 -4.71,-6.26 -8.56,-12.94 -11.68,-19.91 -3.07,-7.09 -5.33,-14.44 -6.73,-22.07 -2.76,-14.55 -2.69,-28.8 0.12,-42.69 2.71,-13.89 8.23,-27.23 16.34,-40.03 4.52,-7.01 9.44,-13.3 14.87,-18.81 5.5,-5.71 11.58,-10.78 18.15,-15.07 6.7,-4.35 13.7,-8.09 21,-10.98 7.32,-2.86 15.12,-5.11 23.21,-6.61l22.57 -5.36 -18.5 -88.98 -23.52 -115.38 -29.64 -148.03 -30.64 -155.71 -2.76 -1.28c-6.33,-3.17 -12.34,-6.92 -18.05,-11.18 -5.81,-4.31 -11.23,-9.18 -16.2,-14.5 -5.42,-5.9 -10.09,-12.06 -13.91,-18.55 -3.93,-6.64 -7.02,-13.53 -9.3,-20.71 -2.26,-7.23 -3.61,-14.61 -4.21,-22.12 -0.57,-7.54 -0.31,-15.2 0.78,-22.86 1.1,-7.4 2.86,-14.65 5.47,-21.76 2.52,-7.02 5.78,-13.8 9.69,-20.31 2.66,-4.33 5.52,-8.46 8.59,-12.34l4.57 -5.37c-16.74,-84.65 -32.75,-164.9 -47.97,-240.63 -15.63,-77.87 -30.49,-151.1 -44.41,-219.6l-32.85 -159.43 -23.57 -112.48c-3.35,3.91 -6.56,7.93 -9.59,11.99 -4.76,6.38 -9.92,12.08 -15.41,17.15 -5.54,5.11 -11.68,9.73 -18.15,13.7 -6.47,3.97 -13.39,7.37 -20.71,10.13 -7.42,2.85 -14.84,4.97 -22.43,6.38 -7.52,1.4 -15.29,2.16 -23.12,2.21 -7.92,0.05 -15.6,-0.67 -23,-1.95 -7.49,-1.36 -14.8,-3.4 -21.93,-6.21 -6.97,-2.69 -13.8,-6.21 -20.53,-10.44 -6.73,-4.21 -12.77,-8.85 -18.1,-13.89 -5.52,-5.2 -10.44,-10.87 -14.66,-17 -4.17,-6.11 -7.68,-12.59 -10.48,-19.5 -2.91,-6.87 -5.02,-13.99 -6.38,-21.36 -1.45,-7.3 -2,-14.75 -1.85,-22.15 0.14,-7.41 1.14,-14.8 2.81,-21.98 1.71,-7.23 4.23,-14.35 7.49,-21.13 3.17,-6.7 7.06,-13.27 11.72,-19.55l0.11 -0.11z"/>
   <path class="fil1" d="M4566.76 4233.8c-38.77,-20.81 -66.33,-41.43 -82.51,-62.02 -16.07,-20.45 -24.12,-45.57 -24.12,-75.11 0,-31.49 8.42,-59.01 25.28,-82.48 17.27,-23.93 40.62,-42.55 70.26,-55.23 29.59,-13.35 63.52,-19.91 101.61,-19.91 32.59,0 66.31,5.81 101.56,17.67l38.41 13.08c9.92,3.35 19.46,4.85 28.49,4.85 -1.31,0 4.11,-0.19 16.46,-0.96 1.14,-0.35 3.54,-0.54 7.16,-0.54 10.68,0 19.31,7.87 25.83,23.62 6.56,15.74 9.94,35.75 9.94,60.39 0,26.38 -5.61,49.81 -17.05,70.21 -11.82,21.59 -27.54,38.27 -47.23,50.04 -20.03,12.37 -42.48,18.55 -66.91,18.55 -29.04,0 -53.16,-8.42 -72.52,-25.33 -20.22,-16.48 -30.13,-36.3 -30.13,-59.72 0,-9.59 2.21,-17.84 7.13,-24.71 4.31,-7.32 9.73,-10.89 15.94,-10.89 6.52,0 10.82,3.35 13.08,10.27l2.26 8.82c1.85,5.02 5.61,9.94 11.44,14.24 6.38,4.52 12.39,6.56 18.15,6.56 11.11,0 20.26,-4.31 28,-13.13 7.61,-8.44 11.58,-18.76 11.58,-31.3 0,-17.96 -7.13,-33.16 -21.43,-45.54 -14.58,-12.34 -32.54,-18.75 -53.75,-18.75 -26.02,0 -47.6,8.82 -64.86,26.43 -17.25,18.36 -25.88,41.22 -25.88,68.59 0,25.28 7.37,47.43 21.98,66.5 14.44,19.67 33.94,33.91 58.81,42.74l25.33 8.8c10.49,4.11 15.89,10.13 15.89,18.17 0,8.06 -2.07,13.53 -6.16,16.48 -4.31,3.21 -14.41,6.56 -30.21,9.78 -50.75,10.63 -89.55,29.54 -116.33,56.51 -27.38,27.95 -41.22,62.07 -41.22,102.72 0,36.56 12.17,66.9 36.37,90.52 23.76,24.19 53.39,36.42 88.79,36.42 67.09,0 100.65,-38.46 100.65,-115.31 0,-20.96 -2.26,-36.34 -6.78,-46.29 -5.07,-10.09 -13.48,-18.15 -25.11,-23.97l-18.15 -9.37c-9.94,-6.16 -14.8,-13.13 -14.8,-20.4 0,-6.16 2.26,-11.42 7.09,-15.94 4.71,-3.93 10.39,-5.95 16.56,-5.95 6.92,0 18.15,2.21 33.9,6.52 29.39,7.68 56.96,11.63 83.01,11.63 26.24,0 52.66,-3.76 79.09,-11.04 16.11,-4.31 25.82,-6.59 29.64,-6.59 5.42,0 10.47,1.67 14.75,4.88 3.97,4.14 6.04,8.59 6.04,13.89 0,8.01 -5.07,16.1 -15.37,24.14 -18.01,13.53 -29.26,24.22 -33.94,31.89 -4.83,6.92 -7.28,18.31 -7.28,34.49l-0.52 59.18c0,14.1 1.85,24.57 5.54,31.85 3.21,8.06 8.82,14.65 16.51,19.31 9.16,5.07 14.58,8.8 16.48,11.04 2.11,2.47 3.21,6.38 3.21,11.41 0,11.85 -8.82,27.04 -26.24,45.55 -64.07,67.52 -147.89,101.06 -250.88,101.06 -55.72,0 -105.53,-9.63 -149.41,-29.04 -43.26,-19.37 -76.61,-46.88 -100.44,-82.29 -23.76,-36.01 -35.82,-76.61 -35.82,-121.96 0,-56.06 17.1,-104.42 51.21,-145.44 16.87,-20.62 37.1,-38.36 60.93,-53.61 23.76,-15.2 50.55,-27.13 80.73,-35.96l-0.06 0z"/>
  </g>
 </g>
</svg>
