<?xml version="1.0" encoding="UTF-8"?>
<!DOCTYPE svg PUBLIC "-//W3C//DTD SVG 1.1//EN" "http://www.w3.org/Graphics/SVG/1.1/DTD/svg11.dtd">
<!-- Creator: CorelDRAW 2018 (64-Bit) -->
<svg xmlns="http://www.w3.org/2000/svg" xml:space="preserve" width="8.5in" height="2.43984in" version="1.1" style="shape-rendering:geometricPrecision; text-rendering:geometricPrecision; image-rendering:optimizeQuality; fill-rule:evenodd; clip-rule:evenodd"
viewBox="0 0 8500 2439.84"
 xmlns:xlink="http://www.w3.org/1999/xlink">
 <defs>
  <style type="text/css">
   <![CDATA[
    .fil0 {fill:#F26B35}
   ]]>
  </style>
 </defs>
 <g id="Plan_x0020_1">
  <metadata id="CorelCorpID_0Corel-Layer"/>
  <path class="fil0" d="M115.17 1584.38c-76.78,-96.17 -115.17,-234.82 -115.17,-416.06l0 -605.96c0,-185.38 38,-325.42 114.12,-420.2 76.08,-94.75 206.12,-142.17 390.12,-142.17 175.65,0 300.18,42.22 373.55,126.59 73.29,84.39 109.98,204.08 109.98,358.98l0 73.87 -363.19 0 0 -96.7c0,-65.01 -6.94,-114.81 -20.74,-149.4 -13.83,-34.56 -47.04,-51.86 -99.59,-51.86 -52.59,0 -87.14,18.35 -103.75,54.96 -16.59,36.66 -24.92,87.54 -24.92,152.52l0 790.62c0,66.42 8.63,117.28 25.96,152.55 17.28,35.25 51.5,52.9 102.71,52.9 51.18,0 84.04,-17.65 98.58,-52.9 14.51,-35.28 21.77,-86.12 21.77,-152.55l0 -104.96 363.19 0 0 73.85c0,157.71 -36.69,280.52 -109.98,368.36 -73.35,87.84 -197.9,131.74 -373.55,131.74 -182.64,0 -312.31,-48.04 -389.09,-144.22l0 0.02zm761.09 -725.16l0 0 55.73 0 -27.54 -75.1 -28.2 75.1 0.01 0zm87.22 86.55l0 0 -13.44 -36.73 -92.82 0 -13.75 36.73 -70.17 0 98.02 -229.86 70.19 0 94.76 229.86 -72.78 0 -0.02 0zm-411.61 -229.86l68.2 0 0 172.8 96.43 0 0 57.07 -164.64 0 0 -229.86 0.01 -0.01zm3585.03 1600.61l143.15 0 0 -69.2 -143.15 0 0 -47.57 157.87 0 0 -69.19 -247.81 0 0 303.18 252.14 0 0 -69.2 -162.2 0 0 -48.02zm-346.74 -122.4c12.41,0 28.25,3.31 47.57,9.96 19.33,6.63 37.06,14.69 53.19,24.22l33.34 -69.23c-16.73,-10.66 -36.35,-19.23 -58.86,-25.69 -22.46,-6.52 -45.11,-9.77 -67.89,-9.77 -25.07,0 -47.06,3.9 -65.94,11.69 -18.88,7.79 -33.51,18.96 -43.9,33.51 -10.39,14.59 -15.57,31.66 -15.57,51.25 0,20.19 5.04,36.49 15.15,48.87 10.07,12.41 22.06,21.56 35.89,27.46 13.86,5.94 31.27,11.61 52.31,17.1 18.75,4.89 32.61,9.59 41.53,14.05 8.95,4.46 13.41,10.9 13.41,19.25 0,6.95 -2.77,12.27 -8.24,16 -5.47,3.78 -13.11,5.61 -22.93,5.61 -15.86,0 -34.8,-4.54 -56.85,-13.59 -22.06,-9.1 -40.74,-20.27 -56.04,-33.53l-33.69 68.31c19.02,15.3 41.56,27.33 67.68,36.13 26.09,8.79 52.1,13.17 78.06,13.17 23.35,0 44.5,-3.62 63.37,-10.8 18.85,-7.24 33.85,-18.1 44.94,-32.66 11.11,-14.56 16.67,-32.37 16.67,-53.41 0,-20.76 -5.13,-37.5 -15.36,-50.18 -10.23,-12.65 -22.27,-22.11 -36.12,-28.31 -13.83,-6.22 -31.43,-12.34 -52.77,-18.39 -18.75,-5.19 -32.46,-10.02 -41.07,-14.48 -8.65,-4.49 -12.98,-10.74 -12.98,-18.83 0,-5.78 2.25,-10.18 6.71,-13.17 4.46,-3.04 10.6,-4.56 18.36,-4.56l0.02 0.03zm-374 0c12.4,0 28.28,3.31 47.6,9.96 19.31,6.63 37.04,14.69 53.17,24.22l33.33 -69.23c-16.71,-10.66 -36.35,-19.23 -58.86,-25.69 -22.43,-6.52 -45.11,-9.77 -67.89,-9.77 -25.07,0 -47.06,3.9 -65.94,11.69 -18.88,7.79 -33.51,18.96 -43.9,33.51 -10.4,14.59 -15.57,31.66 -15.57,51.25 0,20.19 5.07,36.49 15.15,48.87 10.07,12.41 22.06,21.56 35.89,27.46 13.85,5.94 31.3,11.61 52.32,17.1 18.75,4.89 32.61,9.59 41.53,14.05 8.95,4.46 13.41,10.9 13.41,19.25 0,6.95 -2.72,12.27 -8.22,16 -5.49,3.78 -13.12,5.61 -22.93,5.61 -15.83,0 -34.82,-4.54 -56.86,-13.59 -22.06,-9.1 -40.72,-20.27 -56.02,-33.53l-33.7 68.31c19.02,15.3 41.57,27.33 67.68,36.13 26.06,8.79 52.11,13.17 78.06,13.17 23.37,0 44.48,-3.62 63.38,-10.8 18.88,-7.24 33.87,-18.1 44.95,-32.66 11.11,-14.56 16.67,-32.37 16.67,-53.41 0,-20.76 -5.13,-37.5 -15.36,-50.18 -10.23,-12.65 -22.27,-22.11 -36.07,-28.31 -13.86,-6.22 -31.44,-12.34 -52.8,-18.39 -18.72,-5.19 -32.43,-10.02 -41.08,-14.48 -8.65,-4.49 -12.98,-10.74 -12.98,-18.83 0,-5.78 2.24,-10.18 6.7,-13.17 4.46,-3.04 10.6,-4.56 18.38,-4.56l-0.04 0.03zm2760.04 77.87l0 0c-7.31,7.24 -17.78,10.81 -31.34,10.81l-43.24 0 0 -83.04 43.24 0c13.56,0 24.04,3.52 31.34,10.57 7.35,7.08 11.03,17.26 11.03,30.5 0,13.58 -3.67,23.93 -11.03,31.14l0 0.01zm-27.03 -141.43l-137.51 0 0 303.18 89.95 0 0 -81.3 47.57 -0.46c39.24,0 69.57,-9.93 91.05,-29.83 21.47,-19.9 32.24,-47.86 32.24,-83.92 0,-34.32 -10.77,-60.84 -32.24,-79.56 -21.48,-18.75 -51.8,-28.12 -91.05,-28.12l-0.01 0.01zm858.95 141.43l0 0c-7.34,7.24 -17.81,10.81 -31.35,10.81l-51.49 0 0 -83.04 51.49 0c13.54,0 24.01,3.52 31.35,10.57 7.33,7.08 11.03,17.26 11.03,30.5 0,13.58 -3.72,23.93 -11.03,31.14l0 0.01zm83.45 24.01c8.79,-16.28 13.19,-35.54 13.19,-57.73 0,-34.32 -11.19,-60.84 -33.51,-79.56 -22.35,-18.75 -53.85,-28.12 -94.48,-28.12l-141.45 0 0 303.18 89.94 0 0 -81.76 47.59 0 40.22 81.76 102.07 0 -61.42 -99.02c16.41,-9.55 29.05,-22.44 37.84,-38.74l0 -0zm-4454.3 -24.01l0 0c-7.35,7.24 -17.81,10.81 -31.39,10.81l-51.46 0 0 -83.04 51.46 0c13.58,0 24.04,3.52 31.39,10.57 7.31,7.08 11,17.26 11,30.5 0,13.58 -3.69,23.93 -11,31.14l0 0.01zm83.45 24.01c8.79,-16.28 13.19,-35.54 13.19,-57.73 0,-34.32 -11.19,-60.84 -33.53,-79.56 -22.35,-18.75 -53.84,-28.12 -94.52,-28.12l-141.41 0 0 303.18 89.94 0 0 -81.76 47.6 0 40.22 81.76 102.07 0 -61.42 -99.02c16.43,-9.55 29.05,-22.44 37.84,-38.74l0 -0zm1885.1 -24.01l0 0c-7.34,7.24 -17.81,10.81 -31.35,10.81l-51.49 0 0 -83.04 51.49 0c13.54,0 24.01,3.52 31.35,10.57 7.33,7.08 11.03,17.26 11.03,30.5 0,13.58 -3.69,23.93 -11.03,31.14l0 0.01zm83.48 24.01c8.79,-16.28 13.19,-35.54 13.19,-57.73 0,-34.32 -11.19,-60.84 -33.54,-79.56 -22.35,-18.75 -53.83,-28.12 -94.49,-28.12l-141.44 0 0 303.18 89.94 0 0 -81.76 47.62 0 40.22 81.76 102.04 0 -61.39 -99.02c16.43,-9.55 29.02,-22.44 37.84,-38.74l0 -0zm1065.56 -101.86c12.4,0 28.26,3.3 47.56,9.96 19.33,6.63 37.07,14.69 53.2,24.22l33.33 -69.23c-16.74,-10.66 -36.38,-19.24 -58.86,-25.69 -22.46,-6.51 -45.11,-9.77 -67.89,-9.77 -25.07,0 -47.06,3.91 -65.94,11.7 -18.88,7.79 -33.54,18.96 -43.9,33.51 -10.4,14.59 -15.57,31.66 -15.57,51.24 0,20.19 5.06,36.49 15.15,48.87 10.07,12.41 22.06,21.56 35.86,27.46 13.86,5.94 31.29,11.61 52.34,17.1 18.72,4.89 32.59,9.59 41.53,14.05 8.92,4.46 13.41,10.9 13.41,19.25 0,6.96 -2.75,12.27 -8.24,16 -5.47,3.78 -13.11,5.61 -22.91,5.61 -15.85,0 -34.82,-4.54 -56.89,-13.59 -22.03,-9.11 -40.69,-20.27 -55.99,-33.53l-33.69 68.31c19,15.3 41.56,27.33 67.68,36.13 26.06,8.79 52.1,13.17 78.06,13.17 23.37,0 44.45,-3.62 63.35,-10.8 18.88,-7.23 33.87,-18.09 44.96,-32.66 11.11,-14.56 16.64,-32.37 16.64,-53.41 0,-20.76 -5.1,-37.5 -15.33,-50.18 -10.24,-12.65 -22.27,-22.11 -36.1,-28.31 -13.86,-6.23 -31.45,-12.34 -52.78,-18.39 -18.75,-5.19 -32.44,-10.02 -41.1,-14.48 -8.63,-4.49 -12.95,-10.74 -12.95,-18.84 0,-5.77 2.24,-10.17 6.7,-13.16 4.46,-3.04 10.58,-4.56 18.38,-4.56l-0.01 0.03zm854.38 129.97l0 0c-6.33,12.58 -15.06,22.51 -26.15,29.87 -11.14,7.36 -23.16,11 -36.13,11 -13.25,0 -25.57,-3.64 -36.99,-11 -11.38,-7.34 -20.46,-17.37 -27.21,-30.08 -6.78,-12.65 -10.17,-26.69 -10.17,-41.93 0,-15.28 3.39,-29.21 10.17,-41.76 6.76,-12.5 15.83,-22.38 27.21,-29.6 11.41,-7.24 23.74,-10.81 36.99,-10.81 13.28,0 25.38,3.58 36.31,10.81 10.95,7.21 19.63,17.1 25.96,29.6 6.35,12.55 9.5,26.48 9.5,41.76 0,15.57 -3.15,29.61 -9.5,42.14zm21 -178.81c-25.25,-13.56 -53.44,-20.35 -84.56,-20.35 -31.43,0 -59.7,6.78 -84.8,20.35 -25.07,13.54 -44.74,32.21 -59.02,55.98 -14.3,23.8 -21.4,50.52 -21.4,80.23 0,29.99 7.1,57.02 21.4,81.08 14.28,24.12 33.94,43 59.02,56.67 25.1,13.7 53.35,20.58 84.8,20.58 31.11,0 59.31,-6.87 84.56,-20.58 25.2,-13.66 44.98,-32.56 59.26,-56.67 14.26,-24.07 21.4,-51.08 21.4,-81.08 0,-29.71 -7.13,-56.44 -21.4,-80.23 -14.28,-23.78 -34.05,-42.44 -59.26,-55.98zm-1471.26 171.25l143.16 0 0 -69.2 -143.16 0 0 -47.57 157.88 0 0 -69.19 -247.83 0 0 303.18 252.14 0 0 -69.2 -162.18 0 0 -48.02zm-321.67 117.2l89.94 0 0 -303.18 -89.94 0 0 303.18zm-1861.75 -114.19l0 0 37.23 -99.02 36.29 99.02 -73.52 0zm-6.46 -188.98l-129.31 303.15 92.54 0 18.18 -48.41 122.37 0 17.74 48.41 96.02 0 -124.98 -303.15 -92.54 0 -0.01 0zm-1575.8 141.41l0 0c-7.33,7.24 -17.81,10.81 -31.36,10.81l-51.46 0 0 -83.04 51.46 0c13.55,0 24.01,3.52 31.36,10.57 7.35,7.08 11.03,17.26 11.03,30.5 0,13.58 -3.69,23.93 -11.03,31.14l0 0.01zm83.45 24.01c8.82,-16.28 13.22,-35.54 13.22,-57.73 0,-34.32 -11.19,-60.84 -33.54,-79.56 -22.35,-18.75 -53.81,-28.12 -94.49,-28.12l-141.44 0 0 303.18 89.97 0 0 -81.76 47.6 0 40.22 81.76 102.04 0 -61.4 -99.02c16.41,-9.55 29.05,-22.44 37.81,-38.74l-0.01 -0zm-535.07 -85.85c10.93,-6.91 23.18,-10.39 36.76,-10.39 12.4,0 25.12,3.69 38.3,11.03 13.11,7.38 24.41,17.39 33.91,30.05l51.89 -61.82c-15.25,-16.43 -34.33,-29.54 -57.07,-39.37 -22.78,-9.8 -45.52,-14.69 -68.33,-14.69 -30.85,0 -58.67,6.75 -83.45,20.32 -24.82,13.54 -44.25,32.21 -58.39,56.01 -14.15,23.8 -21.2,50.39 -21.2,79.77 0,29.99 6.91,57.09 20.74,81.32 13.86,24.22 32.93,43.19 57.31,56.89 24.38,13.7 51.69,20.56 81.97,20.56 22.75,0 45.78,-5.37 68.99,-16.02 23.21,-10.66 43.03,-24.93 59.44,-42.84l-51.89 -55.34c-10.4,10.96 -22.11,19.61 -35.22,25.93 -13.11,6.35 -25.44,9.53 -36.99,9.53 -13.56,0 -25.83,-3.52 -36.76,-10.6 -10.97,-7.08 -19.63,-16.73 -25.99,-28.98 -6.33,-12.25 -9.48,-26.04 -9.48,-41.31 0,-15.28 3.15,-29.07 9.48,-41.29 6.35,-12.27 15.02,-21.84 25.99,-28.76l0 0zm-661.07 88.65l-81.33 -168.22 -96.44 0 0 303.18 79.16 0 0 -179.92 69.17 150.08 58.42 0 69.2 -150.08 0 179.92 79.16 0 0 -303.18 -96.46 0 -80.87 168.22 -0.02 0zm6936.07 -96.41l87.78 0 0 231.36 90.4 0 0 -231.36 88.24 0 0 -71.8 -266.43 0 0 71.8 0.02 0zm-6617.01 231.36l89.94 0 0 -303.18 -89.94 0 0 303.18zm7002.25 0l89.94 0 0 -303.18 -89.94 0 0 303.18zm370.1 -93.43l-69.2 -209.76 -96.04 0 115.91 303.17 93.42 0 117.22 -303.17 -92.11 0 -69.2 209.76 0.01 0zm365.78 24.22l0 -48.02 143.15 0 0 -69.19 -143.15 0 0 -47.57 157.84 0 0 -69.19 -247.81 0 0 303.18 252.14 0 0 -69.2 -162.17 0 0 -0.02zm-6103.96 -5.6l0 0c-6.78,5.15 -15.94,7.64 -27.46,7.31l-54.51 0 0 -54.91 54.51 0c11.51,-0.29 20.67,1.95 27.46,6.71 6.78,4.74 10.17,11.31 10.17,19.68 0,8.94 -3.39,16.02 -10.17,21.2l0 0.01zm-81.96 -160.89l0 0 54.51 0c8.94,0 15.97,2.22 21.19,6.71 5.17,4.46 7.79,10.59 7.79,18.34 0,8.09 -2.62,14.5 -7.79,19.26 -5.22,4.75 -12.24,7.13 -21.19,7.13l-54.51 0 0 -51.45 0 0.02zm124.14 74.37c15.85,-4.61 28.41,-12.85 37.6,-24.65 9.24,-11.84 13.86,-25.38 13.86,-40.68 0,-15.57 -4.74,-29.11 -14.26,-40.65 -9.53,-11.53 -23.08,-20.4 -40.66,-26.6 -17.58,-6.23 -38.07,-9.29 -61.42,-9.29l-148.76 0 0 303.18 155.27 0c23.94,0 44.9,-3.45 62.92,-10.37 18.02,-6.94 31.92,-16.8 41.74,-29.65 9.8,-12.82 14.69,-27.74 14.69,-44.75 0,-19.33 -5.56,-35.98 -16.65,-49.94 -11.08,-14 -25.86,-22.87 -44.31,-26.6l-0.02 0zm-439.74 51.66l0 0c-6.33,12.58 -15.06,22.51 -26.15,29.87 -11.13,7.37 -23.16,11 -36.13,11 -13.25,0 -25.59,-3.63 -36.99,-11 -11.37,-7.34 -20.46,-17.37 -27.21,-30.08 -6.78,-12.65 -10.17,-26.68 -10.17,-41.93 0,-15.28 3.39,-29.21 10.17,-41.76 6.76,-12.5 15.84,-22.38 27.21,-29.59 11.4,-7.24 23.74,-10.81 36.99,-10.81 13.26,0 25.38,3.58 36.33,10.81 10.94,7.2 19.63,17.09 25.96,29.59 6.33,12.55 9.5,26.48 9.5,41.76 0,15.57 -3.18,29.61 -9.5,42.14l-0.02 0zm20.96 -178.81c-25.2,-13.56 -53.4,-20.35 -84.52,-20.35 -31.46,0 -59.69,6.78 -84.8,20.35 -25.07,13.54 -44.74,32.21 -59.02,55.98 -14.29,23.8 -21.4,50.52 -21.4,80.23 0,29.99 7.09,57.02 21.4,81.08 14.28,24.12 33.94,43 59.02,56.68 25.1,13.7 53.33,20.57 84.8,20.57 31.11,0 59.31,-6.87 84.52,-20.57 25.25,-13.67 44.99,-32.56 59.26,-56.68 14.3,-24.07 21.43,-51.08 21.43,-81.08 0,-29.71 -7.12,-56.44 -21.43,-80.23 -14.26,-23.78 -34.02,-42.44 -59.26,-55.98zm5883.31 -2122.43l755.34 0 0 253.15 -383.91 0 0 417.13 292.59 0 0 257.3 -292.59 0 0 502.16 388.05 0 0 251.13 -759.49 0 0 -1680.86 0 -0.02zm-407.72 402.52c-79.4,-215.28 -206.04,-280.63 -641.42,228.55 -80.47,94.17 2.24,214.54 38.83,323.85 32.48,89.33 166.88,399.89 310.49,725.92l-545.35 0 0 -1680.78 462.67 0c183.91,0 323.08,32.47 417.24,97.46 94.14,65 141.05,180.59 141.05,346.37 0,112.24 -14.39,201.24 -43.58,267.69 -29.16,66.5 -83.06,118.54 -161.71,155.83l230.03 813.43 -394.72 0c-172.43,-393.61 -345.64,-722.97 -230.77,-864.38 208.62,-255.53 477.06,-251.47 417.24,-413.92l-0 -0.02zm-1607.2 1018.91l0 0c78.81,0 134.5,-19.7 167.02,-59.13 32.47,-39.43 48.76,-101.36 48.76,-185.75 0,-95.41 -16.3,-162.51 -48.76,-201.26 -32.53,-38.72 -88.91,-58.12 -169.13,-58.12l-76.76 0 0 504.24 78.86 0 0 0.02zm-6.26 -749.11l0 0c78.86,0 132.46,-17.97 160.83,-53.91 28.34,-35.98 42.54,-92.03 42.54,-168.1 0,-66.42 -18,-116.57 -53.97,-150.47 -36.01,-33.88 -88.54,-50.85 -157.71,-50.85l-64.3 0 0 423.33 72.61 0zm-444.07 -672.33l437.82 0c109.31,0 202.33,11.41 279.14,34.28 76.78,22.8 138.68,66.73 185.69,131.74 47.04,65.07 70.58,156.33 70.58,273.9 0,99.65 -21.5,177.11 -64.32,232.42 -42.94,55.33 -103.8,90.64 -182.61,105.85 96.78,12.44 170.81,53.27 222.01,122.42 51.15,69.2 76.75,163.26 76.75,282.2 0,332.03 -169.45,498.06 -508.39,498.06l-516.68 0 0 -1680.86 0 -0zm-1344.44 1545.88l0 0 -300.56 0 -2.65 135 299.84 0 3.36 -135zm1065.37 0l0 0 -296.71 0 4.19 135 295.11 0 -2.59 -135zm-1336.01 -1545.89l339.12 0 343.56 586.24 300.56 -586.24 322.88 0 27.73 1432.99 -298.05 0 -27.13 -870.58 -218.49 1118.47 -262.6 0 -232.41 -1126.81 -21.74 878.91 -301.14 0 27.73 -1432.99 -0.02 0zm-663.8 1104l0 0 -89.2 -655.78 -89.26 655.78 178.46 0 0.01 0zm-302.96 -1103.96l423.36 0 313.32 1680.86 -342.4 0 -55.99 -354.87 -246.96 0 -58.12 354.87 -350.68 0 317.48 -1680.86 -0.02 0zm-1496.17 0l371.47 0 0 680.61 259.39 0 0 -680.61 373.49 0 0 1680.86 -373.49 0 0 -734.58 -259.39 0 0 734.58 -371.47 0 0 -1680.86z"/>
 </g>
</svg>
