<?xml version="1.0" encoding="UTF-8"?>
<!DOCTYPE svg PUBLIC "-//W3C//DTD SVG 1.1//EN" "http://www.w3.org/Graphics/SVG/1.1/DTD/svg11.dtd">
<!-- Creator: CorelDRAW 2018 (64-Bit) -->
<svg xmlns="http://www.w3.org/2000/svg" xml:space="preserve" width="8.5in" height="3.48567in" version="1.1" style="shape-rendering:geometricPrecision; text-rendering:geometricPrecision; image-rendering:optimizeQuality; fill-rule:evenodd; clip-rule:evenodd"
viewBox="0 0 8500 3485.67"
 xmlns:xlink="http://www.w3.org/1999/xlink">
 <defs>
  <style type="text/css">
   <![CDATA[
    .fil0 {fill:#834337;fill-rule:nonzero}
   ]]>
  </style>
 </defs>
 <g id="Plan_x0020_1">
  <metadata id="CorelCorpID_0Corel-Layer"/>
  <path class="fil0" d="M4776.9 1198.26c-352.92,-24.59 -703.16,-24.59 -1056.08,0 -1.11,-14.2 -1.68,-21.3 -2.8,-35.5 354.79,-24.71 706.88,-24.71 1061.68,0 -1.11,14.2 -1.69,21.3 -2.8,35.5l0 0zm4.43 -56.32c-355.88,-24.79 -709.07,-24.79 -1064.93,0 -0.77,-9.8 -1.16,-14.7 -1.94,-24.47 357.16,-24.87 711.62,-24.91 1068.8,0 -0.78,9.78 -1.16,14.68 -1.94,24.47zm-719.09 -1095.79c0,25.49 -20.65,46.14 -46.14,46.14 -25.48,0 -46.14,-20.65 -46.14,-46.14 0,-25.48 20.66,-46.14 46.14,-46.14 25.49,0 46.14,20.66 46.14,46.14zm465.52 0c0,25.49 -20.65,46.14 -46.13,46.14 -25.49,0 -46.14,-20.65 -46.14,-46.14 0,-25.48 20.65,-46.14 46.14,-46.14 25.48,0 46.13,20.66 46.13,46.14zm-1121.14 35.78c0,25.49 -20.65,46.14 -46.14,46.14 -25.49,0 -46.14,-20.65 -46.14,-46.14 0,-25.48 20.65,-46.13 46.14,-46.13 25.49,0 46.14,20.65 46.14,46.13zm1776.76 0c0,25.49 -20.66,46.14 -46.14,46.14 -25.49,0 -46.14,-20.65 -46.14,-46.14 0,-25.48 20.65,-46.13 46.14,-46.13 25.48,0 46.14,20.65 46.14,46.13zm-505.32 593.5l24.06 70.62 182.83 -226.3 -150.85 375.73 -24 -70.62 -0.09 0 -99.38 -291.8 0.28 0 -138.35 -407.06 -223.99 400.67 -223.4 -398.85 -138.04 405.24 0 0 -99.38 291.8 -0.02 0 -24.06 70.67 -150.91 -375.74 182.87 226.33 24.06 -70.61 -422.28 -522.69 371.12 924.09 87.3 -256.29 177.75 219.99 120.6 -215.76 0 0 130.57 -233.58 0 -0.02 173.69 -310.72 159.51 469.3 -144.3 178.62 -179.41 -320.28 -36.13 64.59 206.03 367.83 177.84 -220.13 87.18 256.56 371.03 -924.15 -422.15 522.54 0.01 0zm-654.04 253.01l-144.11 -178.41 159.37 -467.93 173.22 309.19 -188.47 337.15 -0.01 0.01zm4475.45 811.28c-4.98,-40.1 -107.46,45.98 -121.09,56.43 -60.58,46.52 -121.59,92.76 -185.28,135.03 -29.61,19.64 -60.06,39.79 -92.94,53.59 -10.59,-87.3 -27.67,-174.88 -62.11,-256.2 -16.4,-38.71 -36.74,-77.05 -64.58,-108.86 -29.8,-34.03 -73.18,-55.5 -115.2,-70.08 -79.57,-27.63 -168.21,-37.88 -251.81,-26.03 -79.65,11.27 -156.83,50.97 -211.86,110.65 -22.29,24.16 -44.55,49.85 -56.32,80.54 -6.08,15.84 -8.33,31.92 -12.83,48.04 -4.98,17.94 -16.62,35.62 -23.7,53.05 -9.82,24.17 -18.24,48.94 -25.26,74.07 -14.59,52.24 -23.83,105.88 -29.24,159.81 -3.94,39.09 -3.46,143.65 -6.44,154.04 -2.96,10.34 -67.07,99.89 -88.55,134.81 -22.6,36.81 -43.61,75.88 -71.09,109.39 -9.95,12.15 -22.3,26.5 -38.22,30.5 -17.83,4.48 -26.17,-7.46 -27.15,-23.05 -1.89,-29.46 -0.53,-59.28 -0.26,-88.79 1.39,-139.91 -0.02,-279.45 8.08,-419.22 4.51,-77.98 10.7,-155.17 21.39,-232.5 10.39,-75.18 33.56,-234.86 40.96,-271.33 1.06,-5.18 186.72,-6.21 232.06,-8.26 16.3,-0.74 33.1,-0.61 49.29,-2.76 33.54,-4.48 67.21,-13.63 100.11,-21.36 84.72,-19.92 167.83,-41.94 241.7,-89.08 28.65,-18.3 61.32,-39.28 73.69,-72.79 16.19,-43.96 -36.12,-43.91 -65.8,-45.1 -95.98,-3.89 -191.03,-12.84 -286.59,-22.81 -22.17,-2.32 -45.27,-6.71 -67.6,-6.67 -25.82,0.07 -51.9,2.93 -77.72,3.91 -49.78,1.94 -99.58,2.93 -149.38,3.17 15.06,-74.19 30.55,-148.3 45.87,-222.43 12.41,-60.08 27.74,-121.36 31.46,-182.76 2.28,-37.7 -6.61,-75.56 -31.43,-104.94 -38.48,-45.59 -104.91,-60.09 -158.58,-33.46 -32.87,16.32 -59.56,49.55 -68.42,69.14 -20.25,39.24 -48.55,178.26 -67.12,268.87 -7.43,36.26 -35.37,198.09 -37.41,199.48 -3.02,2.06 -166.66,-11.63 -240.35,-16.38 -98.19,-6.33 -260.86,-46.83 -267.59,-45.91 -9.15,1.26 -18.34,15.16 -23.47,21.48 -10.52,12.91 -20,26.71 -28.05,41.3 -24.3,43.87 -35.66,95.33 -28.65,145.26 1.7,12.05 3.54,32.61 14.62,38.77 6.19,3.43 16.71,7.8 23.46,9.5 14.05,3.57 28.1,7.15 42.19,10.54 153.74,36.98 313.43,43.76 470.89,51.98 -21.7,168.78 -37.96,338.18 -47.47,508.09 -4.68,84.12 -8.09,168.38 -8.57,252.63 -0.38,66.63 5.19,131.61 15.69,197.43 3.17,19.91 6.87,39.77 11.14,59.47 1.56,7.19 6.21,17.57 2.42,22.85 -4.78,6.65 -19.53,10.71 -27.27,13.14 -30.5,9.57 -64.79,6.19 -95.64,0.25 -23.36,-4.5 -50.61,-8.11 -66.72,-27.43 -22.08,-26.44 -23.64,-70.13 -24.35,-102.72 -1.91,-89.03 10.96,-179.38 21.43,-267.72 5.63,-47.35 13.31,-95.43 11.52,-143.21 -2.63,-70.85 -40.3,-136.58 -113.33,-153.15 36.51,-29.82 39.47,-80.13 27.16,-122.48 -9.86,-33.89 -30.76,-55.04 -60.67,-73.13 -63.02,-38.13 -141.53,-55.43 -214.41,-59.91 -84.47,-5.22 -168.11,20.39 -241.02,62.16 -61.7,35.33 -109.77,83.38 -149.94,141.17 -30.83,44.39 -53.24,89.55 -69.86,140.98 -16.15,50.03 -27.95,101.62 -36.76,153.41 -4.5,26.55 -8.11,53.22 -10.84,80 -1.26,12.45 -2.34,24.91 -3.21,37.37 -0.48,6.69 0.48,15.67 -1.37,22 -1.55,5.28 -6.39,11.04 -9.17,15.85 -48.96,85.22 -96.94,173.72 -162.35,247.8 -14.73,16.68 -30.76,32.52 -48.7,45.74 -9.97,7.36 -36.38,27.78 -49.57,19.36 -8.19,-5.21 -13.42,-24.06 -17.08,-32.31 -4.7,-10.59 -8.74,-21.43 -13.16,-32.12 -39.09,-95.03 -54.85,-197.72 -65.19,-299.43 -2.76,-26.98 -4.98,-54.01 -6.75,-81.08 -0.4,-6.27 -0.8,-12.56 -1.16,-18.85 -0.48,-8.52 -0.59,-9.35 6.72,-13.67 10.46,-6.14 20.8,-12.48 31.03,-18.94 40.91,-25.91 80.15,-54.47 117.39,-85.43 144.85,-120.33 262.87,-280.01 328.69,-457.03 60.63,-163 79.51,-359.81 4.29,-521.76 -82.8,-178.24 -317.97,-222.66 -474.25,-114.84 -59.33,40.93 -96.8,102.74 -127.55,166.43 -43.06,89.18 -69.42,186.53 -89.88,283.1 -45.36,214.28 -61.35,435.85 -58.19,654.6 0.08,6.39 0.19,12.77 0.32,19.13 0.17,7.89 1.87,10.48 -4.29,14.05 -7.78,4.5 -20.49,5.59 -29.19,7.91 -24.33,6.46 -48.74,12.6 -73.24,18.42 -11.5,-179.11 -89.66,-361.85 -261.3,-439.97 -160.6,-73.11 -363.56,-30.33 -467.61,115.7 -9.31,13.08 -16.22,25.61 -22.25,40.42 -5.51,13.52 -9.1,26.54 -17.18,38.65 -26.55,39.92 -46.54,84.71 -61.57,130.13 -29.63,89.43 -41.27,183.55 -43.42,277.44 -0.44,19.33 3.04,42.12 -0.19,61.02 -2.15,12.43 -21.61,24.1 -31.54,32.95 -30.54,27.19 -61.06,54.38 -91.94,81.16 -58.26,50.48 -121.06,105.51 -189.89,141.33 -69.74,36.33 -159.44,45.93 -220.11,-13.35 -57.05,-55.75 -81.04,-136.33 -87.12,-213.85 -6.95,-88.66 5.86,-179.56 35.47,-263.37 20.12,-57.01 48.41,-121.74 95.9,-161.26 25.25,-20.98 54.61,-31.21 87.11,-34.15 33.94,-3.07 68.84,-4.48 78.26,35.39 5.25,22.19 6.93,46.24 5.57,68.94 -0.53,8.59 -4.15,19.49 -2.38,27.65 2.1,9.78 65.49,98.48 104.51,115.18 41.44,17.73 85.86,1.19 118.18,-26.98 14.22,-12.39 26.56,-25.76 30.46,-44.56 5.04,-24.26 7.74,-49.31 8.77,-74.07 3.79,-91.05 -20.38,-186.26 -78.4,-257.88 -116,-143.21 -344.88,-126.29 -486.49,-32.47 -123.93,82.1 -193.57,238.03 -228.42,377.5 -1.31,5.25 -3.2,11.78 -4.31,17.94 -1.73,9.65 -83.37,18.85 -106.74,22.52 1.53,-119.24 -23.29,-243.19 -95.62,-340.54 -70.39,-94.74 -179.77,-152.78 -297.88,-156.76 -117.83,-3.97 -244.11,46.47 -315.84,142.62 -7.84,10.49 -16.09,21.17 -22.29,32.75 -7.3,13.69 -10.92,29.65 -18.41,42.88 -15.29,26.96 -34.19,51.35 -48.28,79.24 -28.31,55.98 -47.7,116.46 -61.13,177.61 -26.56,120.88 -35.88,252.29 -18.97,375.1 15.98,116.18 60.64,241.96 159.51,313.2 150.65,108.53 369.61,78.02 503.06,-44.7 85.07,-78.22 133.86,-187.87 164.38,-297.45 9.48,-34.09 17.75,-68.55 25.02,-103.17 2.59,-12.28 4.88,-24.65 7.36,-36.94 2.23,-11.14 5.99,-50.83 9.05,-54.41 3.7,-4.37 75.24,-34.54 99.2,-48.85 -21.28,186.66 8.29,407.32 160.18,535.07 77.72,65.38 178.77,98.06 280.15,90.49 95.49,-7.13 183.82,-52.66 254.69,-115.41 28.42,-25.17 53.82,-53.14 78.43,-81.96 15.37,-18.01 96.46,-127.61 114.27,-155.87 16.98,99.43 56.43,203.89 129.05,276.24 66.16,65.93 157.07,105.59 251.24,103.04 81.44,-2.2 160.45,-17.62 230.35,-62 84.21,-53.45 142.18,-136.8 178.44,-228.5 21.61,-54.65 35.88,-111.98 46.68,-169.67 5.52,-29.4 15.89,-119.32 19.7,-134.12 1.22,-4.82 3.09,-7.41 5.44,-10.79 3.16,-4.46 79.22,-38.69 111.56,-58.57 5.91,89.12 15.92,178.09 33.67,265.69 14.75,72.67 33.8,145.67 69.15,211.26 35.83,66.5 87.08,129.99 159.04,158.75 78.73,31.48 168.13,11.27 235.59,-36.93 75.9,-54.22 125.46,-137 163.45,-220.41 38.81,114.59 118.33,209.07 233.58,251.57 87.7,32.31 194.26,37.05 282.49,4.69 62.38,-22.89 115.93,-63.89 157.09,-115.7 53.52,51.14 120.98,72.52 193.76,75.43 73.73,2.96 150.65,-8.49 213.33,-49.69 20.8,37.96 44.14,70.1 82.68,91.56 41,22.81 86.8,26.84 130.65,8.83 83.28,-34.17 130.82,-123.94 166.06,-201.56 16.78,-36.99 27.55,-75.98 39.52,-114.66 33.64,142.83 118.71,280.11 267.44,321.58 64.39,17.96 134.06,17.92 199.21,4.07 51.78,-10.99 95.7,-32.6 140.19,-60.07 121.84,-75.32 179.21,-221.73 211.05,-354.76 6.06,-25.32 18.58,-113.92 23.95,-117.58 11.57,-7.86 18.75,-13.04 26.27,-17.69 56.04,-34.57 109.65,-75.13 156.33,-121.74 43.93,-43.87 85.76,-91.84 122.3,-142.09 22.59,-31.08 44.17,-64.02 61.53,-98.32 11.74,-23.15 31.8,-56.13 28.65,-83.48 -2.17,-17.41 2,17.26 0,0l0.03 0zm-3137.68 -76.54c8.71,-118.43 23.51,-236.79 49.38,-352.76 19.05,-85.33 40.96,-178.62 91.03,-251.85 24.89,-36.43 71.31,-47.46 101,-19.13 24.71,23.6 27.8,72.05 30.47,103.25 7.95,92.41 -11.19,181.34 -48.73,265.22 -52.2,116.61 -129.22,220.69 -226.04,304.11 0.91,-16.28 1.77,-32.57 2.88,-48.84 7.2,-97.87 -1.11,16.24 0,0l0.01 0.01zm-2494.59 547.96c-21.81,94.88 -55.95,233.24 -162.22,266.34 -39.62,12.33 -96.04,18.35 -126.68,-15.62 -36.74,-40.78 -46.24,-106.91 -50.63,-159.41 -5.89,-70.8 -0.49,-144 10.69,-213.99 90,80.9 211.84,114.66 330.86,113.58 -0.68,3.03 -1.34,6.07 -2.02,9.1l-0.01 0zm-205.43 -353.53c-1.09,-4.06 -4.1,-10.25 -3.89,-14.5 0.36,-6.87 4.04,-8.01 10.39,-12.18 9.71,-6.38 19.98,-11.89 30.65,-16.47 23.26,-10.06 48.14,-15.77 73.26,-18.59 5.57,-0.63 11.48,-0.34 16.62,-2.57 3.61,-1.57 6.82,-7.15 10.37,-7.99 7.12,-1.67 19.28,8.54 25.19,13.29 16.07,12.89 28.74,28.33 38.48,46.52 28.58,53.41 34.04,116.66 32.16,176.14 -13.05,-1.83 -195.43,-24.44 -233.22,-163.68l-0 0.03zm1997.8 542.81c-25.28,44.96 -62.02,75.58 -113.58,84.2 -24.86,4.17 -54.71,4.88 -78.38,-5.43 -21.28,-9.27 -36.09,-30.95 -47.04,-50.48 -27.8,-49.4 -39.07,-108.7 -43.49,-164.63 -4.67,-58.98 -3.64,-119.13 2.23,-177.99 94.92,80.68 215.16,118.15 338.92,115.88 -11.06,67.28 -24.48,138.52 -58.68,198.45 -16.26,28.91 28.81,-50.48 0,0l0.02 0zm15.28 -405.6c-46.35,-14.65 -87.88,-38.38 -122.22,-72.97 -23.88,-24.06 -40.35,-55.62 -54.61,-86.09 -2.91,-6.21 -3.81,-5.49 0.36,-10.06 5.81,-6.35 19.18,-10.49 26.98,-13.7 21.68,-8.9 44.83,-13.85 68.07,-16.34 4.88,-0.51 9.78,-0.33 14.28,-2.3 3.34,-1.47 5.86,-5.83 9.17,-6.95 7.57,-2.58 17.45,5.13 24.62,9.97 18.02,12.2 33.15,28.38 44.93,46.62 31.14,48.24 42.45,107.6 45.91,164.07 -19.39,-2.95 -38.52,-7.23 -57.47,-12.26 -27.14,-8.59 18.04,4.76 0,0l-0.02 0.01zm1682.7 -156.15c-44.29,55.77 -36.03,141.34 -38.41,208.91 -2.52,71.06 -6.94,142.39 -19.22,212.53 -10.77,61.53 -26.18,134.3 -68.28,183.02 -41.26,47.76 -123.84,46.52 -173.35,10.84 -52.96,-38.2 -64.85,-118.88 -69.27,-179.13 -5.68,-77.7 2.8,-156.86 18.93,-232.9 8.79,-41.49 18.85,-84.78 37.47,-123.21 25.78,-53.14 70.44,-96.67 127.06,-115.62 32.09,-10.75 66.33,-12.12 99.11,-3.46 19.38,5.13 38.61,12.89 54.68,24.94 13.24,9.93 26.59,4.98 42.19,2.65 -3.7,3.72 -7.59,7.31 -10.89,11.43 -2.93,3.7 3.25,-4.06 0,0l-0.02 0zm1414.76 572.59c-23.21,40.34 -62.24,66.88 -108.25,72.87 -36.01,4.7 -74.67,4.12 -100.5,-24.86 -30.58,-34.32 -44.28,-81.34 -53.04,-125.56 -10.72,-54.35 -11.93,-109.71 -11.09,-164.94 90.61,78.69 203.19,120.25 323.74,115.94 -11.54,43.68 -25.91,88.49 -50.87,126.55 -10.69,18.52 21.27,-32.44 0,0l-0 0zm11.84 -373.92c-53.14,-17.98 -103.97,-45.61 -141.19,-88.33 -10.8,-12.39 -20.77,-25.83 -29.44,-39.81 -10.03,-16.23 -18.76,-34.16 -24.79,-52.24 -2.65,-7.95 -5.76,-14.28 -1.87,-21.32 4.52,-8.2 15.61,-16 22.64,-21.56 46.31,-36.46 109.23,-45.13 163.55,-22.08 14.41,6.1 19.01,14.03 25.4,28.58 10.28,23.43 16.74,48.61 22.59,73.45 11.93,50.59 21.72,102.83 26.27,154.69 -21.38,-1.46 -42.65,-5.13 -63.15,-11.4 -6.5,-2.21 16.09,4.91 0,0l-0.01 0.01zm-5524.4 785.56c-20.17,-2.44 -40.53,-3.7 -60.79,-4.81 -6.46,-0.36 -12.94,-0.66 -19.39,-0.95 -2.07,-0.08 -10.61,-1.19 -12.3,-6.7 -3.89,-12.76 -6.23,-156.17 -5.73,-212.23 0.71,-77.32 2.02,-154.77 4.52,-232.07 5.59,-173.8 62.81,-347.35 24.89,-521.36 -13.12,-60.21 -32.31,-128.46 -73.71,-175.66 -71.61,-81.64 -191.87,-61.53 -276.89,-15.32 -93.23,50.63 -159.85,133.92 -219.28,219.68 -55.41,79.98 -105.95,168.51 -153.39,253.39 -1.53,2.76 -8.24,19.64 -11.02,18.43 -1.7,-1.11 0.1,-16.05 0.23,-22.48 0.38,-20.02 0.96,-40.02 1.71,-60 1.44,-37.78 3.42,-75.54 5.72,-113.28 1.85,-30.32 3.87,-60.65 5.84,-90.97 7.07,-109.56 14.24,-218.6 35.71,-326.54 16.35,-82.22 39.02,-163.21 68.3,-241.79 125.2,62.74 261.75,95.34 400.85,107.53 118.86,10.43 237.45,11.33 350.24,-33.81 124.38,-49.8 230.57,-146.76 259.32,-281.64 28.3,-132.83 -15.56,-276.65 -98.09,-382.38 -80.9,-103.68 -216.97,-161.77 -345.39,-175.29 -138.82,-14.62 -278.2,23.36 -394.25,99.66 -54.2,35.65 -103.77,78 -148.5,124.92 -21.93,22.96 -42.94,46.93 -62.6,71.89 -10.41,13.19 -20.42,26.69 -30.11,40.4 -4.56,6.46 -8.82,13.14 -13.5,19.49 -11.04,14.99 -17.83,9.88 -19.28,9.02 -111.35,-66.78 -241.56,-124.55 -374.44,-101.98 -53.04,9 -126.51,27.87 -147.39,83.26 -18.49,48.95 -15.96,108.55 29.46,142.04 24.84,18.3 55.01,24.79 84.32,32.09 11.73,2.93 27.19,9.93 39.09,10.63 10.64,0.61 24.35,-8.08 35.02,-12.31 65.26,-25.87 208.93,70.68 216.62,80.76 3.97,5.19 4.1,3.27 2.13,10.18 -2.76,9.68 -7.93,19.16 -11.65,28.5 -13.26,33.35 -25.5,67.12 -36.7,101.22 -22.68,69.04 -41.17,139.43 -55.58,210.63 -21.21,104.79 -31.23,210.54 -38.15,317.04 -1.95,30.01 -3.91,60.04 -5.84,90.05 -2.38,36.79 -3.82,149.69 -11.63,161.09 -5.84,8.54 -15.45,15.76 -22.4,23.65 -32.31,36.84 -61.63,76.26 -93.32,113.63 -45.33,53.42 -94.05,102.92 -148.91,146.61 -102.15,81.34 -223.17,137 -354.64,144.58 -50.34,2.91 -105.23,1.51 -154.61,-9.68 -59.91,-13.58 -107.86,-43.84 -133.97,-100.92 -28.7,-62.77 -33.12,-135.41 -32.01,-203.44 1.19,-73.7 9.42,-147.16 24.48,-219.34 28.59,-137.09 79.76,-274.31 156.06,-392.19 71.04,-109.76 188.19,-216.16 329.22,-196.56 26.5,3.67 52.35,12.22 71.41,31.77 22.19,22.82 34.01,54.7 39.9,85.43 11.29,58.85 -2.92,118.9 -21.64,174.69 -10.92,32.56 -23.91,64.42 -37.57,95.92 -11.71,27.03 -24.25,54.53 -42.11,78.15 -32.39,-30.47 -65.31,-62.5 -113.05,-61.15 -35.45,0.98 -71.73,17.43 -89.86,47.48 -25.7,42.58 -20.34,88.3 -15.85,107.48 9.76,41.66 29.9,81.57 58.5,113.48 45.15,50.39 110.35,77.67 177.8,70.12 88.49,-9.93 159.62,-74.81 206.51,-146.58 47.78,-73.11 81.3,-159.57 107.31,-242.64 26.81,-85.63 40.32,-175.68 27.24,-265.07 -12.99,-89.04 -50.82,-176.06 -114.77,-240.37 -65.95,-66.35 -154.74,-100.34 -247.04,-107.65 -184.96,-14.7 -358.11,77.72 -477.31,214.48 -118.83,136.33 -195.78,311.76 -244.02,484.67 -26.02,93.19 -42.94,188.95 -49.82,285.49 -6.63,92.95 -5.66,187.61 14.58,278.94 19.58,88.27 58.09,174.22 122.32,239.11 65.95,66.63 153.05,106.15 244.34,123.81 318.63,61.63 636,-148.91 779.17,-425.28 12.56,-24.23 24.66,-48.84 35.14,-74.03 1.51,73.1 6.52,146.07 16.72,218.47 3.08,21.81 5.82,43.66 9.76,65.32 3.79,20.74 4.83,49.43 14.61,68.22 31.71,60.8 86.92,106.97 159.54,99.28 99.43,-10.56 149.01,-112.29 186.48,-192.59 37.47,-80.28 71.2,-161.39 114.81,-238.69 44.79,-79.44 90.34,-158.58 143.17,-233.05 17.46,-24.61 35.28,-49.24 55.23,-71.91 3.19,-3.64 32.85,-39.2 39.13,-35.88 4.75,2.52 7.02,77.45 6.5,97.39 -3.13,115.83 -30.67,229.46 -36.28,345.13 -6.01,124.17 -7.65,250.25 -4.42,374.42 0.83,32.09 2.23,64.19 4.31,96.2 -187.52,-0.35 -382.28,20.59 -555.29,98.04 -21.87,9.8 -43.63,20.67 -63.3,34.49 -9.37,6.57 -23.63,15.95 -27.4,27.63 -9,27.84 56.47,24.08 71.18,24.16 36.15,0.19 72.31,-1.62 108.42,-2.69 108.46,-3.21 216.22,0.15 324.17,11.73 28.86,3.09 57.64,6.8 86.37,10.95 12.94,1.87 25.87,3.85 38.78,5.91 12.87,2.06 28.2,2.35 40.43,6.8 8.14,2.97 6.84,6.5 9.07,15.77 1.43,5.96 2.91,11.88 4.43,17.81 3.89,15.03 8.14,29.97 12.81,44.8 7.97,25.34 17.15,50.26 27.95,74.55 39.32,88.36 98.54,160.4 178.07,215.15 82.4,56.73 179.93,98.45 281.83,89.2 171.76,-15.61 323.25,-186.23 267.46,-357.63 -78.91,-242.34 -371.26,-293.84 -454.04,-303.81l0.03 -0.03zm-538.51 -1819.37c62.27,-83.53 143.12,-165.25 242.68,-202.13 90.2,-33.41 193.97,-28.05 276.88,22.49 32.63,19.91 61.53,47.65 77.87,82.62 18.72,40.04 26.1,95.16 8.63,137.26 -18.13,43.69 -66.86,69.33 -109.06,84.12 -53.62,18.77 -108.09,18.85 -164.11,16.09 -127.62,-6.31 -254.1,-28.88 -368.77,-87.28 11.22,-18.21 23.17,-35.98 35.9,-53.16 45.15,-60.57 -12.96,17.49 0,0l-0.03 -0.01zm737.69 2203.24c-27.31,44.48 -95.6,9.33 -127.07,-9.93 -21.73,-13.29 -44.25,-28.73 -62.37,-46.72 -20,-19.85 -34.46,-46.65 -45.93,-72.13 47.71,8.06 94.67,20.99 139.47,39.38 20.61,8.46 43.09,16.64 61.55,29.28 17.56,12.03 44.7,36.05 34.37,60.13 -4.99,8.12 3.37,-7.88 0,0l-0.02 -0zm822.73 -45.06c0,-69.67 55.76,-126.11 125.07,-126.11 40.35,0 75.75,18.92 97.89,47.86l-32.87 25.03c-15.01,-19.67 -37.18,-32.16 -63.98,-32.16 -46.8,0 -82.17,38.21 -82.17,85.38 0,47.17 34.65,85.4 82.17,85.4 26.79,0 48.95,-12.51 63.98,-31.79l32.87 24.64c-22.15,29.31 -57.54,47.89 -97.89,47.89 -69.31,0 -125.07,-56.46 -125.07,-126.14l0 0zm373.52 -41.8l-8.23 39.31c-9.63,-5 -18.22,-6.08 -24.29,-6.08 -27.16,0 -42.15,26.46 -42.15,73.24l0 58.24 -41.81 0 0 -166.85 41.44 0 0 35.73c8.94,-27.87 27.17,-39.3 47.88,-39.3 9.99,0 20.72,2.15 27.16,5.71l-0 -0zm184.45 95.76l-128.99 0c4.65,23.23 22.52,35.04 47.17,35.04 18.23,0 35.36,-7.18 45.38,-20.74l27.5 21.07c-15.35,24.3 -44.65,37.18 -75.03,37.18 -50.03,0 -87.91,-35.03 -87.91,-87.2 0,-53.22 40.04,-86.8 87.55,-86.8 47.89,0 85.41,33.22 85.41,85.4 0,4.63 -0.36,10.01 -1.07,16.07l-0.01 -0.01zm-103.27 -123.99l-45 -57.87 44.31 0 33.94 57.87 -33.25 0 -0 0zm62.91 95.06c-2.5,-22.87 -20,-36.09 -43.24,-36.09 -22.51,0 -40.38,10.73 -45.38,36.09l88.62 0zm344.54 4.29l0 93.61 -41.09 0 0 -90.39c0,-26.8 -13.92,-40.02 -33.22,-40.02 -23.96,0 -38.96,17.86 -37.17,47.86l-0.36 -1.41 0 83.96 -41.44 0 0 -90.39c0,-26.8 -13.92,-40.02 -31.8,-40.02 -19.29,0 -38.58,10.72 -38.58,42.52l0 87.89 -41.45 0 0 -166.87 41.45 0 0 28.6c6.07,-21.1 28.93,-32.16 49.65,-32.16 24.31,0 44.32,11.43 53.96,32.87 13.24,-26.44 39.3,-32.87 56.09,-32.87 41.81,0 63.96,28.22 63.96,76.81zm209.2 24.64l-129 0c4.65,23.23 22.52,35.04 47.16,35.04 18.24,0 35.37,-7.18 45.38,-20.74l27.51 21.07c-15.36,24.3 -44.65,37.18 -75.03,37.18 -50.01,0 -87.88,-35.03 -87.88,-87.2 0,-53.22 40,-86.8 87.53,-86.8 47.88,0 85.4,33.22 85.4,85.4 0,4.63 -0.36,10.01 -1.07,16.07l-0.01 -0.01zm-40.38 -28.93c-2.49,-22.87 -20,-36.09 -43.25,-36.09 -22.5,0 -40.38,10.73 -45.38,36.09l88.61 0 0.02 0zm335.64 -68.97l0 143.3c0,75 -36.43,107.52 -93.61,107.52 -34.3,0 -64.31,-18.57 -78.96,-48.94l34.31 -15.72c8.22,16.45 26.46,27.16 44.66,27.16 32.16,0 52.18,-18.57 52.18,-66.1l0 -2.5c-11.78,17.16 -35.03,25.74 -55.39,25.74 -43.96,0 -82.19,-33.96 -82.19,-87.19 0,-53.6 37.9,-86.81 81.83,-86.81 21.45,0 43.97,8.2 55.75,25.36l0 -21.81 41.43 0 0 -0zm-42.17 82.9c0,-29.29 -24.3,-47.88 -48.23,-47.88 -25.72,0 -46.8,20.03 -46.8,47.88 0,27.87 21.08,48.59 46.8,48.59 25.36,0 48.23,-19.3 48.23,-48.59zm91.59 -172.22l41.44 0 0 256.18 -41.44 0 0 -256.18zm259.8 89.31l0 166.87 -41.43 0 0 -22.49c-11.44,17.86 -35.03,26.07 -55.39,26.07 -43.94,0 -82.17,-33.96 -82.17,-87.18 0,-53.6 37.85,-86.81 81.81,-86.81 21.08,0 44.3,8.2 55.75,25.7l0 -22.15 41.43 0zm-42.17 82.9c0,-29.29 -24.29,-47.88 -48.22,-47.88 -25.72,0 -46.82,20.02 -46.82,47.88 0,27.87 21.1,48.59 46.82,48.59 25.36,0 48.22,-19.3 48.22,-48.59zm81.24 0.34c0,-52.86 42.55,-86.8 90.76,-86.8 28.93,0 52.51,12.49 67.88,32.15l-29.65 23.22c-8.57,-10.35 -22.85,-16.81 -37.51,-16.81 -28.95,0 -49.67,20.02 -49.67,48.24 0,27.87 20.72,48.25 49.67,48.25 14.66,0 28.93,-6.44 37.51,-16.78l29.65 23.21c-15.37,19.28 -38.94,32.16 -67.88,32.16 -48.22,0 -90.76,-33.94 -90.76,-86.83l0 -0.02zm352.4 14.65l-128.99 0c4.65,23.23 22.52,35.04 47.14,35.04 18.21,0 35.39,-7.18 45.38,-20.74l27.51 21.07c-15.38,24.3 -44.67,37.17 -75.04,37.17 -50.01,0 -87.88,-35.03 -87.88,-87.2 0,-53.22 40.02,-86.8 87.53,-86.8 47.88,0 85.4,33.22 85.4,85.4 0,4.63 -0.36,10.01 -1.06,16.07l0.02 -0.01zm-40.38 -28.93c-2.5,-22.86 -20.02,-36.09 -43.24,-36.09 -22.52,0 -40.38,10.73 -45.38,36.09l88.61 0zm-27.52 -95.05l-33.22 0 33.96 -57.87 44.3 0 -45.05 57.87 0.01 0zm268.44 123.98l-129 0c4.65,23.23 22.53,35.04 47.16,35.04 18.22,0 35.39,-7.18 45.41,-20.74l27.5 21.07c-15.39,24.3 -44.68,37.17 -75.05,37.17 -50.01,0 -87.88,-35.03 -87.88,-87.2 0,-53.22 40.02,-86.8 87.52,-86.8 47.91,0 85.41,33.22 85.41,85.4 0,4.63 -0.36,10.01 -1.06,16.07l-0.01 -0.01zm-40.38 -28.93c-2.5,-22.86 -20.02,-36.09 -43.24,-36.09 -22.52,0 -40.38,10.73 -45.38,36.09l88.62 0zm328.13 28.93l-129 0c4.65,23.23 22.53,35.04 47.15,35.04 18.21,0 35.39,-7.18 45.4,-20.74l27.48 21.07c-15.37,24.3 -44.66,37.17 -75.03,37.17 -50.01,0 -87.89,-35.03 -87.89,-87.2 0,-53.22 40.02,-86.8 87.53,-86.8 47.91,0 85.4,33.22 85.4,85.4 0,4.63 -0.36,10.01 -1.04,16.07l-0.01 -0.01zm-40.37 -28.93c-2.5,-22.86 -20.02,-36.09 -43.24,-36.09 -22.52,0 -40.38,10.73 -45.38,36.09l88.62 0zm168.76 -35.73l-35.36 0 0 133.63 -41.47 0 0 -133.63 -29.99 0 0 -33.24 29.99 0 0 -61.43 41.47 0 0 61.43 35.36 0 0 33.24zm108.72 50.01c0,-52.86 42.53,-86.8 90.76,-86.8 28.93,0 52.54,12.49 67.88,32.15l-29.65 23.22c-8.57,-10.35 -22.86,-16.8 -37.52,-16.8 -28.96,0 -49.67,20.02 -49.67,48.24 0,27.87 20.72,48.25 49.67,48.25 14.66,0 28.93,-6.44 37.52,-16.78l29.65 23.21c-15.34,19.28 -38.94,32.16 -67.88,32.16 -48.23,0 -90.76,-33.94 -90.76,-86.82l0 -0.02zm354.18 -9.98l0 93.61 -41.43 0 0 -89.67c0,-26.46 -16.09,-40.02 -34.69,-40.02 -18.9,0 -42.5,10.35 -42.5,42.52l0 87.17 -41.47 0 0 -256.17 41.47 0 0 114.69c8.22,-20 35,-28.93 51.82,-28.93 42.88,0 66.78,28.22 66.78,76.82l0.01 -0.01zm36.92 9.65c0,-52.86 41.11,-86.48 88.61,-86.48 47.5,0 88.97,33.6 88.97,86.48 0,52.86 -41.47,87.55 -88.97,87.55 -47.5,0 -88.61,-34.69 -88.61,-87.55zm135.79 0c0,-28.59 -21.45,-47.88 -47.17,-47.88 -25.72,0 -46.82,19.29 -46.82,47.88 0,29.29 21.1,48.95 46.82,48.95 25.72,0 47.17,-19.66 47.17,-48.95zm70.48 0.34c0,-52.86 42.55,-86.8 90.76,-86.8 28.93,0 52.51,12.49 67.89,32.15l-29.65 23.22c-8.58,-10.35 -22.86,-16.81 -37.52,-16.81 -28.96,0 -49.67,20.02 -49.67,48.24 0,27.87 20.72,48.25 49.67,48.25 14.66,0 28.93,-6.44 37.52,-16.78l29.65 23.21c-15.37,19.28 -38.95,32.16 -67.89,32.16 -48.23,0 -90.76,-33.94 -90.76,-86.83l0 -0.02zm180.53 -0.34c0,-52.86 41.1,-86.48 88.61,-86.48 47.5,0 88.97,33.6 88.97,86.48 0,52.86 -41.47,87.55 -88.97,87.55 -47.5,0 -88.61,-34.69 -88.61,-87.55zm135.79 0c0,-28.59 -21.45,-47.88 -47.17,-47.88 -25.72,0 -46.81,19.29 -46.81,47.88 0,29.29 21.09,48.95 46.81,48.95 25.72,0 47.17,-19.66 47.17,-48.95zm80.84 -172.23l41.46 0 0 256.19 -41.46 0 0 -256.19zm259.81 89.31l0 166.87 -41.43 0 0 -22.49c-11.43,17.85 -35.03,26.07 -55.39,26.07 -43.93,0 -82.17,-33.96 -82.17,-87.18 0,-53.6 37.85,-86.82 81.81,-86.82 21.09,0 44.31,8.21 55.75,25.7l0 -22.15 41.43 0zm-42.17 82.9c0,-29.29 -24.3,-47.89 -48.22,-47.89 -25.72,0 -46.81,20.03 -46.81,47.89 0,27.87 21.08,48.59 46.81,48.59 25.35,0 48.22,-19.3 48.22,-48.59zm183.44 -49.66l-35.37 0 0 133.63 -41.47 0 0 -133.63 -29.99 0 0 -33.24 29.99 0 0 -61.43 41.47 0 0 61.43 35.37 0 0 33.24zm190.18 64.66l-128.99 0c4.65,23.23 22.52,35.04 47.14,35.04 18.22,0 35.39,-7.18 45.38,-20.74l27.52 21.07c-15.37,24.3 -44.7,37.17 -75.05,37.17 -50.01,0 -87.88,-35.03 -87.88,-87.2 0,-53.22 40.02,-86.8 87.52,-86.8 47.89,0 85.4,33.22 85.4,85.4 0,4.63 -0.36,10.01 -1.06,16.07l0.02 -0.01zm-40.38 -28.93c-2.5,-22.86 -20.02,-36.09 -43.23,-36.09 -22.52,0 -40.38,10.73 -45.38,36.09l88.61 0zm195.88 -66.81l-8.2 39.31c-9.65,-5 -18.26,-6.08 -24.33,-6.08 -27.12,0 -42.15,26.46 -42.15,73.24l0 58.24 -41.81 0 0 -166.85 41.45 0 0 35.73c8.93,-27.87 27.14,-39.3 47.89,-39.3 10.01,0 20.72,2.15 27.15,5.72l0 -0zm21.15 -61.11c0,-14.66 12.51,-25.35 27.17,-25.35 15.01,0 26.79,10.7 26.79,25.35 0,14.3 -11.78,25.36 -26.79,25.36 -14.66,0 -27.17,-11.07 -27.17,-25.36zm6.44 58.97l41.45 0 0 166.87 -41.45 0 0 -166.87zm252.32 97.89l-128.99 0c4.65,23.23 22.52,35.04 47.15,35.04 18.22,0 35.39,-7.17 45.4,-20.74l27.51 21.07c-15.41,24.3 -44.69,37.17 -75.06,37.17 -50.01,0 -87.89,-35.03 -87.89,-87.2 0,-53.22 40.02,-86.8 87.53,-86.8 47.91,0 85.4,33.23 85.4,85.41 0,4.63 -0.35,10.01 -1.04,16.07l-0 -0.01zm-40.38 -28.94c-2.5,-22.87 -20.02,-36.09 -43.25,-36.09 -22.52,0 -40.38,10.73 -45.38,36.09l88.61 0 0.02 0zm42.35 -1741.67l17.49 0 28.43 44.19 28.44 -44.19 17.49 0 0 93.46 -16.43 0 0 -67.02 -29.5 44.06 -0.53 0 -29.25 -43.78 0 66.74 -16.15 0 0 -93.46zm111.83 46.99l0 -0.28c0,-26.57 19.87,-48.33 48.21,-48.33 17.2,0 27.63,6.02 36.57,14.56l-10.54 12.15c-7.48,-6.94 -15.5,-11.6 -26.18,-11.6 -17.89,0 -30.83,14.68 -30.83,32.97l0 0.25c0,18.3 12.94,33.24 30.83,33.24 11.48,0 18.85,-4.67 26.83,-12.13l10.55 10.67c-9.76,10.16 -20.42,16.57 -37.91,16.57 -27.23,0 -47.53,-21.25 -47.53,-48.08l0 0.01z"/>
 </g>
</svg>
