<?xml version="1.0" encoding="UTF-8"?>
<!DOCTYPE svg PUBLIC "-//W3C//DTD SVG 1.1//EN" "http://www.w3.org/Graphics/SVG/1.1/DTD/svg11.dtd">
<!-- Creator: CorelDRAW 2018 (64-Bit) -->
<svg xmlns="http://www.w3.org/2000/svg" xml:space="preserve" width="8.5in" height="3.38583in" version="1.1" style="shape-rendering:geometricPrecision; text-rendering:geometricPrecision; image-rendering:optimizeQuality; fill-rule:evenodd; clip-rule:evenodd"
viewBox="0 0 8500 3385.83"
 xmlns:xlink="http://www.w3.org/1999/xlink">
 <defs>
  <style type="text/css">
   <![CDATA[
    .fil0 {fill:#EA9C94;fill-rule:nonzero}
    .fil1 {fill:white;fill-rule:nonzero}
   ]]>
  </style>
 </defs>
 <g id="Plan_x0020_1">
  <metadata id="CorelCorpID_0Corel-Layer"/>
  <polygon class="fil0" points="17.76,3044.01 8482.24,3044.01 8482.24,341.82 17.76,341.82 "/>
  <g id="_1320718406432">
   <path class="fil1" d="M927.64 1692.91c0,178.79 60.72,325.66 181.91,440.59 112.47,106.22 258.77,168.75 438.69,187.52l0 -937.46 -0.24 0 0 -7.48 -163.41 0 29.87 91.72 41.96 0 0 748.22c-130,-28.72 -235.32,-90.26 -315.94,-184.63 -80.65,-94.44 -120.86,-207.17 -120.86,-338.48 0,-153.7 50.83,-280.81 152.78,-381.51 101.78,-100.62 227.08,-150.99 375.83,-150.99l0 -89.93c-174.91,0 -322.1,59.66 -441.49,179.05 -119.39,119.31 -179.12,267.15 -179.12,443.39z"/>
   <path class="fil1" d="M1912 1053.62c-88.68,0 -146.78,35.54 -174.26,106.8 -15.15,38.76 -22.54,110.67 -22.54,215.57l-78.81 0 30.02 91.91 48.79 0 0 853.11 91.81 0 0 -853.11 211.95 0 0 853.11 89.93 0 0 -1025.56c0,-73.71 -13.84,-130.57 -41.23,-170.65 -32.5,-47.46 -84.4,-71.17 -155.66,-71.17zm106.96 322.37l-211.95 0 0 -112.4c0,-34.95 9.7,-63.42 29.13,-85.31 19.25,-21.88 46.57,-32.82 81.54,-32.82 32.42,0 57.44,11.26 74.95,33.73 17.45,22.54 26.33,50.67 26.33,84.4l0 112.4z"/>
   <polygon class="fil1" points="2211.97,1162.39 2360.07,1162.39 2360.07,2321.01 2451.98,2321.01 2451.98,1162.39 2598.26,1162.39 2598.26,1070.49 2211.97,1070.49 "/>
   <polygon class="fil1" points="3008.82,1070.49 2622.62,1070.49 2622.62,1162.39 2770.71,1162.39 2770.71,2321 2862.61,2321 2862.61,1162.39 3008.82,1162.39 "/>
   <path class="fil1" d="M4039.99 2150.45c124.97,-125.06 187.59,-275.62 187.59,-451.94 0,-176.23 -60.96,-327.7 -182.82,-454.57 -121.93,-126.87 -270.36,-190.3 -445.35,-190.3 -183.72,0 -338.74,62.52 -465.03,187.42 -126.21,124.97 -189.32,279.42 -189.32,463.13 0,177.56 63.11,327.46 189.32,449.97 126.3,122.52 277.61,183.72 453.75,183.72 176.32,0 326.9,-62.52 451.87,-187.43zm-843.67 -65.65c-107.52,-107.46 -161.25,-236.88 -161.25,-388.02 0,-148.84 52.82,-277.84 158.38,-387.26 105.64,-109.36 232.19,-164.07 379.79,-164.07 158.63,0 292.41,53.07 401.19,159.37 108.77,106.22 163.15,239.35 163.15,399.37 0,149.99 -54.06,277.77 -162.16,383.41 -108.11,105.73 -237.86,158.47 -389.1,158.47 -152.53,0 -282.44,-53.73 -389.99,-161.26z"/>
   <polygon class="fil1" points="4596.84,1480.96 4407.52,1047.95 4201.26,2321 4296.94,2321 4446.85,1351.62 4596.84,1706.08 4743.12,1357.22 4896.81,2321 4990.7,2321 4784.35,1047.95 "/>
   <path class="fil1" d="M5453.75 2321.01l0 -1025.56c0,-73.74 -13.73,-130.58 -41.21,-170.65 -32.59,-47.48 -84.42,-71.17 -155.68,-71.17 -88.77,0 -146.85,35.54 -174.33,106.8 -14.97,38.74 -22.54,110.65 -22.54,215.55l-78.74 0 29.93 91.91 48.81 0 0 853.13 91.9 0 0 -853.13 211.86 0 0 853.13 90 0zm-301.87 -945.03l0 -112.39c0,-34.97 9.62,-63.43 29.04,-85.31 19.34,-21.9 46.57,-32.83 81.61,-32.83 32.43,0 57.44,11.28 74.97,33.73 17.52,22.56 26.24,50.69 26.24,84.42l0 112.39 -211.86 0z"/>
   <polygon class="fil1" points="5556.84,1162.39 5704.93,1162.39 5704.93,2321.01 5796.83,2321.01 5796.83,1162.39 5943.13,1162.39 5943.13,1070.49 5556.84,1070.49 "/>
   <polygon class="fil1" points="6353.69,1070.49 5967.49,1070.49 5967.49,1162.39 6115.51,1162.39 6115.51,2321 6207.48,2321 6207.48,1162.39 6353.69,1162.39 "/>
   <path class="fil1" d="M7389.63 1243.93c-121.93,-126.87 -270.35,-190.3 -445.28,-190.3 -183.81,0 -338.81,62.52 -465.11,187.42 -126.2,124.99 -189.32,279.42 -189.32,463.13 0,177.56 63.11,327.47 189.32,449.98 126.3,122.52 277.52,183.72 453.76,183.72 176.32,0 326.8,-62.52 451.94,-187.43 124.9,-125.06 187.43,-275.61 187.43,-451.94 0,-176.23 -60.88,-327.7 -182.74,-454.57zm-69.43 843.65c-108.13,105.74 -237.79,158.48 -389.01,158.48 -152.62,0 -282.54,-53.73 -390.07,-161.27 -107.53,-107.44 -161.19,-236.87 -161.19,-388.02 0,-148.82 52.74,-277.84 158.38,-387.25 105.65,-109.36 232.19,-164.06 379.72,-164.06 158.7,0 292.49,53.07 401.26,159.37 108.68,106.21 163.07,239.33 163.07,399.35 0,150.01 -54.06,277.77 -162.16,383.41z"/>
  </g>
 </g>
</svg>
