<?xml version="1.0" encoding="UTF-8"?>
<!DOCTYPE svg PUBLIC "-//W3C//DTD SVG 1.1//EN" "http://www.w3.org/Graphics/SVG/1.1/DTD/svg11.dtd">
<!-- Creator: CorelDRAW 2018 (64-Bit) -->
<svg xmlns="http://www.w3.org/2000/svg" xml:space="preserve" width="8.5in" height="4.81004in" version="1.1" style="shape-rendering:geometricPrecision; text-rendering:geometricPrecision; image-rendering:optimizeQuality; fill-rule:evenodd; clip-rule:evenodd"
viewBox="0 0 8500 4810.04"
 xmlns:xlink="http://www.w3.org/1999/xlink">
 <defs>
  <style type="text/css">
   <![CDATA[
    .fil1 {fill:white}
    .fil0 {fill:#C1353F}
   ]]>
  </style>
 </defs>
 <g id="Plan_x0020_1">
  <metadata id="CorelCorpID_0Corel-Layer"/>
  <g id="_1695582189792">
   <path class="fil0" d="M2788.01 4179.19c15.96,9.82 25.2,14.77 33.53,21.15 2.76,1.87 3.79,6.54 4.59,10.21 14.27,82.3 31.84,164.71 7.17,248.08 -18.22,62.03 -52.36,114.8 -102.17,154.96 -46.33,37.32 -102.31,49.58 -161.2,40.57 -31.73,-4.61 -62.91,-13.78 -94.93,-20.68 -26.28,9.6 -43.16,39.94 -76.83,34.53 -35.46,-28.59 -46.59,-65.12 -35.05,-110.68 8,-31.37 7.45,-63.32 -4.15,-95 -6.47,-17.52 -9.2,-37.11 -10.1,-56.26 -4.17,-87.24 -18.31,-173.4 -26.76,-260.37 -1.88,-19.04 -2.13,-37.71 -3.24,-56.54 15.5,-12.36 29.55,-23.48 46.49,-36.78 19.42,5.7 42.06,12.36 70.63,20.67 16.42,-4.83 35.06,-18.45 51.43,-34 18.65,-17.21 38.94,-23.51 62.47,-19.5 19.37,3.16 36.15,0.93 54.87,-6.5 27.66,-11.3 55.28,-6.41 80.45,12.36 28.91,21.8 58.79,42.21 80.43,72.04 8.82,12.2 15.72,24.47 14.81,41.45 -0.76,15.96 5.9,31.97 7.53,40.26l0.03 0.04zm2681.98 -83.99c-1.14,0 -3.09,1 -3.96,0.06 -0.96,-0.65 -1.14,-2.6 -1.74,-3.85 2.23,-0.49 4.56,-0.74 6.52,-0.74 -0.11,1.35 -0.38,2.78 -0.82,4.55l0 -0.02zm-2550.29 -14.76c2.37,1.31 5.15,2.83 7.5,4.28 0.14,-2.97 0.38,-5.96 0.4,-8.79 -2.54,1.8 -5.06,3.63 -7.37,5.47 0,0.06 -0.16,-0.25 -0.3,-0.53l0.3 0.66c-15.22,-12.54 -30.31,-25.05 -47.33,-39.61 7.75,-2.61 12.28,-5.7 13.73,-4.44 15.28,10.73 29,23.2 33.07,42.95l-0 0zm431.61 -29.5c-7.86,0 -14.53,0 -21.09,0 0.46,-3.09 -0.31,-8.3 1.37,-9.23 4.33,-2.77 9.66,-3.74 14.76,-4.5 0.93,-0.09 2.3,6.37 4.97,13.73l-0.02 0zm-278.54 -135.85c13.86,13.19 24.06,23.11 34.7,33.42 -4.7,3.74 -8.33,7.43 -9.19,6.99 -19.41,-12.69 -19.18,-12.85 -25.51,-40.41zm2425.59 198.56c0,-3.68 -0.43,-7.54 0,-11.33 0,-1.63 1.31,-3.43 3.44,-7.43 14.91,4.01 22.02,14.59 32.27,35.37 -14.21,-4.56 -20.41,-6.41 -26.58,-8.24 12.39,34.43 3.8,66.12 -9.98,98.79 -37.54,90.33 -112.57,130.52 -200.63,151.85 -43.93,10.43 -82.41,-2.11 -105.63,-43.67 -30.81,-9.59 -51.37,11.76 -77.35,22.61 -27.02,-10.85 -51.01,-28.53 -74.81,-48.88 11.98,-34.98 -15.67,-59.94 -18.45,-93.11 -24.96,4.62 -38.79,-6.44 -44.81,-26.9 -4.99,-18.3 -10.31,-36.74 -12.92,-55.55 -4.34,-31.97 -5.41,-64.46 -10.53,-96.52 -7.37,-42.44 8.3,-82.53 9.57,-124.08 0.27,-3.47 1.52,-8.74 4.06,-10.41 28.1,-19.53 29.74,-56.69 53.32,-79.31 17.9,-16.75 34.57,-35.2 52.96,-51.81 50.9,-46.43 110.66,-64.12 178.92,-52.57 7.37,1.43 14.74,2.92 21.22,4.39 12.2,-8.08 23.09,-14.97 35.2,-22.83 53.97,43.89 106.87,86.68 159.39,129.72 9.38,32.24 -31.19,58.93 -8.24,91.97 8.24,0.58 17.36,1.52 28.52,2.43 17.08,24.42 13.74,53 14.51,81.17 -20.9,23.54 -48.56,29.5 -77.23,32.98 -86.7,10.35 -173.38,21.37 -260.08,32.48 -24.41,2.78 -48.78,7.43 -74.01,11.4 -9.82,23.71 -34.84,36.61 -34.06,64.28 64.99,79.34 64.99,79.34 137.57,124.68 48.94,30.81 98.19,24.74 137.64,-18.61 25.61,-27.72 49.58,-57.35 74.48,-86.43 6.31,-7.04 13.13,-13.98 18.45,-21.55 18.19,-28.53 42.44,-36.01 73.79,-24.9l-0.01 0.01zm2344.73 -47.01c-26.66,49.15 -26.66,49.15 -57.32,51.26 14.13,-24.04 32.36,-41.12 57.32,-51.26zm-1113.52 -510.26c-31.4,5.7 -55.55,9.91 -83.82,14.96 -1.61,-7.53 -2.72,-15.74 -5.08,-23.77 -1.52,-4.93 -4.12,-12.2 -8.08,-14.04 -25.56,-9.56 -44.93,-34.46 -77.04,-28.65 -31.8,5.61 -58.7,-7.81 -82.78,-27.63 -1.31,-3.51 -4.06,-6.88 -4.06,-10.15 0.9,-11.05 2.75,-22.13 4.28,-34.11 28.06,-12.6 53.7,-28.06 84.25,-32.51 12.05,-1.89 23.98,-9.94 35.26,-16.39 28.44,-15.58 57.89,-15.67 87.88,-5.54 17.19,5.54 31.13,17.3 34.51,34.87 8.02,46.11 15.85,92.4 14.7,142.92l-0.01 0.03zm-4329.08 450.25c-32.41,5.59 -58.11,10.31 -86.22,15.74 -1.72,-13.45 -3.16,-23.98 -4.45,-34.4 -29.26,-23.73 -61.31,-34.51 -99.19,-31.04 -22.29,2.22 -22.69,-0.17 -71.67,-35.11 2.21,-12.91 4.63,-27.19 7.43,-44.28 31.49,-9.76 61.79,-19.13 91.94,-28.7 7.12,-2.44 15.17,-4.5 20.11,-9.5 15.23,-15.3 34.57,-14.5 53.2,-15.3 53.9,-1.52 71.59,12.91 79.58,66.15 4.17,27.93 6.46,56.52 9.22,84.79 0.9,9.11 0.03,18.55 0.03,31.63l0.02 0.03zm5533.46 46.08c6.08,-43.24 48.35,-54.2 65.39,-87.74 19.8,4.83 37.33,9.45 55.66,14.06 12.16,-15.3 24.09,-29.63 36.13,-44.88 -1.35,-41.8 -8.02,-86.95 51.65,-105.01 10.09,3.31 25.7,8.8 41.5,14.32 2.7,5.5 5.64,10.15 7.37,15.63 16.28,55.55 17.46,57.38 56.48,88.59 29.24,-3.85 58.85,-7.81 90.17,-11.98 4.77,3.68 10.2,9.27 17.14,11.98 23.13,9.76 28.98,30.43 28.98,50.85 0,25.21 -16.45,43.22 -39.67,50.59 -21.58,6.57 -44.28,10.15 -66.89,12.92 -37.65,4.99 -75.52,8.24 -113.23,12.2 -62.24,7.21 -124.24,14.61 -189.06,21.99 -14.5,-14.94 -28.32,-29.68 -41.63,-43.51l-0.01 -0.02zm-4242.21 482.68c-11.07,-11.99 -22.43,-24.15 -33.56,-36.15 0.55,-22.4 10.97,-35.85 27.39,-47.96 14.85,-11.05 26.07,-26.74 39.93,-41.13 17.44,4.83 33.72,9.01 51.1,13.72 11.96,-14.11 23.98,-28.21 37.79,-44.64 -7.63,-44.15 -4.67,-86.5 49.67,-105.94 11.87,4.48 25.96,9.2 42.54,15.24 3.05,7.15 7.77,15.34 9.73,24.41 7.63,32.39 22.13,60.11 53,79.31 28.68,-3.68 58.61,-7.39 90.88,-11.57 6.9,4.18 17.04,9.08 25.34,16.17 30.93,26.76 28.59,70.11 -5.98,90.39 -12.47,7.37 -27.89,11.98 -42.48,14 -41.39,6.28 -82.83,10.37 -124.16,14.82 -71.47,8.08 -141.93,25.37 -221.2,19.32l0.02 0.02zm2107.74 -464.75c14.38,6.14 28.21,11.67 44.22,18.19 11.98,38.73 19.04,81.93 63.57,103.08 26.48,-4.47 54.69,-9.01 85.99,-13.78 9.5,13.03 31.05,13.03 40.1,32.92 14.24,30.94 7.4,62.5 -22.89,77.09 -14.92,7.34 -32.04,11.89 -48.76,14.49 -82.41,11.24 -165.37,21.44 -248.38,31.52 -26.03,2.78 -52.68,2.78 -84.94,4.61 -10.53,-11.98 -22.89,-26.25 -35.92,-41.5 -0.32,-19.26 7.86,-34.11 24.9,-46.11 13.5,-10.09 24.41,-23.25 40.57,-38.83 14.59,2.39 32.39,5.64 53.55,9.33 10.56,-12.65 22.51,-26.81 34.13,-40.57 3.68,-79.31 3.68,-79.31 53.88,-110.41l-0 -0.02zm-1783.53 -103.82c-40.96,28.8 -67.98,69.43 -93.85,111.75 -26.05,42.33 -28.38,89.59 -27.89,134.77 -4.61,4.83 -6.46,9.01 -9.53,10.09 -61.96,21.22 -77.73,11.14 -86.29,-54.15 -4.15,-31.84 -8.39,-63.85 -14.73,-95.54 -2.83,-14.76 -8.04,-29.94 -15.79,-42.48 -12.77,-20.62 -30.9,-31.9 -57.39,-27.34 -20.54,2.98 -41.77,3.69 -62.42,2.72 -12.55,-0.88 -26.38,-5.48 -37.19,-11.98 -24.26,-15.47 -26.54,-49.11 -5.87,-69.11 18.63,-18.45 42.88,-24.31 67.31,-28.12 18.61,-2.98 37.91,-2.76 56.81,-4.61 9.22,-0.87 19.97,-0.61 27.22,-5.32 30.48,-19.7 57.6,-6.7 83.48,8.02 23.07,13.13 44.26,29.08 68.69,45.67 33.15,-20.29 62.15,-44.9 90.66,-69.17 27.39,-23.97 55.55,-38.56 92.87,-30.44 12.74,2.61 26.31,0.17 42.92,0.17 25.34,20.29 53.48,42.92 80.57,64.46 2.43,22.42 6.99,43.29 6.61,63.85 -0.49,22.62 -2.32,45.84 -8.95,67.06 -10.4,33.53 -35.31,49.37 -69,48.24 -9.11,-0.22 -20.28,-1.96 -26.54,-7.43 -19.2,-16.66 -44.76,-26.1 -50.5,-57.78 -4.41,-24.53 -26.96,-40.2 -51.16,-53.33l-0.06 -0zm-203.82 20.49l0 0c0.44,-1.85 1.37,-3.41 1.37,-4.77 0,-0.74 -2.45,-1.14 -3.76,-1.67 -0.44,1.8 -1.31,3.25 -1.31,4.67 0.08,0.87 2.39,1.09 3.69,1.78l0.01 -0.02zm2137.85 -221.35c-86.76,73.79 -115.22,131.88 -125.06,252.69 -6.46,2.78 -14.54,8.3 -23.05,10.15 -45.09,9.01 -59.02,-0.9 -66.15,-45.18 -5.05,-33.64 -9.5,-67.44 -15.39,-101.29 -2.78,-14.77 -7.72,-29.47 -13.91,-43.09 -13.4,-29.94 -35.66,-42.21 -68.73,-35.49 -26.81,5.76 -52.62,4.18 -78.44,-3.25 -18.24,-5.05 -29.24,-17.1 -32.24,-35.76 -3.71,-20.96 2.98,-38.74 22.02,-48.18 16.66,-8.36 35.17,-12.69 53.06,-18.67 34.18,-10.74 72.52,0.6 104.76,-20.52 22.35,1.87 45.18,1.2 65.04,14.77 23.48,15.68 45.31,34.12 73.72,47.03 32.39,-24.96 64.95,-47.96 94.57,-73.94 22.07,-19.17 45.02,-26.6 72.96,-24.15 18.71,1.64 37.7,0.32 56.8,0.32 26.1,21.22 52.73,42.44 79.31,63.65 2.61,21.42 5.41,42.19 7.64,62.7 2.78,24.9 -0.9,49.54 -11.05,72.43 -20.57,46.55 -66.43,57.89 -107.43,26.85 -16.17,-12.6 -31.84,-23.77 -37.39,-47.63 -5.54,-24.53 -26.76,-40.48 -51.1,-53.49l0.04 0.04zm-203.08 19.35l0 0c-1.29,-2.77 -2.7,-5.37 -4.06,-7.69 -1.02,1.26 -2.98,2.16 -2.98,3.47 0,3.19 0.96,6.08 1.34,9.02 1.85,-1.58 3.85,-3.1 5.7,-4.8zm2421.65 -9.2c-10.37,3.68 -18.88,8.3 -27.89,10.15 -39.23,7.59 -55.55,-4.61 -61.5,-45.18 -3.69,-24.59 -5.55,-49.11 -10.11,-73.41 -3.9,-22.51 -8.57,-44.8 -16.59,-65.96 -12.27,-34.03 -33.26,-45.05 -70.2,-41.63 -17.05,1.26 -34.13,2.05 -51.34,1.73 -9.38,-0.2 -18.94,-1.52 -27.94,-4.28 -17.19,-5.59 -29.82,-16.75 -33.21,-35.76 -3.46,-20.5 3.71,-37.48 21.22,-49.11 23.05,-14.76 48.88,-20.22 75.68,-22.13 21.13,-1.8 42.37,-0.24 62.61,-5.48 47.98,-12.04 62.79,-11.57 97.76,11.72 18.83,12.25 37.72,25.11 56.44,37.97 24.09,-8.24 39.5,-25.76 57.24,-39.32 20.05,-14.81 39.37,-30.07 58.19,-45.78 14.13,-11.69 29.27,-15.85 47.66,-14.24 20.34,1.85 41.06,0.71 64.84,0.71 25.61,20.29 53.44,42.77 83.7,66.95 1.69,26.76 3.69,54.81 4.79,83.38 1.07,23.19 -5.98,44.93 -18.83,64.52 -21.76,32.44 -62.5,39.94 -93.85,16.32 -17.87,-13.51 -36.08,-25.5 -42.44,-50.95 -6.28,-24.7 -26.74,-40.25 -47.96,-52.98 -37.81,24.2 -71.01,63.65 -97.17,109.45 -25.51,44.58 -28.27,93.46 -31.1,143.28l0.02 0.01zm-79.64 -234.98l0 0c-1.09,-2.6 -2.22,-5.64 -3.31,-8.51 -1.03,1.14 -3.68,2.77 -3.59,3.63 0.77,2.81 2.22,5.64 3.43,8.73 1.09,-1.29 2.07,-2.22 3.47,-3.85zm-1440.59 94.8c13.24,-9.88 26.95,-19.39 45.02,-32.3 19.81,4.93 44.31,11.49 73.3,19.37 15.94,-11.35 35.87,-23.04 52.68,-37.66 19.26,-15.85 39.72,-24.61 62.83,-16.32 18.72,6.69 32.72,1.26 48.67,-5.96 28.21,-11.62 55.33,-10.15 80.24,11.08 21.2,18.42 46.05,34.11 66.02,54.04 18.17,18.06 35.64,37.27 29.94,69.54 -2.28,13.85 2.32,39.18 30.06,39.67 4.03,0 9.11,6.44 12.33,11.08 2.78,4.55 5,10.15 5.73,15.68 10.37,69.16 25.78,138.35 13.75,209.35 -12.39,74.5 -49.58,134.65 -103.7,185.43 -28.86,26.93 -64.72,39.61 -103.09,43.5 -38.25,4.07 -76.23,2.61 -113.39,-8.44 -14.43,-4.58 -29.3,-7.4 -47.04,-12.04 -23.06,11.11 -41.12,37.87 -74.32,37.87 -35.46,-27.69 -47.63,-65.49 -36.61,-109.6 8.95,-36.23 6.96,-70.85 -5.32,-106.27 -5.55,-15.68 -8.02,-33.2 -8.4,-50.19 -3.59,-95.16 -22.95,-188.71 -28.59,-283.43 -0.82,-11.22 -0.11,-22.4 -0.11,-34.38zm413.61 124.51l0 0c-20.61,-19.35 -46.89,-44.28 -73.94,-67.82 -13.13,-11.6 -29.74,-15.85 -47.97,-13.33 -29.89,4.06 -59.94,7.64 -94.07,11.98 -16.59,23.07 -35.96,46.76 -51.65,72.36 -20.78,32.83 -31.8,68.69 -23.06,108.52 4.41,20.29 5.64,41.71 5.37,62.59 -1.25,47.53 22.42,83.18 51.81,116.71 20.93,23.54 47.04,38.26 79.31,40.84 11.08,0.98 23.44,0.22 33.22,4.65 34,15.47 59.52,-0.49 82.53,-21.02 38.3,-34.24 62.59,-76.61 59.52,-130 -1.86,-35.87 -7.37,-71.56 -11.14,-107.14 -2.72,-23.93 -6.06,-47.91 -9.91,-78.35l0.01 0.02zm-2006.29 190.92l0 0c37.07,37.81 37.16,38.72 75.65,34.89 62.28,-6.31 124.24,-14.11 186.3,-20.13 15.9,-1.42 29.88,-4.61 39.65,-17.52 9.24,-12 17.48,-24.59 26.69,-37.82 -7.1,-11 -11.98,-21.16 -19.29,-29.5 -8.3,-10.15 -17.54,-20.06 -27.69,-28.27 -54.78,-44.61 -168.79,-44.61 -223.2,0.76 -29.82,24.74 -48.38,57.18 -58.11,97.61zm-12.11 265.56l0 0c4.12,7.54 5.61,12.98 8.59,14.96 3.57,2.35 9.15,1.35 13.98,1.67 -1.9,-3.68 -2.77,-9 -5.85,-11.21 -2.97,-2.54 -8.29,-3 -16.72,-5.43zm-2002.99 38.19c-4.13,-7.06 -5.94,-13.18 -10.15,-16.66 -20.35,-16.1 -23.63,-37.1 -19.78,-61.41 6.41,-40.48 -7.26,-74.43 -34.61,-104.44 -9.22,-10.14 -17.57,-17.97 -30.89,-22.57 -13.95,-5.05 -26.08,-14.81 -41.49,-24.09 1.83,-9.59 0.56,-21.39 5.93,-26.63 13.19,-12.92 28.04,-28.91 44.74,-32.62 38.38,-8.89 78.46,-10.73 116.19,-15.35 17.62,15.56 22.02,34 24.44,52.73 3.48,28.43 7.17,56.91 9.16,85.22 6.33,94.67 18.64,188.59 37.74,281.72 3.82,18.62 10.13,36.89 15.39,55.07 13.92,49.56 79.83,72.23 126.84,42.7 14.23,-9.11 28.16,-20.29 38.3,-33.2 19.84,-25.67 37.11,-53.04 55.35,-79.52 11.52,-17.22 23.09,-33.91 38.63,-56.77 -2.84,-19.59 -6.35,-45.45 -10.53,-71.78 -5.62,-37.25 -6.93,-74.17 -3.19,-112.04 4.56,-45.11 -23.83,-82.61 -68.75,-97.97 -21.2,-7.17 -41.5,-17.31 -60.13,-24.74 -6.55,-33.64 18.65,-43.3 31.11,-58.06 50.72,-6.79 99.25,-13.33 150.21,-20.29 22.46,24.52 24.01,58.09 27.61,89.37 13.53,115.16 24.33,230.74 36.17,346.02 1.14,11.34 2.69,22.83 2.78,34.11 0.44,24.91 14.08,38.33 36.54,44.76 10.93,3.22 23.02,4.12 32.63,9.66 10.81,6.47 19.34,16.61 29.13,25.34 -12.99,27.24 -24.52,51.65 -37.92,80.08 -29.93,4.33 -64.72,8.95 -98.19,13.56 -27.85,-22.15 -52.85,-41.9 -79.99,-63.64 -13.75,13.45 -26.08,24.91 -37.74,36.56 -44.14,43.95 -96.99,63.97 -159.61,63.06 -40.86,-0.29 -74.84,-12.92 -102.63,-41.51 -36.37,-37.22 -64.11,-80.24 -75.11,-131.89 -5.89,-27.83 -7.93,-56.42 -13.92,-84.35 -6.81,-32.3 -3.65,-60.45 25.81,-80.48l-0.03 0.02zm4717.73 -237.57c17.85,-16.23 35.55,-28.83 34.93,-52.36 -0.38,-35.69 22.48,-48.89 51.43,-59.35 30.23,27.07 32.55,58.55 20.57,97.17 -30.72,2.92 -65.12,3.54 -78.46,42.44 1.26,7.37 2.78,16.55 3.96,25.55 0.38,1.64 -1.15,3.63 -1.52,5.38 -3.22,2.27 -6.14,5.79 -9.17,5.96 -14.59,2.18 -29.79,-1.85 -44.06,7.4 -23.06,14.74 -47.04,13.88 -69.11,-3.65 -22.15,-17.52 -41.25,-11.08 -61.75,4.5 -25.7,19.13 -52.85,36.07 -77.57,52.61 -24.9,-4.56 -15.63,-25.81 -24.03,-38.03 -25.02,7.63 -48.41,17.95 -69,35.85 -32.27,28.01 -68.31,30.81 -104.55,8.84 -35.58,-20.93 -61.59,-51.81 -78.17,-88.75 -35.06,-77.48 -18.45,-159.73 42.42,-220.39 12.91,-12.94 27.67,-24.94 43.35,-38.77 -13.63,-21.22 -32.54,-29.52 -51.86,-35.71 -24.38,-7.64 -44.82,-19.64 -62.45,-43.62 0,-13.85 0.49,-30.75 -0.06,-47.97 -0.93,-41.49 20.28,-71.98 48.78,-99.46 3.79,-3.83 9.33,-8.44 13.93,-8.44 20.84,1.61 35.06,-13.85 52.9,-18.3 38.42,-9.06 73.03,-31.59 114.04,-31.52 7.43,0 16.39,-3.36 22.48,-0.77 31.02,13.62 59.29,3 86.86,-9.38 20.74,13.23 41.02,23.98 58.55,38.09 14.7,11.73 26.95,26.48 38.74,41.22 9.44,12.47 13.83,28.92 5.41,43.11 -15.08,25.11 -3.8,47.26 3.8,71.22 8.3,1.87 16.64,3.71 28.59,6.25 1.52,20.41 2.76,40.79 4.61,61.54 4.61,58.65 8.46,117.61 13.85,176.54 2.39,28.7 6.44,57.29 42.57,72.74l-0.01 0.06zm-333.11 -253.53l0 0c37.81,-2.22 70.8,-13.72 105.69,-6.35 22.02,4.61 40.75,-6.41 53.88,-24.96 7.28,-10.23 14.76,-20.22 22.13,-30.32 -29.57,-71.01 -62.7,-91.36 -135.58,-85.12 -1.89,0.22 -3.89,0.22 -5.75,0.22 -42.83,4.39 -70.8,26.41 -82.78,65.95 -5.93,19.1 -6.47,37.33 11.76,51.87 10.35,7.92 19.26,17.74 30.66,28.7l-0.01 0zm-2918.28 917.87c-4.99,-8.24 -8.19,-15.08 -12.92,-20.67 -12.91,-14.91 -23.96,-19.91 -38.74,-9.82 -18.71,12.91 -36.01,9.98 -54.29,4.18 -65.65,-20.68 -104.5,-78.84 -96.09,-149.91 3.48,-29.47 0,-61.74 25.5,-85.12 -8.89,-23.66 -16.81,-44.93 -25.12,-66.08 -18.77,-47.96 -18.82,-94.13 16.76,-133.81 26.69,-30.12 27.12,-59.88 14.3,-94.94 -13.94,-38.14 -14.3,-78.46 -13.94,-118.54 0.93,-53.97 21.28,-95.71 70.16,-121.9 8.24,-4.47 16.43,-9.88 24.83,-14 17.57,-7.66 33.64,-17.68 44.37,-34.29 20.19,-30.53 48.85,-34.13 80.46,-23.32 30.06,9.87 59.03,22.22 92.87,35.2 12.85,-10.09 30.44,-19.64 41.01,-34 18.06,-24.96 43.18,-28.83 69.98,-31.43 29.72,-3.19 56.86,2.83 81.04,20.35 47.8,35.05 62.67,92.24 38.65,154.74 -13.47,0 -29.85,3.96 -42.59,-0.87 -27.19,-10.91 -40.52,10.31 -56.52,21.37 -17.59,11.98 -26.11,31.62 -24.75,54.4 1.09,21.22 1.09,42.18 0.5,62.83 -2.19,63.53 -28,113.6 -83.56,146.88 -11.49,6.96 -24.96,12.6 -32.11,22.74 -12.43,16.65 -12.27,39.29 14.81,42.3 27.01,2.93 52.07,6.08 71.67,28.76 4.88,5.54 17.79,6.44 27.01,5.91 18.88,-0.49 39.56,0.55 56.27,-6.39 27.66,-11.52 47.04,-1.74 67.33,15.17 33.51,27.72 56.27,61.25 57.89,110.52 -16.72,17.19 -35.78,35.64 -53.3,55.52 -17.52,19.59 -33.36,40.61 -50.29,61.52 4.18,14.59 7.65,27.07 10.93,39.5 -17.46,23.27 -41.77,33.69 -67.59,40.57 -83.5,22.22 -168.52,28.1 -254.57,22.62l0.02 0.01zm40.63 -112.52l0 0c10.53,0 21.11,-2.78 28.59,0.6 20.4,9.38 40.48,7.71 61.47,4.17 18.71,-2.93 38.03,-1.84 56.53,-5.9 29.2,-7.06 59.31,-13.53 86.27,-26.28 19.8,-9.38 35.49,-27.44 51.1,-43.6 9.77,-10.69 8.33,-24.9 -0.11,-36.89 -14.59,-21.2 -35.78,-33.79 -59.29,-42.42 -32.76,-11.93 -66.89,-14.74 -101.01,-12.69 -54.62,3.83 -109.53,9.06 -164.18,15.47 -16.59,1.83 -33.2,7.37 -48.92,13.78 -21.93,8.35 -38.74,23.09 -48.53,45.29 -9.76,22.74 -8.18,35.49 11.37,49.75 34.92,25.35 71.44,48.56 101.22,80.51 1.64,1.86 7.06,0.38 13.4,0.38 3.69,-13.56 8.04,-27.4 12.11,-42.15l-0.02 -0.01zm132.72 -542.37l0 0c-28.53,-27.68 -50.78,-50.63 -73.85,-72.87 -5.43,-5.08 -11.89,-10.15 -18.33,-12.91 -57.84,-23.96 -129.84,-7.91 -159.63,47.66 -7.28,13.24 -12.48,27.61 -18.86,41.22 -16.32,35.17 -7.83,66.68 13.62,96.24 20.78,28.1 49.52,46.27 78.93,64.44 30.81,19.59 60.98,16.48 91.53,1.35 26.63,-13.12 46.44,-33.24 59.8,-59.39 4.64,-9.24 7.42,-22.74 4.55,-31.97 -9.88,-29.02 1.03,-51.65 22.24,-73.78l-0.01 0.01zm-251.35 240.77l0 0c-12.55,13.83 -35.49,26.1 -38.47,52.57 38.47,47.13 69.78,51.71 110.74,15.35 12.14,-11.24 21.9,-26.08 31.18,-40.25 6.79,-10.2 -1.45,-24 -13.89,-24.85 -28.15,-0.96 -56.42,-1.94 -89.57,-2.81l0.01 -0.02z"/>
   <path class="fil1" d="M3877.6 2167.33c8.74,-0.56 14.54,-1.43 20.28,-1.43 65.04,-0.11 130.32,-0.47 195.53,0.08 19.32,0.31 38.74,2.26 57.71,5.9 49.05,9.27 87.08,35.55 114.27,77.5 20.03,30.02 31.16,63.67 39.02,98.4 8.3,37.3 11.49,75.24 11.49,113.28 0.38,60.9 0,121.91 -0.93,182.78 -0.58,32.39 -6.72,64.11 -16.75,94.61 -9.98,30.22 -24.65,57.62 -47.47,80.24 -1.73,1.75 -3.22,3.68 -4.67,5.59 -0.49,0.87 -0.44,1.8 -0.65,3.16 1.07,1.56 1.93,4.18 3.57,6.02 36.01,35.11 52.68,80.24 60.43,128.42 3.91,25.76 6.47,52.33 6.47,78.16 0.76,68.69 0.41,137.37 -0.93,205.74 -1.06,52.62 -10.13,104.27 -32.27,153.1 -23.44,52.68 -61.54,90.48 -118.44,106.07 -16.91,4.61 -34.87,8.19 -52.39,8.29 -73.68,0.93 -147.19,0.29 -220.92,0.11 -3.21,0 -6.46,-0.65 -11.07,-1.02 -0.93,-5.27 -1.87,-10.11 -2.29,-14.76 -0.43,-5.83 0,-12.02 0,-17.59 0,-426.72 0,-853.14 0,-1279.48 0,-10.12 0,-20.27 0,-33.17l0.02 0.02zm-3498.12 1694.82c0,-28.83 -0.2,-57.46 0.06,-86.06 0.18,-39.76 0.44,-79.55 1.09,-119.37 1.46,-88.09 3.36,-175.76 4.94,-263.78 1.15,-67.8 2.37,-135.2 3.22,-202.89 0.65,-66.04 21.17,-125.07 63.94,-174.93 53.35,-62.74 121.24,-94.83 204.12,-97.01 119.98,-3.54 238.48,81.49 267.45,209.69 4.51,19.86 7.17,40.37 7.69,60.39 1.52,62.5 1.39,125.06 2.39,187.6 1.37,88.04 3.27,176.16 4.83,263.78 1.2,60.87 2.3,121.76 3.17,182.63 0.87,59.25 1.26,118.54 2.13,177.83 1.09,81.17 2.46,162.33 3.88,243.49 1.69,94.52 3.07,189.3 5.13,284.13 2.07,90.82 -37.91,161.56 -106.94,216.74 -62.09,49.58 -133.92,71.28 -213.26,64.38 -68.8,-6.13 -128.6,-34.34 -179.11,-81.48 -41.34,-38.25 -70.22,-84.2 -81.79,-140.02 -3.02,-14.83 -4.85,-30.02 -4.8,-45.31 0.47,-72.65 1.64,-145.3 2.77,-217.99 0.94,-62.77 2.26,-125.44 3.17,-187.94 0.79,-59.25 1.06,-118.31 2.02,-177.34 0.52,-32.3 1.96,-64.57 3.05,-96.58 0.2,0 0.54,0 0.87,0l-0.02 0.04zm512.44 486.91l0 0c-14.74,-15.85 -31.93,-19.53 -51.08,-15.02 -23.49,5.15 -44.37,15.79 -64.41,28.7 -11.89,8.13 -24.41,15.23 -37.27,21.2 -11.04,5.55 -22.86,5.55 -34.23,-0.85 -8.43,-4.67 -16.76,-4.67 -26.68,-2.83 -12.07,1.99 -25.15,1.61 -37.27,-0.65 -9.08,-1.43 -16.83,-1.15 -24.33,3.42 -13.15,7.37 -26.25,5.53 -39.02,-0.12 -9.85,-4.61 -19.07,-10.96 -28.59,-16.48 -12.36,-7.24 -24.2,-15.63 -37.13,-21.36 -11.45,-5.39 -23.82,-9.08 -36.1,-11.84 -19.53,-4 -33.06,0.65 -47.28,13.85 0.57,0.54 1.11,1.3 1.83,1.52 1.53,0.31 3.33,0.76 4.85,0.31 26.92,-6.61 50.09,1.83 71.67,17.16 21.25,14.92 42.07,30.22 63.67,45.73 -2.35,1.94 -4.07,4.01 -6.17,5.04 -3.94,1.9 -7.72,3.48 -7.7,8.62 0.06,6.47 5.16,9.24 9.85,10.15 8.19,1.42 16.63,2.22 24.93,1.86 6.5,0 12.96,-2.18 20.25,-3.69 3.63,9.44 6.41,18.45 10.09,26.76 3.71,8.27 8.3,16.59 12.42,24.9 5.1,10.15 5.75,21.22 2.4,32.27 -3.31,10.43 0.09,19.97 3.61,29.52 3.28,8.83 10.31,12.58 19.83,12.63 9.42,0.11 16.17,-3.41 20.19,-12.41 4.66,-10.37 5.75,-20.96 3.44,-32.19 -2.31,-11.11 -1.04,-21.58 3.83,-32.04 7.53,-16.07 14.59,-31.9 22.33,-49.09 6.9,1.52 14.24,3.04 21.64,4.06 10.28,1.15 20.26,0.13 29.19,-5.91 4.47,-2.92 5,-9.55 0.81,-12.91 -3.54,-2.93 -7.4,-4.94 -11.08,-7.7 17.68,-12.92 34.11,-24.91 50.57,-36.58 6.85,-4.92 13.75,-9.53 20.96,-14.18 18.59,-11.43 38.36,-17.51 60.49,-12.45 3.1,0.54 6.35,0.49 9.52,0.65l-0.04 -0.04zm-72.85 -1404.02c-13.32,-6.46 -25.73,-13.67 -38.68,-19.35 -12.36,-5.54 -24.93,-10.31 -37.89,-14.05 -13.78,-4.09 -28,-7.01 -42.18,-9.01 -13.36,-1.85 -26.93,-2.67 -40.37,-2.51 -14.3,0.22 -28.78,1.37 -42.91,3.38 -13.35,1.83 -26.72,4.5 -39.64,8.35 -13.75,3.96 -27.13,9.24 -40.29,15.18 -12.11,5.26 -23.65,12.11 -37.13,18.94 -1.17,-5.15 -2.31,-8.3 -2.39,-11.08 -0.55,-26.34 -1.19,-52.57 -1.28,-78.71 -0.43,-71.13 -0.5,-142.31 -0.93,-213.38 -0.2,-43.82 -0.71,-87.88 -1.01,-132 -1.37,-155.56 -2.77,-311.21 -4.03,-466.91 -0.52,-78.59 -0.79,-157.46 -1.04,-236.07 -0.2,-29.72 -2.48,-34.76 -30.99,-44.14 -30.46,-10.12 -61.52,-18.83 -92.65,-26.4 -53.45,-12.75 -107.27,-24.2 -160.85,-36.24 -13.24,-2.95 -26.22,-6.9 -39.39,-9.8 -23.77,-5.37 -43.49,-17.38 -61.91,-33.06 -26.1,-22.43 -39.34,-50.19 -40.75,-83.96 -1.01,-23.74 -2.16,-47.45 -3.19,-70.98 -3.19,-73.52 -6.33,-147.13 -9.52,-220.46 -2.49,-58.39 -5.12,-116.68 -7.69,-174.9 -3.41,-73.59 -6.81,-146.99 -10.26,-220.48 -3.35,-70.91 -6.78,-141.9 -10,-212.93 -3.6,-78.43 -7.15,-157.09 -10.23,-235.65 -3.65,-92.15 -6.63,-184.18 -10.42,-276.26 -0.96,-24.47 -3.34,-48.89 1.28,-73.31 4.19,-22.13 12.54,-41.98 28.3,-58.54 19.32,-20.08 44.02,-27.69 70.63,-30.32 7.63,-0.68 15.23,-0.26 22.89,-0.27 357.09,-0.02 714.3,-0.02 1071.39,0 7.72,0 15.24,-0.31 22.94,0.16 56.36,4.13 94.07,40.1 99.93,96.37 1.53,14.27 1.57,28.78 1.17,43.18 -1.39,51.49 -3.09,103.02 -5.05,154.63 -2.4,65.96 -5.11,131.88 -7.89,197.77 -3.27,78.5 -6.78,157.04 -10.23,235.71 -3.28,71.7 -6.84,143.48 -10.14,215.39 -3.44,72.49 -6.84,145.28 -10.2,217.77 -3.36,70.11 -6.85,140.18 -10.06,210.31 -2.93,66.78 -5.65,133.57 -8.3,200.23 -1.34,34.89 -14.04,63.49 -41.04,86.54 -18.47,15.67 -38.19,27.68 -61.89,33.06 -51.12,11.55 -102.28,23.19 -153.27,35.28 -40.27,9.61 -80.45,19.78 -120.46,30.56 -12.09,3.27 -23.66,8.74 -35.22,13.97 -10.12,4.47 -15.61,12.48 -14.71,24.07 0.44,6.02 0.03,12 0.03,17.87 -0.33,119.24 -0.49,238.53 -0.9,358 -0.11,50.72 -0.57,101.44 -1.03,152.18 -1.31,142.25 -2.69,284.3 -4.04,426.34 -0.41,44.15 -0.5,88 -1.15,131.88 -0.27,18.61 -1.43,37.28 -2.42,55.89 -0.11,2.24 -1.55,4.12 -2.95,7.77l-0.01 -0.02zm-205.9 -2251.64l0 0c0,67.79 0,135.56 0,203.2 0,62.56 -0.17,125.15 0.21,187.86 0.03,10.09 0.94,20.29 3.52,29.94 4.79,17.35 17.3,26.51 35.14,28.16 5.05,0.43 10.18,0.43 15.23,0 19.87,-1.43 32.87,-11.92 37.51,-31.72 2.16,-8.87 2.76,-18.38 2.76,-27.59 0.08,-259.81 0.08,-519.6 0,-779.55 0,-8.32 -0.53,-16.76 -1.87,-25.08 -1.81,-11.35 -7.37,-20.71 -16.96,-27.39 -30.01,-20.76 -70.57,-2.81 -75.04,33.55 -0.94,7.4 -0.52,15.2 -0.52,22.69 -0.03,128.63 0,257.27 0,385.95l0.02 -0.02zm426.33 -5.97l0 0c-0.41,-0.03 -0.87,-0.03 -1.28,-0.03 1.48,-60.81 3.41,-121.58 4.5,-182.36 1.14,-70.2 1.64,-140.41 2.37,-210.56 0.02,-5.89 -0.38,-11.93 -1.58,-17.54 -2.46,-11.14 -8.38,-20.28 -18.23,-26.39 -31.76,-19.69 -70.08,-1.06 -73.31,35.85 -1.44,16.84 -2.1,33.75 -2.35,50.55 -0.7,37.33 -0.84,74.43 -1.28,111.59 -0.29,27.98 -0.49,55.81 -1.02,83.76 -1.28,56.52 -2.91,113.17 -3.97,169.85 -1.53,86.95 -2.69,173.92 -4.1,261.06 -0.56,32.93 -1.26,65.97 -1.84,98.84 -0.2,11.84 -0.41,23.8 0.17,35.5 1.41,30.75 18.04,45.89 48.96,45.18 1.67,-0.05 3.31,0 5.05,-0.09 19.41,-1.5 33.33,-12.91 37.42,-31.93 2.27,-10.7 3.25,-21.81 3.57,-32.66 0.63,-35.5 0.85,-70.99 1.2,-106.52 0.3,-28.78 0.38,-57.62 1.08,-86.22 1.43,-65.95 3.01,-131.88 4.65,-197.8l0.01 -0.04zm-662.25 5.5l0 0c-0.27,0 -0.4,0 -0.58,0 -0.73,-36.33 -1.64,-72.57 -2.21,-108.87 -1.41,-86.21 -2.67,-172.47 -4.09,-258.69 -0.24,-11.81 -0.47,-23.54 -1.2,-35.49 -1.94,-34.79 -27.36,-53.52 -61.07,-44.69 -17.02,4.56 -28.07,15.52 -30.96,33.15 -1.26,7.42 -1.34,15.2 -1.31,22.65 0.29,29.63 0.9,59.26 1.34,88.88 1.34,86.95 2.48,173.95 4.09,261.09 1.46,81.98 3.47,163.85 4.85,245.78 1.03,60.87 1.3,121.74 2.21,182.62 0.11,10.15 1.28,20.29 3.18,30.15 3.04,16.43 12.88,28.21 29.14,31.65 17.62,3.69 35.69,3.95 49.9,-10.37 9.47,-9.42 12.93,-21.56 13.15,-34.78 0.11,-15.22 0.19,-30.46 -0.08,-45.65 -1.26,-67.5 -2.89,-135.15 -4.04,-202.7 -0.93,-51.51 -1.64,-103.08 -2.31,-154.72l-0.02 0zm282.54 617.28l0 0c20.54,0.85 42.92,-15.25 43.51,-43.3 0.46,-22.42 -20.05,-41.98 -42.37,-42.24 -22.57,-0.47 -42.37,18.44 -43.27,41.02 -0.94,24.19 18.04,44.28 42.12,44.52l0.01 0zm320.89 0l0 0c23.46,0.17 42.28,-17.78 42.83,-40.82 0.76,-24.52 -18.12,-44.72 -41.8,-44.93 -23.38,-0.24 -43.65,20.37 -43.35,43.91 0.3,22.7 19.56,41.65 42.33,41.83zm-637.88 171.83l0 0c23.33,-0.03 40.76,-18.25 41.9,-41.68 1.06,-23.24 -18.88,-43.7 -42.86,-43.59 -22.8,0.35 -41.74,19.03 -42.26,41.89 -0.52,23.82 19.26,43.67 43.2,43.38l0.02 0zm-45.27 -214.41l0 0c-2.26,19.26 14.81,41.9 40.81,42.51 23.89,0.74 44.38,-19.06 44.03,-42.7 -0.4,-23.89 -20.89,-44.11 -44.3,-42.77 -23.33,1.23 -42.37,20.29 -40.54,42.95l0 0.01zm405.85 173.15l0 0c0.6,-22.4 -17.98,-42.69 -40.58,-43.9 -23.92,-1.33 -44.61,17.76 -45.12,41.57 -0.52,23.3 17.16,42.62 40.24,43.62 24.24,1.32 44.88,-17.56 45.46,-41.28zm316.93 -1.15l0 0c0.15,-23.43 -17.57,-42.02 -40.63,-42.78 -24.12,-0.68 -43.35,17.98 -43.38,42.62 -0.02,23.74 17.27,42.02 40.6,42.59 24.39,0.9 43.32,-17.6 43.39,-42.44l0.02 0zm4950.34 -217.71c23.98,4.13 45.18,1.85 66.19,2.28 21.86,0.41 43.82,-0.06 65.69,0.02 21.22,0.17 42.44,-0.7 64.57,0.85 1.09,5.73 2.76,10.5 2.76,15.28 0,48.91 0,98.1 0,147.11 0,4.99 -0.9,9.79 -1.45,13.67 -1.9,1.5 -2.28,2.02 -3.16,2.49 -0.93,0.44 -1.64,0.91 -2.28,0.91 -119.47,0.12 -238.44,0.44 -357.85,0.44 -3.25,0 -6.63,-0.57 -11.56,-1.2 -0.93,-4.88 -1.89,-9.61 -2.39,-14.44 -0.38,-6.63 -0.29,-13.39 -0.29,-20.31 0,-425.49 0,-850.98 0.06,-1276.56 0,-11.02 -1.09,-22.02 1.67,-33.59 19.39,-5.17 38.8,-2.07 58.11,-2.65 19.35,-0.6 38.74,-0.17 58.27,-0.15 19.26,0.29 38.68,-0.85 59.78,1.09 0.76,5.81 1.85,10.46 1.85,15.31 0.38,7.58 0,15.24 0,22.77 0,363.89 0,727.72 0,1091.54 0,10.81 0,21.75 0,35.14l0 0zm-4440.24 -1162.63c21.93,-3.69 119.31,-5.11 165.37,-3 4.01,0.23 7.93,1.48 13.54,2.54 1.11,32.74 0.38,64.66 0.52,96.82 0.19,32.05 0.03,64.16 0.03,96.41 0,32.93 0,65.96 0,98.96 0,32.06 0,64.28 0,96.48 0,32.08 0,64.24 0,96.5 0,32.06 0,64.14 0,96.39 0,32.18 0,64.23 0,96.39 0,32.27 0,64.35 0,96.41 0,33.15 0,66.02 0,99.14 0,32.09 0,64.17 0,96.36 0,32.25 0,64.3 0.02,96.41 0.03,31.98 -0.19,64.03 0.19,94.53 10.15,6.46 18.77,4.55 26.96,4.59 48.23,0.03 96.47,0 144.65,0.03 8.27,0.06 17.04,-1.86 24.56,3.05 3.59,19.07 4,151.47 0.31,175.55 -3.62,0.81 -7.45,2.16 -11.52,2.16 -117.59,0.05 -235.19,0 -352.78,0 -2.4,0 -4.94,-0.73 -8.94,-1.34 -1.02,-4.18 -2.67,-8.81 -3.06,-13.51 -0.49,-7.69 -0.15,-15.2 -0.15,-22.97 0,-424.71 0,-849.42 0.03,-1274.13 0,-10.81 0.13,-21.75 0.27,-33.75l0 -0.01zm5125.24 -0.31c25.18,-3.69 152.83,-3.8 177.41,-0.31 0.61,4.21 1.85,8.92 1.96,13.56 0.65,8.48 0.27,17.04 0.27,25.38 0,363.97 0,728.02 0.06,1092.04 0,10.64 -0.87,21.66 1.52,32.72 22.89,3.44 43.94,1.4 64.9,1.84 21.86,0.33 43.82,0 65.97,0 21.2,0 42.26,0.33 64.03,0.47 1.45,5.06 3.3,9 3.3,12.9 0.22,51.65 0.11,103.31 0,154.96 0,3.22 -0.9,6.46 -1.2,7.81 -1.94,2.1 -2.48,2.76 -3.25,3.27 -0.56,0.41 -1.45,0.73 -2.16,0.73 -119.57,0.2 -238.72,0.61 -358.07,0.61 -3.38,0.05 -6.85,-0.5 -9.88,-1.09 -0.87,-0.2 -1.52,-1.19 -3.63,-3.02 -0.09,-2.45 -1.09,-6.46 -1.09,-10.64 -0.11,-443.31 -0.11,-886.8 -0.11,-1331.26l-0.03 0.02zm1046.7 176.98c-0.65,7.04 -1.39,11.05 -1.39,15.2 -0.12,124.25 -0.06,248.61 -0.06,373.96 6.13,1.11 10.96,2.84 15.72,2.84 22.8,0.33 45.46,0.09 68.32,0.13 8.35,0 16.75,0 26.48,0 1.14,6 2.87,10.78 2.92,15.55 0.11,48.95 0.05,98.16 0.05,147.1 0,4.17 -0.87,8.3 -1.12,12.93 -11.79,5.53 -23.78,2.46 -35.38,2.97 -12.55,0.6 -25.31,0.09 -38.15,0.24 -11.61,0.02 -23.16,0.17 -36.72,0.44 -0.93,7.75 -2.05,14.11 -2.05,20.49 -0.35,35.57 -0.17,71.15 -0.17,106.71 0,86.33 -0.06,172.57 0.05,258.83 0,9.22 0.33,18.45 0.87,29.03 8.48,0.76 15.85,1.83 23.22,1.85 48.94,0 98.05,0 147.31,0 8.21,0 16.39,0.91 26.11,1.39 2.98,30.88 0.97,60.4 1.4,89.69 0.44,28.65 0.5,57.38 -0.43,85.57 -9.66,6.46 -19.38,4.1 -28.21,4.1 -86.21,0.3 -172.69,0.14 -258.78,0.14 -23.89,0 -47.59,0.16 -71.13,-0.09 -5.81,-0.05 -11.67,-0.96 -18.23,-1.41 -0.93,-5.08 -1.83,-9.15 -1.83,-13.13 -2.78,-62.97 -0.93,-1309.67 1.83,-1329.94 5.32,-5.93 12.36,-4.31 18.88,-4.34 41.46,-0.11 82.96,-0.09 124.37,-0.09 67.91,0 135.35,-0.02 203.23,0.02 9.06,0.03 18.11,0.76 28.06,1.07 3.97,15.6 1.85,29.94 2.26,44.09 0.44,15.2 0.16,30.44 0.16,45.64 0,14.35 0.15,28.81 -0.03,43.26 -0.29,14.15 0.7,28.42 -1.26,43.43 -22.08,4.62 -43.13,1.85 -63.92,2.32 -22.07,0.46 -44.22,0.03 -66.24,0.03 -21,0 -42.1,0 -66.08,0l-0.03 -0.02zm-2607.03 391.08c17.21,2.28 35.63,0.52 53.97,1.01 17.59,0.44 35.33,-0.84 52.62,0.93 1.31,4.01 2.76,6.31 2.76,8.6 0.22,53.15 0.22,106.57 0,159.79 0,2.29 -1.47,4.58 -2.67,8.15 -35.37,3.18 -70.72,-0.47 -107.46,2.22 -1.09,4.66 -2.93,9.27 -2.93,13.89 -0.43,16.98 -0.09,33.83 -0.09,50.75 0,106.56 0,213.21 0,319.88 0,9.2 0,18.42 0,26.2 7.48,7.8 15.72,5.68 22.94,5.71 49.11,0.05 97.99,0.05 146.97,0.05 8.3,0 16.66,0.7 26.63,1.04 4.62,30.31 1.73,59.74 1.96,88.9 0.81,29.47 0.54,58.79 -0.09,88.66 -5.54,1.09 -8.63,2.16 -12,2.16 -120.81,0 -241.62,0 -363.78,0 -1.46,-5.52 -3.28,-10.15 -3.41,-14.85 -0.81,-7.69 -0.32,-15.2 -0.32,-22.97 0,-424.72 0,-849.45 0,-1274.19 0,-10.8 0.38,-21.71 0.44,-30.78 7.95,-8.12 15.88,-5.94 23.16,-5.98 50.02,-0.15 99.93,-0.13 149.97,-0.13 59.29,0 118.32,-0.02 177.45,0.02 8.3,0.03 16.66,0.74 26.63,1.11 4.62,30.23 1.64,59.72 1.96,88.8 0.81,28.73 0.22,57.51 0.22,84.57 -8.37,7.19 -16.13,5.34 -23.51,5.35 -49.2,0.11 -98.41,0 -147.46,0.05 -8.3,0.03 -16.59,0.72 -23.22,0.9 -1.93,2.26 -2.61,2.74 -3.09,3.61 -0.43,0.56 -0.87,1.43 -0.87,2.26 -0.43,122.66 -0.49,245.32 -0.56,368 0,3.36 0.06,6.66 0.68,10.04 0.32,1.61 1.23,2.97 3.09,6.23l-0 0.01zm-2225.83 775.19c-19.51,3.88 -154.82,4.2 -178.94,0 -10.76,-62.34 -16.26,-126.35 -26.92,-190.43 -20.59,-5.3 -40.86,-2.33 -60.72,-2.42 -19.23,-0.11 -38.73,-2.69 -58.68,2.42 -9.57,63.64 -14.44,127.65 -23.77,190.43 -3.98,1.41 -6.37,2.72 -8.74,2.72 -54.09,0.06 -108.28,0.06 -162.43,-0.05 -2.33,0 -4.7,-1.28 -6.81,-2.01 -0.56,-1.07 -1.03,-1.75 -1.47,-2.49 -0.26,-0.84 -0.68,-1.69 -0.52,-2.34 58.9,-446 117.93,-891.95 177.04,-1338.73 4.96,-1.2 8.85,-2.83 12.77,-2.86 49.98,-0.32 99.81,-0.26 149.73,-0.11 3.3,0 6.58,0.9 11.35,1.61 5.2,13.36 5.54,27.89 7.43,41.8 13.8,101.35 27.22,202.79 40.52,304.25 12.52,95.67 24.75,191.19 37.43,286.78 12.6,95.63 25.84,191.16 38.42,286.73 10.99,83.02 21.67,166.02 32.6,249.03 7.14,54.41 14.38,108.91 21.64,163.5 0.49,3.93 0.03,8.08 0.03,12.19l0.02 -0.01zm-265.78 -730.82l0 0c-3.22,38.63 -6.19,77.37 -9.83,116.09 -3.52,37.82 -7.96,75.63 -12.16,113.46 -4.19,38.58 -8.76,76.97 -13.12,115.71 12.68,5.7 24.66,3.25 36.2,3.04 11.46,-0.26 23.48,3.69 35.24,-4.29 -10.62,-114.52 -28.37,-228.38 -36.33,-344.03l0.01 0.02zm1351.36 732.24c-0.93,-4.23 -2.34,-7.4 -2.34,-10.64 0,-442.31 0.06,-884.81 0.38,-1327.24 0,-2.29 1.49,-4.61 2.89,-8.02 6.31,-0.56 12.91,-1.55 19.35,-1.56 66.86,-0.08 133.74,-0.2 200.63,0.06 31.43,0.27 62.23,5.61 91.04,18.83 41.19,18.85 69.34,50.42 88.59,90.68 15.85,33.01 24.87,68.29 30.01,104.31 4.22,30.25 5.91,60.54 5.91,91.1 -0.36,50.77 0,101.54 0,152.29 -0.05,35.61 -4.81,70.69 -14.76,105.19 -10.09,34.64 -25.67,66.04 -51.65,91.83 -1.85,1.7 -2.77,4.01 -4.33,5.91 0.65,1.81 0.65,3.8 1.55,4.72 36.96,36.87 54.41,82.93 63.05,133.04 4.28,25.93 6.13,51.91 6.13,78.24 -0.36,60.9 0,121.84 -0.11,182.76 -0.32,48.48 -6.28,96.19 -21.06,142.51 -10.18,33.47 -25.86,64.06 -50.17,89.92 -26.41,28.21 -59.13,45.02 -96.74,52.15 -17.25,3.28 -35.05,5.07 -52.79,5.29 -65.98,0.5 -131.99,0.19 -198.01,0.05 -5.61,0 -11.35,-0.88 -17.59,-1.39l0.01 0zm179.96 -595.4l0 0c-1.03,3.69 -2.45,6.03 -2.45,8.4 0,132.66 0,265.1 0.06,397.7 0,2.37 1.35,4.7 2.71,8.51 13.85,2.29 28.06,1.85 42.1,0.91 16.17,-0.91 26.9,-9.83 30.81,-25.37 2.43,-9.69 4.12,-19.94 4.12,-29.96 0.49,-101.35 0.36,-202.57 0.09,-303.92 -0.06,-8.3 -1.09,-16.83 -2.86,-24.99 -3.47,-17.86 -15.2,-28.02 -32.33,-31.26 -14.13,-2.72 -28.24,-2.46 -42.28,0l0.01 -0.03zm0.22 -180.48l0 0c14.65,0 28.21,0.87 41.55,-0.29 16.7,-1.37 28.71,-10.39 31.9,-27.59 2.32,-11.52 3.69,-23.27 3.74,-35.11 0.44,-59.06 0.29,-118.17 0.29,-177.41 0,-30.42 0.36,-60.84 -0.32,-91.23 -0.11,-11.76 -1.96,-23.52 -4.62,-34.93 -2.28,-10.49 -9.22,-17.87 -19.35,-21.99 -11.49,-4.64 -38.52,-4.12 -53.97,0.94 -3.22,24.9 -2.76,364.46 0.82,387.62l-0.03 -0zm-2618.17 1241.6c-2.57,-12.27 -2.95,-21.11 -0.08,-30.78 3.88,-0.52 7.08,-1.53 10.29,-1.53 949.58,-0.09 1899.21,-0.09 2848.56,-0.09 7.1,9.41 3.74,18.63 3.74,28.84 -4.67,1.31 -9.33,2.93 -14.16,3.18 -7.7,0.63 -15.41,0.38 -22.78,0.38 -930.4,0 -1860.55,0 -2790.7,0 -10.93,0 -21.77,0 -34.89,0l0.01 0.01zm6388.65 -32.63c1.64,5.46 2.73,7.8 2.78,10.09 0.22,6 0,11.78 0,18.91 -5.54,1.31 -10.15,2.89 -14.76,3.25 -6.52,0.68 -13.56,0.38 -20.29,0.38 -931.58,0 -1863.19,0 -2794.75,-0.17 -11.08,0 -22.13,1.61 -33.31,-2.07 -4.5,-8.76 -3.05,-17.62 -1.25,-28.12 5.05,-0.81 9.65,-1.85 14.59,-2.04 6.99,-0.3 13.51,-0.22 20.28,-0.22 930.93,0 1861.83,0 2792.53,0 11.08,0 21.86,0 34.18,0l0 -0.01zm-6388.98 -82.57c-2.31,-10.2 -3.28,-19.89 1,-30.12 3.3,-0.82 6.54,-1.85 9.79,-1.85 947.72,-0.05 1895.47,0.06 2843.21,0.11 2.33,0 4.76,1.58 8.19,2.77 0,9 0,18 0,28.56 -4.24,0.87 -8.95,2.33 -13.83,2.71 -7.66,0.46 -15.08,0.08 -22.74,0.08 -930.13,0 -1859.98,0 -2790,0 -11.57,0 -23.54,1.85 -35.63,-2.26l0.02 -0.01zm6390.83 -30.04c0,10.7 0,19.83 0,30.14 -5.54,0.77 -10.2,1.73 -15.14,2.11 -6.96,0.3 -13.51,0.03 -20.29,0.03 -931.21,0 -1861.89,0 -2793.02,0 -10.75,0 -21.66,0 -32.71,0 -5.54,-11.07 -4.45,-20.73 -1.86,-31.81 4.62,-0.91 9.45,-2.31 14.38,-2.51 7.75,-0.41 15.14,-0.25 22.67,-0.25 929.58,0 1858.61,0 2788.08,0.09 11.6,0 23.38,-1.43 37.87,2.21l0.02 -0.01zm-3175.78 0.98c16.72,51.54 33.37,101.89 51.6,156.3 4.92,-10.15 8.46,-16.43 11.4,-22.62 20.84,-3.89 72.92,-3.77 93.9,0.38 -0.9,5.64 -1.2,11.31 -2.76,16.72 -14.76,53.01 -29.73,105.8 -44.81,158.65 -2.18,7.23 -5.15,14.27 -3.09,22.27 16.01,10.59 31.31,-5.26 46.98,-0.61 4.17,17.42 4.61,78.4 0.27,103.89 -4.18,0.63 -9.12,1.66 -14.05,1.75 -12.54,0.2 -25.09,-0.2 -37.87,0.05 -21.22,0.58 -40.32,-4.24 -57.13,-17.45 -1.89,-1.55 -4.45,-2.02 -4.28,-1.99 -20.68,5.98 -38.91,12.43 -57.57,16.61 -22.51,5.04 -45.2,3.68 -68.09,-0.91 -40.26,-7.87 -68.46,-31.26 -85.94,-67.82 -11.05,-23.06 -16.59,-47.94 -18.98,-73.33 -4.96,-47.99 -5.49,-96.33 3.13,-143.88 8.48,-47.22 26.98,-90.46 53.61,-130.5 4.67,-6.9 9.22,-14.1 13.89,-21.83 -6.5,-20.95 -13.72,-41.72 -20.29,-62.56 -11.08,-34.62 -20.28,-69.67 -25.82,-105.63 -6.02,-40.58 -5.73,-80.97 2.72,-121.08 3.76,-17.46 10.2,-33.89 20.08,-49.06 14.15,-22.56 34.71,-36.22 60.22,-43.35 18.39,-5.1 36.87,-5.67 55.33,-3.44 35.06,4.34 61.69,22.19 77.58,54.17 12.8,25.34 17.54,52.57 20.19,80.69 4.28,51.39 -3.71,101.3 -22.13,149.24 -10.69,28.32 -24.04,55.55 -36.91,83.32 -2.77,6.9 -6.73,13.57 -11.18,22.07l-0 -0.04zm-69.98 123.06l0 0c-2.6,3.25 -4.67,4.96 -5.38,7.04 -2.39,12.36 -4.83,24.8 -6.66,37.25 -5.37,36.91 -3.41,74.23 -3.05,111.15 0.11,10.12 2.18,20.26 4.88,30 2.17,9.19 7.37,18.22 16.78,20.7 19.97,5.13 39.55,5.56 56.91,-7.99 -3.54,-18.25 -46.11,-156.58 -58.93,-189.37 -0.87,-2.78 -2.72,-5.18 -4.55,-8.8l0 0.02zm20.17 -242.87l0 0c7.75,-8.68 7.93,-19.13 10.32,-28.73 8.24,-31.19 14.68,-62.72 13.77,-95 -0.09,-7.53 -0.9,-15.19 -2.75,-22.57 -2.11,-8.32 -9.17,-12.89 -16.67,-12.89 -8.13,0.03 -14.68,4.51 -16.26,13.39 -2.17,11.51 -3.48,23.49 -3.16,35.11 0.12,16.05 1.2,32.16 3.8,47.94 3.03,20.68 2.98,42.21 10.96,62.76l-0.02 0.01zm-2957.81 1729.85c22.87,0 44.03,0 65.2,0 21.98,0 43.9,-0.52 65.98,0.13 20.85,0.06 41.96,-1.85 63.51,1.67 0.81,3.85 2.05,6.94 2.05,10.31 0.05,52.52 -0.05,104.92 -0.2,157.34 -0.02,2.22 -1.69,4.61 -2.55,6.84 -21.3,3.09 -351.66,3.03 -374.08,-0.32 -0.53,-4.28 -1.48,-9.17 -1.81,-14.16 -0.3,-6.72 -0.05,-13.4 -0.05,-20.33 0,-424.59 0,-849.74 0.02,-1274.34 0,-10.94 0.4,-21.76 0.5,-33.99 30.67,-5.02 60.05,-1.85 89.38,-2.34 28.57,-0.44 57.18,-0.91 87.06,0.91 0.67,6.03 1.6,10.94 1.88,15.69 0.19,8.46 0.11,17.07 0.11,25.39 0,363.84 -0.02,727.93 0.02,1091.63 0,10.81 -1.42,21.87 3,35.58l-0.01 -0.01zm5908.78 179.54c-58.12,0 -112.81,0.11 -167.98,-0.11 -2.92,0 -6.3,-1.31 -9.39,-1.9 -0.9,-3.09 -2.48,-5.43 -2.48,-7.7 -0.16,-442.72 -0.16,-885.27 0,-1327.64 0,-2.42 1.58,-4.83 2.48,-8.29 5.54,-0.79 11.08,-1.85 16.84,-2.05 129.65,-2.92 402.82,-1.46 425.01,2.69 0.9,1.43 2.39,2.87 2.39,4.37 0.31,53.23 0.38,106.61 0.38,159.76 0,3.24 -0.93,6.46 -1,8.53 -1.78,1.63 -2.28,2.51 -2.81,2.9 -0.84,0.41 -1.74,0.55 -2.67,0.58 -2.39,0.43 -4.76,0.85 -7.37,0.85 -59.09,0.17 -186.36,0.49 -245.39,0.76 -0.93,0 -1.83,0.35 -2.76,0.67 -6.41,4.97 -4.45,12.19 -4.5,18.65 -0.09,37.95 -0.05,76.2 -0.05,114.42 0,75.13 0,150.32 0,225.95 0,9.11 0.76,18.19 0.85,28.59 6.2,0.93 11.08,1.83 15.67,1.83 24.64,0.06 49,0 73.8,0.06 6.44,0.06 12.95,0.87 18.48,1.34 1.8,3.22 2.93,4.45 2.93,5.97 0.62,50.74 0.76,101.47 0.76,152.2 0,5.85 -0.6,11.95 -1,18.99 -6.19,0.87 -11.82,2.22 -17.46,2.22 -22.8,0.49 -45.53,0.03 -68.31,0.31 -7.37,0.11 -14.87,0.65 -23.02,1.3 -4.39,10.42 -2.71,20.73 -2.71,30.66 -0.05,177.01 -0.05,353.74 -0.05,530.44 0,10.09 -0.22,20.22 -0.7,33.63l0.02 0.02zm-1896.61 -1345.85c22.86,-3.8 351.23,-4.24 376.9,-0.81 0.82,3.42 2.61,7.13 2.67,11.11 0.32,50.75 0.32,101.59 0.11,152.39 -0.06,3.96 -1.52,7.83 -2.45,13.53 -32.95,0.96 -64.82,0.3 -96.83,0.44 -32.28,0.17 -64.41,0.06 -95.1,0.06 -8.21,9.57 -5.43,19.35 -5.43,28.39 -0.09,98.9 0,197.98 0,297.19 0,15.69 -0.15,32.08 0,47.98 0,4.88 0.93,9.98 1.85,16.2 36.89,3.16 72.87,-0.54 108.36,2.22 1.42,4.18 3.14,6.47 3.14,8.92 0.11,51.59 0.11,103.23 0.11,154.77 0,4.18 -0.93,8.15 -1.58,13.39 -5.17,0.93 -10.06,2.78 -14.92,2.78 -22.7,0.06 -45.4,0 -68.37,0 -8.3,0 -16.61,0.44 -26.25,0.76 -1,7.11 -2.34,12.85 -2.34,18.63 0,125.91 0,251.89 0,378.2 0,5.54 0.93,11.4 1.85,18.45 8.3,0.74 15.67,1.55 23.06,1.61 49,0.15 98.2,0 147.35,0.15 8.24,0.06 16.49,0.44 25.51,1 0.81,5.51 2.11,9.38 2.11,13.65 0.2,53 0.27,106.24 -0.11,158.8 -8.82,7.37 -17.63,4.74 -25.61,4.77 -73.61,0.35 -147.4,0.17 -221.19,0.17 -34.43,0 -69.17,0 -103.99,0 -8.41,0 -16.81,0 -26.05,0 -1.02,-6.14 -2.48,-10.91 -2.76,-15.85 -0.32,-6.63 0,-13.36 0,-20.35 0,-425.41 0,-851.45 0,-1276.88 0,-10.12 0,-20.26 0,-31.68l-0.04 0.02zm-3232.88 1343.04c-5.84,0.59 -9.88,1.55 -14.02,1.55 -53.41,-0.16 -106.58,-0.16 -160.01,-0.52 -1.39,-0.06 -2.78,-1.48 -4.99,-2.84 -0.09,-2.87 -0.81,-6.02 -0.44,-9.5 58.36,-440.15 116.56,-880.15 175.09,-1320.33 0.5,-4.1 2.22,-7.87 3.27,-11.54 19.47,-3.69 144.33,-4.12 171.55,-0.68 1.39,4.85 3.69,10.35 4.53,15.93 10.78,82.09 21.31,164.26 32.36,246.47 12.54,95.6 25.67,190.92 38.28,286.79 11.07,82.99 21.66,166.06 32.6,249.02 10.97,83 22.29,165.9 33.36,248.86 9.22,69.46 18.17,139.19 27.24,208.71 2.49,18.45 5.32,36.91 7.72,55.35 1.23,10.15 1.93,20.22 3.21,31.37 -4.94,1.02 -8.65,2.74 -12.44,2.74 -52.47,0.29 -105.06,0.16 -157.5,0 -2.43,0 -4.81,-0.87 -9.24,-1.67 -7.69,-30.6 -9.15,-62.66 -13.97,-94.17 -5.04,-31.43 -7.83,-63.38 -13.36,-94.13 -19.84,-4.3 -90.45,-4.67 -118.49,-1.22 -7.21,19.64 -5.81,40.87 -9.14,61.44 -3.36,21.86 -4.89,44 -7.54,65.57 -2.69,20.84 -4.53,41.9 -8.04,62.8l-0.03 0zm81.46 -721.09l0 0c-0.47,4.88 -1.23,9.5 -1.41,14.36 -2.48,69.18 -11.43,137.99 -19.37,206.33 -3.71,32.07 -7.41,63.7 -10.61,95.87 -0.81,6.94 -3.69,14.87 2.78,22.95 21.16,0.22 42.75,1.8 64.54,-1.2 0.84,-3.19 2.15,-5.8 1.88,-7.81 -10.58,-108.28 -26.76,-215.86 -32.22,-324.71 -0.06,-1.61 -1.28,-2.92 -2.29,-4.55 -0.38,-0.38 -1.46,-0.56 -3.3,-1.25l0 0zm2660.7 49.1c0,125.04 0,250.06 0,375.49 0,46.65 -3.71,93.14 -16.94,137.96 -5.73,19.35 -12.69,38.45 -21.8,56.65 -27.28,55.22 -71.22,88.81 -132.38,99.6 -38.07,6.78 -75.95,6.44 -112.95,-3.65 -48.33,-12.65 -84.48,-41.57 -109.75,-84.23 -22.46,-38.65 -33.2,-81.19 -39.35,-125.17 -4.44,-31.69 -5.86,-63.64 -5.8,-95.94 0.22,-243.52 0.16,-487.18 0.06,-730.88 0,-46.68 4.39,-93 15.88,-138.21 6.96,-26.28 16.28,-51.65 30.28,-75.05 27.72,-45.76 67.49,-74.69 120.61,-85.17 37.87,-7.64 75.69,-7.42 113.06,1.39 44.72,10.37 80.02,34.76 106.33,72.76 20.74,30.58 32.88,64.6 40.76,100.35 8.8,38.91 11.98,78.4 11.98,118.38 0,125.03 0,250.31 0,375.69l0 0.03zm-178.92 2.81l0 0c0,-22.75 0,-45.4 0,-68.24 0,-120.06 0,-240.24 0,-360.46 0,-12.48 -0.15,-25.31 -2.76,-37.74 -3.9,-20.21 -18.24,-30.67 -37.81,-30.56 -19.44,0.09 -32.77,10.49 -36.89,31.17 -2.07,9.9 -2.61,20.28 -2.61,30.31 -0.17,288.21 -0.17,576.66 -0.17,865.14 0,5.81 -0.15,11.89 0.4,17.8 0.96,7.39 2.39,14.81 4.67,22.15 3.25,9.2 9.7,15.56 18.93,19.04 25.17,9.57 48.88,-2.54 54.04,-29.17 2.22,-12.48 2.22,-25.4 2.22,-37.87 0,-140.53 0,-281.03 0,-421.5l-0.01 -0.05zm1521.7 -674.51c18.17,-2.37 140.8,-3.8 167.15,-2.18 2.92,0.32 6.3,1.39 10.91,2.52 0.15,9.68 0.93,18.71 0.93,27.85 0.11,137.09 0.03,274.25 0.03,411.12 0,221.94 0,443.63 0.06,665.25 0,8.57 -0.65,17.26 0.32,25.61 2.51,22.57 17.25,35.98 38.47,35.98 20.28,0.11 34.98,-11.6 37.98,-33.2 2.27,-14.05 2.92,-28.59 2.92,-43.03 0.27,-351.83 0.22,-704.09 0.22,-1056.08 0.03,-10.78 0.36,-21.78 0.36,-33.33 15.49,-5.05 29.58,-2.29 43.79,-2.78 15.23,-0.44 30.44,-0.05 45.67,-0.05 14.49,0 28.59,-0.17 43.36,0 13.89,0.05 28.37,0.41 43.35,0.54 0.91,6.61 1.85,11.52 2.22,16.28 0.56,5.85 0.16,11.84 0.16,17.85 0,337.8 0.05,675.34 0,1012.96 0,44.22 -4.67,87.63 -15.09,130.8 -5.15,22.31 -13.12,43.51 -23.25,64.03 -30.11,61.48 -79.55,95.48 -146.66,103.69 -35.11,4.06 -70.8,3.09 -105.42,-7.56 -43.35,-13.28 -76.33,-39.15 -100.3,-76.98 -21.8,-34.13 -33.2,-72.2 -39.97,-111.61 -6.79,-37.81 -9.11,-75.62 -9.11,-113.6 -0.22,-333.71 -0.15,-666.83 -0.06,-1000.39 0,-10.86 -1.41,-21.83 1.96,-33.72l0 0.01zm-2530.56 751.54l0 0c-0.58,6.9 -1.52,13.34 -1.64,19.8 -2.26,174.74 -0.71,373.58 3.11,394.25 14.52,2.02 29.47,2.23 44.44,-0.36 14.52,-1.96 25.11,-10.2 28.8,-24.91 2.35,-8.95 3.69,-18.33 3.69,-27.44 0.31,-103.08 0.31,-206.06 0,-309.26 0,-9.2 -1.03,-18.56 -3.57,-27.66 -4.24,-15.09 -15.35,-24 -30.99,-25.83 -14.09,-1.67 -28.53,-2.33 -43.85,1.41l0.02 0zm-0.9 -185.38l0 0c14.82,3.52 27.61,2.28 40.13,2.16 21.93,-0.65 32.3,-9.11 37.35,-30.31 1.41,-5.54 1.9,-11.89 1.9,-17.54 0.15,-98.02 0.31,-196.34 -0.06,-294.21 0,-9.06 -2.28,-18.44 -5.06,-27.2 -3.25,-10.39 -11.55,-17.33 -21.74,-19.51 -17.24,-3.33 -34.68,-4.48 -52.52,1.02 0,128.69 0,255.96 0,385.59l0 -0.01z"/>
  </g>
 </g>
</svg>
