<?xml version="1.0" encoding="UTF-8"?>
<svg xmlns="http://www.w3.org/2000/svg" xmlns:xlink="http://www.w3.org/1999/xlink" id="Groupe_82" data-name="Groupe 82" width="1640" height="489.644" viewBox="0 0 1640 489.644">
  <defs>
    <clipPath id="clip-path">
      <rect id="Rectangle_32" data-name="Rectangle 32" width="1640" height="489.644" fill="#f5ab1c"></rect>
    </clipPath>
  </defs>
  <g id="Groupe_48" data-name="Groupe 48" clip-path="url(#clip-path)">
    <path id="Tracé_19" data-name="Tracé 19" d="M549.186,2.145H658.812l36.944,274.328h6.057L738.757,2.145H848.378V483.527H764.192L767.827,244s.452-5.1-2.627-5.088c-2.666,0-3.433,5.088-3.433,5.088l-36.338,239.53H672.135L635.8,244s-.122-4.863-3.154-4.863S629.737,244,629.737,244l3.635,239.53H549.186Z" transform="translate(791.622 3.092)" fill="#f5ab1c"></path>
    <path id="Tracé_20" data-name="Tracé 20" d="M186.676,396.478h99.286v89.948H96.728V.807h89.948Z" transform="translate(139.428 1.163)" fill="#f5ab1c"></path>
    <path id="Tracé_21" data-name="Tracé 21" d="M189.725,211.423q30.967-30.231,30.965-72.5V105.5q0-43.247-32.193-73.973T110.59.807H0V486.425H110.59q45.711,0,77.907-30.721t32.193-73.971V348.308q0-42.262-30.965-72.743-30.184-29.7-72.989-31.827l0-.735q42.789-2.142,72.987-31.58m-73.339,84c2.114,33.03,7.092,63.739,11.76,92.106a19.057,19.057,0,0,1-2.859,13.972,14.837,14.837,0,0,1-11.763,6.987,19.1,19.1,0,0,1-13.985-2.859,14.781,14.781,0,0,1-6.995-11.751v-6.35c4.658-28.367,9.588-59.076,11.714-92.106a911.988,911.988,0,0,0,0-96.047c-2.127-33.033-7.056-63.732-11.714-92.106A18.971,18.971,0,0,1,95.409,93.3a14.821,14.821,0,0,1,11.76-6.987,19.109,19.109,0,0,1,13.987,2.859,14.819,14.819,0,0,1,6.99,11.751v6.353c-4.668,28.374-9.646,59.073-11.76,92.106a906.755,906.755,0,0,0,0,96.047" transform="translate(0 1.163)" fill="#f5ab1c"></path>
    <path id="Tracé_22" data-name="Tracé 22" d="M395.664,103.674V97.282a14.915,14.915,0,0,0-7.048-11.834,19.141,19.141,0,0,0-14.075-2.878A14.937,14.937,0,0,0,362.688,89.6a19.141,19.141,0,0,0-2.878,14.075c3.079,18.721,6.672,50.572,8.7,59.164s7.007,32.659,13.44,39.407q.714.747,1.489,1.489a58.328,58.328,0,0,0,5.52,4.685c.5.4,1.011.776,1.528,1.133.576.4,1.15.813,1.726,1.211.437.317.894.615,1.35.933a152.909,152.909,0,0,0,19.815,10.86q21.8,10.155,32.181,18.067a86,86,0,0,1,25.75,31.429q8.907,18.582,9.412,30.953l.5,12.368v70.8q0,42.584-30.455,73.041-30.436,30.433-73.021,30.435T304.7,459.209q-30.436-30.466-30.435-73.041V305.979H370.63c-2.441,28.431-6.731,55.113-10.82,79.989v6.414a14.853,14.853,0,0,0,7.048,11.834,19.225,19.225,0,0,0,14.075,2.878,14.963,14.963,0,0,0,11.853-7.048,19.238,19.238,0,0,0,2.878-14.077c-3.633-22.115-7.464-45.643-10-70.6,0,0-1.279-15.811-12.39-23.011-.532-.347-1.011-.793-1.548-1.191-.376-.3-.794-.6-1.191-.874-.5-.337-.994-.693-1.509-1.052-2.82-1.985-6.016-3.989-9.59-6.055-.593-.356-1.211-.715-1.826-1.052-.615-.356-1.25-.7-1.885-1.052s-1.292-.715-1.946-1.072-1.331-.715-2.026-1.072c-2.717-1.45-5.6-2.92-8.674-4.409q-19.805-9.646-32.183-21.043-33.681-31.18-35.635-60.892l-.994-19.317v-69.8q0-42.587,30.435-73.021Q335.161-.011,377.737,0q42.558,0,73.021,30.455,30.466,30.436,30.455,73.021v60.89H386.77c2.461-21.263,5.737-41.514,8.894-60.692" transform="translate(395.332 0)" fill="#f5ab1c"></path>
    <path id="Tracé_23" data-name="Tracé 23" d="M309.147,115.992c3.574,2.065,6.77,4.07,9.59,6.055q-4.23-2.919-9.59-6.055" transform="translate(445.619 167.196)" fill="#f5ab1c"></path>
    <path id="Tracé_24" data-name="Tracé 24" d="M314.883,119.777v.02c-.4-.3-.793-.576-1.191-.894.4.278.815.576,1.191.874" transform="translate(452.17 171.392)" fill="#f5ab1c"></path>
    <path id="Tracé_25" data-name="Tracé 25" d="M318.978,83.432a68.532,68.532,0,0,0,5.52,4.724,58.323,58.323,0,0,1-5.52-4.685Z" transform="translate(459.789 120.263)" fill="#f5ab1c"></path>
    <path id="Tracé_26" data-name="Tracé 26" d="M486.765,103.674V97.282a14.915,14.915,0,0,0-7.048-11.834,19.141,19.141,0,0,0-14.075-2.878A14.937,14.937,0,0,0,453.789,89.6a19.141,19.141,0,0,0-2.878,14.075c3.079,18.721,6.672,50.572,8.7,59.164s7.007,32.659,13.44,39.407q.714.747,1.489,1.489a58.3,58.3,0,0,0,5.52,4.685c.5.4,1.011.776,1.528,1.133.576.4,1.15.813,1.726,1.211.437.317.894.615,1.35.933a152.9,152.9,0,0,0,19.815,10.86q21.8,10.155,32.181,18.067a86,86,0,0,1,25.75,31.429q8.907,18.582,9.412,30.953l.5,12.368v70.8q0,42.584-30.454,73.041-30.436,30.433-73.021,30.435T395.8,459.209q-30.436-30.466-30.435-73.041V305.979h96.369c-2.442,28.431-6.731,55.113-10.821,79.989v6.414a14.854,14.854,0,0,0,7.048,11.834,19.225,19.225,0,0,0,14.075,2.878,14.963,14.963,0,0,0,11.853-7.048,19.238,19.238,0,0,0,2.878-14.077c-3.633-22.115-7.463-45.643-10.005-70.6,0,0-1.279-15.811-12.39-23.011-.532-.347-1.011-.793-1.548-1.191-.376-.3-.794-.6-1.191-.874-.5-.337-.994-.693-1.509-1.052-2.82-1.985-6.016-3.989-9.59-6.055-.593-.356-1.211-.715-1.826-1.052-.615-.356-1.25-.7-1.885-1.052s-1.292-.715-1.946-1.072-1.331-.715-2.026-1.072c-2.717-1.45-5.6-2.92-8.675-4.409q-19.8-9.646-32.183-21.043-33.681-31.18-35.635-60.892l-.994-19.317v-69.8q0-42.587,30.435-73.021Q426.263-.011,468.838,0,511.4,0,541.859,30.455q30.466,30.436,30.454,73.021v60.89H477.871c2.461-21.263,5.737-41.514,8.894-60.692" transform="translate(526.65 0)" fill="#f5ab1c"></path>
    <path id="Tracé_27" data-name="Tracé 27" d="M400.247,115.992c3.574,2.065,6.77,4.07,9.59,6.055q-4.23-2.919-9.59-6.055" transform="translate(576.935 167.196)" fill="#f5ab1c"></path>
    <path id="Tracé_28" data-name="Tracé 28" d="M405.984,119.777v.02c-.4-.3-.794-.576-1.191-.894.4.278.815.576,1.191.874" transform="translate(583.487 171.392)" fill="#f5ab1c"></path>
    <path id="Tracé_29" data-name="Tracé 29" d="M410.079,83.432a68.529,68.529,0,0,0,5.52,4.724,58.314,58.314,0,0,1-5.52-4.685Z" transform="translate(591.107 120.263)" fill="#f5ab1c"></path>
    <path id="Tracé_30" data-name="Tracé 30" d="M361.753,30.8Q331.046.1,286.991.1q-44.071,0-74.757,30.7-30.707,30.7-30.7,74.76V383.8q0,44.06,30.7,74.759t74.757,30.7q44.063,0,74.762-30.7t30.7-74.759V105.555q0-44.06-30.7-74.76m-62.559,365.46c0,6.221-5.464,11.265-12.2,11.265s-12.2-5.044-12.2-11.265V93.147c0-6.223,5.462-11.267,12.2-11.267s12.2,5.044,12.2,11.267Z" transform="translate(261.677 0.143)" fill="#f5ab1c"></path>
    <path id="Tracé_31" data-name="Tracé 31" d="M636.678,30.8Q605.971.1,561.916.1q-44.07,0-74.757,30.7-30.707,30.7-30.7,74.76V383.8q0,44.06,30.7,74.759t74.757,30.7q44.063,0,74.762-30.7t30.7-74.759V105.555q0-44.06-30.7-74.76m-62.56,365.46c0,6.221-5.464,11.265-12.2,11.265s-12.2-5.044-12.2-11.265V93.147c0-6.223,5.464-11.267,12.2-11.267s12.2,5.044,12.2,11.267Z" transform="translate(657.967 0.143)" fill="#f5ab1c"></path>
  </g>
</svg>
