<?xml version="1.0" encoding="UTF-8"?>
<!DOCTYPE svg PUBLIC "-//W3C//DTD SVG 1.1//EN" "http://www.w3.org/Graphics/SVG/1.1/DTD/svg11.dtd">
<!-- Creator: CorelDRAW 2018 (64-Bit) -->
<svg xmlns="http://www.w3.org/2000/svg" xml:space="preserve" width="8.5in" height="3.14476in" version="1.1" style="shape-rendering:geometricPrecision; text-rendering:geometricPrecision; image-rendering:optimizeQuality; fill-rule:evenodd; clip-rule:evenodd"
viewBox="0 0 8500 3144.76"
 xmlns:xlink="http://www.w3.org/1999/xlink">
 <defs>
  <style type="text/css">
   <![CDATA[
    .fil0 {fill:white;fill-rule:nonzero}
   ]]>
  </style>
 </defs>
 <g id="Plan_x0020_1">
  <metadata id="CorelCorpID_0Corel-Layer"/>
  <path class="fil0" d="M1907.54 960.17l165.39 0 0 1235.86 -177.84 0 0 -961.63 -379.94 477.73 -32.65 0 -384.46 -477.73 0 961.63 -176.91 0 0 -1235.86 167.51 0 410.67 507.58 408.24 -507.58 -0.01 0zm1143.11 -786.37l90.14 0 -47.17 -110.44 -42.96 110.44zm70.33 -170.17l123.24 279.08 -56.92 0 -28.92 -67.92 -124.09 0 -26.93 67.92 -56.58 0 115.08 -279.08 55.12 0 -0.01 0zm-353.06 -3.62c15.84,0 31.38,1.81 46.59,5.45 15.19,3.55 31.56,9.7 49.13,18.33l0 50.75c-17.17,-9.89 -33.07,-17.04 -47.68,-21.41 -14.55,-4.37 -29.81,-6.55 -45.63,-6.55 -19.84,0 -37.7,4.09 -53.72,12.26 -15.94,8.19 -28.4,19.76 -37.29,34.65 -8.83,14.91 -13.19,31.51 -13.19,49.73 0,18.66 4.32,35.36 13.07,50.17 8.83,14.76 21.29,26.17 37.25,34.3 16,7.99 33.89,12.03 53.87,12.03 15.36,0 29.98,-2.22 43.89,-6.59 13.91,-4.4 31.44,-12.35 52.58,-23.8l0 50.75c-18.04,9.46 -34.72,16.24 -49.91,20.2 -15.19,3.98 -32.92,5.98 -53.13,5.98 -29.45,0 -55.74,-5.85 -78.95,-17.53 -23.16,-11.8 -41.38,-28.64 -54.6,-50.69 -13.26,-22.02 -19.88,-46.24 -19.88,-72.4 0,-28.11 6.84,-53.37 20.45,-75.75 13.69,-22.37 32.46,-39.57 56.35,-51.65 23.91,-12.16 50.86,-18.26 80.77,-18.26l0.02 0.02zm-260.83 3.6l0 42.19 -126.47 0 0 73.31 121.02 0 0 42.13 -121.02 0 0 79.3 129.2 0 0 42.14 -183.15 0 0 -279.07 180.41 0 0 -0.01zm-282.69 0l0 42.19 -99.06 0 0 236.89 -54.01 0 0 -236.89 -99.07 0 0 -42.19 252.13 0 0.01 0zm-579.37 139.67c0,18.48 4.16,35.19 12.56,49.91 8.37,14.78 20.11,26.26 35.02,34.36 15.02,8.13 31.96,12.15 50.9,12.15 28.64,0 52.12,-8.92 70.6,-26.93 18.41,-17.96 27.64,-41.14 27.64,-69.49 0,-18.53 -4.16,-35.24 -12.53,-50.03 -8.29,-14.84 -19.98,-26.35 -35.12,-34.48 -15.13,-8.13 -32.15,-12.16 -51.02,-12.16 -18.95,0 -35.93,4.09 -51.03,12.28 -15.13,8.17 -26.78,19.64 -34.89,34.36 -8.12,14.72 -12.16,31.37 -12.16,50.03l0.03 -0.01zm98.48 -143.24c28.89,0 54.88,5.95 78,17.89 23.1,11.91 41.45,29.09 55.24,51.54 13.68,22.44 20.52,47.04 20.52,73.82 0,26.07 -6.66,50.28 -20.06,72.58 -13.37,22.34 -31.72,39.63 -55.15,51.94 -23.31,12.35 -49.66,18.48 -78.96,18.48 -28.87,0 -55.22,-6.26 -78.83,-18.78 -23.62,-12.56 -42.1,-29.74 -55.18,-51.65 -13.27,-21.93 -19.81,-46.11 -19.81,-72.58 0,-25.54 6.54,-49.63 19.81,-72.1 13.07,-22.52 31.32,-39.99 54.46,-52.44 23.2,-12.5 49.85,-18.7 79.96,-18.7l-0.02 0zm-484.3 3.57l165.87 194.77 0 -194.77 52.72 0 0 279.06 -46.35 0 -166.79 -197.93 0 197.93 -52.78 0 0 -279.06 47.35 0 -0 0zm-161.82 0l0 42.19 -126.47 0 0 73.31 121.03 0 0 42.13 -121.03 0 0 79.3 129.22 0 0 42.14 -183.16 0 0 -279.07 180.41 0 0 -0.01zm6728.77 3105.28l0 -210.08 466.02 0 0 -2655.27 -4814.14 0 0 -207.97 5021.95 0 0 3073.32 -673.85 0 0.01 0zm-7826.17 -2.17l0 -3071.16 607.28 0 0 207.94 -399.33 0 0 2655.29 2145.4 0 0 207.94 -2353.35 0 0 -0.02zm7393.44 -74.42l90.11 0 -47.16 -110.47 -42.94 110.47 -0.01 0zm70.3 -170.19l123.26 279.08 -56.93 0 -28.92 -67.92 -124.09 0 -26.95 67.92 -56.56 0 115.05 -279.08 55.12 0 0.01 0zm-482.66 0l165.87 194.78 0 -194.78 52.7 0 0 279.05 -46.34 0 -166.84 -197.94 0 197.94 -52.73 0 0 -279.05 47.35 0 -0.01 0zm-283.89 119.03c14.1,0 25.18,-3.55 33.25,-10.56 8.07,-7.07 12.03,-16.73 12.03,-28.99 0,-12.78 -3.96,-22.33 -11.96,-28.63 -7.95,-6.34 -19.35,-9.47 -34.14,-9.47l-33.57 0 0 77.66 34.38 0 0.01 -0.02zm12.15 -119.03c26.23,0 47.57,7.23 64.19,21.81 16.48,14.49 24.72,33.35 24.72,56.74 0,15.79 -4.09,29.61 -12.2,41.45 -8.27,11.8 -20.41,21.05 -36.47,27.83 8.87,4.8 16.81,11.39 23.71,19.57 6.98,8.29 15.48,22.2 25.78,41.78 17,33.79 29.7,57.14 38,69.91l-60.2 0c-4.08,-6.13 -9.72,-15.89 -16.77,-29.39 -15.43,-29.63 -26.78,-49.68 -33.96,-59.97 -7.18,-10.35 -14.07,-17.72 -20.74,-21.97 -6.66,-4.33 -14.31,-6.5 -22.96,-6.5l-19.59 0 0 117.83 -53.94 0 0 -279.08 100.48 0 -0.03 -0.01zm-214.93 0l0 42.2 -126.49 0 0 73.28 121.05 0 0 42.14 -121.05 0 0 79.29 129.3 0 0 42.14 -183.21 0 0 -279.05 180.41 0 0 0.01zm-446.73 236.89c29.81,0 53.77,-8.91 71.84,-26.83 18.01,-17.93 27,-41.42 27,-70.42 0,-30.15 -9.05,-53.86 -27.23,-71.33 -18.19,-17.43 -42.67,-26.14 -73.42,-26.14l-55.52 0 0 194.72 57.31 0 0.02 -0.01zm5.61 -236.91c28.99,0 54.83,5.96 77.51,17.83 22.59,11.79 40.15,28.45 52.72,49.91 12.5,21.45 18.82,45.58 18.82,72.35 0,27.31 -6.38,51.5 -18.95,72.58 -12.63,21.1 -30.44,37.46 -53.65,49.04 -23.16,11.56 -49.69,17.43 -79.66,17.43l-113.69 0 0 -279.14 116.89 0zm-481.09 139.67c0,18.48 4.21,35.2 12.64,49.91 8.35,14.79 20.12,26.25 35,34.38 15.03,8.13 31.89,12.15 50.9,12.15 28.57,0 52.13,-8.93 70.6,-26.93 18.42,-17.95 27.67,-41.15 27.67,-69.5 0,-18.51 -4.14,-35.24 -12.53,-50 -8.29,-14.84 -19.98,-26.35 -35.12,-34.5 -15.14,-8.1 -32.15,-12.15 -51.02,-12.15 -19,0 -36.01,4.06 -51.04,12.26 -15.13,8.19 -26.75,19.65 -34.89,34.38 -8.19,14.71 -12.21,31.36 -12.21,50l0 -0.01zm98.54 -143.26c28.86,0 54.88,5.95 78.03,17.89 23.02,11.93 41.44,29.13 55.15,51.56 13.75,22.42 20.59,47.04 20.59,73.79 0,26.09 -6.66,50.28 -20.05,72.61 -13.37,22.32 -31.74,39.61 -55.18,51.96 -23.31,12.32 -49.69,18.46 -78.94,18.46 -28.94,0 -55.24,-6.26 -78.85,-18.78 -23.61,-12.55 -42.07,-29.73 -55.22,-51.64 -13.21,-21.94 -19.78,-46.14 -19.78,-72.61 0,-25.54 6.57,-49.61 19.78,-72.1 13.15,-22.5 31.39,-39.97 54.53,-52.44 23.2,-12.51 49.79,-18.7 79.95,-18.7l-0.02 0zm-497.47 3.61l91.69 110.1 91.71 -110.1 48.13 0 0 279.05 -53.93 0 0 -195.96 -1.58 0 -80.7 98.31 -7.61 0 -80.72 -98.31 -1.58 0 0 195.96 -53.94 0 0 -279.05 48.52 0zm-511.28 170.19l90.14 0 -47.19 -110.47 -42.95 110.47zm70.3 -170.19l123.33 279.08 -57 0 -28.91 -67.92 -124.06 0 -26.95 67.92 -56.57 0 115.08 -279.08 55.09 0 -0.02 0zm-319.46 279.07l53.95 0 0 -279.08 -53.95 0 0 279.08zm-237.7 -160.04c14.14,0 25.18,-3.55 33.25,-10.56 8.06,-7.07 12.08,-16.73 12.08,-28.99 0,-12.78 -3.97,-22.33 -11.99,-28.63 -7.99,-6.34 -19.4,-9.47 -34.18,-9.47l-33.53 0 0 77.66 34.36 0 0 -0.02zm12.15 -119.03c26.23,0 47.64,7.23 64.18,21.81 16.46,14.49 24.7,33.35 24.7,56.74 0,15.79 -4.08,29.61 -12.21,41.45 -8.24,11.8 -20.4,21.05 -36.48,27.83 8.89,4.8 16.83,11.39 23.73,19.57 6.94,8.29 15.53,22.2 25.78,41.78 17.08,33.79 29.68,57.14 37.93,69.91l-60.07 0c-4.16,-6.13 -9.75,-15.89 -16.78,-29.39 -15.48,-29.63 -26.75,-49.68 -33.96,-59.97 -7.19,-10.35 -14.15,-17.72 -20.81,-21.97 -6.66,-4.33 -14.31,-6.5 -22.95,-6.5l-19.57 0 0 117.83 -53.96 0 0 -279.08 100.48 0 0 -0.01zm-214.93 0l0 42.2 -126.5 0 0 73.28 121.1 0 0 42.14 -121.1 0 0 79.29 129.3 0 0 42.14 -183.17 0 0 -279.05 180.37 0 0 0.01zm-283.53 0l-162.59 236.91 163.4 0 0 42.14 -256.07 0 162.4 -236.86 -152.66 0 0 -42.19 245.52 0 0 0zm-332.62 0l-162.59 236.91 163.4 0 0 42.14 -256.1 0 162.43 -236.86 -152.66 0 0 -42.19 245.52 0 0 0zm-407.61 279.08l53.94 0 0 -279.08 -53.94 0 0 279.08zm-206.93 -159.23c14.37,0 25.59,-3.28 33.65,-9.89 8.07,-6.54 12.11,-16.29 12.11,-29.29 0,-25.64 -16.53,-38.51 -49.57,-38.51l-36.76 0 0 77.67 40.57 0 0 0.02zm13.37 -119.87c26.13,0 47.35,7.61 63.64,22.74 16.29,15.07 24.43,34.6 24.43,58.39 0,24.13 -8.22,43.59 -24.77,58.55 -16.49,14.89 -38.3,22.39 -65.29,22.39l-51.95 0 0 117.06 -53.94 0 0 -279.14 107.89 0 -0.01 0.01zm4424.04 -1189.74l-199.36 -447.62 -184.91 447.62 384.26 0 0.01 0zm-259.91 -719.28l124.33 0 554.09 1242.99 -181.07 0 -164.69 -366.25 -527.29 0 -154.42 366.25 -181.8 0 530.83 -1242.99 0.02 0zm-1697.74 5.31l1065.14 0 -789.53 1080.19 789.53 0 0 157.47 -1115.5 0 790.56 -1080.2 -740.19 0 0 -157.46 -0.02 0zm-377.37 1.77l168.1 0 0 1235.86 -152.21 0 -826.22 -951.81 0 951.81 -166.33 0 0 -1235.86 143.31 0 833.35 959.9 0 -959.9zm-1872.71 150.41c-141.43,0 -257.61,44.25 -348.68,132.73 -90.99,88.43 -136.57,201.41 -136.57,338.81 0,133.3 45.7,244.17 137.05,332.66 91.29,88.41 205.65,132.66 342.9,132.66 137.91,0 252.93,-45.14 345.09,-135.37 92.28,-90.24 138.4,-202.56 138.4,-337.04 0,-130.92 -46.11,-241.09 -138.4,-330.38 -92.17,-89.35 -205.42,-134.07 -339.8,-134.07l0 0.01zm-7.08 -168.09c190.94,0 349.92,60.51 476.96,181.41 127.01,120.87 190.54,272.47 190.54,454.7 0,182.24 -64.11,333.08 -192.28,452.5 -128.22,119.43 -289.82,179.12 -484.92,179.12 -186.26,0 -341.43,-59.68 -465.43,-179.12 -124.07,-119.41 -186.15,-269.09 -186.15,-448.97 0,-184.57 62.47,-337.33 187.43,-458.21 124.95,-120.9 282.88,-181.41 473.85,-181.41l-0 -0.02z"/>
 </g>
</svg>
