<?xml version="1.0" encoding="UTF-8"?>
<!DOCTYPE svg PUBLIC "-//W3C//DTD SVG 1.1//EN" "http://www.w3.org/Graphics/SVG/1.1/DTD/svg11.dtd">
<!-- Creator: CorelDRAW 2018 (64-Bit) -->
<svg xmlns="http://www.w3.org/2000/svg" xml:space="preserve" width="8.5in" height="4.12886in" version="1.1" style="shape-rendering:geometricPrecision; text-rendering:geometricPrecision; image-rendering:optimizeQuality; fill-rule:evenodd; clip-rule:evenodd"
viewBox="0 0 8500 4128.86"
 xmlns:xlink="http://www.w3.org/1999/xlink">
 <defs>
  <style type="text/css">
   <![CDATA[
    .fil0 {fill:#2B2B2D;fill-rule:nonzero}
    .fil2 {fill:#EE4037;fill-rule:nonzero}
    .fil1 {fill:#FEFEFE;fill-rule:nonzero}
   ]]>
  </style>
 </defs>
 <g id="Plan_x0020_1">
  <metadata id="CorelCorpID_0Corel-Layer"/>
  <g id="_1652666521280">
   <path class="fil0" d="M8381.03 2671.39c0,214.92 -158.2,428.88 -351.42,475.56l-3428.27 827.92c-193.23,46.59 -509.42,46.59 -702.67,0l-3428.34 -827.92c-193.23,-46.69 -351.28,-260.64 -351.28,-475.56l0 -1213.86c0,-214.93 158.05,-428.88 351.28,-475.59l3428.39 -827.91c193.21,-46.64 509.39,-46.64 702.61,0l3428.27 827.91c193.21,46.71 351.43,260.67 351.43,475.59l0 1213.86 0 0z"/>
   <path class="fil0" d="M4249.99 4128.84c-142.21,0 -276.89,-13.59 -379.22,-38.26l-3428.41 -827.96c-248.04,-59.85 -442.37,-319.53 -442.37,-591.22l0 -1213.86c0,-271.62 194.31,-531.35 442.37,-591.26l3428.39 -827.93c102.3,-24.73 237.02,-38.34 379.27,-38.34 142.26,0 276.93,13.61 379.26,38.34l3428.27 827.93c248.13,59.95 442.45,319.64 442.45,591.26l0 1213.86c0,271.62 -194.37,531.38 -442.45,591.26l-3428.27 827.91c-102.41,24.69 -237.07,38.28 -379.3,38.28l0.01 -0.01zm0.03 -3890.77l0 0c-122.18,0 -240.06,11.52 -323.39,31.65l-3428.37 827.91c-138.65,33.49 -260.24,201.65 -260.24,359.89l0 1213.86c0,158.23 121.59,326.38 260.2,359.82l3428.4 828.02c83.31,20.05 201.21,31.58 323.37,31.58 122.16,0 240.08,-11.54 323.43,-31.64l3428.27 -827.9c138.66,-33.49 260.26,-201.65 260.26,-359.87l0 -1213.86c0,-158.23 -121.61,-326.38 -260.26,-359.89l-3428.34 -827.92c-83.35,-20.13 -201.21,-31.65 -323.33,-31.65l0 -0.01z"/>
   <path class="fil0" d="M8381.03 2671.39c0,214.92 -158.2,428.88 -351.42,475.56l-3428.27 827.92c-193.23,46.59 -509.42,46.59 -702.67,0l-3428.34 -827.92c-193.23,-46.69 -351.28,-260.64 -351.28,-475.56l0 -1213.86c0,-214.93 158.05,-428.88 351.28,-475.59l3428.39 -827.91c193.21,-46.64 509.39,-46.64 702.61,0l3428.27 827.91c193.21,46.71 351.43,260.67 351.43,475.59l0 1213.86 0 0z"/>
   <path class="fil1" d="M4249.99 4105c-140.4,0 -273.07,-13.33 -373.64,-37.57l-3428.4 -827.93c-237.83,-57.43 -424.17,-306.93 -424.17,-568.11l0 -1213.86c0,-261.12 186.32,-510.67 424.17,-568.11l3428.36 -827.91c100.57,-24.28 233.27,-37.7 373.7,-37.7 140.4,0 273.1,13.41 373.67,37.7l3428.31 827.89c237.87,57.5 424.2,307.02 424.2,568.14l0 1213.86c0,261.11 -186.34,510.69 -424.27,568.11l-3428.24 827.93c-100.59,24.25 -233.28,37.57 -373.7,37.57l0.01 0zm0.03 -3890.8l0 0c-123.99,0 -243.91,11.8 -328.98,32.36l-3428.39 827.96c-150.92,36.46 -278.44,211.84 -278.44,383.01l0 1213.86c0,171.15 127.5,346.55 278.43,382.98l3428.37 827.96c85.05,20.48 205,32.3 328.96,32.3 124.01,0 243.91,-11.8 329.04,-32.3l3428.24 -827.96c151.02,-36.43 278.53,-211.81 278.53,-382.98l0 -1213.86c0,-171.16 -127.56,-346.55 -278.53,-383.03l-3428.3 -827.89c-85.06,-20.61 -204.96,-32.41 -328.94,-32.41l0.01 0z"/>
   <path class="fil2" d="M2515.48 2990.58l105.42 0c67.2,0 115.89,45.3 115.89,108.28 0,61.83 -49.61,108.41 -115.89,108.41l-105.42 0 0 -35.17 23.66 0 0 -146.38 -23.66 0 0 -35.16 0 0.02zm62.22 35.16l0 0 0 146.38 43.51 0c41.92,0 74.55,-30.55 74.55,-72.68 0,-42.63 -31.12,-73.7 -74.55,-73.7l-43.51 0z"/>
   <polygon class="fil2" points="2992.67,3049.72 2992.67,3025.74 2922.69,3025.74 2922.69,3086.42 2975.12,3086.42 2975.12,3120.39 2922.69,3120.39 2922.69,3172.11 2992.67,3172.11 2992.67,3148.11 3025.32,3148.11 3025.32,3207.28 2860.69,3207.28 2860.69,3172.11 2884.47,3172.11 2884.47,3025.74 2860.69,3025.74 2860.69,2990.58 3025.32,2990.58 3025.32,3049.72 "/>
   <polygon class="fil2" points="3157.36,3207.28 3157.36,3172.11 3181.1,3172.11 3181.1,3025.74 3157.36,3025.74 3157.36,2990.58 3252.33,2990.58 3252.33,3025.74 3219.34,3025.74 3219.34,3172.11 3289.32,3172.11 3289.32,3148.11 3321.98,3148.11 3321.98,3207.28 "/>
   <polygon class="fil2" points="3442.57,2990.58 3528.27,2990.58 3528.27,3025.74 3504.52,3025.74 3504.52,3172.11 3528.27,3172.11 3528.27,3207.28 3442.57,3207.28 3442.57,3172.11 3466.3,3172.11 3466.3,3025.74 3442.57,3025.74 "/>
   <path class="fil2" d="M3846.29 3192.77c0,0 -27.44,18.21 -72.5,18.21 -69.99,0 -121.74,-45.3 -121.74,-112.13 0,-62.67 48.4,-111.98 106.04,-111.98 52.99,0 61.96,21.9 63.2,26.19l-2.44 -22.49 34.51 0 0.31 73.32 -34.51 0c-1.28,-25.2 -25.97,-41 -54.58,-41 -44.38,0 -71.2,32.06 -71.2,76.52 0,43.48 35.72,75.51 74.89,75.51 43.78,0 66.27,-14.81 66.27,-14.81l11.76 32.64 0 0.02z"/>
   <path class="fil2" d="M4014.59 2990.58l70.89 0 81.08 181.52 23.41 0 0 35.17 -80.41 0 0 -35.17 16.65 0 -9.85 -22.41 -81.71 0 -9.57 22.41 18.53 0 0 35.17 -81.06 0 0 -35.17 23.39 0 65.65 -146.38 -37 0 0 -35.16 0.03 0.02zm33.33 128.57l0 0 55.44 0 -27.74 -64.76 -27.71 64.76z"/>
   <polygon class="fil2" points="4323.84,3172.11 4347.29,3172.11 4347.29,3025.74 4307.5,3025.74 4307.5,3049.72 4274.79,3049.72 4274.79,2990.58 4457.01,2990.58 4457.01,3049.72 4424.33,3049.72 4424.33,3025.74 4385.83,3025.74 4385.83,3172.11 4409.57,3172.11 4409.57,3207.28 4323.84,3207.28 "/>
   <polygon class="fil2" points="4710.17,3049.72 4710.17,3025.74 4640.26,3025.74 4640.26,3086.42 4692.62,3086.42 4692.62,3120.39 4640.26,3120.39 4640.26,3172.11 4710.17,3172.11 4710.17,3148.11 4742.88,3148.11 4742.88,3207.28 4578.24,3207.28 4578.24,3172.11 4601.97,3172.11 4601.97,3025.74 4578.24,3025.74 4578.24,2990.58 4742.88,2990.58 4742.88,3049.72 "/>
   <path class="fil2" d="M4906.02 3139.51l0 3.98c0,24.66 22.21,31.72 42.26,31.72 24.73,0 35.75,-12.67 35.75,-26.55 0,-14.42 -7.97,-23.06 -47.23,-37.45 -42.11,-16.1 -56.69,-37.41 -56.69,-64.42 0,-30.93 24.05,-59.91 66.61,-59.91 28.03,0 36.97,16.04 37.92,17.57l-2.79 -13.85 34.51 0 0.33 63.8 -34.47 0 0 -10.19c-1.6,-18.17 -16.12,-23.06 -33.39,-23.06 -21.54,0 -30.18,11.35 -30.18,24.61 0,15.15 11.69,24.66 42.28,36.66 48.33,19.02 62.18,37.95 62.18,66.23 0,38.54 -29.26,62.33 -66.81,62.33 -42.24,0 -52.74,-21.52 -52.74,-21.52l2.79 17.82 -34.48 0 -0.38 -67.76 34.55 0 -0.02 -0.01z"/>
   <path class="fil2" d="M5184.46 3139.51l0 3.98c0,24.66 22.17,31.72 42.23,31.72 24.59,0 35.73,-12.67 35.73,-26.55 0,-14.42 -7.91,-23.06 -47.09,-37.45 -42.37,-16.1 -56.78,-37.41 -56.78,-64.42 0,-30.93 24.07,-59.91 66.58,-59.91 28.1,0 37.06,16.04 38,17.57l-2.81 -13.85 34.59 0 0.24 63.8 -34.62 0 0 -10.19c-1.48,-18.17 -16.04,-23.06 -33.23,-23.06 -21.54,0 -30.22,11.35 -30.22,24.61 0,15.15 11.74,24.66 42.21,36.66 48.37,19.02 62.25,37.95 62.25,66.23 0,38.54 -29.3,62.33 -66.85,62.33 -42.25,0 -52.76,-21.52 -52.76,-21.52l2.87 17.82 -34.59 0 -0.24 -67.76 34.48 0 0 -0.01z"/>
   <polygon class="fil2" points="5563.7,3049.72 5563.7,3025.74 5493.63,3025.74 5493.63,3086.42 5546.11,3086.42 5546.11,3120.39 5493.63,3120.39 5493.63,3172.11 5563.7,3172.11 5563.7,3148.11 5596.28,3148.11 5596.28,3207.28 5431.78,3207.28 5431.78,3172.11 5455.43,3172.11 5455.43,3025.74 5431.78,3025.74 5431.78,2990.58 5596.28,2990.58 5596.28,3049.72 "/>
   <polygon class="fil2" points="5874.49,2990.58 5960.21,2990.58 5960.21,3025.74 5936.44,3025.74 5936.44,3207.28 5907.8,3207.28 5790.33,3065.18 5790.33,3172.11 5814.1,3172.11 5814.1,3207.28 5728.36,3207.28 5728.36,3172.11 5752.13,3172.11 5752.13,3025.74 5728.36,3025.74 5728.36,2990.58 5774.64,2990.58 5898.23,3135.15 5898.23,3025.74 5874.49,3025.74 "/>
   <polygon class="fil2" points="3646.81,941.45 3646.81,915.06 3570,915.06 3570,981.72 3627.52,981.72 3627.52,1018.93 3570,1018.93 3570,1075.78 3646.81,1075.78 3646.81,1049.38 3682.67,1049.38 3682.67,1114.35 3502,1114.35 3502,1075.78 3528.05,1075.78 3528.05,915.06 3502,915.06 3502,876.48 3682.67,876.48 3682.67,941.45 "/>
   <path class="fil2" d="M3753.74 1039.92l0 4.39c0,27.07 24.36,34.85 46.35,34.85 27.07,0 39.24,-13.88 39.24,-29.1 0,-15.89 -8.8,-25.37 -51.77,-41.28 -46.35,-17.59 -62.26,-40.94 -62.26,-70.71 0,-33.84 26.39,-65.65 73.09,-65.65 30.8,0 40.61,17.6 41.63,19.28l-3.05 -15.22 37.89 0 0.33 70.05 -37.89 0 0 -11.17c-1.7,-19.96 -17.61,-25.37 -36.54,-25.37 -23.69,0 -33.16,12.51 -33.16,27.07 0,16.58 12.86,26.73 46.36,40.26 53.12,20.63 68.35,41.61 68.35,72.75 0,42.3 -32.14,68.35 -73.43,68.35 -46.35,0 -57.86,-23.68 -57.86,-23.68l3.05 19.63 -37.89 0 -0.33 -74.43 37.89 0 -0 -0.01z"/>
   <polygon class="fil2" points="3958.1,1075.78 3983.81,1075.78 3983.81,915.06 3940.17,915.06 3940.17,941.45 3904.3,941.45 3904.3,876.48 4104.26,876.48 4104.26,941.45 4068.39,941.45 4068.39,915.06 4026.11,915.06 4026.11,1075.78 4052.17,1075.78 4052.17,1114.35 3958.1,1114.35 "/>
   <path class="fil2" d="M4143.52 1119.43c-14.54,0 -25.38,-11.17 -25.38,-25.38 0,-13.88 10.83,-25.37 25.38,-25.37 14.21,0 25.37,11.5 25.37,25.37 0,14.21 -11.17,25.38 -25.37,25.38z"/>
   <polygon class="fil2" points="4313.03,1075.78 4359.06,1075.78 4359.06,929.61 4308.99,948.9 4294.78,913.37 4390.86,876.48 4401,876.48 4401,1075.78 4442.97,1075.78 4442.97,1114.35 4313.03,1114.35 "/>
   <path class="fil2" d="M4486.28 1087.62c50.07,-23 85.26,-54.47 93.72,-80.52 -7.1,9.81 -24.02,22.67 -47.37,22.67 -44.32,0 -73.09,-26.72 -73.09,-77.14 0,-44.66 31.14,-80.19 86.61,-80.19 50.08,0 85.26,35.19 85.26,90.34 0,80.87 -50.07,121.12 -121.47,161.73l-23.68 -36.89 0.01 -0.01zm59.2 -177.63l0 0c-22.33,0 -40.6,14.55 -40.6,42.63 0,28.09 18.27,42.98 40.6,42.98 22.33,0 40.27,-15.23 40.27,-42.98 0,-27.75 -17.93,-42.63 -40.27,-42.63z"/>
   <path class="fil2" d="M4683.2 1087.62c50.07,-23 85.26,-54.47 93.72,-80.52 -7.09,9.81 -24.02,22.67 -47.37,22.67 -44.32,0 -73.09,-26.72 -73.09,-77.14 0,-44.66 31.14,-80.19 86.63,-80.19 50.07,0 85.26,35.19 85.26,90.34 0,80.87 -50.07,121.12 -121.47,161.73l-23.69 -36.89 -0 -0.01zm59.21 -177.63l0 0c-22.33,0 -40.6,14.55 -40.6,42.63 0,28.09 18.26,42.98 40.6,42.98 22.33,0 40.26,-15.23 40.26,-42.98 0,-27.75 -17.93,-42.63 -40.26,-42.63z"/>
   <path class="fil2" d="M4970.46 872.43c69.37,0 113.69,51.77 113.69,122.83 0,70.05 -39.59,123.15 -113.69,123.15 -74.1,0 -115.03,-52.77 -115.03,-123.15 0,-68.7 45.68,-122.83 115.03,-122.83zm0.33 209.1l0 0c42.63,0 68.36,-37.22 68.36,-85.59 0,-48.73 -25.72,-85.6 -68.36,-85.6 -42.63,0 -70.05,36.88 -70.05,85.6 0,47.72 27.4,85.59 70.05,85.59z"/>
   <path class="fil1" d="M1751.81 1613.12c-83.5,-97.02 -187.46,-152.34 -287.74,-152.34l-102.06 0 0 1121.84 253.98 0 0 -748.98c43.97,67.08 135.81,239.57 135.81,508.83l0 240.13 253.97 0 0 -1121.98 -253.97 0 0 152.46 0 0.02z"/>
   <path class="fil1" d="M4911.38 2357.65c0,196.77 152.39,226.12 243.28,226.12l279.43 0 0 -228.14 -270.56 0 0 -244.33 240.86 0 0 -221.08 -240.86 0 0 -201.31 270.56 0 0 -228.27 -522.71 0 0 897.02 0 -0.02z"/>
   <path class="fil1" d="M6066 2352.02c-0.2,-7.02 -0.2,-14.68 -0.2,-20.1l0 -872.19 -253.65 0 0 872.19c0,56.16 0,114.31 58.85,178.09 54.43,62.48 142.8,70.45 213.69,70.45l230.67 0 0 -227.94 -230.67 0c-7.91,0 -13.98,-0.2 -18.7,-0.49l0 -0.01z"/>
   <path class="fil1" d="M4264.63 1732.2c0,22.98 0,54.48 -36.63,89.3 -6.95,6.87 -14.73,13.24 -23.96,19.59l0 -380.44 -254.99 0 0 1121.98 254.99 0 0 -419.85c9.61,6.34 17.01,12.18 23.32,18.37 37.25,35.47 37.25,66.94 37.25,89.93 0,0.07 0.63,304.12 0.63,304.12l0.02 7.09 254.44 0.31 1.7 -98.19 0 -235.65c0,-87.74 -52.79,-183.8 -135.18,-247.1 82.39,-63.43 135.18,-159.53 135.18,-247.24l0 -293.85 -256.78 0 0 271.62 0.01 0.01z"/>
   <polygon class="fil1" points="2406.18,2582.05 2660.14,2582.05 2660.14,1460.65 2406.18,1460.65 "/>
   <path class="fil1" d="M3320.97 1453.24c-135.69,0 -273.07,91.39 -273.07,266.13l0 609.53c0,174.7 137.38,266.09 273.07,266.09 135.63,0 272.92,-91.39 272.92,-266.09l0 -59.1 -247.3 -0.18 0 59.24c0,26.63 -5.09,26.63 -23.88,26.63 -18.96,0 -24.05,0 -24.05,-26.63l0 -609.47c0,-26.62 5.07,-26.62 24.05,-26.62 18.79,0 23.88,0 23.88,26.62l0 59.24 247.3 -0.17 0 -59.1c0,-174.74 -137.3,-266.13 -272.92,-266.13l0 0.02z"/>
   <path class="fil1" d="M7120.33 2116.69c-40.07,-102.78 -110.11,-150.69 -172.08,-193.11 -49.61,-33.92 -88.84,-60.73 -106.84,-111.61 -5.67,-16.37 -5.53,-42.93 -5.37,-73.71l0.07 -16.35c0,-26.63 5.11,-26.63 23.95,-26.63 18.89,0 23.96,0 23.96,26.63l0 59.26 247.31 -0.21 0 -59.13c0,-174.72 -137.33,-266.11 -272.93,-266.11 -135.68,0 -272.97,91.39 -272.97,266.11 0,84.54 3.72,139.57 23.25,188.1 38.37,95.41 105.68,138.05 165.03,175.72 53.4,33.8 95.59,60.48 114.73,122.98 5.86,18.96 5.65,47.03 5.44,82.56l-0.1 21.13c0,24.7 -14.96,26.74 -31.61,26.74 -16.65,0 -31.58,-2.04 -31.58,-26.74l0 -59.24 -247.31 0.11 0 59.17c0,172.88 144.59,266.13 280.66,266.13 131.78,0 273.63,-81.44 273.63,-260.21l0.21 -38.06c0.72,-61.91 1.35,-115.34 -17.43,-163.54l-0.02 0.01z"/>
  </g>
 </g>
</svg>
