<?xml version="1.0" encoding="UTF-8"?>
<!DOCTYPE svg PUBLIC "-//W3C//DTD SVG 1.1//EN" "http://www.w3.org/Graphics/SVG/1.1/DTD/svg11.dtd">
<!-- Creator: CorelDRAW 2018 (64-Bit) -->
<svg xmlns="http://www.w3.org/2000/svg" xml:space="preserve" width="8.5in" height="6.25984in" version="1.1" style="shape-rendering:geometricPrecision; text-rendering:geometricPrecision; image-rendering:optimizeQuality; fill-rule:evenodd; clip-rule:evenodd"
viewBox="0 0 8500 6259.84"
 xmlns:xlink="http://www.w3.org/1999/xlink">
 <defs>
  <style type="text/css">
   <![CDATA[
    .fil0 {fill:black;fill-rule:nonzero}
    .fil2 {fill:#23AD4A;fill-rule:nonzero}
    .fil4 {fill:#E63027;fill-rule:nonzero}
    .fil1 {fill:#E63027;fill-rule:nonzero}
    .fil3 {fill:white;fill-rule:nonzero}
    .fil5 {fill:white;fill-rule:nonzero}
   ]]>
  </style>
 </defs>
 <g id="Plan_x0020_1">
  <metadata id="CorelCorpID_0Corel-Layer"/>
  <path class="fil0" d="M215.75 2324.22l-37.96 0 0 1321.86 598.39 0 0 -500.61 104.59 0c57.61,0 111.09,-2.65 159.01,-7.79 47.52,-5.1 90.41,-12.52 127.26,-22.1 0.56,-0.3 1.94,-0.88 2.53,-0.88 22.66,-6.79 47.21,-15.02 70.84,-25.7 21.77,-9.84 43.17,-21.99 62,-37.4l121.42 -99.36 0 693.84 594.77 0 0 -272.24 148.43 -3.19 0.14 3.19 0.16 0 0 3.31c1.1,22.59 2.92,46.76 5.81,70.45l0 0.29c2.2,18.12 4.98,34.32 8.48,46.54l-0.14 0.04 1.21 3.29 -0.15 0.06c8.6,22.79 22,40.82 36.45,55.11 16.1,15.91 33.96,27.82 48.89,36.77 21.09,12.66 43.8,22.82 67.92,30.39 24.17,7.6 49.76,12.52 76.57,14.69l4.65 0.59c24.98,3.6 57.58,6.33 97.45,8.12 38.6,1.74 88.55,2.62 149.5,2.62l242.55 0 0 -144.59 119.09 89.77c7.63,5.75 14.54,10.37 20.74,14.02 7.02,4.13 15.04,8.16 23.59,12l1.45 0.7c38.49,15.4 79.04,27.01 121.3,34.76 41.97,7.69 86.75,11.57 133.99,11.57 34.57,0 64.61,-2.41 90.74,-6.1 25.7,-3.63 49.61,-8.85 71,-14.32l92.66 -23.72 0 25.91 619.75 0 17.67 10.46c33.29,19.7 68.9,39.22 106.71,58.47 38.94,19.85 77.7,38.24 116.14,55.13 212.5,93.39 466.17,169.09 748.16,220.85 270.53,49.66 567.85,77.23 880.66,77.23 304.13,0 595.27,-27.83 861.42,-77.94 276.97,-52.16 527.13,-128.26 736.89,-222.04 213.25,-95.34 384.89,-209.29 501.05,-335.45 105.52,-114.6 164.03,-238.83 164.03,-367.14 0,-138.29 -57.65,-269.7 -161.73,-389.5 -113.75,-130.94 -282.68,-248.23 -493.11,-346.33 -209.38,-97.6 -459.34,-175.99 -736.09,-229.5 -269.29,-52.07 -564.3,-80.68 -872.46,-80.68 -316.69,0 -617.78,28.36 -891.48,80 -282.47,53.3 -535.98,131.21 -747.52,228.14 -80.23,36.76 -155.12,76.78 -223.89,119.67 -67.37,42.02 -127.75,86.19 -180.4,132.14l-35.09 30.63 -47.46 -20.16c-45.56,-18.92 -100.22,-33.15 -164.9,-42.76 -66.82,-9.93 -144.37,-14.83 -233.53,-14.83 -78.41,0 -147.19,4.19 -207.14,12.65 -58.89,8.32 -109.85,20.64 -153.61,37.04l-0.88 0.29c-38.67,13.94 -72.99,29.67 -102.63,47.03 -27.8,16.28 -51.26,33.98 -70.13,52.91l-126.93 127.42 0 -237.15 -138.84 0 0 -157.12 -727.14 0 0 -91.37 -594.77 0 0 224.47 -124.02 -112.02c-3.35,-3.03 -8.28,-7.16 -14.63,-12.29 -4.43,-3.57 -9.96,-7.78 -16.53,-12.55l0.1 -0.15c-19.54,-13.5 -42.7,-25.06 -71.2,-35.28 -31.13,-11.18 -69.11,-20.84 -115.75,-29.71l-0.3 0c-182.2,-34.78 -438.47,-29.8 -663.28,-25.44 -79.06,1.54 -154.74,3.01 -202.46,3.01zm-112.32 -148.72l112.32 0c76.08,0 136.71,-1.19 200.13,-2.41 232.5,-4.51 497.54,-9.66 693.51,27.75 53.32,10.2 98.56,21.91 138.11,36.12 9.56,3.43 18.75,7 27.62,10.72l0 -72.21 892.21 0 0 91.37 727.15 0 0 157.12 138.84 0 0 63c30.36,-15.89 63.8,-30.44 100.15,-43.59 54.28,-20.39 115.63,-35.41 184.97,-45.2 68.3,-9.65 143.81,-14.41 227.48,-14.41 95.58,0 180.25,5.48 255.02,16.59 60.71,9.02 114.86,21.83 163,38.48 50.43,-41.16 105.55,-80.37 164.94,-117.42 72.81,-45.41 153.32,-88.33 240.73,-128.38 222.67,-102.04 487.82,-183.73 781.79,-239.19 283.65,-53.52 594.02,-82.91 918.78,-82.91 316.86,0 621.34,29.64 900.35,83.58 289.41,55.96 551.2,138.13 770.93,240.56 228.58,106.56 414.35,236.58 542.49,384.08 127.65,146.93 198.34,310.91 198.34,486.52 0,167.39 -72.6,325.42 -203.54,467.63 -129.77,140.93 -318.07,266.69 -549.85,370.32 -220.39,98.54 -481.82,178.23 -770,232.5 -276.06,51.97 -576.52,80.85 -888.71,80.85 -320.22,0 -626.67,-28.61 -907.39,-80.14 -293.51,-53.89 -558.24,-132.97 -780.69,-230.74 -44.71,-19.64 -86.19,-39.2 -124.26,-58.61 -32.98,-16.8 -65.35,-34.37 -96.98,-52.66l-664.83 0c-17.47,3.79 -36.8,7.35 -58.26,10.38 -33.68,4.75 -70.79,7.86 -111.08,7.86 -54.48,0 -108.19,-4.85 -160.71,-14.47 -38.11,-6.99 -75.08,-16.51 -110.73,-28.53l0 24.77 -391.27 0c-56.44,0 -108.52,-1.07 -155.89,-3.22 -44.27,-2 -80.58,-4.95 -108.54,-8.81 -37.35,-3.1 -73.43,-10.14 -107.89,-20.97 -34.92,-10.97 -68.31,-25.98 -99.86,-44.93 -7.68,-4.6 -15.9,-9.76 -24.45,-15.57l0 93.48 -892.21 0 0 -559.35c-21.76,8.56 -43,15.51 -62.87,21.47 -2.08,0.73 -4.43,1.33 -6.59,1.75 -44.74,11.74 -95.35,20.66 -150.2,26.56 -41.65,4.46 -85.4,7.3 -130.54,8.42l0 501.15 -895.84 0 0 -1619.31 74.36 0z"/>
  <path class="fil1" d="M215.75 2249.86l-112.32 0 0 112.28 0 1246.04 0 112.28 112.32 0 522.52 0 112.28 0 0 -112.28 0 -388.34 30.22 0c118.45,0 224.35,-11.37 306.29,-32.89l1.85 -0.53 1.85 -0.56c50.58,-15.15 110.23,-37.07 158.7,-76.74l0 499.02 0 112.31 112.28 0 518.89 0 112.32 0 0 -112.31 0 -234.3c2.2,50.56 7.03,105.29 17.2,140.91l1.26 4.31 1.57 4.24c25.96,69.25 79.11,107.34 116.84,129.98 52.67,31.61 112.11,50.29 176.73,55.54 53.4,7.71 139.97,11.62 257.41,11.62l204.62 0 112.28 0 0 -69.93c19.39,14.61 39.41,25.84 58.56,34.46l2.14 0.96 2.22 0.89c86.01,34.43 181.18,51.86 282.88,51.86 74.9,0 134.18,-11.02 180.04,-22.76l0 4.52 112.28 0 493.3 0 68.44 0c70.59,41.78 147.81,81.11 230.99,117.67 425.82,187.15 1011.47,304.48 1658.45,304.48 629.39,0 1207.1,-118.24 1628.51,-306.67 436.49,-195.17 709.24,-468.63 709.24,-770.28 0,-320.78 -268.01,-602.84 -697.83,-803.22 -422.35,-196.9 -1004.73,-317.16 -1639.92,-317.16 -652.44,0 -1242.73,119.43 -1669.79,315.12 -167.14,76.59 -309.78,165.21 -422.29,263.41l-5.31 -2.26c-102.52,-42.7 -242.11,-63.45 -426.87,-63.45 -162.08,0 -288.54,17.88 -386.6,54.64 -86.3,31.11 -153.71,70.54 -200.35,117.37l0 -19.53 0 -112.27 -112.32 0 -26.52 0 0 -44.85 0 -112.28 -112.31 0 -504.24 0 -110.59 0 0 -91.37 -112.32 0 -518.89 0 -112.28 0 0 112.31 0 19.61c-11.35,-10.24 -23.75,-20.24 -37.26,-30.06 -50.28,-35.19 -116.63,-58.89 -216.77,-77.93 -248.02,-47.35 -619.08,-23.89 -879.69,-23.89z"/>
  <path class="fil2" d="M6069.41 4046.15c1198.05,0 2194.59,-448.81 2194.59,-981.31 0,-574.33 -996.54,-1023.11 -2194.59,-1023.11 -1236.17,0 -2232.67,448.78 -2232.67,1023.11 0,532.5 996.5,981.31 2232.67,981.31z"/>
  <path class="fil3" d="M5358.69 2611.15c23.74,15.82 35.56,43.47 35.56,90.89l0 110.69c0,51.35 -11.82,82.99 -31.6,98.8 -19.73,15.79 -55.32,23.69 -106.7,23.69l-43.48 0 0 -343.85c75.07,0 122.54,7.9 146.22,19.77zm-711.44 1094.81l565.22 0 0 -541.44 150.18 0c126.48,0 225.28,-11.88 304.35,-31.65 75.11,-19.78 126.48,-51.38 158.08,-90.89 27.69,-39.55 43.47,-98.83 43.47,-185.77l0 -118.61c0,-82.98 -7.92,-146.22 -23.69,-185.73 -15.82,-39.52 -43.51,-75.11 -83.02,-102.76 -43.46,-27.69 -106.7,-51.41 -189.68,-63.24 -83.02,-15.82 -201.59,-23.72 -355.72,-23.72l-569.18 0 0 1343.82z"/>
  <path class="fil3" d="M6572.09 2536.05l-557.26 0 0 -173.91 557.26 0 0 173.91zm0 1169.91l-557.26 0 0 -1098.77 557.26 0 0 1098.77z"/>
  <path class="fil3" d="M7342.82 2457.01l0 173.9 146.25 0 0 173.91 -146.25 0 0 588.91c0,75.1 3.94,114.62 15.82,122.54 15.82,7.91 63.24,11.86 154.12,11.86l0 177.86 -221.32 0c-122.53,0 -209.51,-4 -264.8,-7.95 -51.41,-7.87 -98.8,-19.74 -138.39,-43.43 -43.46,-23.77 -67.15,-51.42 -79.02,-79.06 -7.91,-31.64 -11.83,-98.8 -11.83,-209.5l0 -561.22 -118.57 0 0 -173.91 118.57 0 0 -173.9 545.41 0z"/>
  <g id="_1731079061072">
   <path class="fil3" d="M159.6 3664.31l0 -1358.31 585.96 0c147.6,0 258.58,7.5 339.39,22.91 90.68,17.24 152.15,38.75 193.43,67.6 50.53,36.77 82.17,74.75 100.33,120.19l1.66 4.68c13.48,45.09 20.63,109.98 20.63,187.87l0 109.65c0,100.14 -16.19,165.07 -52.51,210.48 -30.19,43.33 -84.48,75.87 -173.87,102.71 -79.14,20.87 -180.11,31.6 -293.84,31.6l-86.37 0 0 500.61 -634.8 0zm634.8 -828.85c31.96,-1.42 47.5,-6.91 51.38,-9.32l-0.05 0c-0.64,0 4.48,-10.17 4.48,-43.84l0 -102.26c0,-20.66 -3.15,-32.57 -5.25,-37.46 -6.98,-2.78 -20.82,-5.77 -50.57,-7.38l0 200.26z"/>
   <path class="fil4" d="M745.57 2362.14c142.51,0 252.12,7.26 328.85,21.92 76.75,14.61 135.2,32.89 171.76,58.47 40.19,29.23 65.78,58.45 80.39,95.01 10.94,36.52 18.25,94.96 18.25,171.73l0 109.61c0,80.39 -10.94,138.87 -40.17,175.4 -25.58,36.52 -73.08,62.11 -146.17,84.03 -69.42,18.28 -164.42,29.25 -277.71,29.25l-142.5 0 0 500.61 -522.52 0 0 -1246.04 529.82 0zm-7.3 529.83l40.19 0c47.51,0 84.03,-7.31 102.31,-21.92 18.25,-14.65 25.59,-43.86 25.59,-87.7l0 -102.31c0,-43.86 -10.98,-73.08 -29.22,-84.06 -21.95,-14.61 -69.46,-18.24 -138.87,-18.24l0 314.23zm7.3 -642.11l-529.82 0 -112.32 0 0 112.28 0 1246.04 0 112.28 112.32 0 522.52 0 112.28 0 0 -112.28 0 -388.34 30.22 0c118.45,0 224.35,-11.37 306.29,-32.89l1.85 -0.53 1.85 -0.56c67.92,-20.34 152.19,-52.87 203.81,-124.26 55.37,-71.48 62.56,-167.09 62.56,-242.72l0 -109.61c0,-83.31 -7.95,-153.81 -22.99,-204.02l-1.42 -4.77 -1.9 -4.63c-22.23,-55.74 -59.97,-101.51 -118.61,-144.17 -50.28,-35.19 -116.63,-58.89 -216.77,-77.93 -84.3,-16.09 -198.76,-23.89 -349.87,-23.89z"/>
   <polygon class="fil3" points="1405.62,2305.96 2036.78,2305.96 2036.78,3664.28 1405.62,3664.28 "/>
   <path class="fil4" d="M1980.64 2526.57l-518.89 0 0 -164.43 518.89 0 0 164.43zm0 1081.57l-518.89 0 0 -1019.46 518.89 0 0 1019.46zm112.32 -1358.31l-112.32 0 -518.89 0 -112.28 0 0 112.31 0 164.43 0 112.28 0 969.3 0 112.31 112.28 0 518.89 0 112.32 0 0 -112.31 0 -1019.46 0 -112.32 0 -114.22 0 -112.31z"/>
   <path class="fil3" d="M2663.96 3664.31c-116.07,0 -200.55,-3.8 -251.11,-11.3 -56.5,-4.32 -108.36,-20.42 -154.13,-47.83 -49.15,-29.54 -77.89,-60.86 -93.15,-101.66 -11.9,-40.92 -18.16,-119.11 -18.16,-213.26l0 -462.71 -105.98 0 0 -273.07 105.98 0 0 -157.15 616.56 0 0 157.15 138.83 0 0 273.07 -138.83 0 0 491.93c0,32.94 1.97,52.99 3.75,64.42 14.89,1.81 43.99,3.7 100.86,3.7l56.14 0 0 276.7 -260.76 0z"/>
   <path class="fil4" d="M2707.8 2453.48l0 157.12 138.83 0 0 160.78 -138.83 0 0 548.11c0,65.75 7.3,102.31 18.28,109.62 10.94,10.94 58.47,14.61 142.5,14.61l0 164.42 -204.62 0c-113.28,0 -197.31,-3.64 -244.81,-10.94 -51.17,-3.67 -95.04,-18.28 -131.57,-40.2 -36.52,-21.91 -58.47,-43.86 -69.41,-73.09 -7.31,-25.58 -14.61,-91.33 -14.61,-193.64l0 -518.89 -105.98 0 0 -160.78 105.98 0 0 -157.12 504.24 0zm112.31 -112.28l-112.31 0 -504.24 0 -112.32 0 0 112.28 0 44.85 -105.95 0 0 112.27 0 160.78 0 112.28 105.95 0 0 406.61c0,59.09 2.46,166.8 18.92,224.48l1.26 4.31 1.57 4.24c25.96,69.25 79.11,107.34 116.84,129.98 52.67,31.61 112.11,50.29 176.73,55.54 53.4,7.71 139.97,11.62 257.41,11.62l204.62 0 112.28 0 0 -112.32 0 -164.42 0 -112.28 -112.28 0c-19.65,0 -35.56,-0.24 -48.39,-0.56 -0.08,-3.59 -0.08,-7.39 -0.08,-11.38l0 -435.83 26.52 0 112.32 0 0 -112.28 0 -160.78 0 -112.27 -112.32 0 -26.52 0 0 -44.85 0 -112.28z"/>
   <path class="fil3" d="M3326.65 3682.56c-94.44,0 -182.57,-16.11 -262,-47.83 -96.9,-43.59 -144.93,-128.42 -144.93,-253.08l0 -84.11c0,-96.34 26.71,-162.57 81.6,-202.48 18.4,-13.44 49.8,-31.72 120.31,-55.57l-201.91 0 0 -125.59c0,-90.13 17.43,-160.06 53.26,-213.87 39.96,-55 109.09,-99.72 206.73,-134.91 90.96,-34.15 210.94,-50.85 366.17,-50.85 177.14,0 309.68,19.32 405.25,59.08 124.7,52.03 171.31,120.16 188.46,168.14l1.37 4.48c17.67,66.47 27.44,191.02 27.44,350.63l0 567.72 -605.58 0 0 -29.74c-13,7.07 -26.6,13.28 -40.65,18.69l-4.68 1.57c-45.07,12.92 -107.52,27.73 -190.86,27.73zm183.27 -296.96c3.55,0.85 10.2,1.98 21.35,1.98 7.47,0 12.76,-0.19 16.51,-0.52 1.98,-10.01 4.07,-27.32 4.07,-52.94l0 -120.47c-24.41,14.61 -30.75,22.04 -32.12,24.09 -11.74,20.98 -16.35,45.81 -16.35,81.72 0,39.56 4.2,58.64 6.54,66.15zm-3.27 -578.74c-0.61,5.17 -3.27,23.69 -3.27,70.5l0 59.65c22.89,-6.9 36.13,-11.62 43.71,-14.89 2.06,-6.66 4.76,-20.13 4.76,-44.76 0,-50.85 -7.95,-65.59 -8.03,-65.74 -1.93,-2.06 -6.94,-6.01 -19.85,-6.01 -8.16,0 -13.76,0.64 -17.32,1.25z"/>
   <path class="fil4" d="M3545.9 2570.39c168.09,0 295.98,18.28 383.69,54.81 87.65,36.56 138.84,84.06 157.12,135.2 14.61,54.81 25.58,168.09 25.58,336.19l0 511.55 -493.3 0 0 -91.33c-29.22,36.52 -69.41,65.78 -116.92,84.02 -51.17,14.61 -105.98,25.59 -175.39,25.59 -87.7,0 -168.1,-14.61 -241.19,-43.83 -73.06,-32.89 -109.62,-98.69 -109.62,-200.99l0 -84.02c0,-76.76 18.28,-127.9 58.48,-157.12 40.2,-29.27 135.16,-62.16 288.69,-98.67 168.06,-40.2 255.76,-65.8 266.73,-80.4 10.94,-14.61 18.25,-40.19 18.25,-84.06 0,-51.14 -7.31,-87.66 -21.92,-102.27 -10.97,-14.65 -32.89,-25.59 -62.11,-25.59 -32.89,0 -54.81,7.3 -62.11,21.91 -10.98,14.62 -14.61,47.51 -14.61,105.95l0 105.98 -471.39 0 0 -69.42c0,-80.36 14.61,-138.83 43.87,-182.7 29.22,-40.2 87.7,-80.36 179.03,-113.3 87.7,-32.89 204.62,-47.5 347.13,-47.5zm-14.62 873.33c32.9,0 51.18,-3.67 62.12,-18.28 7.3,-10.94 14.61,-40.2 14.61,-91.34l0 -211.97c-80.4,36.57 -127.9,65.83 -138.84,91.37 -14.61,25.59 -21.91,58.48 -21.91,105.98 0,54.81 7.3,87.7 18.24,102.31 10.98,14.61 32.89,21.92 65.78,21.92zm14.62 -985.6c-162.08,0 -288.54,17.88 -386.6,54.64 -107.07,38.59 -185.08,90 -230.41,152.44l-1.34 1.82 -1.24 1.85c-42.22,63.28 -62.76,143.44 -62.76,245.02l0 69.42 0 112.32 57.56 0c-38.22,49.93 -57.56,117.52 -57.56,201.95l0 84.02c0,185.38 95.65,267.3 175.88,303.38l2.14 0.96 2.22 0.89c86.01,34.43 181.18,51.86 282.88,51.86 74.9,0 134.18,-11.02 180.04,-22.76l0 4.52 112.28 0 493.3 0 112.29 0 0 -112.32 0 -511.55c0,-116.35 -5.09,-274.11 -29.35,-365.12l-1.21 -4.48 -1.57 -4.36c-20.95,-58.68 -76.08,-141.25 -219.68,-201.06 -102.52,-42.7 -242.11,-63.45 -426.87,-63.45z"/>
   <polygon class="fil4" points="2774.35,2840.02 2774.35,3384.05 2879.17,3384.05 2921.59,3204.38 2975.88,3087.09 2919.09,2985.15 2909.12,2864.96 2911.62,2825.04 "/>
  </g>
  <g id="_1731079051760">
   <path class="fil5" d="M7609.28 3655.67l0 -78.76 34.91 0c7.02,0 12.35,0.72 16,2.13 3.65,1.41 6.56,3.9 8.74,7.48 2.18,3.57 3.26,7.54 3.26,11.86 0,5.59 -1.81,10.3 -5.43,14.13 -3.61,3.83 -9.18,6.25 -16.74,7.3 2.77,1.32 4.86,2.64 6.29,3.93 3.04,2.78 5.92,6.29 8.62,10.48l13.62 21.45 -13.02 0 -10.41 -16.39c-3.03,-4.75 -5.54,-8.36 -7.5,-10.87 -1.98,-2.51 -3.74,-4.25 -5.3,-5.26 -1.54,-0.99 -3.13,-1.69 -4.75,-2.09 -1.17,-0.24 -3.09,-0.37 -5.79,-0.37l-12.06 0 0 34.98 -10.45 0zm10.45 -44l22.37 0c4.77,0 8.47,-0.5 11.15,-1.48 2.68,-0.97 4.71,-2.55 6.09,-4.73 1.39,-2.16 2.09,-4.51 2.09,-7.06 0,-3.72 -1.34,-6.8 -4.04,-9.2 -2.69,-2.4 -6.94,-3.59 -12.76,-3.59l-24.9 0 0 26.07z"/>
   <path class="fil5" d="M7636.62 3542.99c20.29,0 38.69,8.24 51.98,21.53 13.31,13.32 21.55,31.71 21.55,52 0,20.3 -8.24,38.7 -21.53,51.99 -13.31,13.31 -31.71,21.55 -52,21.55 -20.3,0 -38.7,-8.24 -51.99,-21.53 -13.31,-13.32 -21.55,-31.72 -21.55,-52.02 0,-20.29 8.24,-38.68 21.53,-51.98 13.31,-13.31 31.72,-21.55 52.01,-21.55zm44.65 28.88c-11.43,-11.41 -27.23,-18.48 -44.65,-18.48 -17.43,0 -33.24,7.08 -44.67,18.48 -11.4,11.43 -18.48,27.23 -18.48,44.65 0,17.44 7.08,33.24 18.48,44.67 11.43,11.4 27.23,18.48 44.67,18.48 17.42,0 33.22,-7.08 44.65,-18.48 11.41,-11.43 18.48,-27.24 18.48,-44.67 0,-17.42 -7.08,-33.22 -18.48,-44.65z"/>
  </g>
 </g>
</svg>
