<?xml version="1.0" encoding="UTF-8"?>
<!DOCTYPE svg PUBLIC "-//W3C//DTD SVG 1.1//EN" "http://www.w3.org/Graphics/SVG/1.1/DTD/svg11.dtd">
<!-- Creator: CorelDRAW 2018 (64-Bit) -->
<svg xmlns="http://www.w3.org/2000/svg" xml:space="preserve" width="8.5in" height="3.3822in" version="1.1" style="shape-rendering:geometricPrecision; text-rendering:geometricPrecision; image-rendering:optimizeQuality; fill-rule:evenodd; clip-rule:evenodd"
viewBox="0 0 8500 3382.2"
 xmlns:xlink="http://www.w3.org/1999/xlink">
 <defs>
  <style type="text/css">
   <![CDATA[
    .fil0 {fill:black}
    .fil1 {fill:#FEFEFE}
   ]]>
  </style>
 </defs>
 <g id="Plan_x0020_1">
  <metadata id="CorelCorpID_0Corel-Layer"/>
  <g id="_1730737622240">
   <polygon class="fil0" points="72.33,72.28 8427.68,72.28 8427.68,2502.97 5457.09,2502.97 5457.09,2166.17 3042.98,2166.17 3042.98,2502.97 72.33,2502.97 "/>
   <path class="fil1" d="M8355.42 144.57l-8210.8 0 0 2286.13 2947.63 0 0 144.59 -3092.24 0c0.15,-858.43 0.15,-1716.84 0,-2575.3l72.33 0 8427.67 0 0 2575.3 -3092.24 0 0 -144.59 2947.66 0 0 -2286.13z"/>
   <polygon class="fil1" points="5407.76,2215.5 3092.26,2215.5 3092.26,3283.57 5407.76,3283.57 "/>
   <path class="fil0" d="M5407.76 2215.5l-2315.5 0 0 1068.07 2315.5 0 0 -1068.07zm-2364.78 -98.63l2463.44 0 0 1265.34 -2512.8 0 0 -1265.34 49.34 0 0.02 0z"/>
   <polygon class="fil0" points="4864.87,2427.06 4823.32,2521.92 4876.65,2521.92 4947.96,2427.06 "/>
   <path class="fil0" d="M3864.37 2899.26l-55.16 -49.26c-24.31,31.49 -63.41,57.65 -117.45,57.65 -80.08,0 -141.77,-61.75 -141.77,-142.4 0,-78.92 59.39,-142.37 138.16,-142.37 40.98,0 75.94,17.76 100.84,42.69l51.7 -54.61c-37.4,-36.21 -90.2,-59.31 -151.89,-59.31 -129.29,0 -218.89,94.39 -218.89,213.61 0,119.14 90.74,213.52 220.04,213.52 75.94,0 137.67,-32.59 174.42,-79.52l0.02 0z"/>
   <path class="fil0" d="M3995.88 2972.87l39.17 -91.85 166.7 0 39.11 91.85 83.63 0 -177.97 -415.27 -56.28 0 -178.01 415.27 83.66 0 -0.02 0zm69.43 -163.16l52.72 -122.84 52.79 122.84 -105.53 0 0.02 0z"/>
   <polygon class="fil0" points="4475.98,2972.87 4475.98,2786.02 4603.52,2786.02 4603.52,2714.81 4475.98,2714.81 4475.98,2628.8 4645.07,2628.8 4645.07,2557.59 4395.93,2557.59 4395.93,2972.87 "/>
   <polygon class="fil0" points="4983.46,2972.87 4983.46,2901.58 4808.5,2901.58 4808.5,2786.02 4936,2786.02 4936,2714.81 4808.5,2714.81 4808.5,2628.8 4977.56,2628.8 4977.56,2557.59 4728.43,2557.59 4728.43,2972.87 "/>
   <path class="fil1" d="M925.94 1554.27c-69.69,0 -136.08,-35.93 -179.54,-83.81l-95.85 100.11c78.39,71.84 173.07,114.3 275.39,114.3 137.13,0 257.93,-93.6 257.93,-228.56 0,-256.88 -351.49,-218.75 -351.49,-341.73 0,-58.74 61.98,-82.72 117.57,-82.72 49.98,0 101.09,21.75 131.67,50.06l76.1 -108.84c-71.77,-53.33 -143.61,-71.84 -220.94,-71.84 -126.14,0 -251.43,78.39 -251.43,214.43 0,85.94 47.96,138.22 107.82,173.04 102.21,59.86 243.75,71.84 243.75,169.8 0,55.47 -45.7,95.77 -110.98,95.77l0 0.01z"/>
   <polygon class="fil1" points="1817.9,1543.41 1496.78,1543.41 1496.78,1331.16 1730.81,1331.16 1730.81,1200.54 1496.78,1200.54 1496.78,1042.74 1806.98,1042.74 1806.98,912.17 1349.82,912.17 1349.82,1673.98 1817.9,1673.98 "/>
   <path class="fil1" d="M2351.75 1684.87c139.32,0 252.52,-59.87 320,-145.83l-101.27 -90.35c-44.56,57.69 -116.41,105.59 -215.48,105.59 -146.85,0 -260.04,-113.24 -260.04,-261.2 0,-144.78 108.75,-261.21 253.56,-261.21 75.07,0 139.32,32.63 185,78.36l94.76 -100.14c-68.63,-66.39 -165.54,-108.85 -278.69,-108.85 -237.28,0 -401.57,173.04 -401.57,391.83 0,218.76 166.43,391.78 403.74,391.78l0 0.01z"/>
   <path class="fil1" d="M3146.43 1684.87c235.01,0 397.25,-175.22 397.25,-391.78 0,-216.59 -162.23,-391.83 -397.25,-391.83 -235.13,0 -397.37,175.24 -397.37,391.83 0,216.57 162.23,391.78 397.37,391.78zm0 -653c143.52,0 250.21,117.54 250.21,261.21 0,143.64 -106.68,261.2 -250.21,261.2 -143.76,0 -250.4,-117.57 -250.4,-261.2 0,-143.67 106.65,-261.21 250.4,-261.21z"/>
   <polygon class="fil1" points="3860.39,1177.72 4284.82,1674.01 4388.25,1674.01 4388.25,912.15 4241.41,912.15 4241.41,1408.45 3816.88,912.15 3713.5,912.15 3713.5,1674.01 3860.39,1674.01 "/>
   <path class="fil1" d="M5113.74 1602.16c93.65,-69.62 151.23,-182.83 151.23,-309.08 0,-126.25 -57.59,-239.46 -151.23,-309.11 -61.94,-45.7 -141.46,-71.81 -262.3,-71.81l-239.31 0 0 761.82 239.31 0c120.83,0 200.35,-26.09 262.3,-71.84l0 0.02zm-354.79 -559.4l108.83 0c90.35,0 152.41,31.57 194.85,84.9 34.81,43.53 55.5,102.32 55.5,165.42 0,63.11 -20.69,121.89 -55.5,165.44 -42.44,53.36 -104.5,84.9 -194.85,84.9l-108.83 0 0 -500.66 0 0.01z"/>
   <path class="fil1" d="M6041.72 1684.87c139.31,0 252.5,-59.87 319.89,-145.83l-101.15 -90.35c-44.64,57.69 -116.47,105.59 -215.45,105.59 -146.91,0 -260.18,-113.24 -260.18,-261.2 0,-144.78 108.88,-261.21 253.56,-261.21 75.16,0 139.32,32.63 185.01,78.36l94.71 -100.14c-68.54,-66.39 -165.39,-108.85 -278.59,-108.85 -237.26,0 -401.57,173.04 -401.57,391.83 0,218.76 166.48,391.78 403.76,391.78l0.02 0.01z"/>
   <path class="fil1" d="M6805.26 1684.87c85.98,0 169.76,-26.13 228.5,-78.36 63.18,-56.59 98,-137.16 98,-253.59l0 -440.78 -146.91 0 0 451.69c0,69.62 -18.53,112.1 -50.12,141.46 -32.58,31.57 -78.28,48.99 -129.45,48.99 -51.18,0 -96.85,-17.42 -129.48,-48.99 -31.61,-29.37 -50.09,-71.85 -50.09,-141.46l0 -451.69 -146.94 0 0 440.78c0,116.43 34.81,197.02 98.06,253.59 58.68,52.24 142.47,78.36 228.46,78.36l-0.01 0z"/>
   <path class="fil1" d="M7452.32 1363.83l139.31 0c98,0 156.65,-23.98 198.1,-67.48 38.05,-39.22 59.8,-97.96 59.8,-157.85 0,-59.83 -21.75,-118.6 -59.8,-157.79 -42.48,-44.59 -100.11,-68.57 -198.1,-68.57l-286.16 0 0 761.82 146.85 0 0 -310.17 -0 0.03zm0 -321.07l132.76 0c50.12,0 75.13,12.01 92.55,30.48 16.29,17.42 25.02,40.26 25.02,65.28 0,25.07 -8.73,46.82 -25.02,64.24 -17.42,18.46 -42.41,30.49 -92.55,30.49l-132.76 0 0 -190.49z"/>
  </g>
 </g>
</svg>
