<?xml version="1.0" encoding="utf-8"?>
<!-- Generator: Adobe Illustrator 26.3.1, SVG Export Plug-In . SVG Version: 6.00 Build 0)  -->
<svg version="1.1" id="Layer_1" xmlns="http://www.w3.org/2000/svg" xmlns:xlink="http://www.w3.org/1999/xlink" x="0px" y="0px"
	 viewBox="0 0 612 352.6" style="enable-background:new 0 0 612 352.6;" xml:space="preserve">
<style type="text/css">
	.st0{fill:#231F20;}
	.st1{fill:#9D9FA2;}
	.st2{fill:#ED1849;}
	.st3{fill:#FFFFFF;}
</style>
<g>
	<g>
		<rect x="71.3" class="st0" width="469.5" height="354.7"/>
		<g>
			<polygon class="st1" points="253,277.7 138.4,275.4 253,275.4 			"/>
			<polygon class="st1" points="360.3,277.7 473.6,275.4 360.3,275.4 			"/>
		</g>
		<g>
			<g>
				<path class="st2" d="M308.8,280.2h6.6l-5.4,4.1l2.2,6.6l-6-3.9l-6,3.9l1.9-6.6l-5.1-4.1h6.7l2.5-6.6L308.8,280.2z"/>
			</g>
			<g>
				<path class="st2" d="M286,278.3h4.7l-3.8,2.9l1.5,4.6l-4.2-2.7l-4.2,2.7l1.3-4.6l-3.6-2.9h4.7l1.8-4.6L286,278.3z"/>
			</g>
			<g>
				<path class="st2" d="M268.8,276.6h3l-2.4,1.9l1,3l-2.7-1.8l-2.7,1.8l0.9-3l-2.3-1.9h3l1.1-3L268.8,276.6z"/>
			</g>
			<g>
				<path class="st2" d="M328.4,273.7l1.8,4.6h4.7l-3.6,2.9l1.3,4.6l-4.2-2.7l-4.2,2.7l1.5-4.6l-3.8-2.9h4.7L328.4,273.7z"/>
			</g>
			<g>
				<path class="st2" d="M344.9,273.7l1.1,3h3l-2.3,1.9l0.8,3l-2.7-1.8l-2.7,1.8l1-3l-2.4-1.9h3L344.9,273.7z"/>
			</g>
		</g>
		<g>
			<path class="st1" d="M379.7,136h6.8c0,0,0.2,4.6-1.2,4.6c-1.4,0-5.7,0-5.7,0v9.1h10.3c0,0,5-3.2,5-6.9c0-3.7,0.2-20.4,0.2-20.4
				h-15.3V136z"/>
			<g>
				<path class="st1" d="M235.1,122.7l-16,15.8V206l15.4,15.4h43.6l16-16v-66.5l-15.8-16.3L235.1,122.7z M266,195.7l-2.8,2.8h-12.8
					l-3.2-3.2v-46.9l2.3-2.3h14.2l2.3,3.4V195.7z"/>
			</g>
			<polygon class="st1" points="350.7,198.8 334.6,198.8 334.6,182.7 338.1,182.7 338.1,188 361,188 361,157.1 338.7,157.1 
				338.7,161.2 334.6,161.2 334.6,145.5 351.3,145.5 351.3,149.6 374,149.6 374,122.4 301.3,122.3 301.3,145.3 306.5,145.3 
				306.5,198.3 301.3,198.3 301.3,221.4 374.2,221.4 374.2,194.9 350.7,194.9 			"/>
			<polygon class="st1" points="415.6,122.6 398.8,139.4 398.8,167.1 414.8,183.1 444,183.1 446.7,185.8 446.7,195.2 443.7,198.2 
				430.8,198.2 426.9,194.3 426.9,186.8 398.8,186.8 398.8,204.9 415.3,221.4 457.3,221.4 473.1,205.6 473.1,176.2 458.7,161.8 
				430.8,161.8 426.3,157.4 426.3,148.1 429.5,144.9 442.1,144.9 445.9,148.7 445.9,158.7 473.7,158.7 473.7,137.7 458.2,122.6 			
				"/>
			<path class="st1" d="M170.4,145.5h6.7c0,0.5,0.1,1.1,0.1,1.7v36.6c0,7.7,0.6,12.3-1.1,14c-0.9,0.9-6.8,1.7-8.3-0.8
				c-1.5-2.4-0.6-12.3-0.8-15.7h-28.5l0.2,24l15.7,16l32.8-0.2l19.4-17.3l0.1-56.5c0-0.7,0-1.4,0.1-2h6.3V122h-42.6V145.5z"/>
		</g>
		<g>
			<polygon class="st2" points="200.9,102.6 197.9,102.6 197.9,95.4 207.4,95.4 207.4,102.6 203.8,102.6 203.8,115.1 224.8,115.1 
				224.8,103.1 221.9,103.1 221.9,75.9 224.9,75.9 224.9,63.9 204.2,63.9 204.2,75.7 207,75.7 207,82.3 197.9,82.3 197.9,75.9 
				200.2,75.9 200.2,63.7 180.3,63.7 180.3,75.9 183.5,75.9 183.5,102.6 180.1,102.6 180.1,115.3 200.9,115.3 			"/>
			<polygon class="st2" points="168.6,115.3 176.9,107.1 176.9,91.7 169.4,84.2 154.8,84.2 152.5,81.9 152.5,77 154.1,75.4 
				160.7,75.4 162.7,77.4 162.7,82.6 177.2,82.6 177.2,71.6 169.1,63.7 146.9,63.7 138.1,72.5 138.1,87 146.4,95.3 161.7,95.3 
				163.1,96.7 163.1,101.7 161.6,103.2 154.8,103.2 152.8,101.2 152.8,97.3 138.1,97.3 138.1,106.7 146.7,115.3 			"/>
			<polygon class="st2" points="424,115.3 432.3,107.1 432.3,91.7 424.8,84.2 410.2,84.2 407.9,81.9 407.9,77 409.6,75.4 
				416.1,75.4 418.1,77.4 418.1,82.6 432.6,82.6 432.6,71.6 424.5,63.7 402.3,63.7 393.5,72.5 393.5,87 401.9,95.3 417.1,95.3 
				418.5,96.7 418.5,101.7 417,103.2 410.2,103.2 408.2,101.2 408.2,97.3 393.5,97.3 393.5,106.7 402.1,115.3 			"/>
			<polygon class="st2" points="465.8,63.7 443.6,63.7 434.8,72.5 434.8,87 443.1,95.3 458.4,95.3 459.8,96.7 459.8,101.7 
				458.2,103.2 451.5,103.2 449.5,101.2 449.5,97.3 434.8,97.3 434.8,106.7 443.4,115.3 465.3,115.3 473.6,107.1 473.6,91.7 
				466.1,84.2 451.5,84.2 449.2,81.9 449.2,77 450.8,75.4 457.4,75.4 459.4,77.4 459.4,82.6 473.9,82.6 473.9,71.6 			"/>
			<polygon class="st2" points="315.3,103.2 312.3,103.2 312.3,115.3 350.4,115.3 350.4,99.6 338,99.6 338,103.2 330,103.2 
				330,75.8 333.1,76 332.9,63.7 312.1,63.7 312.1,75.5 315.3,75.5 			"/>
			<g>
				<path class="st2" d="M259.7,115.3l8.4-8.4V72.2l-8.3-8.5l-22.5,0.1l-8.4,8.3v35.2l8,8H259.7z M243.5,77.2l1.2-1.2h7.4l1.2,1.8
					v24.1l-1.5,1.5h-6.7l-1.7-1.7V77.2z"/>
			</g>
			<polygon class="st2" points="309.3,101.6 297.2,101.6 297.2,103.6 288.8,103.6 288.8,95.2 290.6,95.2 290.6,98 302.5,98 
				302.5,81.9 290.9,81.9 290.9,84.1 288.8,84.1 288.8,76 297.4,76 297.4,78.1 309.2,78.1 309.2,64 271.5,63.9 271.5,75.9 
				274.2,75.9 274.2,103.3 271.5,103.3 271.5,115.3 309.3,115.3 			"/>
			<polygon class="st2" points="390.5,101.6 378.4,101.6 378.4,103.6 370,103.6 370,95.2 371.8,95.2 371.8,98 383.7,98 383.7,81.9 
				372.1,81.9 372.1,84.1 370,84.1 370,76 378.6,76 378.6,78.1 390.4,78.1 390.4,64 352.7,63.9 352.7,75.9 355.4,75.9 355.4,103.3 
				352.7,103.3 352.7,115.3 390.5,115.3 			"/>
		</g>
	</g>
	<g>
		<g>
			<path class="st3" d="M176.2,243.8c-1.5-0.6-3.3-1-5.2-1c-1.1,0-2.9,0-2.9,1.3c0,2.6,9.3,0.1,9.3,7.7c0,5.3-4.7,6.6-8.6,6.6
				c-2.6,0-4.8-0.3-7.3-0.9v-5.1c1.8,0.8,4.1,1.3,6.1,1.3c1.6,0,3-0.4,3-1.4c0-2.6-9.3-0.3-9.3-7.9c0-5.4,5.1-6.4,9.1-6.4
				c1.9,0,4,0.3,5.9,0.7V243.8z"/>
			<path class="st3" d="M186.8,238.4h11.7c2.8,0,6.5,1.5,6.5,6.8c0,5.1-3,7.2-6.5,7.2h-4.9v5.7h-6.8V238.4z M193.5,247.8h1.5
				c1.6,0,3.3-0.3,3.3-2.5c0-2.1-1.6-2.3-3.3-2.3h-1.5V247.8z"/>
			<path class="st3" d="M223.7,258.4c-6.2,0-9.8-3.5-9.8-10.2c0-6.6,3.6-10.2,9.8-10.2s9.9,3.6,9.9,10.2
				C233.5,254.9,229.8,258.4,223.7,258.4z M223.7,253.7c2.7,0,2.8-3.3,2.8-5.4c0-1.8-0.2-5.4-2.8-5.4c-2.5,0-2.7,3.6-2.7,5.4
				C220.9,250.4,221.2,253.7,223.7,253.7z"/>
			<path class="st3" d="M242.7,238.4h11c4.2,0,6.8,1.5,6.8,5.2c0,3-1.7,4.5-4.2,5.2v0.1c1.5,0.3,2.4,1.1,3,2.1c1,2.1,1,5.1,1.7,7
				h-7.1c-0.3-1.4-0.4-4.5-0.9-5.7c-0.4-0.9-1.1-1-1.9-1h-1.5v6.7h-6.8V238.4z M249.1,247h1.8c1.4,0,2.8-0.2,2.8-2.2
				c0-1.8-1.3-2-2.7-2h-1.9V247z"/>
			<path class="st3" d="M287.5,244.2h-6v13.9h-6.8v-13.9h-6v-5.8h18.8V244.2z"/>
			<path class="st3" d="M311,243.8c-1.5-0.6-3.3-1-5.2-1c-1.1,0-2.9,0-2.9,1.3c0,2.6,9.3,0.1,9.3,7.7c0,5.3-4.7,6.6-8.6,6.6
				c-2.6,0-4.8-0.3-7.3-0.9v-5.1c1.8,0.8,4.1,1.3,6.1,1.3c1.6,0,3-0.4,3-1.4c0-2.6-9.3-0.3-9.3-7.9c0-5.4,5.1-6.4,9.1-6.4
				c1.9,0,4,0.3,5.9,0.7V243.8z"/>
			<path class="st3" d="M349.1,257.3c-2.3,0.8-4.5,1.1-7.3,1.1c-5.9,0-10.6-3.4-10.6-10.4c0-6.6,4.9-9.9,10.6-9.9
				c3.3,0,4.9,0.3,6.6,0.7v5.3c-1-0.6-2.8-1.1-4.7-1.1c-3.4,0-5.6,1.9-5.6,5.5c0,2.7,1,5.1,3.7,5.1c0.5,0,1,0,1.4-0.2v-5.2h5.8
				V257.3z"/>
			<path class="st3" d="M359.1,238.4h11c4.2,0,6.8,1.5,6.8,5.2c0,3-1.7,4.5-4.2,5.2v0.1c1.5,0.3,2.4,1.1,3,2.1c1,2.1,1,5.1,1.7,7
				h-7.1c-0.3-1.4-0.4-4.5-0.9-5.7c-0.4-0.9-1.1-1-1.9-1h-1.5v6.7h-6.8V238.4z M365.6,247h1.8c1.4,0,2.8-0.2,2.8-2.2
				c0-1.8-1.3-2-2.7-2h-1.9V247z"/>
			<path class="st3" d="M393.5,238.4v19.7h-6.8v-19.7H393.5z"/>
			<path class="st3" d="M403.6,238.4h6.8v13.9h8.3v5.8h-15.1V238.4z"/>
			<path class="st3" d="M428.1,238.4h6.8v13.9h8.3v5.8h-15.1V238.4z"/>
		</g>
		<g>
			<path class="st3" d="M453.3,240.3h-1.9v4.5h-2.2v-4.5h-1.9v-1.9h6V240.3z"/>
			<path class="st3" d="M454.3,238.4h3.2l0.7,3.5h0l0.7-3.5h3.2v6.3h-2l0-5h0l-1.1,5h-1.8l-1.1-5h0l0,5h-1.9V238.4z"/>
		</g>
	</g>
</g>
</svg>
