<?xml version="1.0" encoding="UTF-8"?>
<!DOCTYPE svg PUBLIC "-//W3C//DTD SVG 1.1//EN" "http://www.w3.org/Graphics/SVG/1.1/DTD/svg11.dtd">
<!-- Creator: CorelDRAW 2018 (64-Bit) -->
<svg xmlns="http://www.w3.org/2000/svg" xml:space="preserve" width="8.5in" height="3.6435in" version="1.1" style="shape-rendering:geometricPrecision; text-rendering:geometricPrecision; image-rendering:optimizeQuality; fill-rule:evenodd; clip-rule:evenodd"
viewBox="0 0 8500 3643.5"
 xmlns:xlink="http://www.w3.org/1999/xlink">
 <defs>
  <style type="text/css">
   <![CDATA[
    .fil0 {fill:#2D6BB3;fill-rule:nonzero}
   ]]>
  </style>
 </defs>
 <g id="Plan_x0020_1">
  <metadata id="CorelCorpID_0Corel-Layer"/>
  <path class="fil0" d="M159.52 1166.36c4.11,7.85 9.56,16.4 16.47,24.89 16.47,19.38 39.59,38.31 65.67,54.94 26.32,16.56 55.41,31.29 86.25,43.63 61.54,24.91 129.08,41.48 197.73,49.65 68.61,8.18 139.3,7.87 205.84,-4.41 66.36,-12.22 127.97,-38.34 166.08,-80.67 13.85,-14.47 24.47,-31.81 32.22,-51.6 3.97,-9.85 6.66,-20.56 9.04,-31.61l2.56 -17.21 1.69 -20.24c3.63,-53.89 -1.51,-107.16 -19.89,-151.19 -18.12,-44.2 -49.74,-78.61 -92.08,-104.63 -42.22,-26.06 -93.41,-43.47 -145.37,-56.87 61.14,17.17 118.95,39.69 161.51,72.89 42.72,32.94 69.21,75.41 81.05,129.1 6.15,26.58 8.42,55.61 7.96,85.58l-0.84 22.67 -1.8 22.96c-1.75,12.78 -3.51,25.45 -7.27,36.96 -13.56,46.52 -44.89,81.57 -91.83,106.59 -46.93,24.64 -105.74,37.67 -165.95,41.24 -60.39,3.58 -122.74,-1.49 -182.97,-13.51 -60.21,-11.96 -118.81,-30.74 -171.2,-55.89 -26.2,-12.45 -50.76,-26.62 -72.31,-42.07 -21.71,-15.28 -39.97,-32.18 -53.1,-48.39 33.36,13.61 77.67,29.94 132.86,52.98 65.7,30.03 140.93,50.2 215.29,59.22 74.21,8.96 149.44,6.73 212.28,-9.6 1.6,5.58 4.72,16.56 6.26,22.07 46.23,-15.38 84.44,-37.34 107.7,-62.83 12.11,-12.56 20.24,-26.29 26.94,-41.49 1.8,-3.73 2.78,-7.98 4.44,-11.85 1.05,-4.25 2.46,-8.36 3.46,-12.75 0.67,-4.58 2.15,-8.76 2.53,-13.61 0.53,-5 1.48,-8.69 1.78,-15.65 4.67,-50.45 1.94,-97.46 -9.53,-135.72 -5.67,-19.23 -13.61,-36.16 -24.18,-51.48 -10.5,-15.36 -23.44,-29.55 -40,-42.35 -32.49,-25.96 -78.07,-46.29 -128.82,-61.78 -50.94,-15.58 -107.1,-26.53 -165.71,-36.63 -58.78,-10.16 -120.28,-18.94 -185.84,-33.07 -32.8,-7.18 -66.87,-16 -102.38,-28.72 -35.52,-13.13 -73.16,-30.34 -110.08,-58.32 18.47,18.54 3.66,12.83 -3.17,12.22 -1.45,-1.15 -2.85,-2.23 -4.22,-3.31 1.37,1.07 2.76,2.16 4.22,3.31 -3,-0.29 -4.34,0.53 -0.18,5.11 4.13,4.67 13.8,13.13 32.85,25.05 -19.06,-11.93 -28.72,-20.38 -32.85,-25.05 -4.17,-4.58 -2.82,-5.4 0.18,-5.11 36.82,29.03 74.47,47.03 109.94,61.11 35.48,13.6 69.52,23.2 102.17,30.89 65.21,15.22 126.09,24.4 183.88,34.34 57.65,9.8 112.45,20 162.02,34.02 49.4,13.98 93.32,32.25 124.85,55.08 31.74,23 50.78,48.39 63.02,82.46 12.32,33.91 15.96,78.01 12.45,125.9l-1.56 17.74c-0.81,4.29 -1.13,8.82 -2.06,12.94 -1.8,8.22 -3.73,16.09 -6.6,23.07 -5.49,14.18 -12.56,26.18 -22.75,37.06 -19.36,21.89 -52.54,40.85 -94.74,53.32 32.55,-10.04 59.96,-24.18 78.98,-40.34 19.09,-16.33 30.54,-33.51 37.83,-56.3l2.45 -8.83c0.58,-3.16 1.22,-6.3 1.93,-9.45l1.32 -10.07 0.38 -2.51 0.22 -3.57 0.51 -7.09c1.64,-19.03 1.44,-37.07 0.84,-54.56 -1.96,-34.64 -8.51,-65.04 -20.06,-88.81 -11.38,-24.04 -26.96,-43.06 -50.21,-60.7 -23.06,-17.57 -54.16,-32.69 -89.99,-45.02 -35.8,-12.42 -76.02,-22.16 -118.59,-30.53 -42.58,-8.44 -87.48,-15.56 -134.35,-23.42 -46.87,-7.91 -95.74,-16.33 -147.66,-29.46 -51.76,-13.57 -107.65,-30.56 -166.49,-66.92 -29.16,-18.11 -58.89,-42.75 -83.98,-73.74 -25.18,-30.83 -44.7,-68.2 -55.56,-105.23l-3.87 -13.84 -1.82 -6.96 -1.2 -5.52 -4.47 -21.71c-2.66,-14.67 -5.06,-29.63 -6.66,-45.02 -3.58,-30.5 -3.91,-63.05 -0.98,-96.3 3.07,-33.29 10,-67.83 22.65,-101.63 12.45,-33.76 30.29,-66.52 52.39,-95.56 44.4,-58.65 103.96,-99.78 163.02,-125.75 59.5,-26.15 119.75,-39.67 178.53,-45.38 58.92,-5.8 116.9,-4.2 173.82,3.23 19.45,2.28 48.34,7.24 76.94,13.69 28.64,6.31 56.85,14.62 75.5,20.84 71.81,32.87 140.57,72.54 203.35,125.61 31.31,26.42 60.98,56.6 87.05,91.37 26.23,34.45 48.34,74.25 63.54,117.54 -10.74,-8.32 -18.15,-2.18 -25.28,5.33 -7.11,7.61 -14.07,16.49 -22.83,16.76 -9.09,0.44 -18.25,-8.16 -34.13,-31.96 -16.42,-23.29 -39.72,-62.79 -90.36,-112.99 -3.87,4.29 -11.65,12.89 -15.51,17.16 45.72,50.67 65.94,106.25 66.92,147.03 1.65,41.21 -12.18,66.96 -24.54,76.83 -6.5,6.4 -13.07,8.65 -19.52,6.43 -3.22,-0.93 -6.39,-3.81 -9.6,-6.39 -3.22,-2.25 -6.42,-5.22 -9.44,-8.78 -6.27,-7.11 -12.78,-16.47 -20.6,-27.64 -7.8,-11.18 -17.01,-24.18 -30.02,-39.58 -28.45,-34.76 -74.92,-70.67 -134.77,-98.54 -59.5,-27.92 -131.24,-47.98 -203.85,-53.72 -36.22,-3.07 -72.58,-2.02 -106.52,2.91 -33.76,5.19 -65.05,14.71 -89.3,27.87 -24.31,13.33 -40.54,29.09 -50.5,46.62 -9.82,17.67 -15.56,38.85 -14.61,66.36 0.07,19.63 3.07,41.91 8.83,65.41 1.47,7.34 2.35,7.67 3.06,10.71 1.13,2.02 1.8,4.25 2.91,5.78 2.02,3.34 3.89,5.98 6.87,8.96 5.98,5.72 16.96,14.14 35.49,22.42 17.98,8.36 42.05,16.1 68.3,22.96 53.29,13.71 115.94,23.87 181.68,36.13 65.98,12.36 135.98,26.5 209.02,51.5 50.09,17.67 102.9,39.83 155.07,73.87 25.98,17.04 51.65,37.17 75.25,60.85 23.6,23.63 44.94,50.81 62.35,80.1 35.05,58.74 53.4,123.86 59.65,184.02 3.33,30.26 4.31,59.87 3.19,88.37 -0.27,14.44 -1.42,28.38 -2.55,42.36 -0.4,6.46 -1.51,15.07 -2.62,23.31 -0.98,8.22 -2.25,16.46 -4.07,24.81 -6.46,33.14 -17.49,66.76 -33.56,98.3 -16,31.56 -36.98,60.74 -60.91,85.63 -48.11,50.21 -105.78,82.23 -161.39,102.65 -56.02,20.46 -111.43,30.54 -164.95,34.67 -53.63,4.24 -105.61,2.36 -155.9,-3.46 -73.32,-6.66 -172.46,-20.21 -260.83,-48.45 -44.17,-13.83 -85.58,-31.07 -119.35,-49.56 -33.83,-18.32 -59.89,-37.94 -73.67,-53.3 -21.02,-20.24 -29.09,-34.74 -30.27,-43.34 -1.12,-8.98 4.58,-12.56 12.28,-14.75 47.53,42.49 100.19,72.16 153.88,96.12 53.83,23.7 109.21,41.31 165.41,54.07 112.43,24.93 228.42,33.42 345.59,14.44 71.51,-11.38 145.75,-33.69 212.22,-81.87 33.06,-23.85 62.96,-55.04 85.71,-91.47 22.74,-36.43 37.37,-77.63 44.69,-118.39 1.42,-9.91 3.27,-20.94 4.05,-30l2.45 -27.43 1.31 -27.87 0.06 -28.34c-0.81,-38.02 -5.09,-77.43 -16.02,-117.05 -10.87,-39.45 -27.84,-79.34 -52.35,-114.88 -11.96,-17.96 -25.96,-34.37 -40.6,-49.98 -15.02,-15.02 -30.69,-29.43 -47.29,-41.7 31.96,24.89 61.76,55.38 85.32,90.57 23.98,34.87 40.78,74.03 51.54,112.96 10.74,39.06 15.46,78.08 16.4,115.81l0.04 28.16c-0.18,9.29 -0.82,18.49 -1.2,27.7 -1.37,18.58 -2.63,35.49 -5.96,56.67 -6.13,40.49 -20.67,81.46 -42.29,118.33 -22.13,36.6 -51.41,68.65 -84.34,93.09 -32.76,24.94 -68.47,43 -104.48,56.7 -36.09,13.87 -72.76,22.65 -109.28,28.93 -117.13,17.54 -231.87,7.27 -342.17,-18.8 -55.11,-13.47 -109.15,-31.42 -161.41,-55.18 -52.09,-23.94 -102.78,-53.36 -148.04,-93.9 14.58,-3.14 28.01,-7.91 24.98,-25.4 0,0 -13.37,-10.76 -28.15,-26.62 -14.96,-15.58 -30.46,-37.04 -38.49,-52.87 -10.31,-35.04 -4.85,-60.4 2.67,-73.97 7.73,-13.91 17.43,-17.74 25.76,-16.98 8.69,0.81 17.06,6.19 25.31,11.98 8.51,5.91 17.34,12.03 26.36,17.27 7.93,5.86 17.84,11.18 29.65,16.76l-0.01 0.04zm3919.25 2379.57c-23.07,-0.24 -69.22,-0.71 -69.22,-0.71 -9.07,-7.34 -3.76,-15.15 1.73,-22.59 -149.21,-5.49 -298.56,-10.13 -447.8,-15.02 -186.84,-3.97 -371.02,-9.79 -550.34,-21.76 183.37,9.22 366.84,15.72 550.34,21.76 149.59,3.16 300.86,5.15 452.62,8.02 5.11,-8.69 3.85,-16.54 -29.29,-22.18 -46.1,-11.52 -207.73,-2.15 -300.07,-6.8 -253.76,-17.37 -530.76,-16.56 -784.56,-30.24 -184.53,-9.29 -369.2,-7.54 -553.9,-5.78 -253.89,4.72 -530.76,-12.87 -738.53,-0.31 -184.79,12.8 -115.85,65.08 68.72,85.41 -0.04,3.67 -0.07,11.04 -0.07,14.71 -184.64,-9.29 -92.56,28.51 -115.68,46.67 92.22,0.97 184.57,5.62 276.81,17.61 23.07,0.24 69.25,0.73 92.32,0.97 541.32,5.62 1050.53,3.74 1578.59,16.15 -340.08,-10.69 -658.51,-17.54 -999.11,-17.51 2.55,-2.36 9.87,-5.29 -2.42,-7.38 346.3,-14.81 669.27,18.02 1015.52,10.57 -0.02,3.66 -0.07,10.93 -0.07,14.63 121.84,2.91 244.69,6.58 369.17,11.31 51.72,0.54 96.23,-5.93 133.46,-14.24 -367.74,-29.33 -770.17,-30.93 -1153,-41.71 161.53,1.68 346.17,-0.07 507.69,8.98 230.75,9.74 438.49,8.24 646.17,21.44 11.22,0.83 22.53,1.72 33.87,2.62 14.74,-4.05 28,-8.12 39.76,-11.74 46.2,-17.94 69.49,-43.47 -22.76,-62.85l0.04 -0.03zm107.74 -455.15c-24.31,-0.27 -72.9,-0.78 -72.9,-0.78 -9.56,-7.34 -3.96,-15.15 1.82,-22.6 -157.19,-5.59 -314.48,-10.27 -471.64,-15.27 -196.78,-4.05 -390.77,-9.98 -579.65,-22.03 193.11,9.33 386.41,15.93 579.65,22.03 157.56,3.26 316.91,5.31 476.7,8.27 5.4,-8.67 4.04,-16.52 -30.83,-22.19 -48.58,-11.55 -218.84,-2.28 -316.07,-6.96 -267.27,-17.51 -559.01,-16.86 -826.32,-30.69 -194.37,-9.36 -388.88,-7.73 -583.39,-6.06 -267.38,4.57 -559.02,-13.19 -777.85,-0.74 -194.59,12.7 -121.94,65.01 72.45,85.47l-0.09 14.71c-194.46,-9.38 -97.44,28.44 -121.83,46.6 97.16,1.02 194.4,5.72 291.59,17.78 24.31,0.27 72.93,0.76 97.21,1.02 570.12,5.93 1106.44,4.34 1662.59,17.01 -358.17,-10.87 -693.56,-17.91 -1052.28,-18.05 2.69,-2.36 10.4,-5.29 -2.55,-7.38 364.73,-14.62 704.91,18.39 1069.57,11.12 -0.02,3.66 -0.04,10.91 -0.07,14.61 128.31,2.96 257.72,6.73 388.83,11.52 54.48,0.58 101.36,-5.89 140.55,-14.17 -387.28,-29.54 -811.15,-31.36 -1214.34,-42.34 170.11,1.75 364.59,0.11 534.72,9.22 243.02,9.93 461.82,8.51 680.55,21.83 11.82,0.84 23.73,1.73 35.67,2.63 15.55,-4.05 29.45,-8.11 41.89,-11.74 48.65,-17.89 73.2,-43.42 -24,-62.85l0.02 0.03zm-1640.92 -406.73c29.35,10.31 132.31,0.98 191.09,4.78 161.57,14.61 337.95,12.56 499.54,23.81 117.5,7.58 235.11,5.11 352.76,2.62 161.74,-5.53 337.96,9.22 470.37,-3.24 117.72,-12.56 74,-59.94 -43.47,-77.59 0.04,-3.37 0.07,-10.07 0.11,-13.42 117.57,7.56 59.05,-26.47 73.89,-43.16 -58.78,-0.44 -117.57,-4.22 -176.24,-14.74 -14.72,-0.09 -44.11,-0.31 -58.81,-0.44 -344.72,-2.53 -669.04,1.62 -1005.31,-7.14 216.58,8.12 419.35,12.85 636.26,11.18 -1.64,2.16 -6.29,4.85 1.51,6.71 -220.62,15.18 -426.17,-13.24 -646.71,-4.78 0.02,-3.31 0.07,-9.94 0.09,-13.33 -77.56,-2.09 -155.79,-4.85 -235.07,-8.55 -32.94,-0.27 -61.32,5.86 -85.05,13.61 234.09,25 490.37,24.54 734.16,32.55 -102.89,-0.78 -220.48,1.72 -323.32,-5.76 -146.92,-7.78 -279.23,-5.39 -411.44,-16.47 -7.14,-0.69 -14.37,-1.47 -21.56,-2.2 -9.38,3.74 -17.87,7.54 -25.35,10.89 -29.52,16.56 -44.45,39.98 14.24,57.2 14.69,0.13 44.07,0.34 44.07,0.34 5.76,6.67 2.36,13.8 -1.2,20.64 95.04,4.33 190.13,7.8 285.16,11.58 119.01,2.71 236.28,7.17 350.43,17.22 -116.72,-7.57 -233.58,-12.6 -350.43,-17.22 -95.23,-2.16 -191.59,-3.23 -288.19,-5.15 -3.33,7.94 -2.53,15.09 18.52,20.07l-0.03 -0.01zm-83.39 -493.1c15.18,0.13 45.48,0.34 45.48,0.34 5.91,6.67 2.4,13.78 -1.22,20.6 98,4.33 196.04,7.81 294.05,11.61 122.7,2.73 243.64,7.2 361.37,17.27 -120.39,-7.56 -240.91,-12.62 -361.37,-17.27 -98.24,-2.18 -197.6,-3.29 -297.23,-5.22 -3.42,7.94 -2.6,15.11 19.13,20.07 30.26,10.27 136.44,1.02 197.08,4.81 166.59,14.65 348.52,12.63 515.15,23.94 121.17,7.6 242.5,5.15 363.78,2.69 166.76,-5.51 348.56,9.27 485.07,-3.14 121.39,-12.53 76.32,-59.83 -44.83,-77.52l0.11 -13.42c121.24,7.61 60.87,-26.4 76.16,-43.05 -60.57,-0.46 -121.21,-4.24 -181.75,-14.76 -15.18,-0.13 -45.51,-0.35 -60.63,-0.46 -355.5,-2.62 -689.94,1.48 -1036.72,-7.38 223.31,8.15 432.44,12.93 656.15,11.31 -1.69,2.15 -6.53,4.85 1.54,6.71 -227.49,15.11 -439.49,-13.29 -666.91,-4.93 0.02,-3.31 0.07,-9.93 0.09,-13.33 -80.01,-2.09 -160.69,-4.87 -242.43,-8.59 -33.98,-0.24 -63.23,5.85 -87.7,13.6 241.4,25.02 505.71,24.63 757.12,32.65 -106.09,-0.77 -227.39,1.69 -333.43,-5.82 -151.5,-7.82 -287.96,-5.48 -424.31,-16.54 -7.34,-0.71 -14.8,-1.45 -22.22,-2.23 -9.73,3.76 -18.42,7.54 -26.19,10.91 -30.43,16.54 -45.81,39.93 14.69,57.14l-0.03 0zm-566.23 357.8c-0.02,3.2 -0.11,6.42 -0.13,9.6 -10.67,0.11 -21.32,0.2 -32.09,0.38 0.89,-2.18 3.44,-4.93 -0.78,-6.76 11.07,-1.47 22.06,-2.45 33,-3.22l0 0.01zm3.74 -178.65c2.11,0.74 4.78,2.93 6.53,-0.74 1.96,12.35 3.3,24.56 4.18,36.74 -3.36,-0.04 -6.74,-0.04 -10.09,0 -0.22,-12.02 -0.22,-23.85 -0.62,-36zm117.16 163.09c-0.17,0 -0.34,0 -0.47,-0.02 0.04,-0.44 0.13,-0.89 0.17,-1.35l0.46 0c-0.04,0.46 -0.09,0.91 -0.14,1.37l-0.01 0zm-2.85 26.26c-0.5,-0.02 -0.91,-0.02 -1.41,-0.06 0.4,-3.27 0.97,-6.53 1.41,-9.8 0.36,0.02 0.69,0.04 1.05,0.07 -0.33,3.26 -0.74,6.5 -1.05,9.78zm-90.43 -1.18c0.15,-3.61 0.3,-7.24 0.4,-10.89 1.22,-0.04 2.47,-0.11 3.67,-0.11 0.02,3.66 0,7.33 -0.02,11l-4.05 0 0 -0.01zm-24.89 0.07c0.13,-3.27 0.24,-6.56 0.37,-9.8 2.6,-0.17 5.22,-0.4 7.78,-0.56 -0.24,3.42 -0.44,6.85 -0.64,10.27 -2.49,0 -5,0.06 -7.48,0.07l-0.02 0.02zm-321.28 -66.85c-0.04,3.38 -0.07,10.18 -0.11,13.56 -63.5,-7.42 -32.02,26.82 -40.06,43.7 31.74,0.31 63.52,4.04 95.21,14.51 7.93,0.11 23.85,0.24 31.78,0.34 78.72,0.77 155.41,0.37 231.51,0.22 -0.31,34.01 -0.98,68.1 -2.33,102.5 2.19,-34.78 3.8,-68.7 5.09,-102.5 2.45,0 4.93,0 7.34,0 -2.03,35.09 -3.07,70.43 0.38,106.63l-12.96 0c-1.49,36.1 -3.64,72.54 -6.66,109.45 0,15.35 6.15,28.52 13.85,39.54 17,-81.7 19.98,-169.17 22.93,-255.63 1.41,0 2.82,-0.04 4.18,-0.04 -0.2,22 -1.15,43.78 -3.98,64.3 -6.53,68.44 -3.26,130.01 -13.07,191.6 -0.65,3.31 -1.33,6.67 -2.06,10.04 3.76,4.38 7.48,8.29 10.83,11.78 16.33,13.66 39.23,20.53 55.59,-6.83l0 -20.54c6.46,-2.69 13.43,-1.15 20.11,0.47 3.51,-44.25 6.22,-88.54 9.2,-132.78 1.31,-39.76 3.53,-79.05 7.98,-117.76 0.46,0 0.93,0 1.38,0.02 -3.83,39.22 -6.73,78.48 -9.36,117.74 -1.42,44.36 -1.78,89.19 -2.93,134.19 7.77,1.49 14.72,1.11 19.43,-8.72 9.82,-13.69 0,-61.6 3.27,-88.98 8.62,-49.65 10.18,-102.28 13.04,-153.99 56.59,0.6 113.3,1.8 170.62,4.37 -58,-3.83 -114.16,-6.83 -170.37,-8.62 0.17,-2.98 0.31,-5.96 0.51,-8.91 57.61,3.94 115.17,8.76 174.79,4.25 -0.02,3.36 -0.07,10.06 -0.11,13.47 41.92,1.93 84.21,4.57 127.06,8.15 17.8,0.2 33.16,-6.07 46,-13.94 -110.5,-21.62 -230.24,-23.58 -346.61,-28.76 0.07,-0.84 0.14,-1.69 0.21,-2.55 41.69,-0.17 85.03,-0.06 124.39,5.15 79.39,7.56 150.93,4.87 222.33,15.78 3.87,0.71 7.78,1.44 11.67,2.22 5.11,-3.85 9.67,-7.69 13.76,-11.09 16,-16.8 24.17,-40.49 -7.51,-57.76 -7.94,-0.07 -23.81,-0.24 -23.81,-0.24 -3.11,-6.72 -1.24,-13.93 0.71,-20.83 -51.36,-4.14 -102.75,-7.47 -154.08,-11.07 -60.97,-2.36 -121,-6.44 -179.62,-15.28 0.02,-0.11 0.02,-0.22 0.02,-0.31 59.83,6.74 119.69,11.4 179.61,15.58 51.45,1.98 103.54,2.87 155.77,4.58 1.8,-8.05 1.42,-15.27 -9.96,-20.27 -15.8,-10.33 -71.5,-0.7 -103.28,-4.41 -71.44,-11.81 -148.33,-12.42 -221.78,-18.25 -0.04,-31.38 -1.81,-62.72 -3.73,-94.09 -6.53,-75.25 6.56,-157.39 -6.53,-218.94 -13.09,-54.76 -58.89,-34.21 -75.23,20.53l-13.09 0c6.54,-54.74 -26.16,-27.38 -42.51,-34.2 0,27.36 -3.27,54.72 -13.07,82.11l0 27.36c0,70.7 1.2,139.54 2.06,207.82 -28.91,0.31 -57.83,1.51 -86.77,2.76 -87.41,5.93 -182.64,-8.58 -254.25,4.31 -63.69,12.93 -40.23,60.69 23.2,78.28l0.01 -0.04zm6063.35 439.44c-31.51,-30.23 -45.92,-21.54 -56.87,-4.94 0.69,-9.82 1.51,-19.6 2.33,-29.36 11.47,0.91 23.58,1.58 36.05,2.04 7.91,0.31 16.02,0.46 24.09,0.61 2.33,4.31 4.89,8.58 7.74,12.78 -3.33,4.71 -10.02,14.18 -13.34,18.87l-0.01 0zm-16.87 -655.5c-13.87,0.87 -25.11,2.2 -35.18,3.8 0.21,-9.94 0.27,-19.66 0.4,-29.53 10.13,1.18 20.6,2.16 31.65,2.82 0.76,5.72 2.33,17.16 3.11,22.9l0.02 0zm134.57 84.47c17.34,-1.44 51.87,-3.37 69.03,-4.04 50.41,-1.98 99.9,-1.71 147.39,1.38 47.36,3.17 93.36,9.04 133.15,19.67 20.47,4.8 37.87,11.76 54.28,18.42 15.4,7.24 28.05,15.09 37.58,22.43 16.94,16.27 22.05,23.94 25.15,49.25 2.76,34.65 -2.6,60.54 -14.42,81.47 -11.71,21.04 -32.87,41.43 -64.74,59.11 -31.58,17.6 -71.74,31.27 -114.99,40.81 -43.36,9.56 -89.92,15.39 -137.81,18.05 61.61,-2.55 121.17,-9.49 174,-23.51 52.7,-13.67 98.89,-35.09 126.48,-61.03 6.96,-6.47 13.14,-13.02 17.98,-19.98 5.16,-6.82 9.09,-14.05 12.51,-21.75 6.7,-15.27 10.67,-33.09 10.87,-54.34 0.55,-9.76 -0.6,-23.83 -1.93,-29.42 -0.33,-1.8 -0.31,-3.84 -0.74,-5.53 -0.64,-1.54 -1.18,-3.07 -1.64,-4.65l-1.2 -4.72c-0.84,-1.31 -1.56,-2.66 -2.19,-4 -5.16,-10.76 -13.19,-20.41 -27.98,-30.91 3.06,-2.35 8.62,-3.98 6.13,-9.83 18.25,9.22 30.2,20.07 37.85,33.54 0.94,1.71 1.95,3.42 3.04,5.09l1.95 5.85 2.23 5.85c0.53,2.11 0.71,4.49 1.12,6.71l1.29 6.76c0.61,1.96 0.47,5.8 0.74,8.62l0.54 9.18 -0.17 8.82c-1.31,47.53 -19.15,80.39 -51.98,107.48 -32.87,27.38 -82.57,47.36 -137.57,61.81 -55.42,14.37 -116.1,24.24 -179.75,33.38 -0.44,-5.69 -1.31,-17.07 -1.74,-22.89 -88.76,4.18 -181.66,-1.35 -274.47,-14.33 -4.25,-0.37 -8.24,-0.14 -12.35,-0.27 -1.18,-47.07 -3.51,-94.16 -5.91,-141.23 -3.69,-50.37 -3.73,-102.17 -2.96,-153.59 56.46,-6.91 114.17,-7.33 171.15,2.29l0.06 0.03zm473.83 251.18c-17.16,18.44 -39.36,35.18 -65.01,48.74 -51.23,27.61 -114.04,43.02 -173.75,47.63 -85.25,8.83 -169.04,11 -250.91,7.84 -49.19,-2.06 -97.88,-6.53 -145.75,-13.58 -0.04,-4.67 0,-9.29 -0.06,-13.93 39.8,7.82 80.41,14.02 121.39,18.2 72.83,7.4 147.02,8.94 219.54,3.07 72.21,-6.06 143.65,-19.66 204.4,-45.25 30.16,-12.87 57.41,-28.62 78.92,-47.54 21.98,-18.69 37.54,-40.53 48.41,-65.29 -8.02,21.35 -19.89,41.64 -37.2,60.1l0 -0zm-642.02 241.87c0.2,-1.69 0.27,-3.34 0.44,-5.02 13.53,1.78 27.11,2.93 40.63,4.44 0.24,2.2 0.46,4.42 0.85,6.67 -14.05,-1.11 -28.11,-1.89 -42.16,-3.27 0.13,-0.94 0.17,-1.91 0.24,-2.83l0 0.01zm748.09 -120.1c-37.23,31.94 -77.81,54.23 -117.9,71.08 -40.25,16.83 -80.43,28.27 -120.15,36.82 -79.54,16.91 -157.48,22.8 -234.4,23.96 -10.24,0.35 -20.44,0.15 -30.63,0.35 -0.37,-0.27 -0.71,-0.53 -1.04,-0.78 10.56,0.07 21.07,0.54 31.67,0.43 78.25,-2.93 156.72,-10.11 236,-27.4 39.63,-8.64 79.54,-20.11 119.39,-36.33 39.72,-16.43 79.85,-37.7 117.06,-68.12l0 -0.02zm159.01 648.26c-5.67,-25.25 -70.52,-49.87 -98.52,-76.78 -72.76,-79.79 -170.11,-141.57 -246.24,-216.67 -55.96,-53.74 -121.97,-93.34 -187.95,-132.98 -24.41,-13.56 -47.98,-29.49 -71.01,-46.12 68.61,-0.67 139.62,-7.82 212.49,-24.11 60.03,-13.94 121.98,-34.33 183.22,-69.59 30.47,-17.73 60.7,-39.58 88.44,-66.56 27.74,-26.85 52.67,-59.07 71.89,-94.41 27.94,-51.51 41.38,-109.79 43.03,-162.91 0.74,-13.53 0.36,-26.49 -0.2,-39.43 -0.18,-3.4 -0.15,-6.22 -0.57,-10.06l-1.35 -11.51 -3.22 -22.98c-2.13,-15.2 -7.44,-31.15 -11.78,-46.45 -5.02,-15.38 -12.29,-30.49 -19.13,-45.36 -8.05,-14.2 -16.63,-28.45 -26.06,-41.6 -9.96,-12.25 -19.96,-25.52 -30.98,-36.02 -21.87,-21.91 -45.47,-40.18 -69.02,-54.4 -47.33,-28.96 -94.17,-45.52 -138.88,-57.38 -123.19,-29.11 -239.13,-35.69 -349.28,-34.98 -92.59,1.22 -179.82,9.89 -256.04,27.7 -1.69,-21.8 -3.89,-43.09 -7.47,-63.06 -23.13,-113.94 -104.06,-71.2 -132.95,42.76l-23.13 0c11.55,-113.96 -46.25,-57 -75.15,-71.21 0,56.9 -5.8,113.9 -23.13,170.87l0 56.94c0,334.01 11.27,648.13 0.46,974 11.22,-209.85 16.78,-406.35 11.15,-616.49 3.74,1.58 8.45,6.07 11.52,-1.51 28.92,213.6 -17.37,413 0,626.61l-22.96 0c-2.56,75.18 -6.36,151.01 -11.72,227.82 0,31.91 10.87,59.34 24.52,82.28 40.03,-226.98 36,-475.29 46.67,-711.52 0,99.68 5.78,213.59 -5.8,313.27 -11.54,142.41 -5.8,270.58 -23.13,398.75 -1.11,6.91 -2.36,13.93 -3.56,20.89 6.6,9.09 13.26,17.27 19.11,24.51 28.91,28.44 69.38,42.72 98.28,-14.25l0 -42.72c11.42,-5.62 23.71,-2.39 35.49,0.98 6.24,-92.08 11,-184.24 16.29,-276.34 3.17,-115.3 9.33,-228.94 25.18,-339.63 -11.52,113.19 -18.71,226.41 -25.18,339.63 -2.49,92.3 -3.14,185.64 -5.18,279.27 13.7,3.15 26.03,2.33 34.34,-18.12 17.34,-28.51 0,-128.19 5.8,-185.17 16.91,-114.57 18.38,-236.78 24.72,-355.46 22.32,18.75 42.31,40.78 58.45,68.28 7.81,5.55 23.49,16.62 31.34,22.15 183.68,129.96 362.96,242.98 535.91,378.59 -108.92,-90.8 -213.76,-171.78 -332.59,-248.94 3.02,-2.45 8.22,-4.54 5.83,-10.02 134.19,59.5 217.13,174.84 344.59,243.78 -3.29,4.69 -9.87,13.98 -13.26,18.74 39.89,31.38 79.39,63.94 118.52,98.23 17.56,12.42 38.92,14.2 59.43,11.98 -101.74,-121.01 -240.62,-214.29 -364.37,-314.9 54.8,38.78 120.79,78.37 168.94,126.59 71.63,64.83 145.5,110.02 205.96,174.02 3.15,3.6 6.3,7.33 9.44,11.04 8.81,-1.87 17.13,-4.11 24.51,-6.07 32.34,-12.52 63.56,-40 48.89,-85.79 -7.84,-5.52 -23.47,-16.62 -23.47,-16.62 3.47,-11.51 12.36,-20.27 21.05,-28.59 -47.09,-40.89 -95,-80.67 -142.59,-120.8 -61.57,-47.43 -120.54,-96.69 -172.28,-152.68 55.61,53.39 113.76,103.32 172.28,152.68 49.3,37.96 100.29,74.8 150.59,112.89 9.65,-9.98 16.3,-20.34 9.87,-35.09l-0.07 0.04zm-1732.3 -412.31c10.2,24.58 20.5,48.74 30.8,72.63 -1.2,0.04 -2.4,0.07 -3.6,0.09 -0.37,-0.78 -0.69,-1.55 -1.04,-2.35 -39.49,-89.35 -79.96,-178.73 -120.3,-267.78l-15.11 -33.36 -5.91 -13.23 -3.38 -7.87 -13.78 -32.32c-9.72,-23.2 -19.43,-46.33 -29.11,-69.3 8.83,18.11 18.02,36.83 27.34,55.91 4.75,9.66 9.56,19.4 14.42,29.16 5.6,11.65 11.22,23.33 16.85,35.02 37.27,78.5 73.23,157.64 102.81,233.42zm-319.07 95.05l0 -21.45c25.72,-56.59 51.38,-113.05 76.77,-169.15 15.18,-33.56 30.33,-67.03 45.45,-100.43l10.36 -22.98 1.02 -2.66 2.11 -5.52 9.72 -24.04c2.86,5.45 5.86,11.42 8.82,17.56 8.48,18.22 17,36.46 25.49,54.71 39.22,83.69 78.04,167.97 116.56,252.81 -98.28,2.65 -194.24,6.22 -292.72,-1.51 88.57,11.18 171.48,16.76 260.16,11.15 -0.65,3.73 -2.56,8.45 0.65,11.52 -90.16,28.91 -174.3,-17.34 -264.42,0l0.03 -0.02zm37.2 30.7c-19.82,-3.81 -38.96,-5.69 -57.68,-7.2 0.6,-1.29 1.22,-2.64 1.81,-3.97 62.38,9.35 126.19,10.34 188.04,16.96 -42.07,0 -90.12,5.76 -132.19,-5.78l0.01 -0.02zm-47.2 142.46c-25.65,-1.65 -51.54,-2.56 -77.43,-3.54 1.02,-2.19 1.98,-4.38 3.02,-6.58 24.78,3.49 49.61,6.76 74.41,10.13 48.61,3.14 96.61,9.33 143.32,25.16 -47.76,-11.47 -95.56,-18.69 -143.32,-25.16l0 -0.01zm123.74 -495.12c0.3,-0.77 0.13,-0.58 0.22,-0.91l0.14 -1.28 0.37 -2.6 0.98 -5.39c0.73,-3.67 1.64,-7.51 2.66,-11.42 2.09,-7.84 4.71,-15.95 7.63,-23.96 5.83,-16.09 12.75,-31.58 19.33,-44.54 7.94,18.24 15.36,37.78 21.42,55.11l8.25 24.52 1.8 5.58 0.89 2.7c0.24,0.71 0.02,0.37 0.69,1.89l2.2 5.07 17.71 40.63c37.29,85.11 75.98,170.15 118.79,254.83 -6.47,0.17 -12.96,0.33 -19.43,0.51 -37.87,-86.43 -75.54,-171.78 -113.48,-256.04l-17.91 -39.63 -2.55 -7.04 -5.42 -14.21c-3.89,-9.73 -8.25,-19.87 -12.73,-29.53 -7.53,15.89 -15.11,33.96 -20.89,50.54 -1.38,-1.55 -3.27,-2.46 -5,-3.6 -0.87,-0.51 -1.78,-0.94 -2.71,-1.12 -1.02,-0.04 -1.51,-0.98 -3.81,2.15l0.84 -2.29 0.03 0.02zm620.68 701.65c-4.24,-49.29 -89.49,-188.46 -124.03,-274.72 -44.2,-120.1 -97.47,-242.37 -151.36,-364.32 -29.5,-66.67 -59.06,-133.3 -88.28,-199.28 -51.48,-113.7 -103.03,-228.98 -155.3,-349.24 -24.02,-54.81 -48.61,-109.89 -73.49,-164.66 -64.98,134.33 -131.46,278.14 -195.9,420.57l-48.04 106.72 -16.06 36.45 -11.6 26.93 -45.89 107.87c-96.26,236.34 -233.76,479.23 -300.14,678.33 -56.67,178.11 45.96,148.84 149.88,-7.47 5.25,2.4 15.78,7.25 21.02,9.67 -88.15,163.59 3.14,103.59 19.7,136.72 38.81,-84.12 82.9,-165.93 137.46,-242.87 9.73,-21.04 29.16,-63.16 38.85,-84.17 0.98,-2.16 1.95,-4.31 2.96,-6.46 18.05,2.49 45.87,-5.96 63.76,-1.64 66.09,23.09 138.19,17.34 204.29,34.67 48.05,11.55 96.16,5.78 144.23,0 35.16,-6.15 71.98,-2.56 106.92,-1.28 22.51,51.65 44.91,103.59 67.12,156.08 22.26,46.93 51.25,82.59 79.59,110.46 -30.83,-88.47 -65.14,-177.72 -101.7,-267.38 2.79,-0.27 5.48,-0.8 8.22,-1.18 39.19,87.5 76.7,173.64 109.86,261.67 3.74,10.65 7.54,21.48 11.34,32.27 12.35,10.51 24,19.65 34.38,27.83 45.96,29.42 92.51,33.04 78.81,-63.12 -9.94,-20.94 -29.8,-62.79 -29.8,-62.79 6.4,-13.17 19.74,-13.67 32.76,-13.78 -58.67,-138.06 -118.68,-275.65 -178.19,-413.3 -38.81,-85.47 -76.67,-170.63 -112.66,-255.6 -18.02,-42.51 -35.56,-84.96 -52.56,-127.39l-13.23 -33.13 -21.2 -50.36c-14.49,-34.74 -28.93,-69.45 -43.34,-104.12l45.32 105.08 22.15 51.14 13.33 32.38c17.81,42.58 35.56,85.12 53.3,127.68 35.87,84.95 72.3,169.68 108.9,254.33 62.89,136.5 126.46,274.41 190.24,412.86 14.6,-1.31 25.14,-7.77 18.38,-41.44l-0.04 -0.02zm-1510.13 30.53c-20.63,10 -40.98,21.25 -61.89,28.65 -41.47,17.27 -83.26,27.76 -124.59,36.76 -82.78,16.2 -164.28,22.19 -244.47,21.4 -107.01,1.26 -213.35,-6.33 -319.07,-21.58 3.02,-1.55 5.8,-4.02 8.35,-7.57 101.94,17.73 205.33,28.16 310.72,29.16 81.59,-0.94 163.69,-8.29 246.24,-24.78 41.18,-9.36 82.7,-19.53 123.76,-36.33l15.45 -5.91c5.13,-2.15 10.18,-4.71 15.29,-7.06l30.56 -14.64c19.78,-11.91 40.29,-22.45 59.12,-37.38 -18.87,15.73 -39.54,26.82 -59.46,39.29l-0.01 -0.03zm-662.39 -1198.67c-13.85,0.87 -25.11,2.23 -35.15,3.81 0.18,-9.94 0.27,-19.69 0.4,-29.52 10.16,1.17 20.6,2.15 31.65,2.8 0.78,5.71 2.33,17.2 3.09,22.9l0 0.01zm134.61 84.5c17.35,-1.44 51.87,-3.38 69.03,-4.04 50.37,-1.98 99.86,-1.73 147.39,1.37 47.36,3.16 93.33,9.02 133.13,19.69 20.51,4.8 37.89,11.75 54.31,18.4 15.38,7.24 28.05,15.09 37.6,22.45 16.96,16.26 22.05,23.94 25.11,49.23 2.8,34.65 -2.56,60.54 -14.38,81.5 -11.71,21.04 -32.87,41.41 -64.74,59.07 -31.58,17.6 -71.76,31.28 -115,40.81 -43.36,9.58 -89.93,15.38 -137.8,18.07 61.6,-2.55 121.17,-9.49 173.98,-23.51 52.69,-13.69 98.87,-35.09 126.5,-61.07 6.94,-6.47 13.13,-13 17.94,-19.98 5.19,-6.82 9.15,-14.04 12.53,-21.75 6.7,-15.27 10.67,-33.09 10.87,-54.33 0.53,-9.8 -0.6,-23.87 -1.93,-29.42 -0.35,-1.84 -0.31,-3.87 -0.75,-5.52 -0.63,-1.55 -1.18,-3.09 -1.64,-4.65l-1.22 -4.76c-0.8,-1.31 -1.55,-2.63 -2.16,-4 -5.16,-10.73 -13.19,-20.4 -27.98,-30.87 3.06,-2.39 8.62,-4 6.13,-9.87 18.25,9.22 30.21,20.07 37.85,33.56 0.94,1.69 1.95,3.4 3.02,5.09l1.94 5.85 2.22 5.83c0.54,2.13 0.69,4.49 1.14,6.73l1.31 6.74c0.62,1.98 0.46,5.83 0.74,8.62l0.54 9.16 -0.16 8.82c-1.29,47.54 -19.15,80.39 -51.96,107.48 -32.87,27.4 -82.59,47.36 -137.57,61.83 -55.41,14.34 -116.1,24.2 -179.75,33.37 -0.43,-5.72 -1.29,-17.07 -1.78,-22.89 -88.76,4.15 -181.61,-1.37 -274.45,-14.37 -4.22,-0.34 -8.22,-0.11 -12.36,-0.24 -1.15,-47.09 -3.47,-94.16 -5.85,-141.24 -3.73,-50.36 -3.74,-102.17 -2.98,-153.59 56.43,-6.91 114.16,-7.33 171.15,2.33l0.01 0.06zm473.84 251.16c-17.17,18.47 -39.36,35.18 -65.05,48.78 -51.21,27.61 -114.01,43 -173.72,47.61 -85.24,8.85 -169.02,11 -250.93,7.84 -49.19,-2.06 -97.87,-6.53 -145.78,-13.6 0,-4.64 0.04,-9.29 -0.02,-13.93 39.78,7.85 80.41,14.05 121.39,18.24 72.83,7.38 147,8.93 219.53,3.07 72.23,-6.06 143.65,-19.67 204.42,-45.25 30.14,-12.87 57.41,-28.65 78.94,-47.54 21.98,-18.71 37.57,-40.5 48.42,-65.28 -8.02,21.34 -19.86,41.61 -37.2,60.07l-0 0zm106.04 121.79c-34.6,29.7 -72.16,50.83 -109.5,67.23 -1.07,-0.37 -2.15,-0.73 -3.26,-1.06 38.31,-16.16 76.9,-36.87 112.76,-66.19l0 0.02zm-783.65 652.71c-0.15,-5.25 -0.24,-10.41 -0.3,-15.47 49.12,12.25 99.83,21.94 151.07,28.44 37.84,5.05 75.89,7.69 114.07,9.49 38.04,0.91 76.43,1.25 114.06,-1.65 19,-0.87 37.48,-3.4 56.23,-5.29 18.29,-2.98 37.07,-5.05 54.87,-9.2 36.34,-6.83 70.83,-17.37 103.19,-30.29 32.83,-12.49 61.41,-29.82 86.74,-49.22 25.72,-19.25 45.47,-42.89 60.93,-69.28 -22.72,46.29 -66.1,85.88 -120.86,114.59 -55.56,27.71 -120.67,43.54 -182.98,47.81 -44.52,3.96 -88.48,6.06 -131.97,6.7 -43.56,0.31 -86.57,-0.93 -129.1,-3.6 -59.65,-4.13 -118.5,-11.45 -175.97,-23.04l0.03 0zm-40.48 -9.25c0.31,-5.58 0.64,-11.21 0.94,-16.82 1.18,0.37 2.36,0.69 3.54,1.04 -0.09,5.62 -0.24,11.18 -0.34,16.8 -1.37,-0.35 -2.79,-0.7 -4.15,-1.04l0 0.02zm-8.97 148.06c3.49,0.67 6.98,1.29 10.49,1.94 -0.07,3.27 -0.09,6.51 -0.17,9.76 -3.63,-0.54 -7.29,-1.11 -10.98,-1.71 0.24,-3.33 0.4,-6.67 0.65,-10.02l0 0.02zm81 -627.77c11.45,0.89 23.56,1.55 36.05,2.02 0.37,0.02 0.8,0.02 1.18,0.02 -16.54,1.12 -28.91,3.4 -38.04,6.49 0.24,-2.85 0.57,-5.67 0.81,-8.52l-0.01 -0.01zm-65.56 364.52c-0.74,27.51 -1.17,55.25 -1.65,82.92 -0.98,0.18 -2.05,0.31 -3.06,0.47 1.56,-27.81 3.13,-55.61 4.71,-83.39 3.17,-115.31 9.31,-228.96 25.16,-339.63 -11.51,113.15 -18.69,226.4 -25.16,339.63zm773.54 -131.28c1.82,3.2 0.98,7.51 1.85,11.31 1.17,3.66 -0.31,8.62 -0.27,13.02 0.38,3.81 -1.51,10.67 -2.91,16.82l-4.05 18.64 -6.6 17.06 -3.17 8.52c-0.98,2.89 -2.87,5.22 -4.27,7.84 -2.98,5.15 -5.83,10.27 -8.6,15.45 -3.14,4.96 -7.25,9.3 -10.65,14.02 -3.46,4.72 -6.86,9.45 -11.52,13.36 -4.27,4.17 -8.47,8.35 -12.58,12.62 -4.67,3.91 -9.82,7.47 -14.58,11.31l-7.17 5.72c-2.59,1.78 -5.51,3.31 -8.18,5l-16.26 10.13 -17.96 8.85c-5.85,3.04 -11.8,6.06 -18.52,8.42l-19.29 7.77c-6.51,2.56 -13.67,4.44 -20.41,6.76 -13.34,4.85 -28,8.24 -42.31,12.16 -57.91,15.04 -121.65,23.47 -187.79,31.85 -0.33,-5.71 -0.98,-17.11 -1.31,-22.91 -92.21,2.71 -188.53,-5.49 -284.54,-21.92 -13.11,-1.51 -25.58,-1.64 -37.74,-1.2 0.09,-1.07 0.14,-2.23 0.24,-3.29 17,-115.08 18.45,-237.82 24.84,-357.01 65.54,-7.69 136.31,-4.11 204.09,13.94 17.91,0.3 53.65,1.98 71.41,3.26 52.18,3.46 103.59,9.22 152.91,17.94 49.25,8.65 96.72,20.21 138.99,35.34 10.73,3.61 20.31,8.07 30.47,11.96l13.87 6.63 6.96 3.22 6.22 3.57c17.8,8.91 30.52,19.25 41.18,28.24 10.56,9.22 14.64,16.98 17.8,22.98 0.27,1.6 1.91,2.82 1.91,4.51 0.13,1.64 0.53,3.14 1.29,4.67 -0.46,3.91 1.37,7.06 0.14,12.56 -0.13,1.27 -0.17,2.53 -0.17,3.8l0.06 1.93 -0.77 3.14 -2.82 12.78c-0.98,4.22 -1.47,8.75 -2.65,12.76 -1.51,3.81 -2.93,7.67 -4.28,11.58 -1.42,3.81 -2.45,7.91 -3.96,11.65 -1.96,3.47 -3.83,6.96 -5.62,10.51 -1.89,3.47 -3.22,7.33 -5.4,10.64 -2.38,3.2 -4.71,6.42 -6.94,9.69 -18.2,25.91 -45.2,48.61 -80.45,67.14 -35.09,18.54 -77.43,32.41 -122.79,41.91 -45.43,9.49 -93.97,14.74 -143.72,16.7 64.23,-1.2 126.01,-7.96 181.64,-22.16l20.81 -5.36 19.62 -6.58c13.6,-3.83 24.94,-9.8 37.41,-14.61 23.04,-11.24 44.98,-23.29 61.69,-38.22 18.25,-14 30.87,-30.78 42.36,-48.45 4.49,-9.56 10.69,-18.18 13.53,-29 1.71,-5.24 4.05,-10.13 5.62,-15.52l3.58 -17 2.02 -8.47c0.78,-2.96 0.2,-3.97 0.5,-6.04 0,-3.51 1.35,-7.57 0.36,-10.18 -0.61,-2.8 0.38,-6.17 -1.04,-8.4 -0.98,-2.38 -0.47,-5.16 -2.22,-7.34 -3.66,-9.26 -11.87,-20.71 -28.07,-33.54 3.33,-2.11 9.43,-3.24 6.49,-9.6 19.69,11.71 31.91,24.52 38.04,37.14 2.35,3 2.4,6.67 3.74,10.07l-0.07 -0.12zm241.24 -7.83c-0.67,-8.71 -0.87,-17.31 -2.46,-26.09 -1.6,-8.82 -3.44,-17.61 -5.45,-26.34 -3.38,-17.69 -10.54,-34.18 -17.14,-50.76 -3.2,-8.48 -7.49,-15.89 -11.71,-23.47 -4.25,-7.55 -8.67,-15 -13.19,-22.36 -9.43,-13.69 -19.65,-26.56 -30.1,-38.87 -10.69,-10.89 -21.64,-22.42 -32.8,-32.02 -11.11,-8.91 -22.55,-18.64 -33.83,-26.29 -35.91,-24.89 -71.67,-42.75 -106.74,-56.93 2.46,-1.35 4.87,-2.6 7.34,-3.98 30.47,-17.74 60.7,-39.59 88.45,-66.56 27.74,-26.87 52.65,-59.11 71.85,-94.41 27.96,-51.54 41.38,-109.83 43.06,-162.91 0.74,-13.53 0.37,-26.49 -0.2,-39.45 -0.2,-3.38 -0.13,-6.2 -0.58,-10.06l-1.33 -11.51 -3.22 -22.98c-2.16,-15.19 -7.44,-31.12 -11.81,-46.43 -5,-15.36 -12.31,-30.51 -19.15,-45.35 -8.02,-14.21 -16.6,-28.45 -26.02,-41.6 -9.96,-12.28 -19.96,-25.52 -31,-36.03 -21.85,-21.89 -45.47,-40.18 -68.99,-54.4 -47.36,-28.94 -94.17,-45.51 -138.9,-57.36 -123.19,-29.09 -239.14,-35.65 -349.3,-34.98 -92.58,1.22 -179.82,9.93 -256,27.73 -1.69,-21.79 -3.87,-43.09 -7.49,-63.06 -23.13,-113.94 -104.04,-71.21 -132.95,42.72l-23.1 0c11.58,-113.94 -46.27,-56.98 -75.16,-71.21 0,56.93 -5.78,113.9 -23.13,170.87l0 56.93c0,334.01 11.28,648.17 0.46,974.02 11.22,-209.85 16.76,-406.33 11.15,-616.48 3.73,1.56 8.44,6.07 11.52,-1.51 28.89,213.6 -17.34,412.99 0,626.59l-22.94 0c-2.58,75.19 -6.34,151 -11.74,227.82 0,31.92 10.91,59.34 24.54,82.3 40.03,-227 36,-475.27 46.67,-711.5 0,99.65 5.76,213.56 -5.8,313.27 -11.56,142.37 -5.78,270.56 -23.13,398.73 -1.12,6.91 -2.36,13.91 -3.58,20.89 6.63,9.09 13.24,17.24 19.13,24.48 28.89,28.44 69.38,42.72 98.28,-14.27l0 -23.81c3.73,3.66 9.07,7.31 17.04,11.02 18.67,11.52 63.91,18.12 114.37,21.64 50.47,3.76 106.25,4.01 146.93,7.98 111.68,14.38 232.42,14.17 357.68,-12.8 62.49,-13.76 126.5,-34.51 188.9,-68.45 62.11,-33.6 122.85,-82.83 167.72,-146.22 8.65,-11.04 14.89,-23.67 22.13,-35.72l10.26 -18.48c3.29,-6.23 5.58,-12.7 8.31,-19.09 5.25,-12.86 10.31,-25.83 15.07,-38.93 3.58,-13.02 6.82,-26.16 9.93,-39.35l4.52 -19.8c1.15,-7.77 2.02,-16.24 2.8,-24.38 0.8,-8.2 1.45,-16.42 1.98,-24.65 -0.17,-8.67 -0.53,-17.38 -1.04,-26.1l-0.1 -0.04zm2329.01 -1612.27c1.22,-6.09 2.47,-12.22 3.58,-18.27 17.34,-112.08 11.58,-224.17 23.13,-348.69 11.58,-87.17 5.8,-186.79 5.8,-273.92 -10.65,206.58 -6.62,423.69 -46.65,622.17 -13.63,-20.07 -24.52,-44.04 -24.52,-71.94 5.36,-67.2 9.15,-133.48 11.72,-199.22l22.96 0c-17.37,-186.78 28.91,-361.14 0,-547.9 -3.07,6.66 -7.78,2.7 -11.52,1.31 0,-0.46 -0.04,-0.87 -0.04,-1.31 0,0.44 0.04,0.87 0.04,1.31 -3.27,-1.22 -5.83,-0.47 -5.83,11.15 0,-11.62 2.56,-12.36 5.83,-11.15 5.62,183.75 0.04,355.57 -11.15,539.08 10.8,-284.92 -0.46,-559.63 -0.46,-851.68l0 -49.8c17.35,-49.8 23.13,-99.63 23.13,-149.41 28.91,12.43 86.7,-37.4 75.15,62.27l23.13 0c28.89,-99.67 109.83,-137.03 132.98,-37.38 23.09,112.05 0,261.47 11.54,398.42 5.8,99.63 11.55,199.28 0,298.85 -17.34,136.97 -11.54,286.41 -34.67,423.37 -5.78,49.83 11.53,136.99 -5.78,161.91 -8.31,17.87 -20.61,18.58 -34.34,15.85 2.05,-81.87 2.67,-163.48 5.18,-244.19 6.46,-99.02 13.67,-198.04 25.18,-296.98 -15.85,96.77 -22,196.15 -25.18,296.98 -5.29,80.52 -10.07,161.1 -16.26,241.62 -11.82,-2.94 -24.11,-5.76 -35.51,-0.85l0 37.37c-28.93,49.8 -69.42,37.34 -98.3,12.45 -5.89,-6.33 -12.51,-13.47 -19.11,-21.42l-0.02 -0.03zm-761.12 -913.33l-7.18 8.69 -1.8 2.16 -3.24 3.6 -6.47 7.14c-17.29,18.78 -34.38,37.4 -51.41,55.89 -2.76,2.96 -5.49,5.76 -8.25,8.69 -0.17,-8.16 -0.31,-16.33 -0.58,-24.51 15.71,-16.03 31.41,-32.11 47.21,-48.21 12.13,-12.58 24.25,-25.24 36.45,-37.92 1.35,3.96 0.87,11.09 9.46,6.86 -4.76,5.89 -9.49,11.78 -14.2,17.61l0.01 0zm629.1 830.44c3.36,-12.83 14.8,-18.78 26,-24.25 -73.25,-82.19 -147.5,-163.46 -221.37,-245 -94.97,-99.65 -186.39,-200.02 -268.45,-304.78 87.24,103.76 177.59,204.53 268.45,304.78 75.99,79.78 154.2,159.11 231.67,239.67 12.36,-7.07 20.4,-16.43 9.03,-39.59 -11.74,-36.3 -108.04,-108.32 -151.97,-160.56 -57.81,-74.34 -123.73,-146.57 -190.22,-218.33 -33.16,-35.93 -66.29,-71.81 -99.12,-107.43 -16.26,-17.89 -32.32,-35.83 -48.05,-53.81 -7.8,-9 -15.58,-18.02 -23.37,-26.96l-2.85 -3.4c-0.27,-0.42 -0.04,-0.38 -0.09,-0.6l0.17 -0.84c0.17,-0.58 0.37,-1.11 0.64,-1.58 1.51,-2.93 3.56,-3.51 4.74,-3.64 0.97,-0.07 1.11,0.07 0.98,0.04 -0.07,0 -0.21,-0.06 -0.36,-0.2l-0.24 -0.24 -0.13 -0.17c0,0 -0.06,0 0,-0.09l1.62 -1.69 3.2 -3.38c34,-35.98 67.39,-72.58 100.84,-109.16 123.63,-140.7 283.87,-268.96 375.35,-393.71 79.48,-112.72 -13.84,-133.67 -130.25,-57.61 -4.11,-4.07 -12.29,-12.22 -16.4,-16.3 104.1,-88.28 15.18,-80.85 6.67,-113.25 -47.94,48.18 -99.99,92.3 -160.24,128.28 -11.98,12.05 -35.96,36.16 -47.94,48.18 -72.51,72.89 -143.33,145.17 -213.39,216.89 -35.02,35.91 -69.87,71.61 -104.61,107.24 -19.67,19.93 -39.22,39.76 -58.85,59.69 -1.28,-36.45 -3.24,-72.9 -5.26,-109.35 -11.58,-143.88 11.55,-300.94 -11.58,-418.64 -23.13,-104.7 -104.04,-65.43 -132.95,39.23l-23.09 0c11.58,-104.67 -46.27,-52.35 -75.16,-65.41 0,52.31 -5.8,104.67 -23.13,156.99l0 52.32c0,306.87 11.28,595.52 0.46,894.91 11.21,-192.82 16.76,-373.35 11.14,-566.43 3.74,1.44 8.42,5.58 11.52,-1.41 28.89,196.26 -17.34,379.43 0,575.68l-22.96 0c-2.56,69.09 -6.33,138.75 -11.72,209.33 0,29.32 10.87,54.52 24.52,75.61 40.03,-208.58 36,-436.67 46.67,-653.72 0,91.55 5.76,196.24 -5.78,287.81 -11.58,130.83 -5.8,248.6 -23.1,366.35 -1.17,6.36 -2.39,12.78 -3.6,19.22 6.62,8.36 13.24,15.85 19.11,22.51 28.89,26.13 69.38,39.25 98.28,-13.11l0 -39.23c11.42,-5.16 23.7,-2.19 35.49,0.91 6.23,-84.61 11,-169.28 16.29,-253.89 3.16,-105.94 9.32,-210.35 25.16,-312.05 -11.51,103.97 -18.69,208.04 -25.16,312.05 -2.49,84.8 -3.17,170.57 -5.19,256.58 13.74,2.87 26.03,2.13 34.34,-16.67 17.34,-26.18 0,-117.77 5.76,-170.13 20.29,-126.12 18.34,-262.33 29.25,-390.94 21.07,21.04 42.19,42.07 63.29,63.1 33.19,33.36 66.34,66.72 99.61,100.16 65.38,66.25 130.35,133.3 195,201.84 -64.37,-70.65 -127.76,-139.04 -191.53,-206.29 -16.02,-16.76 -31.98,-33.5 -47.96,-50.23l-49.47 -51.12c-22.52,-22.7 -45.27,-45.62 -67.83,-68.38 0.73,-8.05 1.58,-16.03 2.43,-24.07 26.85,27.67 53.47,55.47 80.19,83.59 31.72,34.87 63.45,69.72 95.21,104.63 63.67,69.8 128.79,138.84 202.28,203.13 -4.07,4.05 -12.13,12.11 -16.26,16.22 61.54,65.35 122.79,132.1 183.73,200.78 26.89,27 57.7,42.49 86.7,52.23 -81.5,-110.05 -175.28,-216.82 -272.61,-321.94 -48.69,-52.59 -98.21,-104.74 -147.6,-156.73 -55.11,-58.18 -110.02,-116.12 -164.3,-173.44 48.02,47.47 99.46,98.37 150.88,149.24 45.04,45.12 88.99,91.26 126.93,137.48 111.83,128.51 223.95,232.74 319.68,353.28 5,6.67 10.04,13.42 15.11,20.2 12.35,3 23.89,5.24 34.18,7.22 44.41,3.61 85.12,-12.91 57.54,-81.48 -11.98,-12.03 -36,-36.07 -36,-36.07l-0 -0.09zm-1422.02 -486.42c8.05,19.55 16.16,38.67 24.31,57.74 -1.27,0.02 -2.58,0.07 -3.81,0.09 -35.65,-80.93 -72.15,-161.88 -108.55,-242.49l-7.06 -15.63 -4.94 -11.22 -6.29 -14.8 -12.91 -30.43c-9.13,-21.89 -18.2,-43.7 -27.25,-65.38 16.72,34.18 34.67,70.78 52.59,107.37 8.02,17.14 16.02,34.25 23.98,51.28 8.36,18.45 16.66,36.83 24.89,55.07 16.2,36.59 31.42,72.89 45.09,108.39l-0.04 0.01zm-290.65 79.36c3.2,-7.04 6.31,-13.98 9.5,-20.98 79.26,10.33 154.12,15.42 233.85,10.02 -0.61,3.73 -2.4,8.45 0.6,11.52 -83.18,28.51 -160.93,-15.96 -243.98,-0.54l0.02 -0.02zm31.36 31.27c-14.6,-3 -28.82,-4.82 -42.74,-6.2 0.51,-1.15 1.07,-2.31 1.56,-3.46 54.85,7.81 110.67,9.26 164.9,15.43 -39.4,0 -84.36,5.76 -123.72,-5.78l0.01 0.01zm-44.16 142.48c-21.58,-1.49 -43.34,-2.39 -65.19,-3.22 0.91,-1.94 1.78,-3.87 2.65,-5.82 20.84,3.07 41.69,6 62.52,9.04 45.56,3.14 90.41,9.3 134.12,25.16 -44.69,-11.51 -89.39,-18.69 -134.12,-25.16l0.02 0.01zm131.19 -435.15l1.69 -3.73 0.22 -0.62 0.49 -1.22 0.93 -2.52 2 -5.24c2.7,-7.11 5.78,-14.85 9.07,-22.69 2.66,5.07 5.48,10.61 8.24,16.4l16.47 35.58c34.89,74.56 69.39,149.66 103.67,225.2 -84.27,2.49 -166.93,5.11 -251.4,-1.25 22.16,-48.8 44.27,-97.52 66.18,-145.94 14.18,-31.38 28.31,-62.72 42.45,-93.97zm14 -101.81c7.48,17.14 14.42,35.69 20.07,52.18l7.73 23.4c3.27,9.3 0.44,5.67 15.45,39.36 33.09,75.98 67.34,151.91 105.3,227.46 -6.2,0.18 -12.33,0.34 -18.49,0.54 -33.56,-77.01 -67.03,-153.19 -100.8,-228.34l-8.35 -18.55 -0.51 -1.17 -0.07 -0.18 -0.13 -0.38 -0.27 -0.74 -0.51 -1.56 -2.2 -6.33 -5.09 -13.47c-3.64,-9.22 -7.75,-18.78 -11.93,-27.83 -6.98,14.74 -14.29,32.12 -19.46,47.36 -3.07,-2.23 -6.23,-6.56 -10.04,-5.73 2.79,-26.65 17.15,-62.41 29.22,-86.03l0.04 0.01zm556.89 723.38c-2.93,-46.63 -83.74,-176.39 -115.72,-257.25 -40.7,-112.7 -90.26,-227.18 -140.48,-341.39 -12.56,-28.54 -25.12,-57.07 -37.65,-85.56 -6.22,-14.24 -12.46,-28.45 -18.69,-42.67 -11.15,-24.74 -22.29,-49.42 -33.4,-74.03 -48.18,-106.74 -96.38,-215.04 -145.28,-328.23 -22.51,-51.58 -45.51,-103.32 -68.78,-154.7 -60.8,125.28 -123.02,259.78 -183.31,393.22l-44.92 100.02 -22.2 49.8 -11.67 27.07 -42.75 101.04c-89.43,221.43 -219.42,448.09 -280.14,634.99 -51.69,167.28 49.05,142.06 147.99,-3.42 5.24,2.42 15.72,7.27 20.98,9.7 -83.18,152.72 5.65,98.15 22.82,129.93 36.32,-78.74 77.92,-155.13 129.99,-226.64 9.11,-19.69 27.29,-59.09 36.34,-78.74 0.44,-0.89 0.78,-1.76 1.2,-2.62 16.62,0.3 38.72,-5.83 53.59,-1.98 61.83,23.13 129.34,17.31 191.17,34.67 44.98,11.55 89.96,5.76 134.95,0 30.91,-5.8 63.25,-2.91 94.17,-1.47 20.27,46.87 40.46,93.92 60.43,141.51 20.83,43.93 48.58,76.96 75.89,102.68 -27.54,-80.92 -58.38,-162.5 -91.27,-244.36 2.91,-0.27 5.65,-0.91 8.48,-1.33 35.48,79.72 69.38,158.31 99.17,238.76 3.44,10 6.93,20.14 10.4,30.29 11.91,9.67 23.22,18.04 33.29,25.52 44.67,26.71 90.56,29.02 79.45,-61.81 -9.31,-19.56 -27.91,-58.76 -27.91,-58.76 6.66,-12.6 19.89,-13.46 32.72,-13.85 -54.56,-129.35 -110.41,-258.22 -165.78,-387.17 -36.22,-79.99 -71.52,-159.73 -105,-239.36 -16.7,-39.82 -33.02,-79.59 -48.72,-119.39 -25.91,-62.52 -51.74,-124.84 -77.56,-187.13 26.87,62.76 53.72,125.41 80.52,188 16.52,39.9 33.02,79.79 49.52,119.62 33.3,79.63 67.19,158.99 101.24,238.27 58.76,127.77 118.11,256.87 177.72,386.46 14.44,-1.58 25.02,-8 19.16,-39.69l0.01 -0.04zm-1224.57 111.81c-10.07,-0.91 -20.14,-1.82 -30.11,-2.7 -184.33,-12.11 -368.01,-1.07 -572.59,-6.8 -51.98,-2.72 -106.57,-3.07 -161.86,-2.23 -17.34,0.38 -34.7,0.74 -52.14,1.15l-61.98 1.75c-41.48,1.37 -82.92,2.76 -123.88,4.11 -0.3,-61.99 -0.54,-122.89 -0.81,-181.46 -1.11,61.6 -2.19,123.52 -3.3,185.7 57.2,-0.82 114.61,-1.64 172.1,-2.47 24.84,-0.31 49.69,-0.61 74.57,-0.96l57.03 -0.44c76.05,-0.53 152.15,-0.8 227.82,-0.17 151.37,1.22 300.94,6.04 444.87,19.56 -32.52,14.58 -71.54,26.57 -117.33,27.91 -110.33,-2.23 -219.18,-2.89 -327.14,-2.42 -0.15,-5.82 -0.47,-17.2 -0.62,-22.93 -77.3,6.58 -153.42,9.07 -228.93,9.72 -110.79,0.58 -220.95,1.15 -331.06,1.71 1.26,-63.52 2.47,-126.99 3.7,-190.55 0.4,-26.76 0.74,-53.54 1.17,-80.36 0.11,-18.42 0.26,-36.83 0.38,-55.32 -0.04,-73.94 -2.62,-148.5 -9.74,-224.27 -3.09,10.87 -7.8,4.42 -11.52,2.16 -0.02,-0.74 -0.02,-1.45 -0.02,-2.16 0,0.69 0,1.42 0.02,2.16 -3.29,-2.03 -5.8,-0.78 -5.8,18.27 0,-19.05 2.53,-20.3 5.8,-18.27 1.4,75.43 2.13,149.61 2.22,223.18 -0.51,114.28 -0.98,227.6 -1.49,340.98 66.56,-1.25 133.12,-2.49 199.82,-3.74 80.94,-1.55 100.96,-1.22 140.94,-1.35 73.48,-0.11 147.57,0.27 222.89,0.89 -74.3,0.44 -148.17,1.37 -221.76,2.7 -47.45,1.11 -94.83,2.18 -142.15,3.24 -69.05,1.89 -137.97,3.76 -206.91,5.65 -0.22,-121.7 -0.47,-243.28 -0.74,-365.1 -0.57,-78.78 -1.17,-157.77 -1.75,-237.07 -1.31,-158.68 -2.63,-318.89 -2.63,-482.38l0 -81.72c17.37,-81.74 23.14,-163.52 23.14,-245.18 28.89,20.4 86.7,-61.36 75.14,102.15l23.13 0c28.93,-163.52 109.83,-224.82 132.97,-61.3 23.13,183.88 0,429.09 11.58,653.84 2.87,81.76 5.76,163.5 6.49,245.24 0.38,40.87 0.2,81.72 -0.8,122.59 -0.53,20.43 -1.2,40.87 -2.15,61.3l-0.38 7.65c-0.11,2.45 -0.24,5.98 -0.37,4.98l-0.84 0.53c-0.6,0.38 -1.25,0.94 -1.96,1.65 -2.49,2.33 -4.49,6.17 -6.19,10.84 0.94,1.25 2.7,2.28 5.07,3.2 1.18,0.43 2.47,0.85 3.93,1.25l2.26 0.58 1.15 0.27c0.71,0.07 -0.37,0.2 3.96,0.18 50.21,0.13 100.67,0.24 151.03,0.38 100.69,0.51 200.85,2.26 297.45,9.42 81.88,3.44 224.4,-17.96 265.78,-1.8 29.56,7.47 31.11,19.74 27,33.6 -134.37,2.09 -268.23,4.15 -400.74,6.22 -81.3,-0.91 -162.58,-2.02 -243.89,-3.74l-61 -1.42 -30.5 -0.81 -7.31 -0.2 -3.22 -0.37 -6.27 -0.71c-16.49,-1.93 -30.93,-4.11 -42.65,-6.66 10.31,3.67 24.61,6.64 41.48,9l6.46 0.83c2.56,0.3 3.07,0.6 9.36,0.74l30.33 1.02c20.27,0.51 40.58,1 60.91,1.51 81.37,1.62 163.55,1.58 246.27,0.8 132.24,1.51 264.56,2.55 396.83,4.96 -4.49,11.93 -8.78,24.38 -0.38,35.54 0,0 40.83,-1.15 61.27,-1.74 82.56,26.56 63.2,67.59 23.26,97.67 -10.21,6.18 -21.74,13.1 -34.58,20.1l-0.06 -0.09zm-1058.06 -1277.97c-5.83,10.27 -11.67,20.54 -17.45,30.74 -102.85,190.31 -184.53,389.95 -291.74,604.5 -19.55,37.17 -38.74,76.19 -57.54,116.19 -9.27,20.06 -18.58,40.29 -27.98,60.57 -10.76,24.17 -21.56,48.41 -32.35,72.67 -53.89,123.46 -107.77,246.92 -158.07,362.12 30.63,-66.69 61.45,-133.74 92.38,-201.09 30.81,-67.63 61.74,-135.52 92.72,-203.51 42.34,-91.72 84.85,-183.82 127.99,-275.09 86.3,-182.54 175.17,-361.81 270.51,-528.47 -3.09,40.83 -11.75,87.43 -33.4,136.59 -57.06,116.08 -111.94,231.27 -165.35,345.96 -5.32,-2.35 -15.74,-6.93 -20.98,-9.24 -43.09,112.05 -91.56,218.84 -141.44,324.01l-9.38 19.7 -12.58 26.91 -31.93 68.87c-20.91,45.05 -41.83,90.07 -62.72,135.08 -41.34,88.99 -81.52,175.79 -121.24,263.47 -41.11,-91.46 -81.74,-179.98 -123.92,-268.42 -21.11,-44.28 -42.61,-88.56 -64.95,-133.53 -11.32,-22.62 -22.69,-45.32 -34.13,-68.11 -6.85,-13.69 -9.18,-17.51 -13.02,-24.6l-10.91 -19.62c2.52,12.89 -4.91,7.98 -9.43,7.15 -0.37,-0.8 -0.73,-1.56 -1.06,-2.31 0.35,0.74 0.71,1.51 1.06,2.31 -3.97,-0.8 -5.63,1.6 3.7,21.89 -9.36,-20.29 -7.67,-22.69 -3.7,-21.89 19.03,40.36 37.98,80.52 56.83,120.46 22.59,48.47 45.09,96.69 67.47,144.7 44.45,96.3 88.54,191.8 132.39,286.85 42.16,-94.52 84.16,-188.66 126.17,-282.76 21.31,-47.27 42.56,-94.56 63.87,-141.9l32.32 -71.47 23.58 -51.5c48.07,-103.37 97.2,-207.15 147.9,-312.94 -48.72,104.88 -96.23,209.38 -142.93,313.81 -83.74,189.79 -167.19,378.9 -250.72,568.27 -170.69,-366.54 -341.88,-734.22 -519.12,-1114.93 -10.02,-21.72 -30.07,-65.27 -40.1,-87 -24.38,-94.3 -59.23,-183.78 -99.32,-270.78 36.29,9.63 48.65,-101.61 118.41,77.34 5.2,-2.42 15.72,-7.25 20.98,-9.67 -54,-186.2 -10.56,-285.36 90.67,-120.94 111.21,186.13 210.53,456.89 331.3,691.36l57.81 116.56 28.55 58.41 3.56 7.31 0.8 1.61 0.02 0 0.09 0 0.29 -0.04c0.17,-0.06 0.3,-0.13 0.38,-0.2 0.94,-0.4 -0.6,-2.32 0.34,8.76 0.2,1.51 0.53,3.09 1.07,4.64 2.02,6.15 6.09,4.11 10.83,-1.09 1.22,-1.31 2.46,-2.85 3.74,-4.58l0.51 -0.64c-0.07,0.27 0.51,-1.04 0.97,-1.96l1.4 -2.91 5.49 -11.62 11.04 -23.27c14.67,-31.04 29.39,-62.22 44.09,-93.36 58.89,-124.61 118.41,-248.87 182.11,-364.75 43.98,-85.39 95.76,-245.87 130.97,-282.73 21.48,-28.14 33.27,-24.43 43.7,-14.07 -65.12,143.46 -130.03,286.38 -194.26,427.82 -41.67,85.65 -83.33,171.37 -125.07,257.12 -21.01,42.29 -42.07,84.61 -63.13,126.93 -10.13,17.06 -19.53,31.85 -27.85,43.63 8.74,-10 18.78,-24.41 29.56,-41.78l1.04 -1.69 2.02 -3.94 4.05 -7.89 8.06 -15.8 16.03 -31.74c10.54,-21.25 21.17,-42.58 31.72,-63.93 42.05,-85.67 83.01,-172.82 123.57,-260.93 67.34,-139.65 134.24,-279.56 202.42,-418.84 8.53,9.94 17.58,19.91 31.82,15.85l28.98 -65.72c65.12,-76.07 92.48,-37.78 99.63,17.65 0.44,13.54 0.96,28.76 0.84,45.43l0.04 -0.03zm-1281.72 -49.67c-0.27,13.87 -0.51,27.77 -0.71,41.47 -0.6,126.81 -0.09,252.89 -5.46,383.15 -5.72,130.1 -16.36,264.69 -48.52,405.35 -25.22,97.72 -53.67,203.82 -110.97,305.64 -28.71,50.46 -66.76,100.07 -118.15,138.23 -51.01,38.72 -116.45,59.89 -176.49,62.15 35.63,-0.62 72.69,-7.49 107.5,-20.87 34.85,-13.31 67.05,-33.03 94.57,-56.26 55.39,-46.85 92.81,-104.8 121.85,-162.66 28.58,-58.31 48.98,-118.01 65.21,-177.63 16.26,-59.67 28.15,-119.46 37.94,-179.04 19.13,-119.12 29.5,-237.42 36.67,-353.95 7.02,-116.59 10.84,-231.36 13.61,-344.26 16.54,44.52 30.26,98.55 32.16,162.22 -1.13,153.24 -7.53,304.81 -25.49,456.86 -5.78,-0.58 -17.13,-1.73 -22.83,-2.33 -6.8,107.63 -23.47,214.46 -56.72,320.56 -16.69,52.98 -38,105.9 -66.8,157.72 -14.78,25.89 -31.18,51.48 -50.6,76.19 -19.65,24.64 -42.16,48.38 -68.23,69.76 -51.51,43.36 -121.21,72.96 -189.75,79.92 -16.98,1.22 -34.07,2.47 -50.57,1.64l-12.49 -0.31c-3.98,-0.18 -7.34,-0.64 -11.05,-0.96l-21.71 -2.09 -21.74 -2.16 -22.03 -3.74c-14.69,-2.55 -29.35,-4.71 -44.24,-8.96 -59.06,-14.09 -119.68,-39.07 -173.26,-77.23 -53.8,-37.81 -98.74,-87.59 -133.63,-140.41 6.58,17.13 -2.91,10.4 -8.09,8.98 -0.65,-1.11 -1.28,-2.13 -1.89,-3.14 0.64,1.02 1.25,2.03 1.89,3.14 -4.29,-1.37 -6.34,1.94 11.61,29.63 -17.96,-27.69 -15.93,-31 -11.61,-29.63 32.85,54.38 77.34,106.25 131.74,145.88 54.2,39.94 116.22,66.15 176.35,80.69 7.55,1.84 15.15,4.11 22.62,5.43l22.4 3.83 22.36 3.67c7.48,1.2 14.69,1.51 22.03,2.29l21.94 1.94c7.34,0.6 14.21,1.38 23.3,1.37 8.58,0.13 17.14,0.27 25.75,0.14l26.27 -1.85c35.18,-3.61 70.94,-12.16 104.65,-26 33.81,-13.76 64.59,-33.07 91.67,-54.61 54.54,-43.56 92.45,-96.05 122.22,-147.8 29.56,-52.16 51.11,-104.95 68.72,-157.57 34.89,-105.34 54.87,-210.52 69.59,-316.6 -10.44,82.43 -24.47,165.06 -46.07,248.29 -22.07,83.09 -50.29,167.5 -100.39,250.93 -25.49,41.45 -56.97,82.83 -98.57,119.3 -41.71,36.06 -94.26,66.78 -151.26,81.41 -28.28,8.15 -56.97,11.38 -85.1,13.07 -13.61,0.31 -28.25,0.27 -40.81,-0.36l-35.02 -2.87 -17.53 -1.64 -17.87 -2.83c-11.93,-2 -23.81,-3.76 -35.78,-6.13 -24.14,-6.15 -48.2,-11.29 -72.35,-20.74 -24.18,-7.81 -47.85,-19.7 -71.28,-31.38l-34.05 -20.61c-11.35,-6.93 -21.56,-15.62 -32.31,-23.53 -41.65,-33.09 -77.74,-72.83 -105.7,-115.01 -27.63,-42.22 -49.25,-86.01 -66.12,-129.63 -16.02,-43.49 -29.63,-87.17 -38.92,-129.95 -20,-85.99 -29.89,-169.98 -36.8,-253.14l-0.07 -0.89c-0.06,6.4 -0.42,13.89 -0.67,20.73 -2.23,59.52 -13.43,116.86 -30.54,171.1 -17.03,54.33 -40.17,105.55 -68.21,153.42 -28.04,47.85 -60.46,92.74 -97.48,133.69 -73.96,81.67 -165.04,150.15 -272.4,192.87 -53.4,21.55 -111.07,35.62 -170.26,40.91 -29.58,2.96 -59.58,2.69 -89.43,1.11 -14.31,-1.35 -28.48,-2.49 -42.76,-4.38 -14.24,-2.39 -28.48,-3.93 -42.69,-7.25 -56.72,-11.62 -113.03,-30.78 -165.04,-58.45 -51.92,-27.61 -100.23,-62.16 -141.77,-102.56 -41.83,-40.18 -77.97,-85.14 -107.84,-132.99 -30.18,-47.76 -54.57,-98.24 -73.67,-150.12 -19.26,-51.87 -33.46,-105.17 -42.74,-159.24 -9.4,-54.05 -14.28,-108.83 -14.04,-163.93 0.15,-55.11 4.75,-110.54 15.09,-165.66 10.16,-55.14 25.52,-110.08 47.5,-163.64 7.09,-18.31 19.67,-45.38 33.61,-71.92 14.36,-26.42 30.33,-52.22 42.14,-68.79 53.16,-61.98 116.22,-116.39 186.91,-157.13 70.49,-41.07 147.81,-68.28 225.2,-81.39 -16.4,17.48 15.8,33.96 13.58,51.2 -0.84,8.83 -9.74,16.53 -34.87,27.01 -24.98,10.77 -67.1,22.15 -130.45,52.74 2.76,5.06 8.31,15.2 11.09,20.27 31.2,-12.89 61.36,-20.29 88.67,-24.17 27.51,-3.14 51.98,-3.5 73.06,-0.81 20.97,2.11 38.52,7.17 52.03,12.26 13.61,5.76 23.34,11.94 29.11,18.25 6.38,6.49 8.67,13.07 6.42,19.5 -1.02,3.27 -3.53,6.42 -6.57,9.63 -2.91,3.2 -6.74,6.39 -11.54,9.5 -19.23,12.31 -53.74,24.17 -99.63,44 -51.6,22.05 -100.69,52.65 -142.98,97.84 -21.17,22.47 -40.98,48.11 -58.23,77.14 -17.2,29.06 -32.16,61.14 -44.27,95.48 -23.83,68.85 -36,146.57 -33.52,224.33 2.03,77.68 18.74,155.37 48.69,222.57 42.29,98.5 109.72,178.5 191.57,221.36 40.93,21.87 85.57,35.87 134.08,41.64 12.55,1.85 23.19,2.23 34.44,2.91l16.91 0.17 17 -0.89c22.76,-1.72 45.87,-5.63 69.11,-11.74 31.98,-8.42 64.36,-21.8 95.5,-39.94 31.07,-18.29 60.91,-41.01 88.34,-67.14 54.63,-52.39 99.86,-118.61 126.96,-189.26 13.81,-35.25 23.23,-71.54 27.27,-107.3 1.29,-8.96 1.71,-17.81 2.26,-26.67 0.4,-4.04 0.4,-9.73 0.46,-15.15l0.22 -16.27c0.6,-21.78 -0.27,-43.1 -0.64,-64.5 -3.2,-85.04 -14.29,-166.79 -37.43,-239.57 -8.72,-26.45 -23.47,-55.34 -42,-82.45 -18.61,-27.14 -41.52,-51.87 -66.05,-71.54 -48.69,-39.96 -103.12,-60.45 -126.65,-76.25 -17.34,-9.6 -26.52,-16.69 -29.78,-23.5 -3.31,-6.76 -0.87,-12.89 3.77,-18.82 47.13,11.07 91.57,28.65 130.92,53.23 39.5,24.47 73.56,56.23 101.85,93.21 56.36,74.56 87.47,169.77 102.01,267.96 8.22,60.5 10.65,122.61 9.06,185.02 -1.71,56.22 -14.42,111.67 -36.63,164.54 -44.27,105.39 -123.28,198.42 -217.87,257.09 93.97,-55.31 174.04,-146.95 219.42,-252.81 22.31,-53.07 35.76,-109.57 37.16,-166.11 1.2,-63.16 -1.93,-126.25 -11.11,-187.72 -13.23,-98.14 -42.21,-193.41 -96.9,-269.41 -27.33,-37.78 -60.56,-70.8 -99.58,-96.54 -19.4,-13.02 -40.06,-24.48 -61.89,-33.91 -21.69,-9.74 -44.45,-17.73 -67.94,-23.94 9.56,-9.87 19.93,-20.06 10.36,-34.04 0,0 -15.51,-4.04 -35.32,-7.4 -19.72,-3.67 -43.76,-6.34 -59.81,-7.71 -63.36,-18.8 -90.02,-33.18 -90.46,-51.14 -0.62,-17.11 24.76,-35.72 61.78,-49.02 18.82,-5.05 40.43,-10.31 65.27,-14.2 18.38,3.58 36.67,7.35 54.78,12.19 83.67,20.41 167.39,56.67 238.17,112.99 71.1,55.85 125.99,130.23 162.5,209.37 18.39,39.63 32.94,80.46 44.17,121.88 10.87,41.41 18.88,83.3 24.47,125.44 4.87,42.09 8.62,84.54 9.04,127.03 0.89,21.31 -0.04,42.51 -0.07,63.9 -0.31,11.18 -1.18,23.51 -1.85,35.22 -1.35,11.76 -2.49,23.58 -4.25,35.31 -21.85,131.01 -83.54,257.06 -171.93,360.39 -44.14,51.78 -95.59,97.52 -152.24,134.86 -28.45,18.44 -58.18,34.74 -88.81,48.59 -30.8,13.5 -62.52,24.33 -94.54,32.38 76.42,-17.5 148.11,-51.2 211.6,-95.17 63.46,-44.31 118.94,-98.95 165.48,-160.63 46.4,-61.76 83.49,-131.11 108.48,-206 12.42,-37.47 21.72,-76.36 26.96,-116.32l3.09 -30.17c0.78,-10.11 1.04,-20.29 1.55,-30.43 0.38,-19.29 0.17,-36.87 0.26,-55.38 -1.11,-73.37 -7.41,-147.63 -21.81,-222.07 -14.87,-74.31 -38.45,-149.24 -76.83,-220.04 -38.38,-70.5 -92.7,-136.14 -159.57,-185.71 -66.82,-49.72 -143.32,-82.69 -219.11,-102.56 32.38,-0.4 68.79,2.02 108.08,12.03 39.2,9.85 81.41,26.6 122.39,53.2 48.74,32.78 91.98,73.76 127.7,118.59 35.81,44.85 64.16,93.5 86.05,142.75 38.89,88.27 58.61,177.37 69.23,263.94 -0.57,-19.19 -1.02,-38.35 -1.38,-57.5 -0.33,-27.85 -1.04,-83.67 -1.4,-111.57 16.63,-111.17 22.93,-221.17 22.65,-330.63 28.93,27.38 86.72,-82.76 75.25,137.2 5.76,0 17.33,0.02 23.07,0.02 28.94,-219.77 109.04,-303.83 132.99,-82.63 11.81,124.16 10.65,268.26 12.55,416.24 1.05,73.92 3.09,148.82 9.3,221.74 6.22,72.76 16.78,143.76 34.96,206.86 12.66,45.81 28.6,88.21 47.92,123.5 19.43,35.34 41.31,63.07 66.69,82.61 25.25,19.85 54.63,34.36 91.34,44.5 8.72,3.06 18.69,4.72 28.54,6.67 4.94,0.94 9.69,2.25 14.87,3l15.78 1.94 15.8 2.19 11.45 0.98c3.84,0.67 7.02,0.13 10.51,0.38 3.58,0.34 6.78,0 10.02,-0.22 18.04,-0.56 33.94,-5.36 51.25,-15.67 17.27,-10.04 35.02,-27.64 51.81,-49.76 33.7,-45.11 60.56,-109.01 80.76,-176.55 20.36,-67.98 34.87,-140.72 46.65,-213.93 11.8,-73.34 20.67,-147.43 29.02,-220.53 4.87,-53.27 2.67,-127.08 -0.02,-194.13 -2.6,-67.1 -5.53,-127.46 1.65,-154.8 6.16,-39.07 18.22,-41.45 32.32,-36.33 8.6,178.09 9.4,356.55 -7.34,529.69 -12.35,105.74 -30.56,210.73 -61.87,308.03 -7.78,24.27 -16.4,48.04 -26.15,70.78 -9.52,22.83 -20.21,44.74 -32.05,65.04 -23.29,40.88 -51.87,75.41 -82.57,96.74 30.83,-19.89 59.87,-53.5 83.61,-93.7 24.05,-40.13 43.37,-86.52 59.15,-135.1 31.52,-97.52 49.01,-203.96 59.89,-311.76 19.43,-172.52 22.83,-348.9 18.72,-524.78 12.16,5.72 24.84,11.24 35.59,-0.24 0,0 -3.44,-54.67 -5.67,-82.01 10,-55.78 24.74,-78.11 42,-80.32 17.29,-1.69 36.82,17.67 53.63,44.45 7.11,13.8 14.98,29.3 22.93,46.8l0.15 -0.17zm-1065.41 638.3c-3.66,-48.27 -6.13,-96.25 -7.84,-144.1l-20.36 2.23c2.49,16.74 4.04,33.36 5.98,50.03 1.58,16.62 2.53,33.11 3.7,49.63 0.94,16.49 1.22,32.83 1.74,49.22 0.38,7.64 0.02,17.81 -0.14,27.01 -0.07,9.42 -0.46,18.78 -1.35,28 -2.62,37.2 -8.91,73.5 -18.22,108.46 -9.29,34.94 -20.81,68.98 -35.39,101.23 -57.57,129.35 -149.24,237.76 -264.29,316.52 -28.98,19.46 -59.42,36.98 -91.21,52.32 -31.87,15.22 -65.35,27.71 -99.79,37.67 -34.4,10.17 -70.34,16.39 -106.57,19.91 -18.15,1.93 -36.46,2.29 -54.78,2.53 -18.2,-0.54 -37.07,-0.96 -54.37,-3.07 -35.28,-3.22 -70.7,-9.67 -105.61,-19.13 -34.98,-9.33 -69.52,-21.69 -102.65,-37.48 -33.22,-15.65 -65.19,-34.21 -95.45,-55.38 -30.16,-21.32 -58.48,-45.22 -84.88,-71.05 11.98,17.54 0.18,11.69 -5.58,10.98 -1.02,-1.07 -1.96,-2.11 -2.91,-3.13 0.94,1.02 1.89,2.03 2.91,3.13 -4.85,-0.89 -5.98,3.29 21.27,29.78 -27.25,-26.49 -26.12,-30.67 -21.27,-29.78 25.58,26.7 53.43,51.43 83.26,73.7 30,22.07 62.11,41.4 95.48,57.76 33.33,16.54 68.28,29.45 103.69,39.25 17.65,5.29 35.54,8.75 53.37,12.56 17.89,2.82 35.8,6.09 53.67,7.51 17.51,2.15 36.52,2.69 55.18,3.34 18.65,-0.37 37.38,-0.4 55.81,-2.47 37,-3.22 73.39,-10.02 108.34,-20.17 70.23,-19.78 134.94,-51.74 192.95,-91.1 115.81,-79.32 207.16,-187.02 267.96,-314.43 30.23,-63.83 52.05,-133.35 62.07,-207.39 2.06,-18.62 4.11,-37.27 4.58,-56.34l0.57 -14.07 0.06 -12.2 0 -1.45 0.07 -0.06z"/>
 </g>
</svg>
