<?xml version="1.0" encoding="UTF-8"?>
<!DOCTYPE svg PUBLIC "-//W3C//DTD SVG 1.1//EN" "http://www.w3.org/Graphics/SVG/1.1/DTD/svg11.dtd">
<!-- Creator: CorelDRAW 2018 (64-Bit) -->
<svg xmlns="http://www.w3.org/2000/svg" xml:space="preserve" width="8.5in" height="2.07654in" version="1.1" style="shape-rendering:geometricPrecision; text-rendering:geometricPrecision; image-rendering:optimizeQuality; fill-rule:evenodd; clip-rule:evenodd"
viewBox="0 0 8500 2076.54"
 xmlns:xlink="http://www.w3.org/1999/xlink">
 <defs>
  <style type="text/css">
   <![CDATA[
    .fil0 {fill:#137551}
   ]]>
  </style>
 </defs>
 <g id="Plan_x0020_1">
  <metadata id="CorelCorpID_0Corel-Layer"/>
  <path class="fil0" d="M4370.62 1143.41l-10.19 -932.82 -202.63 2.24 4.47 408.66 -182.09 695.47 -144.02 -119.3 -343.11 -977.61 -202.07 2.21 203.89 167.34 10.19 931.88 -204.02 -167.23 -10.08 -931.99 -202.45 -164.11 573.15 -6.29 168.18 609.24 6.28 536.57 321.65 -984.82 -172.15 -164.5 573.12 -6.2 13.81 1268.92 -201.96 -167.64 0.03 -0.02zm229.38 -1143.41l-646.82 7.06 -124.98 491.5 -134.86 -488.64 -646.82 7.04 14.72 1351.11 485.94 -5.27 -4.53 -420.68 120.52 419.95 349.22 -3.8 111.64 -426.15 4.64 425.39 486.05 -5.26 -14.72 -1352.22 -0.01 -0.03zm1871.64 1390.44l-191.61 -179.47 45.65 -931.73 -202.35 -9.89 -19.99 408.19 -223.45 683.36 -136.64 -127.71 -283.96 -996.41 -201.87 -9.91 193.57 179.29 -45.57 930.88 -193.63 -179.22 45.62 -930.96 -192.26 -175.87 572.52 28.06 131.41 618.12 -25.85 536.02 380.07 -963.84 -162.09 -174.5 572.51 28.07 -62.11 1267.51 0.04 0zm-539.91 -1338.7l-154.11 483.17 -105.5 -495.92 -646.09 -31.57 -66.1 1349.52 485.41 23.81 20.61 -420.22 95.33 426.43 348.76 17.11 136.91 -418.75 -20.8 424.94 485.46 23.81 66.17 -1350.64 -646.06 -31.67 0.02 -0.03zm1514.55 1040.02l-27.76 233.36 -220.66 144.1 55.07 -457.42 -281.03 -846.75 259.83 193.44 214.55 733.26 53.14 -435.3 212.87 -402.37 414.96 49.9 -298.06 126.33 -382.91 661.43zm242.8 -882.37l-179.31 334.61 -89.01 -366.93 -509.09 -61.2 298.71 900.26 -58.8 489.55 483.46 58.13 58.87 -489.56 503.48 -803.78 -508.31 -61.09 0 0zm-6810.14 1273.9l-220.66 -140.23 -124.86 -929.84 220.66 140.23 124.86 929.86 0 -0.02zm-619.13 -1033.61l-213.07 -133.94 930.33 -124.94 43.9 326.82 -221.24 -140.41 -539.91 72.48 -0.02 -0.01zm807.86 103.75l-54.97 -409.48 -1012.69 136.07 54.96 409.39 264.18 -35.46 124.86 929.86 481.77 -64.7 -124.94 -929.88 266.84 -35.81 -0 0zm1098.65 294.52l-0.08 0.1c-31.76,37.02 -77.85,58.23 -126.53,58.23 -91.93,0 -166.7,-74.81 -166.7,-166.73 0,-38.5 13.5,-76.07 37.94,-105.69 31.76,-38.69 78.68,-60.89 128.78,-60.89 92,0 166.78,74.77 166.78,166.6 0,39.88 -14.26,78.41 -40.17,108.39l-0.01 -0.01zm-126.72 -532.31c-131.14,0 -248.35,59.51 -326.17,153.08l165.41 138.77c-29.52,35.91 -47.3,81.89 -47.3,132.07 0,114.96 93.13,208.18 208.18,208.18 63.22,0 119.87,-28.25 157.99,-72.75l165.33 138.74c62.75,-73.97 100.52,-169.67 100.52,-274.17 0,-234.09 -189.76,-423.92 -423.94,-423.92l-0.01 0zm126.72 532.31l-0.08 0.1c-31.76,37.02 -77.85,58.23 -126.53,58.23 -91.93,0 -166.7,-74.81 -166.7,-166.73 0,-38.5 13.5,-76.07 37.94,-105.69 31.76,-38.69 78.68,-60.89 128.78,-60.89 92,0 166.78,74.77 166.78,166.6 0,39.88 -14.26,78.41 -40.17,108.39l-0.01 -0.01zm-126.72 -532.31c-131.14,0 -248.35,59.51 -326.17,153.08l165.41 138.77c-29.52,35.91 -47.3,81.89 -47.3,132.07 0,114.96 93.13,208.18 208.18,208.18 63.22,0 119.87,-28.25 157.99,-72.75l165.33 138.74c62.75,-73.97 100.52,-169.67 100.52,-274.17 0,-234.09 -189.76,-423.92 -423.94,-423.92l-0.01 0zm126.72 532.31l-0.08 0.1c-31.76,37.02 -77.85,58.23 -126.53,58.23 -91.93,0 -166.7,-74.81 -166.7,-166.73 0,-38.5 13.5,-76.07 37.94,-105.69 31.76,-38.69 78.68,-60.89 128.78,-60.89 92,0 166.78,74.77 166.78,166.6 0,39.88 -14.26,78.41 -40.17,108.39l-0.01 -0.01zm-126.72 -532.31c-131.14,0 -248.35,59.51 -326.17,153.08l165.41 138.77c-29.52,35.91 -47.3,81.89 -47.3,132.07 0,114.96 93.13,208.18 208.18,208.18 63.22,0 119.87,-28.25 157.99,-72.75l165.33 138.74c62.75,-73.97 100.52,-169.67 100.52,-274.17 0,-234.09 -189.76,-423.92 -423.94,-423.92l-0.01 0zm126.72 532.31l-0.08 0.1c-31.76,37.02 -77.85,58.23 -126.53,58.23 -91.93,0 -166.7,-74.81 -166.7,-166.73 0,-38.5 13.5,-76.07 37.94,-105.69 31.76,-38.69 78.68,-60.89 128.78,-60.89 92,0 166.78,74.77 166.78,166.6 0,39.88 -14.26,78.41 -40.17,108.39l-0.01 -0.01zm-126.72 -532.31c-131.14,0 -248.35,59.51 -326.17,153.08l165.41 138.77c-29.52,35.91 -47.3,81.89 -47.3,132.07 0,114.96 93.13,208.18 208.18,208.18 63.22,0 119.87,-28.25 157.99,-72.75l165.33 138.74c62.75,-73.97 100.52,-169.67 100.52,-274.17 0,-234.09 -189.76,-423.92 -423.94,-423.92l-0.01 0zm126.72 532.31l-0.08 0.1c-31.76,37.02 -77.85,58.23 -126.53,58.23 -91.93,0 -166.7,-74.81 -166.7,-166.73 0,-38.5 13.5,-76.07 37.94,-105.69 31.76,-38.69 78.68,-60.89 128.78,-60.89 92,0 166.78,74.77 166.78,166.6 0,39.88 -14.26,78.41 -40.17,108.39l-0.01 -0.01zm-126.72 -532.31c-131.14,0 -248.35,59.51 -326.17,153.08l165.41 138.77c-29.52,35.91 -47.3,81.89 -47.3,132.07 0,114.96 93.13,208.18 208.18,208.18 63.22,0 119.87,-28.25 157.99,-72.75l165.33 138.74c62.75,-73.97 100.52,-169.67 100.52,-274.17 0,-234.09 -189.76,-423.92 -423.94,-423.92l-0.01 0zm126.72 532.31l-0.08 0.1c-31.76,37.02 -77.85,58.23 -126.53,58.23 -91.93,0 -166.7,-74.81 -166.7,-166.73 0,-38.5 13.5,-76.07 37.94,-105.69 31.76,-38.69 78.68,-60.89 128.78,-60.89 92,0 166.78,74.77 166.78,166.6 0,39.88 -14.26,78.41 -40.17,108.39l-0.01 -0.01zm-126.72 -532.31c-131.14,0 -248.35,59.51 -326.17,153.08l165.41 138.77c-29.52,35.91 -47.3,81.89 -47.3,132.07 0,114.96 93.13,208.18 208.18,208.18 63.22,0 119.87,-28.25 157.99,-72.75l165.33 138.74c62.75,-73.97 100.52,-169.67 100.52,-274.17 0,-234.09 -189.76,-423.92 -423.94,-423.92l-0.01 0zm126.72 532.31l-0.08 0.1c-31.76,37.02 -77.85,58.23 -126.53,58.23 -91.93,0 -166.7,-74.81 -166.7,-166.73 0,-38.5 13.5,-76.07 37.94,-105.69 31.76,-38.69 78.68,-60.89 128.78,-60.89 92,0 166.78,74.77 166.78,166.6 0,39.88 -14.26,78.41 -40.17,108.39l-0.01 -0.01zm-126.72 -532.31c-131.14,0 -248.35,59.51 -326.17,153.08l165.41 138.77c-29.52,35.91 -47.3,81.89 -47.3,132.07 0,114.96 93.13,208.18 208.18,208.18 63.22,0 119.87,-28.25 157.99,-72.75l165.33 138.74c62.75,-73.97 100.52,-169.67 100.52,-274.17 0,-234.09 -189.76,-423.92 -423.94,-423.92l-0.01 0zm126.72 532.31l-0.08 0.1c-31.76,37.02 -77.85,58.23 -126.53,58.23 -91.93,0 -166.7,-74.81 -166.7,-166.73 0,-38.5 13.5,-76.07 37.94,-105.69 31.76,-38.69 78.68,-60.89 128.78,-60.89 92,0 166.78,74.77 166.78,166.6 0,39.88 -14.26,78.41 -40.17,108.39l-0.01 -0.01zm-126.72 -532.31c-131.14,0 -248.35,59.51 -326.17,153.08l165.41 138.77c-29.52,35.91 -47.3,81.89 -47.3,132.07 0,114.96 93.13,208.18 208.18,208.18 63.22,0 119.87,-28.25 157.99,-72.75l165.33 138.74c62.75,-73.97 100.52,-169.67 100.52,-274.17 0,-234.09 -189.76,-423.92 -423.94,-423.92l-0.01 0zm126.72 532.31l-0.08 0.1c-31.76,37.02 -77.85,58.23 -126.53,58.23 -91.93,0 -166.7,-74.81 -166.7,-166.73 0,-38.5 13.5,-76.07 37.94,-105.69 31.76,-38.69 78.68,-60.89 128.78,-60.89 92,0 166.78,74.77 166.78,166.6 0,39.88 -14.26,78.41 -40.17,108.39l-0.01 -0.01zm-126.72 -532.31c-131.14,0 -248.35,59.51 -326.17,153.08l165.41 138.77c-29.52,35.91 -47.3,81.89 -47.3,132.07 0,114.96 93.13,208.18 208.18,208.18 63.22,0 119.87,-28.25 157.99,-72.75l165.33 138.74c62.75,-73.97 100.52,-169.67 100.52,-274.17 0,-234.09 -189.76,-423.92 -423.94,-423.92l-0.01 0zm126.72 532.31l-0.08 0.1c-31.76,37.02 -77.85,58.23 -126.53,58.23 -91.93,0 -166.7,-74.81 -166.7,-166.73 0,-38.5 13.5,-76.07 37.94,-105.69 31.76,-38.69 78.68,-60.89 128.78,-60.89 92,0 166.78,74.77 166.78,166.6 0,39.88 -14.26,78.41 -40.17,108.39l-0.01 -0.01zm-126.72 -532.31c-131.14,0 -248.35,59.51 -326.17,153.08l165.41 138.77c-29.52,35.91 -47.3,81.89 -47.3,132.07 0,114.96 93.13,208.18 208.18,208.18 63.22,0 119.87,-28.25 157.99,-72.75l165.33 138.74c62.75,-73.97 100.52,-169.67 100.52,-274.17 0,-234.09 -189.76,-423.92 -423.94,-423.92l-0.01 0zm126.72 532.31l-0.08 0.1c-31.76,37.02 -77.85,58.23 -126.53,58.23 -91.93,0 -166.7,-74.81 -166.7,-166.73 0,-38.5 13.5,-76.07 37.94,-105.69 31.76,-38.69 78.68,-60.89 128.78,-60.89 92,0 166.78,74.77 166.78,166.6 0,39.88 -14.26,78.41 -40.17,108.39l-0.01 -0.01zm-126.72 -532.31c-131.14,0 -248.35,59.51 -326.17,153.08l165.41 138.77c-29.52,35.91 -47.3,81.89 -47.3,132.07 0,114.96 93.13,208.18 208.18,208.18 63.22,0 119.87,-28.25 157.99,-72.75l165.33 138.74c62.75,-73.97 100.52,-169.67 100.52,-274.17 0,-234.09 -189.76,-423.92 -423.94,-423.92l-0.01 0zm484.75 833.41l-161.33 -135.32c-77.77,91.62 -193.74,149.85 -323.43,149.85 -234.18,0 -423.92,-189.82 -423.92,-424.02 0,-103 36.66,-197.33 97.75,-270.84l-161.26 -135.32c116.38,-139.58 291.59,-228.34 487.53,-228.34 350.43,0 634.5,284.17 634.5,634.5 0,156.07 -56.29,298.96 -149.86,409.48l0.01 0.01zm-484.65 -1085.64c-201.23,0 -390.51,88.69 -519.44,243.35 -101.1,121.17 -156.81,274.92 -156.81,432.81 0,372.93 303.42,676.26 676.25,676.26 199.45,0 387.74,-87.36 516.48,-239.83 103.03,-121.63 159.74,-276.66 159.74,-436.41 0,-372.83 -303.32,-676.15 -676.22,-676.15l0 -0.02zm126.61 784.54l-0.08 0.1c-31.75,37.02 -77.85,58.23 -126.53,58.23 -91.93,0 -166.7,-74.81 -166.7,-166.73 0,-38.5 13.5,-76.07 37.94,-105.69 31.76,-38.69 78.68,-60.89 128.78,-60.89 92,0 166.78,74.77 166.78,166.6 0,39.88 -14.26,78.41 -40.17,108.39l-0.01 -0.01zm-126.72 -532.31c-131.14,0 -248.35,59.51 -326.17,153.08l165.41 138.77c-29.52,35.91 -47.3,81.89 -47.3,132.07 0,114.96 93.13,208.18 208.18,208.18 63.22,0 119.87,-28.25 157.99,-72.75l165.33 138.74c62.75,-73.97 100.52,-169.67 100.52,-274.17 0,-234.09 -189.76,-423.92 -423.94,-423.92l-0.01 0zm126.72 532.31l-0.08 0.1c-31.75,37.02 -77.85,58.23 -126.53,58.23 -91.93,0 -166.7,-74.81 -166.7,-166.73 0,-38.5 13.5,-76.07 37.94,-105.69 31.76,-38.69 78.68,-60.89 128.78,-60.89 92,0 166.78,74.77 166.78,166.6 0,39.88 -14.26,78.41 -40.17,108.39l-0.01 -0.01zm-126.72 -532.31c-131.14,0 -248.35,59.51 -326.17,153.08l165.41 138.77c-29.52,35.91 -47.3,81.89 -47.3,132.07 0,114.96 93.13,208.18 208.18,208.18 63.22,0 119.87,-28.25 157.99,-72.75l165.33 138.74c62.75,-73.97 100.52,-169.67 100.52,-274.17 0,-234.09 -189.76,-423.92 -423.94,-423.92l-0.01 0zm126.72 532.31l-0.08 0.1c-31.75,37.02 -77.85,58.23 -126.53,58.23 -91.93,0 -166.7,-74.81 -166.7,-166.73 0,-38.5 13.5,-76.07 37.94,-105.69 31.76,-38.69 78.68,-60.89 128.78,-60.89 92,0 166.78,74.77 166.78,166.6 0,39.88 -14.26,78.41 -40.17,108.39l-0.01 -0.01zm-126.72 -532.31c-131.14,0 -248.35,59.51 -326.17,153.08l165.41 138.77c-29.52,35.91 -47.3,81.89 -47.3,132.07 0,114.96 93.13,208.18 208.18,208.18 63.22,0 119.87,-28.25 157.99,-72.75l165.33 138.74c62.75,-73.97 100.52,-169.67 100.52,-274.17 0,-234.09 -189.76,-423.92 -423.94,-423.92l-0.01 0zm126.72 532.31l-0.08 0.1c-31.75,37.02 -77.85,58.23 -126.53,58.23 -91.93,0 -166.7,-74.81 -166.7,-166.73 0,-38.5 13.5,-76.07 37.94,-105.69 31.76,-38.69 78.68,-60.89 128.78,-60.89 92,0 166.78,74.77 166.78,166.6 0,39.88 -14.26,78.41 -40.17,108.39l-0.01 -0.01zm-126.72 -532.31c-131.14,0 -248.35,59.51 -326.17,153.08l165.41 138.77c-29.52,35.91 -47.3,81.89 -47.3,132.07 0,114.96 93.13,208.18 208.18,208.18 63.22,0 119.87,-28.25 157.99,-72.75l165.33 138.74c62.75,-73.97 100.52,-169.67 100.52,-274.17 0,-234.09 -189.76,-423.92 -423.94,-423.92l-0.01 0zm126.72 532.31l-0.08 0.1c-31.75,37.02 -77.85,58.23 -126.53,58.23 -91.93,0 -166.7,-74.81 -166.7,-166.73 0,-38.5 13.5,-76.07 37.94,-105.69 31.76,-38.69 78.68,-60.89 128.78,-60.89 92,0 166.78,74.77 166.78,166.6 0,39.88 -14.26,78.41 -40.17,108.39l-0.01 -0.01zm-126.72 -532.31c-131.14,0 -248.35,59.51 -326.17,153.08l165.41 138.77c-29.52,35.91 -47.3,81.89 -47.3,132.07 0,114.96 93.13,208.18 208.18,208.18 63.22,0 119.87,-28.25 157.99,-72.75l165.33 138.74c62.75,-73.97 100.52,-169.67 100.52,-274.17 0,-234.09 -189.76,-423.92 -423.94,-423.92l-0.01 0zm126.72 532.31l-0.08 0.1c-31.75,37.02 -77.85,58.23 -126.53,58.23 -91.93,0 -166.7,-74.81 -166.7,-166.73 0,-38.5 13.5,-76.07 37.94,-105.69 31.76,-38.69 78.68,-60.89 128.78,-60.89 92,0 166.78,74.77 166.78,166.6 0,39.88 -14.26,78.41 -40.17,108.39l-0.01 -0.01zm-126.72 -532.31c-131.14,0 -248.35,59.51 -326.17,153.08l165.41 138.77c-29.52,35.91 -47.3,81.89 -47.3,132.07 0,114.96 93.13,208.18 208.18,208.18 63.22,0 119.87,-28.25 157.99,-72.75l165.33 138.74c62.75,-73.97 100.52,-169.67 100.52,-274.17 0,-234.09 -189.76,-423.92 -423.94,-423.92l-0.01 0zm126.72 532.31l-0.08 0.1c-31.75,37.02 -77.85,58.23 -126.53,58.23 -91.93,0 -166.7,-74.81 -166.7,-166.73 0,-38.5 13.5,-76.07 37.94,-105.69 31.76,-38.69 78.68,-60.89 128.78,-60.89 92,0 166.78,74.77 166.78,166.6 0,39.88 -14.26,78.41 -40.17,108.39l-0.01 -0.01zm-126.72 -532.31c-131.14,0 -248.35,59.51 -326.17,153.08l165.41 138.77c-29.52,35.91 -47.3,81.89 -47.3,132.07 0,114.96 93.13,208.18 208.18,208.18 63.22,0 119.87,-28.25 157.99,-72.75l165.33 138.74c62.75,-73.97 100.52,-169.67 100.52,-274.17 0,-234.09 -189.76,-423.92 -423.94,-423.92l-0.01 0zm126.72 532.31l-0.08 0.1c-31.75,37.02 -77.85,58.23 -126.53,58.23 -91.93,0 -166.7,-74.81 -166.7,-166.73 0,-38.5 13.5,-76.07 37.94,-105.69 31.76,-38.69 78.68,-60.89 128.78,-60.89 92,0 166.78,74.77 166.78,166.6 0,39.88 -14.26,78.41 -40.17,108.39l-0.01 -0.01zm-126.72 -532.31c-131.14,0 -248.35,59.51 -326.17,153.08l165.41 138.77c-29.52,35.91 -47.3,81.89 -47.3,132.07 0,114.96 93.13,208.18 208.18,208.18 63.22,0 119.87,-28.25 157.99,-72.75l165.33 138.74c62.75,-73.97 100.52,-169.67 100.52,-274.17 0,-234.09 -189.76,-423.92 -423.94,-423.92l-0.01 0zm126.72 532.31l-0.08 0.1c-31.75,37.02 -77.85,58.23 -126.53,58.23 -91.93,0 -166.7,-74.81 -166.7,-166.73 0,-38.5 13.5,-76.07 37.94,-105.69 31.76,-38.69 78.68,-60.89 128.78,-60.89 92,0 166.78,74.77 166.78,166.6 0,39.88 -14.26,78.41 -40.17,108.39l-0.01 -0.01zm-126.72 -532.31c-131.14,0 -248.35,59.51 -326.17,153.08l165.41 138.77c-29.52,35.91 -47.3,81.89 -47.3,132.07 0,114.96 93.13,208.18 208.18,208.18 63.22,0 119.87,-28.25 157.99,-72.75l165.33 138.74c62.75,-73.97 100.52,-169.67 100.52,-274.17 0,-234.09 -189.76,-423.92 -423.94,-423.92l-0.01 0zm126.72 532.31l-0.08 0.1c-31.75,37.02 -77.85,58.23 -126.53,58.23 -91.93,0 -166.7,-74.81 -166.7,-166.73 0,-38.5 13.5,-76.07 37.94,-105.69 31.76,-38.69 78.68,-60.89 128.78,-60.89 92,0 166.78,74.77 166.78,166.6 0,39.88 -14.26,78.41 -40.17,108.39l-0.01 -0.01zm-126.72 -532.31c-131.14,0 -248.35,59.51 -326.17,153.08l165.41 138.77c-29.52,35.91 -47.3,81.89 -47.3,132.07 0,114.96 93.13,208.18 208.18,208.18 63.22,0 119.87,-28.25 157.99,-72.75l165.33 138.74c62.75,-73.97 100.52,-169.67 100.52,-274.17 0,-234.09 -189.76,-423.92 -423.94,-423.92l-0.01 0zm126.72 532.31l-0.08 0.1c-31.75,37.02 -77.85,58.23 -126.53,58.23 -91.93,0 -166.7,-74.81 -166.7,-166.73 0,-38.5 13.5,-76.07 37.94,-105.69 31.76,-38.69 78.68,-60.89 128.78,-60.89 92,0 166.78,74.77 166.78,166.6 0,39.88 -14.26,78.41 -40.17,108.39l-0.01 -0.01zm-126.72 -532.31c-131.14,0 -248.35,59.51 -326.17,153.08l165.41 138.77c-29.52,35.91 -47.3,81.89 -47.3,132.07 0,114.96 93.13,208.18 208.18,208.18 63.22,0 119.87,-28.25 157.99,-72.75l165.33 138.74c62.75,-73.97 100.52,-169.67 100.52,-274.17 0,-234.09 -189.76,-423.92 -423.94,-423.92l-0.01 0zm6384.13 -21.11c-0.26,-0.26 -0.62,-0.46 -1.09,-0.57l-54.05 -6.46c-0.46,0 -0.84,0.08 -1.22,0.28 -0.27,0.27 -0.46,0.65 -0.46,1.12l-1.69 13.4c-0.08,0.57 0,0.96 0.3,1.22 0.26,0.26 0.54,0.46 1.11,0.56l16.66 2.03c0.26,0 0.46,0.18 0.36,0.56l-6.31 52.94c-0.1,0.46 0,0.84 0.28,1.19 0.18,0.29 0.56,0.49 1.02,0.57l16.2 1.95c0.46,0 0.83,-0.08 1.12,-0.26 0.35,-0.31 0.55,-0.65 0.55,-1.11l6.39 -52.94c0.08,-0.38 0.26,-0.46 0.55,-0.46l17.21 2.02c0.46,0.08 0.84,0 1.22,-0.3 0.26,-0.15 0.46,-0.55 0.46,-1.01l1.67 -13.53c0.08,-0.46 0,-0.8 -0.31,-1.17l0.02 -0.04zm75.92 9.17c-0.2,-0.26 -0.56,-0.46 -1.02,-0.56l-15.93 -1.95c-0.81,-0.08 -1.48,0.2 -2.02,0.83l-15.37 19.17c-0.2,0.46 -0.46,0.39 -0.56,0l-10.46 -22.32c-0.26,-0.73 -0.83,-1.19 -1.67,-1.3l-15.9 -1.82c-0.55,-0.1 -0.95,0 -1.2,0.26 -0.31,0.2 -0.46,0.55 -0.55,1.04l-8.25 68.46c-0.11,0.49 0,0.94 0.26,1.22 0.27,0.29 0.56,0.46 1.14,0.56l16.07 1.95c0.48,0 0.86,-0.08 1.22,-0.27 0.3,-0.28 0.49,-0.69 0.56,-1.14l4.46 -37.11c0,-0.26 0.1,-0.35 0.29,-0.35 0.08,-0.11 0.24,0 0.34,0.26l5.55 12.13c0.38,0.76 0.94,1.2 1.76,1.29l7.8 0.91c0.73,0.1 1.48,-0.2 1.95,-0.84l8.33 -10.46c0.1,-0.2 0.27,-0.26 0.35,-0.2 0.2,0 0.2,0.2 0.2,0.49l-4.44 37.11c-0.08,0.46 0,0.84 0.28,1.11 0.2,0.38 0.55,0.57 1.04,0.57l16.2 1.95c0.46,0.08 0.83,0 1.22,-0.27 0.24,-0.21 0.44,-0.56 0.44,-1.06l8.24 -68.49c0.11,-0.54 0,-0.93 -0.26,-1.19l-0.07 0.02zm-79.34 85.52c-0.2,-0.27 -0.57,-0.46 -1.01,-0.56l-16.04 -1.95c-0.72,-0.08 -1.48,0.18 -1.94,0.83l-15.32 19.18c-0.3,0.46 -0.49,0.38 -0.67,0l-10.38 -22.32c-0.26,-0.73 -0.81,-1.19 -1.66,-1.3l-16 -1.83c-0.46,-0.1 -0.84,0 -1.12,0.28 -0.37,0.18 -0.52,0.54 -0.52,0.99l-8.26 68.49c-0.1,0.49 0,0.96 0.28,1.22 0.18,0.3 0.55,0.46 1.11,0.57l16.09 1.94c0.49,0 0.85,-0.1 1.22,-0.29 0.26,-0.26 0.46,-0.65 0.46,-1.09l4.56 -37.13c0,-0.26 0.08,-0.35 0.26,-0.44 0.1,0 0.15,0.1 0.35,0.36l5.55 12.13c0.38,0.76 0.94,1.22 1.78,1.29l7.67 0.93c0.84,0.1 1.48,-0.18 2.03,-0.83l8.36 -10.46c0.08,-0.2 0.25,-0.26 0.35,-0.26 0.18,0.08 0.18,0.26 0.18,0.56l-4.44 37.13c-0.08,0.46 0,0.8 0.31,1.09 0.18,0.39 0.54,0.56 0.98,0.56l16.24 1.92c0.42,0.1 0.81,0 1.11,-0.26 0.34,-0.2 0.54,-0.55 0.54,-1.04l8.26 -68.49c0.08,-0.46 0,-0.93 -0.3,-1.19l-0.04 -0.01zm64.23 18.32c-1.92,-3.97 -4.81,-7.22 -8.88,-9.81 -3.98,-2.59 -8.78,-4.18 -14.34,-4.8 -5.65,-0.76 -10.64,-0.2 -15.2,1.44 -4.52,1.69 -8.21,4.37 -11,8 -2.86,3.69 -4.52,8.13 -5.17,13.32l-2.51 20.65c-0.67,5.29 0,10 1.82,14.26 1.89,4.26 4.82,7.76 8.79,10.46 4.02,2.68 8.8,4.33 14.36,4.99 5.66,0.76 10.65,0.29 15.17,-1.29 4.52,-1.6 8.15,-4.07 11,-7.6 2.8,-3.42 4.44,-7.57 5.12,-12.48 0,-0.65 -0.49,-1.02 -1.48,-1.17l-16.04 -2.8c-0.44,-0.17 -0.8,-0.08 -1.11,0.11 -0.35,0.18 -0.54,0.46 -0.54,0.83 -0.38,2.67 -1.4,4.8 -3.24,6.28 -1.85,1.49 -4.16,2.05 -6.84,1.76 -2.8,-0.33 -4.82,-1.48 -6.31,-3.32 -1.37,-1.85 -1.94,-4.16 -1.56,-6.84l2.55 -22.01c0.39,-2.78 1.4,-4.91 3.27,-6.41 1.87,-1.46 4.18,-2.02 6.85,-1.66 2.78,0.28 4.8,1.37 6.31,3.24 1.37,1.84 1.94,4.15 1.53,7.04 -0.06,0.76 0.29,1.09 1.12,1.2l0.38 0.08 16.21 0.91c1.09,0 1.64,-0.35 1.64,-0.91 0.67,-5 0,-9.45 -1.95,-13.42l0.04 -0.03zm-4770.78 1494.56c-16.36,-9.73 -38.92,-16.33 -58.41,-16.33 -36.99,0 -59.95,24.13 -59.95,62.67 0,39.33 20.65,63.85 59.95,63.85 22.59,0 42.83,-6.63 61.91,-17.92l16.74 65.8c-18.67,9.73 -53.72,16.38 -82.54,16.38 -81.4,0 -133.15,-42.47 -133.15,-126.54 0,-79.06 50.98,-128.49 136.28,-128.49 30.76,0 59.17,7.01 82.13,17.14l-22.97 63.45zm242.33 -19.83l-27.26 85.26 52.94 0 -25.69 -85.26zm131.61 188.41l-75.91 0 -15.21 -45.55 -82.54 0 -14.4 45.55 -75.54 0 83.7 -243.33 97.75 0 82.13 243.33 0.02 0zm101.03 -243.35l186.12 0 0 61.54 -110.58 0 0 35.06 86.42 0 0 60.74 -86.42 0 0 86.01 -75.52 0 0 -243.35 -0.02 0zm415.2 -12.44l-44.74 0 37.39 -72.81 77.86 0 -70.51 72.81 -0.01 0zm-117.56 255.78l0 -243.33 190.02 0 0 59.57 -115.26 0 0 31.96 91.1 0 0 59.54 -91.1 0 0 32.72 115.26 0 0 59.54 -190.02 0 0 0.01zm-1132.98 -101.43l-486.7 0 0 -40.43 486.7 0 0 40.43zm1976.63 0l-486.7 0 0 -40.43 486.7 0 0 40.43zm-3291.05 -1655.91c-131.14,0 -248.35,59.51 -326.17,153.08l165.41 138.77c-29.52,35.91 -47.3,81.89 -47.3,132.07 0,114.96 93.13,208.18 208.18,208.18 63.22,0 119.87,-28.25 157.99,-72.75l165.33 138.74c62.75,-73.97 100.52,-169.67 100.52,-274.17 0,-234.09 -189.76,-423.92 -423.94,-423.92l-0.01 0zm126.72 532.31l-0.08 0.1c-31.76,37.02 -77.85,58.22 -126.53,58.22 -91.93,0 -166.7,-74.81 -166.7,-166.72 0,-38.5 13.5,-76.07 37.94,-105.7 31.76,-38.68 78.68,-60.89 128.78,-60.89 92,0 166.78,74.77 166.78,166.6 0,39.89 -14.26,78.41 -40.17,108.39l-0.01 -0z"/>
 </g>
</svg>
